<svg xmlns="http://www.w3.org/2000/svg" viewBox="0 0 29.87 5.77"><defs><style>.cls-1{fill:#fff;}</style></defs><title>arrow--left</title><g id="Layer_2" data-name="Layer 2"><g id="Layer_1-2" data-name="Layer 1"><path class="cls-1" d="M24.22,3.11H12.71a.24.24,0,1,1,0-.47H24.22a.24.24,0,0,1,0,.47Z"/><path class="cls-1" d="M6.31,4.76H6.25L.17,3.1a.24.24,0,0,1,0-.46L6.25,1a.24.24,0,0,1,.19,0l2.5,1.66a.24.24,0,0,1,0,.39L6.44,4.72A.24.24,0,0,1,6.31,4.76ZM1.13,2.87l5.14,1.4,2.12-1.4L6.27,1.47Z"/><path class="cls-1" d="M25.57,4.21a1.34,1.34,0,1,1,1.34-1.34A1.34,1.34,0,0,1,25.57,4.21Zm0-2.21a.87.87,0,1,0,.87.87A.87.87,0,0,0,25.57,2Z"/><path class="cls-1" d="M28.26,4.48a1.61,1.61,0,1,1,1.61-1.61A1.61,1.61,0,0,1,28.26,4.48Zm0-2.75A1.14,1.14,0,1,0,29.4,2.87,1.14,1.14,0,0,0,28.26,1.73Z"/><path class="cls-1" d="M12.14,2.56H10a.24.24,0,0,1-.16-.07L7.74.4A.24.24,0,0,1,7.91,0H10a.24.24,0,0,1,.17.07l2.06,2.06a.24.24,0,0,1-.14.43Zm-2-.47h1.42L9.95.47H8.49Z"/><path class="cls-1" d="M10,5.77H7.91a.24.24,0,0,1-.17-.4L9.83,3.28A.24.24,0,0,1,10,3.21h2.14a.24.24,0,0,1,.16.4L10.16,5.7A.24.24,0,0,1,10,5.77ZM8.48,5.3H9.9l1.66-1.61H10.09Z"/></g></g></svg>