<?xml version="1.0" encoding="utf-8"?>
<!-- Generator: Adobe Illustrator 21.0.0, SVG Export Plug-In . SVG Version: 6.00 Build 0)  -->
<svg version="1.1" id="Layer_1" xmlns="http://www.w3.org/2000/svg" xmlns:xlink="http://www.w3.org/1999/xlink" x="0px" y="0px"
	 viewBox="0 0 452 775" style="enable-background:new 0 0 452 775;" xml:space="preserve">
<style type="text/css">
	.st0{fill:none;stroke:#FFFFFF;stroke-width:2;stroke-miterlimit:10;}
	.st1{fill:none;stroke:#FFFFFF;stroke-width:5;stroke-miterlimit:10;}
	.st2{fill:none;stroke:#FFFFFF;stroke-width:3;stroke-miterlimit:10;}
</style>
<polyline id="line7" class="st0" points="452,1 113,1 1,95.1 1,761 "/>
<polyline id="line6" class="st1" points="431.7,10.2 78.4,9.9 10.5,67.1 10.5,760 "/>
<path id="line5" class="st0" d="M410,23H105L26.1,88.2c1.1-0.4,2.3-0.6,3.5-0.6c5.6,0,10.2,4.2,10.7,9.8L40,42.2"/>
<path id="line4" class="st0" d="M20,772V106l0.4,0.4c7.8,7.9,12,8,19.3-0.8l0.4-0.4V771"/>
<path class="st0" d="M30,775V104"/>
<polyline id="line2" class="st2" points="48.5,760 48.5,87 142,8.5 "/>
<polyline id="line1" class="st0" points="140.1,23 57,94.4 57,761 "/>
</svg>
