<?xml version="1.0" encoding="utf-8"?>
<!-- Generator: Adobe Illustrator 21.0.0, SVG Export Plug-In . SVG Version: 6.00 Build 0)  -->
<svg version="1.1" id="Layer_1" xmlns="http://www.w3.org/2000/svg" xmlns:xlink="http://www.w3.org/1999/xlink" x="0px" y="0px"
	 viewBox="0 0 452 775" style="enable-background:new 0 0 452 775;" xml:space="preserve">
<style type="text/css">
	.st0{fill:none;stroke:#FFFFFF;stroke-width:2;stroke-miterlimit:10;}
	.st1{fill:none;stroke:#FFFFFF;stroke-width:5;stroke-miterlimit:10;}
	.st2{fill:none;stroke:#FFFFFF;stroke-width:3;stroke-miterlimit:10;}
</style>
<polyline id="path7" class="st0" points="3,1 339,1 451,95.1 451,761 "/>
<polyline id="path6" class="st1" points="39,10.2 373.6,9.9 441.5,67.1 441.5,760 "/>
<path id="path5" class="st0" d="M432,772V106l-0.4,0.4c-7.8,7.9-12,8-19.3-0.8l-0.4-0.4V771"/>
<line id="path4" class="st0" x1="422" y1="775" x2="422" y2="104"/>
<path id="path3" class="st0" d="M70,23h277l78.9,65.2c-1.1-0.4-2.3-0.6-3.5-0.6c-5.6,0-10.2,4.2-10.7,9.8l0.3-55.1"/>
<polyline id="path2" class="st2" points="403.5,760 403.5,87 310,8.5 "/>
<polyline id="path1" class="st0" points="311.9,23 395,94.4 395,761 "/>
</svg>
