<?xml version="1.0" encoding="utf-8"?>
<!-- Generator: Adobe Illustrator 21.0.0, SVG Export Plug-In . SVG Version: 6.00 Build 0)  -->
<svg version="1.1" id="Layer_2" xmlns="http://www.w3.org/2000/svg" xmlns:xlink="http://www.w3.org/1999/xlink" x="0px" y="0px"
	 viewBox="0 0 70 70" style="enable-background:new 0 0 70 70;" xml:space="preserve">
<style type="text/css">
	.st0{fill:none;stroke:#000000;stroke-width:2.5;stroke-miterlimit:10;}
	.st1{fill:none;stroke:#000000;stroke-width:1.5;stroke-linejoin:round;stroke-miterlimit:10;}
	.st2{fill:none;stroke:#000000;stroke-width:1.5;stroke-linecap:round;stroke-miterlimit:10;}
	.st3{fill:none;stroke:#000000;stroke-width:2;stroke-linecap:round;stroke-linejoin:round;stroke-miterlimit:10;}
	.st4{fill:none;stroke:#000000;stroke-linecap:round;stroke-linejoin:round;stroke-miterlimit:10;}
</style>
<polyline id="p13" class="st0" points="1.1,47.4 1.1,0.9 47.2,0.9 "/>
<path id="p12" class="st1" d="M10.8,0"/>
<path id="p11" class="st1" d="M4.7,0"/>
<path id="p10" class="st2" d="M7.8,17.1"/>
<path id="p9" class="st1" d="M0,10.9L61.1,11c0.2,0,0.3-0.2,0.1-0.3L57.1,8c-0.1-0.1-0.1-0.2,0-0.3l4.1-2.7c0.1-0.1,0.1-0.3-0.1-0.3
	L0,4.8"/>
<path id="p8_1_" class="st2" d="M17.1,7.8H67"/>
<path id="p7" class="st1" d="M15.8,10.6"/>
<path id="p6" class="st1" d="M15.8,4.5"/>
<path id="p5" class="st2" d="M-1.4,7.5"/>
<path id="p4" class="st1" d="M4.9,0L4.7,61.1c0,0.2,0.2,0.3,0.3,0.1l2.7-4.1C7.9,57,8,57,8.1,57.1l2.7,4.1c0.1,0.1,0.3,0.1,0.3-0.1
	L11,0"/>
<path id="p3_1_" class="st2" d="M7.9,67V17.1"/>
<polyline id="p2" class="st3" points="13.8,33 13.8,13.8 32.8,13.8 "/>
<polyline id="p1" class="st4" points="13.5,13.6 20.5,20.6 30,21.2 36,25.9 30.8,25.8 30,21.2 25.5,25.7 30.8,25.8 32.2,32.4 
	25.5,25.7 32.2,32.4 25.4,31 25.5,35.8 21,30.3 25.4,31 25.5,25.7 21,30.3 20.5,20.6 25.5,25.7 "/>
</svg>
