<?xml version="1.0" encoding="utf-8"?>
<!-- Generator: Adobe Illustrator 21.0.0, SVG Export Plug-In . SVG Version: 6.00 Build 0)  -->
<svg version="1.1" id="Layer_1" xmlns="http://www.w3.org/2000/svg" xmlns:xlink="http://www.w3.org/1999/xlink" x="0px" y="0px"
	 viewBox="0 0 410.1 204" style="enable-background:new 0 0 410.1 204;" xml:space="preserve">
<style type="text/css">
	.st0{fill:#FFFFFF;stroke:#000000;stroke-miterlimit:10;}
	.st1{fill:#FFFFFF;}
</style>
<title>header</title>
<g id="Layer_2">
	<g id="Layer_1-2">
		<g id="dotted-top">
			<path class="st0" d="M170.6,74.3h-1.8c-0.5,0-0.9-0.4-0.9-0.9c0-0.5,0.4-0.9,0.9-0.9h1.8c0.5,0,0.9,0.4,0.9,0.9
				S171.1,74.3,170.6,74.3C170.6,74.3,170.6,74.3,170.6,74.3L170.6,74.3z M163.3,74.3h-1.8c-0.5,0-0.9-0.4-0.9-0.9
				c0-0.5,0.4-0.9,0.9-0.9h1.8c0.5,0,0.9,0.4,0.9,0.9C164.2,73.9,163.8,74.3,163.3,74.3z M156.1,74.3h-1.8c-0.5,0-0.9-0.4-0.9-0.9
				c0-0.5,0.4-0.9,0.9-0.9h1.8c0.5,0,0.9,0.4,0.9,0.9C157,73.9,156.6,74.3,156.1,74.3z M148.8,74.3H147c-0.5,0-0.9-0.4-0.9-0.9
				c0-0.5,0.4-0.9,0.9-0.9h1.8c0.5,0,0.9,0.4,0.9,0.9C149.7,73.9,149.3,74.3,148.8,74.3L148.8,74.3z M141.5,74.3h-1.8
				c-0.5,0-0.9-0.4-0.9-0.9s0.4-0.9,0.9-0.9c0,0,0,0,0,0h1.8c0.5,0,0.9,0.4,0.9,0.9C142.4,73.9,142,74.3,141.5,74.3z M134.2,74.3
				h-1.8c-0.5,0-0.9-0.4-0.9-0.9s0.4-0.9,0.9-0.9c0,0,0,0,0,0h1.8c0.5,0,0.9,0.4,0.9,0.9C135.1,73.9,134.7,74.3,134.2,74.3z
				 M126.9,74.3h-1.8c-0.5,0-0.9-0.4-0.9-0.9s0.4-0.9,0.9-0.9c0,0,0,0,0,0h1.8c0.5,0,0.9,0.4,0.9,0.9S127.4,74.3,126.9,74.3
				C126.9,74.3,126.9,74.3,126.9,74.3z M119.7,74.3h-1.8c-0.5,0-0.9-0.4-0.9-0.9s0.4-0.9,0.9-0.9c0,0,0,0,0,0h1.8
				c0.5,0,0.9,0.4,0.9,0.9S120.2,74.3,119.7,74.3C119.7,74.3,119.7,74.3,119.7,74.3z M112.4,74.3h-1.8c-0.5,0-0.9-0.4-0.9-0.9
				c0-0.5,0.4-0.9,0.9-0.9h1.8c0.5,0,0.9,0.4,0.9,0.9S112.9,74.3,112.4,74.3C112.4,74.3,112.4,74.3,112.4,74.3z M105.1,74.3h-1.8
				c-0.5,0-0.9-0.4-0.9-0.9c0-0.5,0.4-0.9,0.9-0.9h1.8c0.5,0,0.9,0.4,0.9,0.9C106,73.9,105.6,74.3,105.1,74.3L105.1,74.3z
				 M97.8,74.3H96c-0.5,0-0.9-0.4-0.9-0.9c0-0.5,0.4-0.9,0.9-0.9h1.8c0.5,0,0.9,0.4,0.9,0.9C98.7,73.9,98.3,74.3,97.8,74.3
				L97.8,74.3z M90.5,74.3h-1.8c-0.5,0-0.9-0.4-0.9-0.9c0-0.5,0.4-0.9,0.9-0.9h1.8c0.5,0,0.9,0.4,0.9,0.9
				C91.5,73.9,91.1,74.3,90.5,74.3L90.5,74.3z M83.3,74.3h-1.8c-0.5,0-0.9-0.4-0.9-0.9c0-0.5,0.4-0.9,0.9-0.9h1.8
				c0.5,0,0.9,0.4,0.9,0.9C84.2,73.9,83.8,74.3,83.3,74.3L83.3,74.3z M76,74.3h-1.8c-0.5,0-0.9-0.4-0.9-0.9c0-0.5,0.4-0.9,0.9-0.9
				H76c0.5,0,0.9,0.4,0.9,0.9C76.9,73.9,76.5,74.3,76,74.3L76,74.3z M68.7,74.3h-1.8c-0.5,0-0.9-0.4-0.9-0.9c0-0.5,0.4-0.9,0.9-0.9
				h1.8c0.5,0,0.9,0.4,0.9,0.9C69.6,73.9,69.2,74.3,68.7,74.3L68.7,74.3z M61.4,74.3h-1.8c-0.5,0-0.9-0.4-0.9-0.9
				c0-0.5,0.4-0.9,0.9-0.9c0,0,0,0,0,0h1.8c0.5,0,0.9,0.4,0.9,0.9C62.4,73.9,62,74.3,61.4,74.3L61.4,74.3z M54.1,74.3h-1.8
				c-0.5,0-0.9-0.4-0.9-0.9c0-0.5,0.4-0.9,0.9-0.9c0,0,0,0,0,0h1.8c0.5,0,0.9,0.4,0.9,0.9C55.1,73.9,54.7,74.3,54.1,74.3L54.1,74.3z
				 M46.9,74.3h-1.8c-0.5,0-0.9-0.4-0.9-0.9c0-0.5,0.4-0.9,0.9-0.9c0,0,0,0,0,0h1.8c0.5,0,0.9,0.4,0.9,0.9
				C47.8,73.9,47.4,74.3,46.9,74.3C46.9,74.3,46.9,74.3,46.9,74.3L46.9,74.3z M39.6,74.3h-1.8c-0.5,0-0.9-0.4-0.9-0.9
				c0-0.5,0.4-0.9,0.9-0.9c0,0,0,0,0,0h1.8c0.5,0,0.9,0.4,0.9,0.9C40.5,73.9,40.1,74.3,39.6,74.3L39.6,74.3z M32.3,74.3h-1.8
				c-0.5,0-0.9-0.4-0.9-0.9c0-0.5,0.4-0.9,0.9-0.9c0,0,0,0,0,0h1.8c0.5,0,0.9,0.4,0.9,0.9C33.2,73.9,32.8,74.3,32.3,74.3L32.3,74.3z
				 M25,74.3h-1.8c-0.5,0-0.9-0.4-0.9-0.9c0-0.5,0.4-0.9,0.9-0.9h1.8c0.5,0,0.9,0.4,0.9,0.9C26,73.9,25.6,74.3,25,74.3
				C25.1,74.3,25.1,74.3,25,74.3L25,74.3z M17.7,74.3H16c-0.5,0-0.9-0.4-0.9-0.9c0-0.5,0.4-0.9,0.9-0.9h1.8c0.5,0,0.9,0.4,0.9,0.9
				C18.7,73.9,18.3,74.3,17.7,74.3C17.8,74.3,17.8,74.3,17.7,74.3L17.7,74.3z M10.5,74.3H8.7c-0.5,0-0.9-0.4-0.9-0.9
				s0.4-0.9,0.9-0.9c0,0,0,0,0,0h1.8c0.5,0,0.9,0.4,0.9,0.9S11,74.3,10.5,74.3C10.5,74.3,10.5,74.3,10.5,74.3L10.5,74.3z M3.2,74.3
				H1.4c-0.5,0-0.9-0.4-0.9-0.9s0.4-0.9,0.9-0.9c0,0,0,0,0,0h1.8c0.5,0,0.9,0.4,0.9,0.9S3.7,74.3,3.2,74.3
				C3.2,74.3,3.2,74.3,3.2,74.3L3.2,74.3z M176,74.3c-0.5,0-0.9-0.4-0.9-0.9c0-0.5,0.4-0.9,0.9-1c0.6,0,1.2-0.1,1.7-0.2
				c0.5,0,0.9,0.3,1,0.8c0,0.4-0.2,0.8-0.7,1c-0.6,0.1-1.2,0.2-1.9,0.2L176,74.3z M183,72.4c-0.5,0-0.9-0.4-0.9-0.9
				c0-0.4,0.2-0.7,0.5-0.8c0.5-0.2,1.1-0.5,1.6-0.8c0.5-0.2,1,0,1.2,0.4c0.2,0.4,0.1,0.9-0.3,1.2c-0.6,0.3-1.1,0.6-1.7,0.8
				C183.3,72.4,183.2,72.4,183,72.4L183,72.4z"/>
			<path class="st0" d="M238.6,73.4c0-0.5,0.4-0.9,0.9-0.9l0,0h1.8c0.5,0,0.9,0.4,0.9,0.9c0,0.5-0.4,0.9-0.9,0.9h-1.8
				C239,74.3,238.6,73.9,238.6,73.4z M245.9,73.4c0-0.5,0.4-0.9,0.9-0.9l0,0h1.8c0.5,0,0.9,0.4,0.9,0.9s-0.4,0.9-0.9,0.9
				c0,0,0,0,0,0h-1.8C246.3,74.3,245.9,73.9,245.9,73.4z M253.2,73.4c0-0.5,0.4-0.9,0.9-0.9l0,0h1.8c0.5,0,0.9,0.4,0.9,0.9
				s-0.4,0.9-0.9,0.9c0,0,0,0,0,0h-1.8C253.6,74.3,253.2,73.9,253.2,73.4z M260.4,73.4c0-0.5,0.4-0.9,0.9-0.9l0,0h1.8
				c0.5,0,0.9,0.4,0.9,0.9s-0.4,0.9-0.9,0.9c0,0,0,0,0,0h-1.8C260.8,74.3,260.4,73.9,260.4,73.4C260.4,73.4,260.4,73.4,260.4,73.4
				L260.4,73.4z M267.7,73.4c0-0.5,0.4-0.9,0.9-0.9l0,0h1.8c0.5,0,0.9,0.4,0.9,0.9c0,0.5-0.4,0.9-0.9,0.9h-1.8
				C268.1,74.3,267.7,73.9,267.7,73.4C267.7,73.4,267.7,73.4,267.7,73.4L267.7,73.4z M275,73.4c0-0.5,0.4-0.9,0.9-0.9l0,0h1.8
				c0.5,0,0.9,0.4,0.9,0.9c0,0.5-0.4,0.9-0.9,0.9h-1.8C275.4,74.3,275,73.9,275,73.4z M282.3,73.4c0-0.5,0.4-0.9,0.9-0.9l0,0h1.8
				c0.5,0,0.9,0.4,0.9,0.9c0,0.5-0.4,0.9-0.9,0.9h-1.8C282.7,74.3,282.3,73.9,282.3,73.4L282.3,73.4z M289.6,73.4
				c0-0.5,0.4-0.9,0.9-0.9l0,0h1.8c0.5,0,0.9,0.4,0.9,0.9c0,0.5-0.4,0.9-0.9,0.9h-1.8C290,74.4,289.6,74,289.6,73.4
				C289.5,73.4,289.5,73.4,289.6,73.4L289.6,73.4z M296.8,73.4c0-0.5,0.4-0.9,0.9-0.9l0,0h1.8c0.5,0,0.9,0.4,0.9,0.9
				c0,0.5-0.4,0.9-0.9,0.9h-1.8C297.2,74.4,296.8,74,296.8,73.4C296.8,73.4,296.8,73.4,296.8,73.4L296.8,73.4z M304.1,73.4
				c0-0.5,0.4-0.9,0.9-0.9l0,0h1.8c0.5,0,0.9,0.4,0.9,0.9s-0.4,0.9-0.9,0.9c0,0,0,0,0,0H305C304.5,74.3,304.1,73.9,304.1,73.4
				L304.1,73.4z M311.4,73.4c0-0.5,0.4-0.9,0.9-0.9l0,0h1.8c0.5,0,0.9,0.4,0.9,0.9s-0.4,0.9-0.9,0.9c0,0,0,0,0,0h-1.8
				C311.8,74.4,311.4,74,311.4,73.4C311.4,73.4,311.4,73.4,311.4,73.4L311.4,73.4z M318.7,73.4c0-0.5,0.4-0.9,0.9-0.9l0,0h1.8
				c0.5,0,0.9,0.4,0.9,0.9s-0.4,0.9-0.9,0.9c0,0,0,0,0,0h-1.8C319.1,74.4,318.7,74,318.7,73.4C318.7,73.5,318.6,73.4,318.7,73.4
				L318.7,73.4z M326,73.4c0-0.5,0.4-0.9,0.9-0.9l0,0h1.8c0.5,0,0.9,0.4,0.9,0.9s-0.4,0.9-0.9,0.9c0,0,0,0,0,0h-1.8
				C326.4,74.4,325.9,74,326,73.4C325.9,73.5,325.9,73.4,326,73.4L326,73.4z M333.2,73.4c0-0.5,0.4-0.9,0.9-0.9l0,0h1.8
				c0.5,0,0.9,0.4,0.9,0.9c0,0.5-0.4,0.9-0.9,0.9h-1.8C333.6,74.4,333.2,74,333.2,73.4C333.2,73.5,333.2,73.4,333.2,73.4L333.2,73.4
				z M340.5,73.4c0-0.5,0.4-0.9,0.9-0.9l0,0h1.8c0.5,0,0.9,0.4,0.9,0.9c0,0.5-0.4,0.9-0.9,0.9h-1.9
				C340.9,74.3,340.5,73.9,340.5,73.4L340.5,73.4z M347.8,73.4c0-0.5,0.4-0.9,0.9-0.9l0,0h1.8c0.5,0,0.9,0.4,0.9,0.9
				c0,0.5-0.4,0.9-0.9,0.9h-1.8C348.2,74.4,347.8,74,347.8,73.4C347.8,73.5,347.8,73.4,347.8,73.4L347.8,73.4z M355.1,73.4
				c0-0.5,0.4-0.9,0.9-0.9l0,0h1.8c0.5,0,0.9,0.4,0.9,0.9c0,0.5-0.4,0.9-0.9,0.9H356C355.5,74.4,355.1,74,355.1,73.4
				C355,73.5,355,73.5,355.1,73.4L355.1,73.4z M362.4,73.4c0-0.5,0.4-0.9,0.9-0.9l0,0h1.7c0.5,0,0.9,0.4,0.9,0.9
				c0,0.5-0.4,0.9-0.9,0.9h-1.8C362.7,74.3,362.3,73.9,362.4,73.4L362.4,73.4z M369.6,73.4c0-0.5,0.4-0.9,0.9-0.9l0,0h1.8
				c0.5,0,0.9,0.4,0.9,0.9s-0.4,0.9-0.9,0.9c0,0,0,0,0,0h-1.8C370,74.4,369.6,74,369.6,73.4C369.6,73.5,369.6,73.4,369.6,73.4
				L369.6,73.4z M376.9,73.4c0-0.5,0.4-0.9,0.9-0.9l0,0h1.8c0.5,0,0.9,0.4,0.9,0.9s-0.4,0.9-0.9,0.9c0,0,0,0,0,0h-1.8
				C377.3,74.4,376.9,74,376.9,73.4C376.9,73.5,376.9,73.4,376.9,73.4L376.9,73.4z M384.2,73.4c0-0.5,0.4-0.9,0.9-0.9l0,0h1.8
				c0.5,0,0.9,0.4,0.9,0.9s-0.4,0.9-0.9,0.9c0,0,0,0,0,0h-1.8C384.6,74.4,384.2,74,384.2,73.4C384.2,73.5,384.1,73.4,384.2,73.4
				L384.2,73.4z M391.5,73.4c0-0.5,0.4-0.9,0.9-0.9l0,0h1.8c0.5,0,0.9,0.4,0.9,0.9c0,0.5-0.4,0.9-0.9,0.9h-1.8
				C391.9,74.4,391.5,74,391.5,73.4C391.4,73.5,391.4,73.4,391.5,73.4L391.5,73.4z M398.8,73.4c0-0.5,0.4-0.9,0.9-0.9l0,0h1.8
				c0.5,0,0.9,0.4,0.9,0.9c0,0.5-0.4,0.9-0.9,0.9h-1.8C399.2,74.4,398.7,74,398.8,73.4C398.7,73.5,398.7,73.4,398.8,73.4L398.8,73.4
				z M406,73.4c0-0.5,0.4-0.9,0.9-0.9l0,0h1.8c0.5,0,0.9,0.4,0.9,0.9c0,0.5-0.4,0.9-0.9,0.9h-1.9C406.4,74.3,406,73.9,406,73.4
				L406,73.4z M234,74.3c-0.7-0.1-1.3-0.1-1.9-0.2c-0.5-0.1-0.8-0.6-0.7-1.1c0.1-0.4,0.5-0.7,1-0.7c0.6,0.1,1.1,0.2,1.7,0.2
				c0.5,0,0.9,0.4,0.9,1C235,73.9,234.6,74.3,234,74.3L234,74.3z M226.7,72.4c-0.6-0.3-1.1-0.5-1.7-0.8c-0.4-0.3-0.6-0.8-0.3-1.3
				c0.2-0.4,0.7-0.5,1.2-0.3c0.5,0.3,1,0.5,1.6,0.8c0.5,0.2,0.7,0.7,0.5,1.2S227.2,72.6,226.7,72.4z"/>
		</g>
		<path id="ampersand" class="st0" d="M212.6,34.5c-1.2-1-2.8-1.4-4.3-1.2c-0.2-2.1-0.5-4.3-0.8-6.7l3.7-2.5
			c8.4-5.6,5.7-19.6,3.8-23.4c-9.3,5.4-9.9,16.1-9.5,22.5c-2.7,2-5.6,3.9-8.4,6.2c-4.8,3.9-4.3,10.6-3,13.9
			c2.6,5.2,8.5,7.9,14.1,6.5c0.2,2.1,0.1,4.2-0.4,6.2c-1.4,3.9-6.1,3.7-7,2.4c2.1,0.3,3.7-2,3.5-3.8c-0.2-2-2-3.5-4-3.3
			c-0.1,0-0.1,0-0.2,0c-1.9,0.4-3.4,2.3-3.1,5s4.5,4.9,9,3.3c3.8-1.3,3.9-6.6,3.6-10.5l0.2-0.1C218.3,45.8,216.3,37.3,212.6,34.5z
			 M214.6,3.6c3.2,8.9-1.3,13.8-7.7,18.6C206.1,15.1,209,8,214.6,3.6z M203.9,48.5c-3.6-0.2-6.8-2.7-7.7-8.9
			c-0.6-4.1,3.9-7.9,9.8-12v0.2c0.1,0.9,0.4,3,0.7,5.8c-1.8,0.5-3.4,1.8-4.3,3.4c-0.9,2.2-0.9,5.5,2.3,8.8c-2.1-3.1-1-6.9,1.2-8.1
			c0.4-0.2,0.8-0.3,1.2-0.4c0.4,3.4,0.8,7.2,0.9,10.5C206.8,48.3,205.3,48.5,203.9,48.5z M212.8,42.7c-0.1,2-1.4,3.8-3.2,4.5l0,0
			c-0.2-2-0.4-5.4-0.9-9.8C211.2,37.9,212.9,40.2,212.8,42.7L212.8,42.7z"/>
		<g id="dotted-bottom">
			<path class="st0" d="M171.5,151.6c0,0.5-0.4,0.9-0.9,0.9l0,0h-1.8c-0.5,0-0.9-0.4-0.9-0.9s0.4-0.9,0.9-0.9h1.8
				C171.1,150.7,171.5,151.1,171.5,151.6z M164.2,151.6c0,0.5-0.4,0.9-0.9,0.9l0,0h-1.8c-0.5,0-0.9-0.4-0.9-0.9s0.4-0.9,0.9-0.9h1.8
				C163.8,150.6,164.2,151,164.2,151.6C164.2,151.6,164.2,151.6,164.2,151.6L164.2,151.6z M157,151.6c0,0.5-0.4,0.9-0.9,0.9l0,0
				h-1.8c-0.5,0-0.9-0.4-0.9-0.9s0.4-0.9,0.9-0.9h1.8C156.6,150.6,157,151,157,151.6C157,151.5,157,151.5,157,151.6L157,151.6z
				 M149.7,151.6c0,0.5-0.4,0.9-0.9,0.9l0,0H147c-0.5,0-0.9-0.4-0.9-0.9s0.4-0.9,0.9-0.9h1.8C149.3,150.7,149.7,151.1,149.7,151.6
				L149.7,151.6z M142.4,151.6c0,0.5-0.4,0.9-0.9,0.9l0,0h-1.8c-0.5,0-0.9-0.4-0.9-0.9s0.4-0.9,0.9-0.9h1.8
				C142,150.6,142.4,151,142.4,151.6C142.4,151.6,142.4,151.6,142.4,151.6L142.4,151.6z M135.1,151.6c0,0.5-0.4,0.9-0.9,0.9l0,0
				h-1.8c-0.5,0-0.9-0.4-0.9-0.9s0.4-0.9,0.9-0.9h1.8C134.7,150.6,135.1,151,135.1,151.6C135.1,151.5,135.1,151.6,135.1,151.6
				L135.1,151.6z M127.8,151.6c0,0.5-0.4,0.9-0.9,0.9h0h-1.8c-0.5,0-0.9-0.4-0.9-0.9s0.4-0.9,0.9-0.9l0,0h1.8
				C127.4,150.6,127.8,151,127.8,151.6C127.9,151.5,127.9,151.6,127.8,151.6L127.8,151.6z M120.6,151.6c0,0.5-0.4,0.9-0.9,0.9h0
				h-1.8c-0.5,0-0.9-0.4-0.9-0.9s0.4-0.9,0.9-0.9h1.8C120.2,150.6,120.6,151,120.6,151.6C120.6,151.5,120.6,151.6,120.6,151.6
				L120.6,151.6z M113.3,151.6c0,0.5-0.4,0.9-0.9,0.9h0h-1.8c-0.5,0-0.9-0.4-0.9-0.9s0.4-0.9,0.9-0.9h1.8
				C112.9,150.6,113.3,151,113.3,151.6C113.3,151.5,113.3,151.6,113.3,151.6L113.3,151.6z M106,151.6c0,0.5-0.4,0.9-0.9,0.9h0h-1.8
				c-0.5,0-0.9-0.4-0.9-0.9s0.4-0.9,0.9-0.9l0,0h1.8C105.6,150.7,106,151.1,106,151.6L106,151.6z M98.7,151.6c0,0.5-0.4,0.9-0.9,0.9
				h0H96c-0.5,0-0.9-0.4-0.9-0.9s0.4-0.9,0.9-0.9h1.8C98.3,150.6,98.7,151,98.7,151.6C98.7,151.5,98.8,151.6,98.7,151.6L98.7,151.6z
				 M91.4,151.6c0,0.5-0.4,0.9-0.9,0.9h0h-1.8c-0.5,0-0.9-0.4-0.9-0.9s0.4-0.9,0.9-0.9h1.8C91.1,150.6,91.5,151.1,91.4,151.6
				L91.4,151.6L91.4,151.6z M84.2,151.6c0,0.5-0.4,0.9-0.9,0.9h0h-1.8c-0.5,0-0.9-0.4-0.9-0.9s0.4-0.9,0.9-0.9h1.8
				C83.8,150.6,84.2,151.1,84.2,151.6L84.2,151.6L84.2,151.6z M76.9,151.6c0,0.5-0.4,0.9-0.9,0.9h0h-1.8c-0.5,0-0.9-0.4-0.9-0.9
				s0.4-0.9,0.9-0.9H76C76.5,150.6,76.9,151,76.9,151.6C76.9,151.6,76.9,151.6,76.9,151.6L76.9,151.6z M69.6,151.6
				c0,0.5-0.4,0.9-0.9,0.9h0h-1.8c-0.5,0-0.9-0.4-0.9-0.9s0.4-0.9,0.9-0.9l0,0h1.8C69.2,150.6,69.6,151.1,69.6,151.6L69.6,151.6z
				 M62.3,151.6c0,0.5-0.4,0.9-0.9,0.9h0h-1.8c-0.5,0-0.9-0.4-0.9-0.9s0.4-0.9,0.9-0.9l0,0h1.8C62,150.6,62.4,151.1,62.3,151.6
				L62.3,151.6L62.3,151.6z M55,151.6c0,0.5-0.4,0.9-0.9,0.9h0h-1.8c-0.5,0-0.9-0.4-0.9-0.9s0.4-0.9,0.9-0.9h1.8
				C54.7,150.6,55.1,151.1,55,151.6L55,151.6L55,151.6z M47.8,151.6c0,0.5-0.4,0.9-0.9,0.9h0h-1.8c-0.5,0-0.9-0.4-0.9-0.9
				s0.4-0.9,0.9-0.9h1.8C47.4,150.7,47.8,151.1,47.8,151.6L47.8,151.6z M40.5,151.6c0,0.5-0.4,0.9-0.9,0.9h0h-1.8
				c-0.5,0-0.9-0.4-0.9-0.9s0.4-0.9,0.9-0.9h1.8C40.1,150.6,40.5,151.1,40.5,151.6L40.5,151.6L40.5,151.6z M33.2,151.6
				c0,0.5-0.4,0.9-0.9,0.9h0h-1.8c-0.5,0-0.9-0.4-0.9-0.9s0.4-0.9,0.9-0.9h1.8C32.8,150.6,33.2,151.1,33.2,151.6L33.2,151.6
				L33.2,151.6z M25.9,151.6c0,0.5-0.4,0.9-0.9,0.9c0,0,0,0,0,0h-1.8c-0.5,0-0.9-0.4-0.9-0.9s0.4-0.9,0.9-0.9h1.8
				C25.6,150.6,26,151,25.9,151.6C26,151.5,26,151.5,25.9,151.6L25.9,151.6z M18.6,151.6c0,0.5-0.4,0.9-0.9,0.9c0,0,0,0,0,0H16
				c-0.5,0-0.9-0.4-0.9-0.9s0.4-0.9,0.9-0.9h1.8C18.3,150.7,18.7,151.1,18.6,151.6L18.6,151.6z M11.4,151.6c0,0.5-0.4,0.9-0.9,0.9
				c0,0,0,0,0,0H8.7c-0.5,0-0.9-0.4-0.9-0.9s0.4-0.9,0.9-0.9h1.8C11,150.6,11.4,151.1,11.4,151.6L11.4,151.6L11.4,151.6z M4.1,151.6
				c0,0.5-0.4,0.9-0.9,0.9c0,0,0,0,0,0H1.4c-0.5,0-0.9-0.4-0.9-0.9s0.4-0.9,0.9-0.9h1.8C3.7,150.6,4.1,151.1,4.1,151.6L4.1,151.6
				L4.1,151.6z M176.1,150.7c0.7,0.1,1.3,0.1,1.9,0.2c0.5,0.1,0.8,0.6,0.7,1.1c-0.1,0.4-0.5,0.7-1,0.7c-0.6-0.1-1.1-0.2-1.7-0.2
				c-0.5,0-0.9-0.4-0.9-1C175.1,151.1,175.5,150.7,176.1,150.7L176.1,150.7z M183.4,152.6c0.6,0.3,1.1,0.5,1.7,0.9
				c0.4,0.3,0.6,0.8,0.3,1.3c-0.2,0.4-0.7,0.5-1.2,0.3c-0.5-0.3-1-0.5-1.6-0.8c-0.5-0.2-0.7-0.7-0.5-1.2S182.9,152.4,183.4,152.6
				L183.4,152.6z"/>
			<path class="st0" d="M239.5,150.6h1.8c0.5,0,0.9,0.4,0.9,0.9s-0.4,0.9-0.9,0.9h-1.8c-0.5,0-0.9-0.4-0.9-0.9
				S239,150.6,239.5,150.6z M246.8,150.6h1.8c0.5,0,0.9,0.4,0.9,0.9s-0.4,0.9-0.9,0.9h-1.8c-0.5,0-0.9-0.4-0.9-0.9
				S246.3,150.6,246.8,150.6L246.8,150.6z M254.1,150.6h1.8c0.5,0,0.9,0.4,0.9,0.9s-0.4,0.9-0.9,0.9h-1.8c-0.5,0-0.9-0.4-0.9-0.9
				S253.6,150.6,254.1,150.6L254.1,150.6z M261.4,150.6h1.8c0.5,0,0.9,0.4,0.9,0.9s-0.4,0.9-0.9,0.9h-1.8c-0.5,0-0.9-0.4-0.9-0.9
				S260.8,150.6,261.4,150.6z M268.6,150.6h1.8c0.5,0,0.9,0.4,0.9,0.9s-0.4,0.9-0.9,0.9h-1.8c-0.5,0-0.9-0.4-0.9-0.9
				S268.1,150.6,268.6,150.6z M275.9,150.6h1.8c0.5,0,0.9,0.4,0.9,0.9s-0.4,0.9-0.9,0.9h-1.8c-0.5,0-0.9-0.4-0.9-0.9
				S275.4,150.6,275.9,150.6L275.9,150.6z M283.2,150.6h1.8c0.5,0,0.9,0.4,0.9,0.9s-0.4,0.9-0.9,0.9h-1.8c-0.5,0-0.9-0.4-0.9-0.9
				S282.7,150.6,283.2,150.6L283.2,150.6z M290.5,150.6h1.8c0.5,0,0.9,0.4,0.9,0.9s-0.4,0.9-0.9,0.9h-1.8c-0.5,0-0.9-0.4-0.9-0.9
				S290,150.6,290.5,150.6z M297.8,150.6h1.8c0.5,0,0.9,0.4,0.9,0.9s-0.4,0.9-0.9,0.9l0,0h-1.8c-0.5,0-0.9-0.4-0.9-0.9
				S297.2,150.6,297.8,150.6z M305,150.6h1.8c0.5,0,0.9,0.4,0.9,0.9s-0.4,0.9-0.9,0.9H305c-0.5,0-0.9-0.4-0.9-0.9
				S304.5,150.6,305,150.6L305,150.6z M312.3,150.6h1.8c0.5,0,0.9,0.4,0.9,0.9s-0.4,0.9-0.9,0.9h-1.8c-0.5,0-0.9-0.4-0.9-0.9
				S311.8,150.6,312.3,150.6z M319.6,150.6h1.8c0.5,0,0.9,0.4,0.9,0.9s-0.4,0.9-0.9,0.9h-1.8c-0.5,0-0.9-0.4-0.9-0.9
				S319.1,150.6,319.6,150.6z M326.9,150.6h1.8c0.5,0,0.9,0.4,0.9,0.9s-0.4,0.9-0.9,0.9h-1.8c-0.5,0-0.9-0.4-0.9-0.9
				S326.4,150.6,326.9,150.6L326.9,150.6z M334.1,150.6h1.8c0.5,0,0.9,0.4,0.9,0.9s-0.4,0.9-0.9,0.9h-1.8c-0.5,0-0.9-0.4-0.9-0.9
				S333.6,150.6,334.1,150.6z M341.4,150.6h1.8c0.5,0,0.9,0.4,0.9,0.9s-0.4,0.9-0.9,0.9h-1.9c-0.5,0-0.9-0.4-0.9-0.9
				S340.9,150.6,341.4,150.6L341.4,150.6L341.4,150.6z M348.7,150.6h1.8c0.5,0,0.9,0.4,0.9,0.9s-0.4,0.9-0.9,0.9h-1.8
				c-0.5,0-0.9-0.4-0.9-0.9S348.2,150.6,348.7,150.6z M356,150.6h1.8c0.5,0,0.9,0.4,0.9,0.9s-0.4,0.9-0.9,0.9H356
				c-0.5,0-0.9-0.4-0.9-0.9S355.5,150.6,356,150.6L356,150.6L356,150.6z M363.3,150.6h1.7c0.5,0,0.9,0.4,0.9,0.9s-0.4,0.9-0.9,0.9
				h-1.8c-0.5,0-0.9-0.4-0.9-0.9S362.7,150.6,363.3,150.6L363.3,150.6z M370.5,150.6h1.8c0.5,0,0.9,0.4,0.9,0.9s-0.4,0.9-0.9,0.9
				h-1.8c-0.5,0-0.9-0.4-0.9-0.9S370,150.6,370.5,150.6L370.5,150.6z M377.8,150.6h1.8c0.5,0,0.9,0.4,0.9,0.9s-0.4,0.9-0.9,0.9h-1.8
				c-0.5,0-0.9-0.4-0.9-0.9S377.3,150.6,377.8,150.6z M385.1,150.6h1.8c0.5,0,0.9,0.4,0.9,0.9s-0.4,0.9-0.9,0.9h-1.8
				c-0.5,0-0.9-0.4-0.9-0.9S384.6,150.6,385.1,150.6z M392.4,150.6h1.8c0.5,0,0.9,0.4,0.9,0.9s-0.4,0.9-0.9,0.9h-1.8
				c-0.5,0-0.9-0.4-0.9-0.9S391.9,150.6,392.4,150.6z M399.7,150.6h1.8c0.5,0,0.9,0.4,0.9,0.9s-0.4,0.9-0.9,0.9h-1.8
				c-0.5,0-0.9-0.4-0.9-0.9S399.2,150.6,399.7,150.6z M406.9,150.6h1.8c0.5,0,0.9,0.4,0.9,0.9s-0.4,0.9-0.9,0.9h-1.9
				c-0.5,0-0.9-0.4-0.9-0.9S406.4,150.6,406.9,150.6L406.9,150.6z M234.1,150.7c0.5,0,0.9,0.4,1,0.9c0,0.5-0.4,0.9-0.9,1
				c-0.6,0-1.2,0.1-1.7,0.2c-0.5,0.1-0.9-0.3-1-0.8c-0.1-0.5,0.2-0.9,0.7-1C232.8,150.9,233.4,150.8,234.1,150.7L234.1,150.7z
				 M227.1,152.6c0.5,0,0.9,0.4,0.9,0.9c0,0.4-0.2,0.7-0.5,0.8c-0.5,0.2-1.1,0.5-1.6,0.8c-0.5,0.2-1,0-1.2-0.4
				c-0.2-0.4-0.1-0.9,0.3-1.2c0.6-0.3,1.1-0.6,1.7-0.9c0.1,0,0.2-0.1,0.3-0.1H227.1z"/>
		</g>
		<g id="circles">
			<path class="st0" d="M206,170.8c0,9.1-7.4,16.4-16.4,16.4s-16.4-7.4-16.4-16.4s7.4-16.4,16.4-16.4l0,0
				C198.6,154.4,206,161.7,206,170.8z M204.2,170.8c0-8.1-6.5-14.6-14.6-14.6s-14.6,6.5-14.6,14.6s6.5,14.6,14.6,14.6
				C197.6,185.3,204.1,178.8,204.2,170.8L204.2,170.8z"/>
			<path class="st0" d="M237,170.8c0,9.1-7.4,16.4-16.4,16.4s-16.4-7.4-16.4-16.4s7.4-16.4,16.4-16.4l0,0
				C229.6,154.4,237,161.7,237,170.8z M235.2,170.8c0-8.1-6.5-14.6-14.6-14.6s-14.6,6.5-14.6,14.6s6.5,14.6,14.6,14.6
				C228.6,185.4,235.2,178.8,235.2,170.8L235.2,170.8z"/>
			<path class="st0" d="M222,187.1c0,9.4-7.6,16.9-16.9,16.9s-16.9-7.6-16.9-16.9c0-9.4,7.6-16.9,16.9-16.9
				C214.4,170.2,222,177.7,222,187.1z M220.2,187.1c0-8.4-6.8-15.1-15.1-15.1c-8.4,0-15.1,6.8-15.1,15.1c0,8.4,6.8,15.1,15.1,15.1
				c0,0,0,0,0,0C213.4,202.2,220.2,195.4,220.2,187.1z"/>
			<path class="st0" d="M200.9,190.1c0.1,2.3,2,4,4.3,3.9c2.1-0.1,3.8-1.8,3.9-3.9c0-2.3-4.1-8.4-4.1-8.4S201,187.8,200.9,190.1z"/>
			<path class="st0" d="M190.8,162.8c-2.3-0.1-4.2,1.6-4.3,3.9c-0.1,2.3,1.6,4.2,3.9,4.3c0.1,0,0.3,0,0.4,0c2.3,0,8.4-4.1,8.4-4.1
				S193,162.8,190.8,162.8z"/>
			<path class="st0" d="M219.4,162.8c2.3,0.1,4,2,3.9,4.3c-0.1,2.1-1.8,3.8-3.9,3.9c-2.3,0-8.4-4.1-8.4-4.1S217.1,162.8,219.4,162.8
				z"/>
		</g>
		<g id="bottom-lines">
			<path class="st0" d="M183.4,142.6H10.7c-0.5,0-0.9,0.4-0.9,0.9s0.4,0.9,0.9,0.9h172.7c11.5,0,20.8,9.3,20.8,20.8
				c0,0.5,0.4,0.9,0.9,0.9s0.9-0.4,0.9-0.9C206,152.7,195.8,142.6,183.4,142.6z"/>
			<path class="st0" d="M226.8,142.6h172.7c0.5,0,0.9,0.4,0.9,0.9s-0.4,0.9-0.9,0.9H226.8c-11.5,0-20.7,9.3-20.8,20.8
				c0,0.5-0.4,0.9-0.9,0.9s-0.9-0.4-0.9-0.9C204.2,152.7,214.3,142.6,226.8,142.6z"/>
			<path class="st0" d="M387,138.7H23.1c-1,0-1.8-0.8-1.8-1.8c0-1,0.8-1.8,1.8-1.8H387c1,0,1.8,0.8,1.8,1.8
				C388.8,137.9,388,138.7,387,138.7z"/>
		</g>
		<g id="top-lines">
			<path class="st0" d="M183.4,82.4H10.7c-0.5,0-0.9-0.4-0.9-0.9s0.4-0.9,0.9-0.9c0,0,0,0,0,0h172.7c11.5,0,20.8-9.3,20.8-20.8
				c0-0.5,0.4-0.9,0.9-0.9s0.9,0.4,0.9,0.9C206,72.3,195.8,82.4,183.4,82.4z"/>
			<path class="st0" d="M226.8,82.4h172.7c0.5,0,0.9-0.4,0.9-0.9s-0.4-0.9-0.9-0.9c0,0,0,0,0,0H226.8c-11.5,0-20.7-9.3-20.8-20.8
				c0-0.5-0.4-0.9-0.9-0.9s-0.9,0.4-0.9,0.9C204.2,72.3,214.3,82.4,226.8,82.4z"/>
			<path class="st0" d="M387,89.9H23.1c-1,0-1.8-0.8-1.8-1.8s0.8-1.8,1.8-1.8c0,0,0,0,0,0H387c1,0,1.8,0.8,1.8,1.8
				C388.8,89.1,388,89.9,387,89.9z"/>
		</g>
	</g>
	<g id="will-patrick">
		<path class="st1" d="M92.1,121.3v7l-2.1,2v-13.1c-0.7,0-1.4-0.1-2-0.3c-0.6-0.2-1.4-0.6-2.4-1.2c-1-0.6-1.8-1.5-2.5-2.8
			c-0.7-1.3-1.1-2.7-1.1-4.1c0-2.3,0.6-4,1.7-5.2c1.2-1.2,2.2-2,3.2-2.5c1-0.5,2-0.7,3.1-0.7h0.4h1.5h0.2c1.8,0,3.5,0.5,5.1,1.4
			c1.6,0.9,2.8,2.2,3.7,3.8c0.9,1.6,1.4,3.3,1.4,5.2c0,1.4-0.3,2.7-0.8,3.9c-0.5,1.3-1.2,2.4-2.2,3.3c-0.9,0.9-2.1,1.7-3.3,2.3
			C94.8,121.1,93.5,121.3,92.1,121.3z M90,115.2v-12.6c-1.6,0-3,0.6-4.2,1.9c-1.2,1.3-1.7,2.7-1.7,4.4c0,1.7,0.4,3,1.3,3.9
			c0.9,0.9,1.7,1.5,2.4,1.9S89.2,115.2,90,115.2z M97.1,113.9c-1.3,1.7-3,2.8-5,3.2v2.2c1.2,0,2.2-0.2,3.1-0.6
			c0.9-0.4,2-1.2,3.2-2.5c1.2-1.2,1.8-3,1.8-5.2c0-2.3-0.6-4.1-1.8-5.3c-1.2-1.2-2.3-2-3.2-2.4c-0.9-0.4-2-0.6-3.1-0.6V115
			c1.4-0.4,2.5-1.2,3.4-2.4L97.1,113.9z"/>
		<path class="st1" d="M105.7,108.9h-1.2l-0.7-2h1.8v-2.2c0-1.2,0.4-2.2,1.2-3.1c0.8-0.9,1.9-1.3,3.1-1.3c0.7,0,1.3,0.1,1.7,0.3
			c0.5,0.2,0.9,0.5,1.3,0.9c0.4,0.4,0.7,0.9,1,1.4c0.2,0.5,0.3,1.1,0.3,1.7v21.3h-2.1v-17h-4.5v17h-2.1V108.9z M112.3,106.8v-2.2
			c0-0.6-0.2-1.2-0.6-1.6s-1-0.7-1.7-0.7c-0.6,0-1.1,0.2-1.5,0.6c-0.4,0.4-0.7,1-0.7,1.7v2.2H112.3z"/>
		<path class="st1" d="M121.6,125.9h-2.1v-23.3h-3.7v-2.1h9.5v2.1h-3.7V125.9z"/>
		<path class="st1" d="M126.8,100.5h0.4h1.5h0.2c1.8,0,3.5,0.5,5.1,1.4c1.6,0.9,2.8,2.2,3.7,3.8c0.9,1.6,1.4,3.3,1.4,5.2
			c0,2.2-0.7,4.3-2.1,6.2s-3.2,3.1-5.2,3.7l6.2,5l-3,0l-6.1-4.8v4.8h-2.1V100.5z M128.9,119.3c1.2,0,2.2-0.2,3.1-0.6
			c0.9-0.4,2-1.2,3.2-2.5s1.8-3,1.8-5.2c0-2.3-0.6-4.1-1.8-5.3c-1.2-1.2-2.3-2-3.2-2.4c-0.9-0.4-2-0.6-3.1-0.6V119.3z"/>
		<path class="st1" d="M140.6,100.5h2.1v25.4h-2.1V100.5z"/>
		<path class="st1" d="M157.5,123.8v2.1c-2.4,0-4.6-0.5-6.7-1.6s-3.7-2.6-4.8-4.5s-1.8-4.1-1.8-6.5c0-2.4,0.6-4.6,1.7-6.5
			c1.2-1.9,2.8-3.5,4.9-4.6c2.1-1.1,4.3-1.7,6.7-1.7v2.1c-3,0-5.3,0.7-6.9,2.1c-1.6,1.4-2.7,2.8-3.4,4.1c-0.6,1.3-0.9,2.8-0.9,4.4
			c0,1.9,0.5,3.6,1.4,5.2c0.9,1.6,2.3,2.9,4,3.9C153.4,123.3,155.3,123.8,157.5,123.8z"/>
		<path class="st1" d="M161.1,125.9H159v-25.4h2.1v5.9l5.1-5.9l2.8,0l-5.7,6.6l6.4,18.8l-2.3,0l-6.3-18.7L161.1,125.9z"/>
		<path class="st1" d="M191.9,120.3c-0.7,0.8-1.7,1.4-3,1.9v6l-2.1,2v-7.6h-0.4c-1.4,0-2.7-0.3-3.9-1c-1.2-0.7-2.1-1.5-2.6-2.4
			c-0.5-0.9-0.9-1.7-1.1-2.4c-0.2-0.7-0.3-1.4-0.3-2.1c0-1.4,0.4-2.7,1.1-3.9c0.7-1.2,1.7-2.2,2.9-2.8s2.5-1,3.9-1h0.4v-2.2
			c0-1.2,0.4-2.2,1.2-3.1s1.9-1.3,3.1-1.3c0.7,0,1.3,0.1,1.7,0.3c0.5,0.2,0.9,0.5,1.3,0.9c0.4,0.4,0.7,0.9,1,1.4
			c0.2,0.5,0.3,1.1,0.3,1.7v21.3h-2.1v-17h-4.5V120c0.6-0.2,1.1-0.6,1.6-1.2L191.9,120.3z M186.8,120.5v-11.6h-0.4
			c-0.6,0-1.1,0.1-1.5,0.2c-0.4,0.1-1,0.4-1.7,0.8c-0.7,0.4-1.2,1.1-1.8,2c-0.5,0.9-0.8,1.9-0.8,2.9c0,1.6,0.6,2.9,1.7,4.1
			c1.1,1.1,2.5,1.7,4.1,1.7H186.8z M193.4,106.9v-2.2c0-0.6-0.2-1.2-0.6-1.6c-0.4-0.5-1-0.7-1.7-0.7c-0.6,0-1.1,0.2-1.6,0.6
			c-0.4,0.4-0.6,1-0.6,1.7v2.2H193.4z"/>
		<path class="st1" d="M204.5,104.5v-4h2.1v25.4h-2.1v-19.1l-5.4-4v23H197v-25.4h2.1L204.5,104.5z"/>
		<path class="st1" d="M210.6,125.9h-2.5v-25.4h2.5c1.8,0,3.4,0.3,4.9,0.9c1.5,0.6,2.8,1.6,4,2.8c1.2,1.2,2.1,2.6,2.8,4.1
			s1,3.2,1,4.9c0,1.8-0.3,3.4-1,4.9c-0.6,1.5-1.6,2.9-2.7,4c-1.2,1.2-2.6,2.1-4.1,2.8C213.9,125.6,212.3,125.9,210.6,125.9z
			 M210.6,123.8c3,0,5.3-0.8,6.8-2.4c1.5-1.6,2.5-3,3-4.4c0.5-1.4,0.8-2.6,0.8-3.8c0-1.5-0.3-2.9-0.8-4.2c-0.6-1.3-1.3-2.4-2.3-3.4
			c-1-1-2.1-1.7-3.4-2.2c-1.3-0.5-2.7-0.8-4.1-0.8h-0.4v21.2H210.6z"/>
		<path class="st1" d="M248.6,109.6l-4,17l-3.1-13c-1,0.3-1.8,0.5-2.5,0.5c-1.9,0-3.4-0.7-4.8-2c-1.3-1.3-2-2.9-2-4.8s0.7-3.5,2-4.8
			c1.3-1.3,2.9-2,4.8-2h1.6l2.2,9.5c0.3-0.5,0.6-1,0.8-1.6l0.8,3.1l-0.5,0.5l-0.4,0.4l1.2,4.9l4-16.8l4,16.8l4-16.9l2.2,0l-6.1,26.1
			L248.6,109.6z M238.9,102.6c-1.3,0-2.3,0.5-3.2,1.4c-0.9,0.9-1.3,2-1.3,3.3c0,1.3,0.5,2.4,1.4,3.3s2,1.4,3.3,1.4
			c0.8,0,1.4-0.1,2-0.4L238.9,102.6z"/>
		<path class="st1" d="M260.3,100.5h2.1v25.4h-2.1V100.5z"/>
		<path class="st1" d="M263.8,100.5h2.1v23.3h4.5v2.1h-6.6V100.5z"/>
		<path class="st1" d="M272,100.5h2.1v23.3h4.5v2.1H272V100.5z"/>
		<path class="st1" d="M280.1,100.5h2.1v25.4h-2.1V100.5z"/>
		<path class="st1" d="M285.5,108.9h-1.2l-0.7-2h1.8v-2.2c0-1.2,0.4-2.2,1.2-3.1c0.8-0.9,1.9-1.3,3.1-1.3c0.7,0,1.3,0.1,1.7,0.3
			c0.5,0.2,0.9,0.5,1.3,0.9c0.4,0.4,0.7,0.9,1,1.4c0.2,0.5,0.3,1.1,0.3,1.7v21.3h-2.1v-17h-4.5v17h-2.1V108.9z M292.1,106.8v-2.2
			c0-0.6-0.2-1.2-0.6-1.6c-0.4-0.5-1-0.7-1.7-0.7c-0.6,0-1.1,0.2-1.5,0.6s-0.7,1-0.7,1.7v2.2H292.1z"/>
		<path class="st1" d="M300.4,100l3.8,8.5l3.8-8.5l4.8,25.9l-2.1,0l-3.5-18.9l-2.9,6.5l-3-6.6l-3.5,19l-2.1,0L300.4,100z"/>
	</g>
</g>
</svg>
