<svg xmlns="http://www.w3.org/2000/svg" viewBox="0 0 410.12 204.02"><defs><style>.cls-1,.cls-2,.cls-3{fill:#fff;}.cls-1{stroke:#fff;stroke-miterlimit:10;}.cls-3{fill-rule:evenodd;}</style></defs><title>header</title><g id="Layer_2" data-name="Layer 2"><g id="Layer_1-2" data-name="Layer 1"><path class="cls-1" d="M183.38,82.43H10.68a.91.91,0,1,1,0-1.82H183.38a20.8,20.8,0,0,0,20.77-20.77.91.91,0,1,1,1.82,0A22.62,22.62,0,0,1,183.38,82.43Z"/><path class="cls-1" d="M170.61,74.34H168.8a.91.91,0,0,1,0-1.82h1.82a.91.91,0,1,1,0,1.82Zm-7.28,0h-1.82a.91.91,0,0,1,0-1.82h1.82a.91.91,0,0,1,0,1.82Zm-7.28,0h-1.82a.91.91,0,0,1,0-1.82h1.82a.91.91,0,0,1,0,1.82Zm-7.28,0H147a.91.91,0,0,1,0-1.82h1.82a.91.91,0,0,1,0,1.82Zm-7.28,0h-1.82a.91.91,0,1,1,0-1.82h1.82a.91.91,0,0,1,0,1.82Zm-7.28,0h-1.82a.91.91,0,1,1,0-1.82h1.82a.91.91,0,0,1,0,1.82Zm-7.28,0h-1.82a.91.91,0,1,1,0-1.82h1.82a.91.91,0,1,1,0,1.82Zm-7.28,0h-1.82a.91.91,0,1,1,0-1.82h1.82a.91.91,0,1,1,0,1.82Zm-7.28,0h-1.82a.91.91,0,0,1,0-1.82h1.82a.91.91,0,1,1,0,1.82Zm-7.28,0H103.3a.91.91,0,0,1,0-1.82h1.82a.91.91,0,0,1,0,1.82Zm-7.28,0H96a.91.91,0,0,1,0-1.82h1.82a.91.91,0,0,1,0,1.82Zm-7.28,0H88.74a.91.91,0,0,1,0-1.82h1.82a.91.91,0,0,1,0,1.82Zm-7.28,0H81.46a.91.91,0,0,1,0-1.82h1.82a.91.91,0,0,1,0,1.82Zm-7.28,0H74.19a.91.91,0,0,1,0-1.82H76a.91.91,0,0,1,0,1.82Zm-7.28,0H66.91a.91.91,0,0,1,0-1.82h1.82a.91.91,0,0,1,0,1.82Zm-7.28,0H59.63a.91.91,0,1,1,0-1.82h1.82a.91.91,0,0,1,0,1.82Zm-7.28,0H52.35a.91.91,0,1,1,0-1.82h1.82a.91.91,0,0,1,0,1.82Zm-7.28,0H45.08a.91.91,0,1,1,0-1.82h1.82a.91.91,0,1,1,0,1.82Zm-7.28,0H37.8a.91.91,0,1,1,0-1.82h1.82a.91.91,0,0,1,0,1.82Zm-7.28,0H30.52a.91.91,0,1,1,0-1.82h1.82a.91.91,0,0,1,0,1.82Zm-7.28,0H23.24a.91.91,0,0,1,0-1.82h1.82a.91.91,0,1,1,0,1.82Zm-7.28,0H16a.91.91,0,0,1,0-1.82h1.82a.91.91,0,1,1,0,1.82Zm-7.28,0H8.69a.91.91,0,1,1,0-1.82h1.82a.91.91,0,1,1,0,1.82Zm-7.28,0H1.41a.91.91,0,1,1,0-1.82H3.23a.91.91,0,1,1,0,1.82Zm172.84-.08a.91.91,0,0,1-.08-1.82q.87-.07,1.73-.22A.91.91,0,0,1,178,74q-.93.16-1.88.24Zm7-1.83a.91.91,0,0,1-.38-1.74q.8-.36,1.56-.78a.91.91,0,0,1,.88,1.59q-.83.46-1.69.85A.91.91,0,0,1,183.08,72.43Z"/><path class="cls-1" d="M226.75,82.43H399.44a.91.91,0,1,0,0-1.82H226.75A20.8,20.8,0,0,1,206,59.83a.91.91,0,1,0-1.82,0A22.62,22.62,0,0,0,226.75,82.43Z"/><path class="cls-1" d="M238.6,73.43a.91.91,0,0,1,.91-.91h1.82a.91.91,0,0,1,0,1.82h-1.82A.91.91,0,0,1,238.6,73.43Zm7.28,0a.91.91,0,0,1,.91-.91h1.82a.91.91,0,1,1,0,1.82h-1.82A.91.91,0,0,1,245.88,73.43Zm7.28,0a.91.91,0,0,1,.91-.91h1.82a.91.91,0,1,1,0,1.82h-1.82A.91.91,0,0,1,253.16,73.43Zm7.28,0a.91.91,0,0,1,.91-.91h1.82a.91.91,0,1,1,0,1.82h-1.82A.91.91,0,0,1,260.43,73.43Zm7.28,0a.91.91,0,0,1,.91-.91h1.82a.91.91,0,0,1,0,1.82h-1.82A.91.91,0,0,1,267.71,73.43Zm7.28,0a.91.91,0,0,1,.91-.91h1.82a.91.91,0,0,1,0,1.82H275.9A.91.91,0,0,1,275,73.43Zm7.28,0a.91.91,0,0,1,.91-.91H285a.91.91,0,0,1,0,1.82h-1.82A.91.91,0,0,1,282.27,73.43Zm7.28,0a.91.91,0,0,1,.91-.91h1.82a.91.91,0,0,1,0,1.82h-1.82A.91.91,0,0,1,289.54,73.43Zm7.28,0a.91.91,0,0,1,.91-.91h1.82a.91.91,0,0,1,0,1.82h-1.82A.91.91,0,0,1,296.82,73.43Zm7.28,0a.91.91,0,0,1,.91-.91h1.82a.91.91,0,1,1,0,1.82H305A.91.91,0,0,1,304.1,73.43Zm7.28,0a.91.91,0,0,1,.91-.91h1.82a.91.91,0,1,1,0,1.82h-1.82A.91.91,0,0,1,311.38,73.43Zm7.28,0a.91.91,0,0,1,.91-.91h1.82a.91.91,0,1,1,0,1.82h-1.82A.91.91,0,0,1,318.65,73.43Zm7.28,0a.91.91,0,0,1,.91-.91h1.82a.91.91,0,1,1,0,1.82h-1.82A.91.91,0,0,1,325.93,73.43Zm7.28,0a.91.91,0,0,1,.91-.91h1.82a.91.91,0,0,1,0,1.82h-1.82A.91.91,0,0,1,333.21,73.43Zm7.28,0a.91.91,0,0,1,.91-.91h1.82a.91.91,0,0,1,0,1.82H341.4A.91.91,0,0,1,340.49,73.43Zm7.28,0a.91.91,0,0,1,.91-.91h1.82a.91.91,0,0,1,0,1.82h-1.82A.91.91,0,0,1,347.77,73.43Zm7.28,0a.91.91,0,0,1,.91-.91h1.82a.91.91,0,0,1,0,1.82H356A.91.91,0,0,1,355,73.43Zm7.28,0a.91.91,0,0,1,.91-.91H365a.91.91,0,0,1,0,1.82h-1.82A.91.91,0,0,1,362.32,73.43Zm7.28,0a.91.91,0,0,1,.91-.91h1.82a.91.91,0,1,1,0,1.82h-1.82A.91.91,0,0,1,369.6,73.43Zm7.28,0a.91.91,0,0,1,.91-.91h1.82a.91.91,0,1,1,0,1.82h-1.82A.91.91,0,0,1,376.88,73.43Zm7.28,0a.91.91,0,0,1,.91-.91h1.82a.91.91,0,1,1,0,1.82h-1.82A.91.91,0,0,1,384.15,73.43Zm7.28,0a.91.91,0,0,1,.91-.91h1.82a.91.91,0,0,1,0,1.82h-1.82A.91.91,0,0,1,391.43,73.43Zm7.28,0a.91.91,0,0,1,.91-.91h1.82a.91.91,0,0,1,0,1.82h-1.82A.91.91,0,0,1,398.71,73.43Zm7.28,0a.91.91,0,0,1,.91-.91h1.82a.91.91,0,0,1,0,1.82H406.9A.91.91,0,0,1,406,73.43Zm-172,.83q-1-.08-1.88-.24a.91.91,0,0,1,.31-1.79q.85.15,1.73.22a.91.91,0,0,1-.08,1.82Zm-7.3-1.9q-.87-.39-1.69-.85a.91.91,0,0,1,.88-1.59q.76.42,1.56.78a.91.91,0,1,1-.75,1.66Z"/><path class="cls-1" d="M212.59,34.5a6.08,6.08,0,0,0-4.34-1.23c-.23-2.09-.48-4.33-.77-6.7l3.7-2.49c8.37-5.63,5.7-19.58,3.8-23.38-9.31,5.38-9.91,16.13-9.46,22.55-2.7,1.95-5.64,3.92-8.43,6.17-4.81,3.87-4.31,10.65-3,13.89a12.38,12.38,0,0,0,14.13,6.5,20.88,20.88,0,0,1-.36,6.25c-1.44,3.9-6.13,3.67-7,2.42,2.1.26,3.69-2,3.5-3.75a3.65,3.65,0,0,0-4.15-3.25c-1.87.41-3.39,2.3-3.08,5s4.46,4.92,9,3.31c3.81-1.35,3.86-6.6,3.59-10.51l.25-.1C218.31,45.76,216.32,37.33,212.59,34.5ZM214.65,3.6c3.2,8.86-1.31,13.79-7.71,18.59A20.46,20.46,0,0,1,214.65,3.6ZM203.88,48.5c-3.55-.18-6.82-2.71-7.69-8.89-.57-4.07,3.91-7.9,9.79-12l0,.19c.11.91.39,3.05.72,5.79A7.19,7.19,0,0,0,202.42,37c-.95,2.21-.91,5.51,2.31,8.83-2.08-3.1-1-6.93,1.24-8.1a3.63,3.63,0,0,1,1.2-.38c.38,3.41.75,7.19.94,10.5A12,12,0,0,1,203.88,48.5Zm8.92-5.78a5.35,5.35,0,0,1-3.25,4.54v0c-.16-2-.44-5.39-.87-9.8A5.06,5.06,0,0,1,212.81,42.71Z"/><path class="cls-2" d="M183.38,142.56H10.68a.91.91,0,0,0,0,1.82H183.38a20.8,20.8,0,0,1,20.77,20.77.91.91,0,0,0,1.82,0A22.62,22.62,0,0,0,183.38,142.56Z"/><path class="cls-2" d="M171.52,151.56a.91.91,0,0,1-.91.91H168.8a.91.91,0,0,1,0-1.82h1.82A.91.91,0,0,1,171.52,151.56Zm-7.28,0a.91.91,0,0,1-.91.91h-1.82a.91.91,0,0,1,0-1.82h1.82A.91.91,0,0,1,164.25,151.56Zm-7.28,0a.91.91,0,0,1-.91.91h-1.82a.91.91,0,0,1,0-1.82h1.82A.91.91,0,0,1,157,151.56Zm-7.28,0a.91.91,0,0,1-.91.91H147a.91.91,0,0,1,0-1.82h1.82A.91.91,0,0,1,149.69,151.56Zm-7.28,0a.91.91,0,0,1-.91.91h-1.82a.91.91,0,1,1,0-1.82h1.82A.91.91,0,0,1,142.41,151.56Zm-7.28,0a.91.91,0,0,1-.91.91h-1.82a.91.91,0,1,1,0-1.82h1.82A.91.91,0,0,1,135.14,151.56Zm-7.28,0a.91.91,0,0,1-.91.91h-1.82a.91.91,0,1,1,0-1.82h1.82A.91.91,0,0,1,127.86,151.56Zm-7.28,0a.91.91,0,0,1-.91.91h-1.82a.91.91,0,1,1,0-1.82h1.82A.91.91,0,0,1,120.58,151.56Zm-7.28,0a.91.91,0,0,1-.91.91h-1.82a.91.91,0,0,1,0-1.82h1.82A.91.91,0,0,1,113.3,151.56Zm-7.28,0a.91.91,0,0,1-.91.91H103.3a.91.91,0,0,1,0-1.82h1.82A.91.91,0,0,1,106,151.56Zm-7.28,0a.91.91,0,0,1-.91.91H96a.91.91,0,0,1,0-1.82h1.82A.91.91,0,0,1,98.75,151.56Zm-7.28,0a.91.91,0,0,1-.91.91H88.74a.91.91,0,0,1,0-1.82h1.82A.91.91,0,0,1,91.47,151.56Zm-7.28,0a.91.91,0,0,1-.91.91H81.46a.91.91,0,0,1,0-1.82h1.82A.91.91,0,0,1,84.19,151.56Zm-7.28,0a.91.91,0,0,1-.91.91H74.19a.91.91,0,0,1,0-1.82H76A.91.91,0,0,1,76.92,151.56Zm-7.28,0a.91.91,0,0,1-.91.91H66.91a.91.91,0,1,1,0-1.82h1.82A.91.91,0,0,1,69.64,151.56Zm-7.28,0a.91.91,0,0,1-.91.91H59.63a.91.91,0,1,1,0-1.82h1.82A.91.91,0,0,1,62.36,151.56Zm-7.28,0a.91.91,0,0,1-.91.91H52.35a.91.91,0,1,1,0-1.82h1.82A.91.91,0,0,1,55.08,151.56Zm-7.28,0a.91.91,0,0,1-.91.91H45.08a.91.91,0,1,1,0-1.82h1.82A.91.91,0,0,1,47.8,151.56Zm-7.28,0a.91.91,0,0,1-.91.91H37.8a.91.91,0,1,1,0-1.82h1.82A.91.91,0,0,1,40.53,151.56Zm-7.28,0a.91.91,0,0,1-.91.91H30.52a.91.91,0,1,1,0-1.82h1.82A.91.91,0,0,1,33.25,151.56Zm-7.28,0a.91.91,0,0,1-.91.91H23.24a.91.91,0,1,1,0-1.82h1.82A.91.91,0,0,1,26,151.56Zm-7.28,0a.91.91,0,0,1-.91.91H16a.91.91,0,1,1,0-1.82h1.82A.91.91,0,0,1,18.69,151.56Zm-7.28,0a.91.91,0,0,1-.91.91H8.69a.91.91,0,1,1,0-1.82h1.82A.91.91,0,0,1,11.42,151.56Zm-7.28,0a.91.91,0,0,1-.91.91H1.41a.91.91,0,1,1,0-1.82H3.23A.91.91,0,0,1,4.14,151.56Zm172-.83q1,.08,1.88.24a.91.91,0,0,1-.31,1.79q-.85-.15-1.73-.22a.91.91,0,0,1,.08-1.82Zm7.3,1.9q.87.39,1.69.85a.91.91,0,0,1-.88,1.59q-.76-.42-1.56-.78a.91.91,0,1,1,.75-1.66Z"/><path class="cls-2" d="M226.75,142.56H399.44a.91.91,0,0,1,0,1.82H226.75A20.8,20.8,0,0,0,206,165.16a.91.91,0,0,1-1.82,0A22.62,22.62,0,0,1,226.75,142.56Z"/><path class="cls-2" d="M239.51,150.65h1.82a.91.91,0,0,1,0,1.82h-1.82a.91.91,0,0,1,0-1.82Zm7.28,0h1.82a.91.91,0,1,1,0,1.82h-1.82a.91.91,0,0,1,0-1.82Zm7.28,0h1.82a.91.91,0,1,1,0,1.82h-1.82a.91.91,0,0,1,0-1.82Zm7.28,0h1.82a.91.91,0,1,1,0,1.82h-1.82a.91.91,0,1,1,0-1.82Zm7.28,0h1.82a.91.91,0,0,1,0,1.82h-1.82a.91.91,0,1,1,0-1.82Zm7.28,0h1.82a.91.91,0,0,1,0,1.82H275.9a.91.91,0,1,1,0-1.82Zm7.28,0H285a.91.91,0,0,1,0,1.82h-1.82a.91.91,0,0,1,0-1.82Zm7.28,0h1.82a.91.91,0,0,1,0,1.82h-1.82a.91.91,0,0,1,0-1.82Zm7.28,0h1.82a.91.91,0,0,1,0,1.82h-1.82a.91.91,0,0,1,0-1.82Zm7.28,0h1.82a.91.91,0,1,1,0,1.82H305a.91.91,0,0,1,0-1.82Zm7.28,0h1.82a.91.91,0,1,1,0,1.82h-1.82a.91.91,0,0,1,0-1.82Zm7.28,0h1.82a.91.91,0,1,1,0,1.82h-1.82a.91.91,0,1,1,0-1.82Zm7.28,0h1.82a.91.91,0,1,1,0,1.82h-1.82a.91.91,0,1,1,0-1.82Zm7.28,0h1.82a.91.91,0,0,1,0,1.82h-1.82a.91.91,0,1,1,0-1.82Zm7.28,0h1.82a.91.91,0,0,1,0,1.82H341.4a.91.91,0,0,1,0-1.82Zm7.28,0h1.82a.91.91,0,0,1,0,1.82h-1.82a.91.91,0,0,1,0-1.82Zm7.28,0h1.82a.91.91,0,0,1,0,1.82H356a.91.91,0,0,1,0-1.82Zm7.28,0H365a.91.91,0,0,1,0,1.82h-1.82a.91.91,0,0,1,0-1.82Zm7.28,0h1.82a.91.91,0,1,1,0,1.82h-1.82a.91.91,0,0,1,0-1.82Zm7.28,0h1.82a.91.91,0,1,1,0,1.82h-1.82a.91.91,0,1,1,0-1.82Zm7.28,0h1.82a.91.91,0,1,1,0,1.82h-1.82a.91.91,0,1,1,0-1.82Zm7.28,0h1.82a.91.91,0,0,1,0,1.82h-1.82a.91.91,0,1,1,0-1.82Zm7.28,0h1.82a.91.91,0,0,1,0,1.82h-1.82a.91.91,0,0,1,0-1.82Zm7.28,0h1.82a.91.91,0,0,1,0,1.82H406.9a.91.91,0,0,1,0-1.82Zm-172.84.08a.91.91,0,0,1,.08,1.82q-.87.07-1.73.22a.91.91,0,0,1-.31-1.79q.93-.16,1.88-.24Zm-7,1.83a.91.91,0,0,1,.38,1.74q-.8.36-1.56.78a.91.91,0,0,1-.88-1.59q.83-.46,1.69-.85A.91.91,0,0,1,227,152.56Z"/><path class="cls-2" d="M206,170.77a16.43,16.43,0,1,1-16.43-16.43A16.45,16.45,0,0,1,206,170.77Zm-1.82,0a14.61,14.61,0,1,0-14.61,14.61A14.63,14.63,0,0,0,204.14,170.77Z"/><path class="cls-2" d="M237,170.77a16.43,16.43,0,1,1-16.43-16.43A16.45,16.45,0,0,1,237,170.77Zm-1.82,0a14.61,14.61,0,1,0-14.61,14.61A14.63,14.63,0,0,0,235.21,170.77Z"/><path class="cls-2" d="M222,187.08a16.94,16.94,0,1,1-16.94-16.94A17,17,0,0,1,222,187.08Zm-1.82,0a15.12,15.12,0,1,0-15.12,15.12A15.14,15.14,0,0,0,220.18,187.08Z"/><path class="cls-3" d="M200.95,190.09a4.12,4.12,0,0,0,8.23,0c0-2.27-4.1-8.35-4.1-8.35S201,187.82,200.95,190.09Z"/><path class="cls-3" d="M190.75,162.82a4.12,4.12,0,1,0,0,8.23c2.27,0,8.35-4.1,8.35-4.1S193,162.83,190.75,162.82Z"/><path class="cls-3" d="M219.38,162.82a4.12,4.12,0,0,1,0,8.23c-2.27,0-8.35-4.1-8.35-4.1S217.11,162.83,219.38,162.82Z"/><path class="cls-2" d="M387,138.69H23.1a1.82,1.82,0,0,1,0-3.64H387a1.82,1.82,0,0,1,0,3.64Z"/><path class="cls-2" d="M387,89.94H23.1a1.82,1.82,0,1,1,0-3.64H387a1.82,1.82,0,0,1,0,3.64Z"/></g></g></svg>