<?xml version="1.0" encoding="UTF-8"?>
<svg width="24px" height="26px" viewBox="0 0 24 26" version="1.1" xmlns="http://www.w3.org/2000/svg" xmlns:xlink="http://www.w3.org/1999/xlink">
    <!-- Generator: Sketch 46 (44423) - http://www.bohemiancoding.com/sketch -->
    <title>Shape</title>
    <desc>Created with Sketch.</desc>
    <defs></defs>
    <g id="Page-1" stroke="none" stroke-width="1" fill="none" fill-rule="evenodd">
        <g id="Artboard" transform="translate(-367.000000, -2141.000000)" fill-rule="nonzero" fill="#000000">
            <g id="Accomodation" transform="translate(0.000000, 1794.000000)">
                <g id="Langton-House-Hotel" transform="translate(367.000000, 347.000000)">
                    <g id="Group-7">
                        <g id="Group-8-Copy">
                            <path d="M1.75592063,21.1855561 C1.95614128,21.1855561 2.1186392,21.023613 2.1186392,20.8232674 L2.1186392,11.6204099 C2.1186392,6.17847142 6.55142291,1.75130355 11.9998186,1.75130355 C17.4478516,1.75130355 21.8802726,6.17847142 21.8802726,11.6204099 L21.8802726,20.8232674 C21.8802726,21.023613 22.0424078,21.1855561 22.2429912,21.1855561 C22.4435746,21.1855561 22.6057098,21.023613 22.6057098,20.8232674 L22.6057098,11.6204099 C22.6057098,6.24042278 18.5690148,1.78753242 13.362915,1.11693605 C13.2359635,0.481119388 12.6737498,0 11.9998186,0 C11.3262502,0 10.7640365,0.481119388 10.637085,1.11693605 C5.43062252,1.78753242 1.39356477,6.24042278 1.39356477,11.6204099 L1.39356477,20.8232674 C1.39320205,21.023613 1.55569997,21.1855561 1.75592063,21.1855561 Z M11.9998186,0.72493968 C12.2388502,0.72493968 12.4474134,0.85282759 12.5645715,1.04230458 C12.3774087,1.03252278 12.1895205,1.02708845 12.0001814,1.02708845 C11.8108423,1.02708845 11.6225913,1.03252278 11.4354285,1.04230458 C11.5525866,0.852465301 11.7607871,0.72493968 11.9998186,0.72493968 Z M4.41355963,12.0544318 L4.41355963,19.6867677 C4.41355963,20.5088008 5.04215092,21.1768611 5.81474149,21.1768611 L18.1841704,21.1768611 C18.9567609,21.1768611 19.5853522,20.5084385 19.5853522,19.6867677 L19.5853522,12.0544318 C19.5853522,11.2323987 18.9567609,10.5639761 18.1841704,10.5639761 L15.0959844,10.5639761 C15.1710671,10.4976772 15.2207596,10.4034822 15.2207596,10.2955202 L15.2207596,9.13221115 C15.2207596,8.62138409 14.8050841,8.20583896 14.2932882,8.20583896 L9.70562365,8.20583896 C9.19419046,8.20583896 8.77815225,8.62138409 8.77815225,9.13221115 L8.77815225,10.2955202 C8.77815225,10.4034822 8.8278447,10.4976772 8.90256472,10.5639761 L5.81474149,10.5639761 C5.04215092,10.5639761 4.41355963,11.232761 4.41355963,12.0544318 Z M18.8602778,19.68713 C18.8602778,20.1091963 18.5570451,20.452646 18.1845331,20.452646 L5.81510421,20.452646 C5.44259223,20.452646 5.1393595,20.1091963 5.1393595,19.68713 L5.1393595,14.9552774 C5.88510889,15.3418394 7.39147914,15.9222259 9.94320432,16.1417728 L9.94320432,16.8203396 C9.94320432,17.0206852 10.1057022,17.1826283 10.3059229,17.1826283 L13.6937144,17.1826283 C13.8942978,17.1826283 14.056433,17.0206852 14.056433,16.8203396 L14.056433,16.1544529 C16.6320976,15.948673 18.1203319,15.3693733 18.8602778,14.9719426 L18.8602778,19.68713 Z M10.6686415,16.4580509 L10.6686415,15.1621442 L13.3309958,15.1621442 L13.3309958,16.4580509 L10.6686415,16.4580509 Z M9.50395212,10.2955202 L9.50395212,9.13221115 C9.50395212,9.02098852 9.59463177,8.93041635 9.70598637,8.93041635 L14.2940136,8.93041635 C14.4053682,8.93041635 14.4960479,9.02098852 14.4960479,9.13221115 L14.4960479,10.2955202 C14.4960479,10.4034822 14.5457403,10.4976772 14.6208231,10.5639761 L9.37917693,10.5639761 C9.45425968,10.4976772 9.50395212,10.4038445 9.50395212,10.2955202 Z M18.1845331,11.2885535 C18.5570451,11.2885535 18.8602778,11.6320032 18.8602778,12.0544318 L18.8602778,14.1285346 C18.4725316,14.392643 17.0796923,15.1773603 14.056433,15.4280641 L14.056433,14.8002178 C14.056433,14.5998721 13.8942978,14.4379291 13.6937144,14.4379291 L10.3059229,14.4379291 C10.1057022,14.4379291 9.94320432,14.5998721 9.94320432,14.8002178 L9.94320432,15.4150217 C6.98886152,15.1509133 5.5514078,14.3835858 5.1393595,14.1209265 L5.1393595,12.0547941 C5.1393595,11.6323654 5.44259223,11.2889158 5.81510421,11.2889158 L18.1845331,11.2889158 L18.1845331,11.2885535 Z M23.6372814,21.6681246 L0.362718576,21.6681246 C0.162497922,21.6681246 0,21.8300676 0,22.0304133 C0,22.2307589 0.162497922,22.392702 0.362718576,22.392702 L3.95508335,22.392702 L20.0441912,22.392702 L23.6372814,22.392702 C23.8378648,22.392702 24,22.2307589 24,22.0304133 C24,21.8300676 23.8378648,21.6681246 23.6372814,21.6681246 Z M2.56478305,23.7817168 C2.56478305,24.5475952 3.18829628,25.1707317 3.95508335,25.1707317 C4.72187042,25.1707317 5.34574637,24.5475952 5.34574637,23.7817168 C5.34574637,23.0158385 4.72187042,22.392702 3.95508335,22.392702 C3.18829628,22.392702 2.56478305,23.0158385 2.56478305,23.7817168 Z M3.95508335,23.1172794 C4.32179183,23.1172794 4.62030922,23.4150807 4.62030922,23.7817168 C4.62030922,24.148353 4.32179183,24.4461543 3.95508335,24.4461543 C3.58837487,24.4461543 3.2902202,24.148353 3.2902202,23.7817168 C3.2902202,23.4150807 3.58837487,23.1172794 3.95508335,23.1172794 Z M18.6535282,23.7817168 C18.6535282,24.5475952 19.2774041,25.1707317 20.0441912,25.1707317 C20.8109783,25.1707317 21.4348542,24.5475952 21.4348542,23.7817168 C21.4348542,23.0158385 20.8109783,22.392702 20.0441912,22.392702 C19.2774041,22.392702 18.6535282,23.0158385 18.6535282,23.7817168 Z M20.0441912,23.1172794 C20.4112624,23.1172794 20.7094171,23.4150807 20.7094171,23.7817168 C20.7094171,24.148353 20.4112624,24.4461543 20.0441912,24.4461543 C19.67712,24.4461543 19.3789653,24.148353 19.3789653,23.7817168 C19.3789653,23.4150807 19.67712,23.1172794 20.0441912,23.1172794 Z" id="Shape"></path>
                        </g>
                    </g>
                </g>
            </g>
        </g>
    </g>
</svg>