<svg xmlns="http://www.w3.org/2000/svg" viewBox="0 0 167.5 59.65"><defs><style>.cls-1{fill:#fff;}</style></defs><title>notes</title><g id="Layer_2" data-name="Layer 2"><g id="Layer_1-2" data-name="Layer 1"><ellipse class="cls-1" cx="4.3" cy="39.84" rx="4.49" ry="2.75" transform="translate(-14.42 4.41) rotate(-21.69)"/><path class="cls-1" d="M7.55,15.33V38.25l1,.62V15.33Z"/><ellipse class="cls-1" cx="44.38" cy="55.38" rx="6.3" ry="3.86" transform="translate(-17.32 20.32) rotate(-21.69)"/><path class="cls-1" d="M48.95,21V53.15l1.46.87V21Z"/><ellipse class="cls-1" cx="21.34" cy="55.38" rx="6.3" ry="3.86" transform="translate(-18.96 11.81) rotate(-21.69)"/><path class="cls-1" d="M25.91,21V53.15l1.46.87V21Z"/><ellipse class="cls-1" cx="68.74" cy="55.38" rx="6.3" ry="3.86" transform="translate(-15.6 29.33) rotate(-21.69)"/><path class="cls-1" d="M73.3,21V53.15l1.46.87V21Z"/><rect class="cls-1" x="27.37" y="20.98" width="45.93" height="5.5"/><rect class="cls-1" x="50.41" y="29.51" width="22.89" height="3.17"/><ellipse class="cls-1" cx="97.42" cy="33.87" rx="5.2" ry="3.18" transform="translate(-5.62 38.41) rotate(-21.69)"/><path class="cls-1" d="M101.19,5.48V32l1.21.72V5.48Z"/><ellipse class="cls-1" cx="108.42" cy="43.87" rx="5.2" ry="3.18" transform="translate(-8.54 43.18) rotate(-21.69)"/><path class="cls-1" d="M112.19,15.48V42l1.21.72V15.48Z"/><path class="cls-1" d="M129.9,51.55V1.35L127.61,0V51.55Z"/><path class="cls-1" d="M129.9,51.55c11.42-7.4,20.58-29.22,0-17.3V36c7.57-5.29,17-.49-.68,14.44C129.9,50.48,129.9,51.55,129.9,51.55Z"/><ellipse class="cls-1" cx="154.01" cy="44.94" rx="6.79" ry="4.16" transform="translate(-5.7 60.1) rotate(-21.69)"/><path class="cls-1" d="M160.5,43.47V10.58c2.2,2.2,8.14,7.38,5,15.57,6.79-12.06-5.62-15.8-6.56-22.36V42.54Z"/><path class="cls-1" d="M160.5,22.2c2.2,2.2,8.14,7.38,5,15.57,5.49-9.76-1.58-14.07-5-18.84Z"/></g></g></svg>