<?xml version="1.0" encoding="UTF-8"?>
<svg width="20px" height="25px" viewBox="0 0 20 25" version="1.1" xmlns="http://www.w3.org/2000/svg" xmlns:xlink="http://www.w3.org/1999/xlink">
    <!-- Generator: Sketch 46 (44423) - http://www.bohemiancoding.com/sketch -->
    <title>train</title>
    <desc>Created with Sketch.</desc>
    <defs></defs>
    <g id="Page-1" stroke="none" stroke-width="1" fill="none" fill-rule="evenodd">
        <g id="Artboard" transform="translate(-368.000000, -3614.000000)" fill-rule="nonzero" fill="#000000">
            <path d="M387.126611,3638.91667 C387.043278,3639 386.918278,3639 386.793278,3639 C386.584945,3639 386.376611,3638.91667 386.251611,3638.70833 L384.459945,3635.83333 L370.959945,3635.83333 L369.168278,3638.70833 C369.043278,3638.91667 368.834945,3639 368.626611,3639 C368.501611,3639 368.418278,3638.95833 368.293278,3638.91667 C368.001611,3638.75 367.918278,3638.33333 368.084945,3638.04167 L371.168278,3633.16667 L372.626611,3633.16667 L371.709945,3634.625 L383.668278,3634.625 L382.793278,3633.16667 L384.251611,3633.16667 L387.334945,3638.04167 C387.501611,3638.33333 387.418278,3638.70833 387.126611,3638.91667 Z M369.209945,3629.66667 L369.209945,3616.66667 C369.209945,3615.20833 370.418278,3614 371.876611,3614 L383.584945,3614 C385.043278,3614 386.251611,3615.20833 386.251611,3616.66667 L386.251611,3629.66667 C386.251611,3631.125 385.043278,3632.33333 383.584945,3632.33333 L371.834945,3632.33333 C370.376611,3632.33333 369.209945,3631.125 369.209945,3629.66667 Z M384.959945,3629.66667 L384.959945,3625.08333 L370.459945,3625.08333 L370.459945,3629.66667 C370.459945,3630.45833 371.084945,3631.08333 371.876611,3631.08333 L383.584945,3631.08333 C384.334945,3631.08333 384.959945,3630.45833 384.959945,3629.66667 Z M384.959945,3618.41667 L370.459945,3618.41667 L370.459945,3623.83333 L385.001611,3623.83333 L385.001611,3618.41667 L384.959945,3618.41667 Z M370.459945,3616.66667 L370.459945,3617.16667 L385.001611,3617.16667 L385.001611,3616.66667 C385.001611,3615.875 384.376611,3615.25 383.584945,3615.25 L371.834945,3615.25 C371.084945,3615.25 370.459945,3615.875 370.459945,3616.66667 Z M375.751611,3628.16667 C375.751611,3629.33333 374.793278,3630.29167 373.626611,3630.29167 C372.459945,3630.29167 371.501611,3629.33333 371.501611,3628.16667 C371.501611,3627 372.459945,3626.04167 373.626611,3626.04167 C374.793278,3626.04167 375.751611,3627 375.751611,3628.16667 Z M374.501611,3628.16667 C374.501611,3627.70833 374.126611,3627.29167 373.626611,3627.29167 C373.126611,3627.29167 372.751611,3627.66667 372.751611,3628.16667 C372.751611,3628.66667 373.126611,3629.04167 373.626611,3629.04167 C374.126611,3629.04167 374.501611,3628.625 374.501611,3628.16667 Z M383.918278,3628.16667 C383.918278,3629.33333 382.959945,3630.29167 381.793278,3630.29167 C380.626611,3630.29167 379.668278,3629.33333 379.668278,3628.16667 C379.668278,3627 380.626611,3626.04167 381.793278,3626.04167 C382.959945,3626.04167 383.918278,3627 383.918278,3628.16667 Z M382.668278,3628.16667 C382.668278,3627.70833 382.293278,3627.29167 381.793278,3627.29167 C381.293278,3627.29167 380.918278,3627.66667 380.918278,3628.16667 C380.918278,3628.66667 381.293278,3629.04167 381.793278,3629.04167 C382.293278,3629.04167 382.668278,3628.625 382.668278,3628.16667 Z" id="train"></path>
        </g>
    </g>
</svg>