<?xml version="1.0" encoding="UTF-8"?>
<svg width="27px" height="29px" viewBox="0 0 27 29" version="1.1" xmlns="http://www.w3.org/2000/svg" xmlns:xlink="http://www.w3.org/1999/xlink">
    <!-- Generator: Sketch 46 (44423) - http://www.bohemiancoding.com/sketch -->
    <title>Airbnb</title>
    <desc>Created with Sketch.</desc>
    <defs></defs>
    <g id="Page-1" stroke="none" stroke-width="1" fill="none" fill-rule="evenodd">
        <g id="Artboard" transform="translate(-366.000000, -2455.000000)" fill-rule="nonzero" fill="#3E3E3E">
            <g id="Accomodation" transform="translate(0.000000, 1794.000000)">
                <g id="Airbnb" transform="translate(366.000000, 661.000000)">
                    <g id="Group-7-Copy">
                        <g id="Group-8-Copy">
                            <path d="M13.9409222,21.0950865 C13.7037564,20.8105764 13.5117121,20.5456264 13.1409599,20.0061687 C13.1165098,19.9706049 13.1165098,19.9706049 13.0920598,19.9350412 C13.0778343,19.9143698 13.0778343,19.9143698 13.0636087,19.8934761 C12.5559361,19.135079 12.1442857,18.408467 11.8224337,17.6822995 C11.5159185,16.9821381 11.3232074,16.3499923 11.2460785,15.738518 C11.1805079,15.1721652 11.2167384,14.6849417 11.3712185,14.277959 C11.5176967,13.8738658 11.7959831,13.5248964 12.1507316,13.2948434 C13.0373805,12.7120423 14.3018943,12.7871708 15.0822965,13.4737735 C15.4552713,13.7974037 15.7002167,14.2937404 15.7620087,14.8358654 C15.8398045,15.5291364 15.7099967,16.2848662 15.3977025,17.1339509 C14.9180364,18.4160243 14.1738648,19.6463079 13.0556069,21.1148688 L13.5061552,21.4602818 L13.9409222,21.0950865 Z M23.602261,23.152672 C23.3533147,24.027985 22.7522873,24.795273 21.9721074,25.2349299 C21.2846155,25.6265758 20.4542018,25.7679417 19.6613523,25.6330217 C18.7171346,25.4834317 17.7889206,24.9955414 16.82292,24.2029142 C16.2554559,23.7383626 15.7115527,23.1960154 15.0545123,22.4620683 L15.0798514,23.1920144 C16.1616564,21.798582 16.9416141,20.617643 17.5441975,19.383803 C18.2194643,17.9968165 18.6002187,16.7018512 18.6404502,15.4155546 C18.6673453,14.4495541 18.4775238,13.5188951 18.0658733,12.7198219 C17.5099674,11.6189014 16.5112926,10.7520348 15.3354659,10.3306043 C14.2709983,9.94340392 13.0840579,9.90628425 11.989361,10.2241353 C10.9368961,10.5275386 9.99601251,11.1707981 9.35297535,12.0425546 C8.79306847,12.7945058 8.45699097,13.7291658 8.37986207,14.7042795 C8.27717173,15.9225604 8.5296744,17.1899638 9.07313304,18.5318287 C9.71617021,20.0926331 10.6517193,21.5840881 11.9235681,23.1829012 L11.9344595,22.4594011 C11.4699079,23.0081943 10.9526776,23.5305369 10.3876584,24.0246509 C9.42454741,24.85462 8.51144797,25.3818527 7.57323163,25.588567 C6.74815249,25.7770549 5.87928548,25.6765873 5.15645213,25.3042793 C4.29514242,24.8670673 3.63121154,24.0404323 3.38204298,23.0953255 C3.19466644,22.4120568 3.22645155,21.6547711 3.46295052,20.9446073 C3.60209372,20.5289559 3.74234828,20.1937675 4.07286894,19.4564864 C4.0866499,19.4255904 4.0866499,19.4255904 4.10065313,19.3944721 C4.16088924,19.2597744 4.20000937,19.1724209 4.23979632,19.0821779 C6.15379322,14.8318645 8.18048277,10.5897752 10.315864,6.36057777 C10.3612078,6.27100156 10.3974384,6.19920723 10.4790128,6.03783669 C10.483236,6.02961257 10.483236,6.02961257 10.4872369,6.02161072 C10.8686582,5.26565863 11.0458101,4.92157929 11.2711954,4.50748381 C11.5737096,3.95957969 11.8399933,3.60349758 12.1614007,3.35499584 C12.5466006,3.04825844 13.0298232,2.88377607 13.5061552,2.89488974 C14.015606,2.88911063 14.5134986,3.07381989 14.8986986,3.40345146 C15.2425556,3.69418516 15.5055052,4.07782918 15.8571418,4.74620552 C16.3625917,5.71309514 16.8024709,6.58551853 17.6082122,8.20633671 C17.6802288,8.35103675 17.6802288,8.35103675 17.7522454,8.49595905 C17.7602473,8.51196274 17.7602473,8.51196274 17.7682491,8.52796643 C19.5737766,12.1685837 21.2995078,15.8236487 22.9441093,19.4924947 C22.9663366,19.5438399 22.9838962,19.5831823 23.0256836,19.6785376 C23.0410205,19.7134345 23.0410205,19.7134345 23.0565797,19.7483315 C23.3657621,20.4491597 23.4924579,20.7674554 23.602261,21.1619908 C23.7829694,21.8176975 23.784303,22.5174144 23.6024833,23.1515607 L23.602261,23.152672 Z M26.5376046,21.9719553 C26.5287136,21.1539889 26.3513394,20.3189075 26.0294874,19.485382 C25.8701173,19.0715087 25.7294182,18.7456558 25.410678,18.034603 C25.4013426,18.0139315 25.4013426,18.0139315 25.3920071,17.9930378 C25.3477746,17.8941261 25.3477746,17.8941261 25.3035422,17.795659 C23.3479802,13.4548803 21.2912837,9.15144353 19.1341196,4.88534872 C19.0794404,4.7782129 19.036097,4.69241534 18.9398526,4.50237152 C18.9378522,4.49859287 18.9378522,4.49859287 18.9358517,4.49459195 C18.5828814,3.79732005 18.4203995,3.48213627 18.2085729,3.0947136 C17.8209279,2.39010668 17.425948,1.83953528 16.9487268,1.38898695 C16.1089776,0.57368784 14.9727156,0.0760175286 13.7919989,0.00133364085 L13.2783249,0 C12.0380389,0.0615697527 10.8639904,0.579022404 10.000458,1.4363312 C9.54813146,1.87265403 9.16893291,2.40699947 8.79040118,3.09404678 C8.57790774,3.48169172 8.40320079,3.81999195 8.07001285,4.4790328 C8.05023051,4.51793066 8.05023051,4.51793066 8.03067044,4.55682852 C7.95465292,4.70730766 7.92153417,4.77287834 7.87863539,4.85734226 C6.44297101,7.6944409 5.04198129,10.5706597 3.6743326,13.4868877 C2.67410196,15.6287149 1.96771685,17.1710705 1.28800457,18.7118703 C0.868574519,19.6674239 0.630964173,20.3820332 0.526940187,21.1410971 C0.306889446,22.6052125 0.62118414,24.1497908 1.39691857,25.4196392 C2.06485036,26.5216711 3.06685919,27.405875 4.23290584,27.9177708 C5.14155981,28.317863 6.14290182,28.4985714 7.12890695,28.4394466 C8.37474978,28.3720978 9.62592718,27.9346636 10.7850834,27.2029393 C11.8457724,26.5398975 12.7995479,25.6812551 13.9182503,24.458751 L13.0822797,24.4578619 C14.1071827,25.5827879 14.9969434,26.3987539 15.9731685,27.0475701 C17.1196551,27.8157473 18.3490497,28.2976362 19.5893357,28.4167747 C21.0312237,28.5701434 22.5202338,28.2027254 23.7251783,27.3887599 C24.7858673,26.6772625 25.623616,25.628354 26.0943912,24.4240763 C26.4000173,23.6447855 26.5518301,22.8045918 26.5373823,21.9681767 L26.5376046,21.9719553 Z" id="Airbnb"></path>
                        </g>
                    </g>
                </g>
            </g>
        </g>
    </g>
</svg>