<svg xmlns="http://www.w3.org/2000/svg" viewBox="0 0 42.35 24.69"><defs><style>.cls-1{fill:#fff;}</style></defs><title>bookmark--right</title><g id="Layer_2" data-name="Layer 2"><g id="Layer_1-2" data-name="Layer 1"><path class="cls-1" d="M17.15,10.73a.35.35,0,0,1-.35-.35V9a.35.35,0,1,1,.7,0v1.35A.35.35,0,0,1,17.15,10.73Z"/><path class="cls-1" d="M17.15,8.44a.35.35,0,0,1-.35-.35V.35a.35.35,0,1,1,.7,0V8.09A.35.35,0,0,1,17.15,8.44Z"/><path class="cls-1" d="M18.75,10.91h-.07a.35.35,0,0,1-.28-.41l1.13-5.87a.35.35,0,0,1,.69.13L19.1,10.63A.35.35,0,0,1,18.75,10.91Z"/><path class="cls-1" d="M20.09,3.94H20a.35.35,0,0,1-.28-.41l.19-1a.35.35,0,0,1,.69.13l-.19,1A.35.35,0,0,1,20.09,3.94Z"/><path class="cls-1" d="M20.29,11.34l-.14,0a.35.35,0,0,1-.19-.46l2.3-5.49a.35.35,0,1,1,.65.27l-2.3,5.49A.35.35,0,0,1,20.29,11.34Z"/><path class="cls-1" d="M14,11.08a.35.35,0,0,1-.32-.21L11.43,5.63a.35.35,0,0,1,.64-.27l2.22,5.24a.35.35,0,0,1-.19.46Z"/><path class="cls-1" d="M15.54,10.78a.35.35,0,0,1-.34-.28L13.53,2.65a.35.35,0,0,1,.68-.15l1.67,7.85a.35.35,0,0,1-.27.42Z"/><path class="cls-1" d="M24,13.88a.35.35,0,0,1-.2-.64l2.78-2a.35.35,0,1,1,.4.57l-2.78,2A.35.35,0,0,1,24,13.88Z"/><path class="cls-1" d="M28.05,11.06a.35.35,0,0,1-.2-.64l3.31-2.33a.35.35,0,1,1,.4.57L28.25,11A.35.35,0,0,1,28.05,11.06Z"/><path class="cls-1" d="M21.73,12a.35.35,0,0,1-.29-.55l3.29-4.79a.35.35,0,1,1,.58.4L22,11.8A.35.35,0,0,1,21.73,12Z"/><path class="cls-1" d="M23,12.83a.35.35,0,0,1-.25-.6l.92-.93a.35.35,0,1,1,.5.49l-.92.93A.35.35,0,0,1,23,12.83Z"/><path class="cls-1" d="M24.64,11.14a.35.35,0,0,1-.25-.6l4.32-4.39a.35.35,0,1,1,.5.49L24.89,11A.35.35,0,0,1,24.64,11.14Z"/><path class="cls-1" d="M9.69,13.71a.35.35,0,0,1-.19-.05L7.07,12.12a.35.35,0,1,1,.37-.59l2.44,1.54a.35.35,0,0,1-.19.65Z"/><path class="cls-1" d="M5.12,10.83a.35.35,0,0,1-.19-.05l-4.77-3a.35.35,0,1,1,.37-.59l4.77,3a.35.35,0,0,1-.19.65Z"/><path class="cls-1" d="M10.81,12.7a.35.35,0,0,1-.23-.09L6.13,8.69a.35.35,0,1,1,.46-.52L11,12.09a.35.35,0,0,1-.23.61Z"/><path class="cls-1" d="M5.28,7.82a.35.35,0,0,1-.23-.09L4,6.84a.35.35,0,1,1,.46-.52l1,.89a.35.35,0,0,1-.23.61Z"/><path class="cls-1" d="M12.11,11.87a.35.35,0,0,1-.28-.14L8.06,6.89a.35.35,0,0,1,.55-.43l3.76,4.85a.35.35,0,0,1-.28.56Z"/><path class="cls-1" d="M4.5,15.26H4.41l-2.53-.62a.35.35,0,0,1,.17-.68l2.53.62a.35.35,0,0,1-.08.69Z"/><path class="cls-1" d="M8.8,14.87l-.13,0L.37,11.41a.35.35,0,1,1,.27-.65l8.3,3.44a.35.35,0,0,1-.13.67Z"/><path class="cls-1" d="M42,24.69H4.93a.35.35,0,0,1-.3-.17A28.58,28.58,0,0,0,.67,20a.35.35,0,0,1-.09-.35,6,6,0,0,1,1.81-2.89,4.28,4.28,0,0,1,4-1.14,2.54,2.54,0,0,1-.49,4.94,2.26,2.26,0,0,1-2.19-1,1.87,1.87,0,0,1,.47-2.4,1.61,1.61,0,0,1,1.38-.2,1.46,1.46,0,0,1,1,.85.35.35,0,0,1-.65.26.76.76,0,0,0-.51-.43.91.91,0,0,0-.78.1,1.16,1.16,0,0,0-.27,1.48,1.57,1.57,0,0,0,1.51.7,1.84,1.84,0,0,0,.35-3.58,3.58,3.58,0,0,0-3.34,1,5.27,5.27,0,0,0-1.52,2.35A30.11,30.11,0,0,1,5.12,24H39.57a7.49,7.49,0,0,1-3.64-2.93l-2.47,2.17a.35.35,0,1,1-.46-.53l2.82-2.47a.35.35,0,0,1,.56.14c.77,2,3.79,3.38,5.67,3.63a.35.35,0,0,1,0,.7Z"/><path class="cls-1" d="M21.21,22.5A.35.35,0,0,1,20.9,22a8.19,8.19,0,0,1,5-4,17.58,17.58,0,0,0-4.21-3.45,12.47,12.47,0,0,0-5.12-1.9,6.46,6.46,0,0,0-5,1.45,4.38,4.38,0,0,0-1.25,4.75,3.41,3.41,0,0,0,1.94,1.81,2.83,2.83,0,0,0,2.26,0,2.6,2.6,0,0,0,1.35-2.09,2.22,2.22,0,0,0-.75-2,1.89,1.89,0,0,0-2.3-.06,1.45,1.45,0,0,0-.49,1.11,1.21,1.21,0,0,0,.4.94.35.35,0,0,1-.45.54,1.9,1.9,0,0,1-.64-1.48,2.16,2.16,0,0,1,.75-1.65,2.58,2.58,0,0,1,3.17,0,2.91,2.91,0,0,1,1,2.64,3.3,3.3,0,0,1-1.74,2.65,3.53,3.53,0,0,1-2.81.07,4.13,4.13,0,0,1-2.34-2.2,5.09,5.09,0,0,1,1.42-5.54,7.16,7.16,0,0,1,5.55-1.63,13.14,13.14,0,0,1,5.41,2,17.72,17.72,0,0,1,4.75,4,.35.35,0,0,1-.21.56,7.47,7.47,0,0,0-5.12,3.78A.35.35,0,0,1,21.21,22.5Z"/><path class="cls-1" d="M29.4,23.11a2.62,2.62,0,0,1-2.45-1.62,2.23,2.23,0,0,1,.23-1.89,2,2,0,0,1,1.41-1,1.88,1.88,0,0,1,1.73.8,1.69,1.69,0,0,1,.24,1.72.35.35,0,1,1-.64-.29,1,1,0,0,0-.17-1,1.19,1.19,0,0,0-1.07-.52,1.29,1.29,0,0,0-.91.64,1.52,1.52,0,0,0-.16,1.29,2,2,0,0,0,2.16,1.12,2.66,2.66,0,0,0,1.9-1.84,4.06,4.06,0,0,0-.27-2.83,5.47,5.47,0,0,0-9.19-1.26,11.28,11.28,0,0,0-1.3,2.14,15.16,15.16,0,0,1-1,1.81c-.94,1.34-2.7,2.5-4.34,1.85a.35.35,0,1,1,.26-.65c1.23.48,2.69-.44,3.51-1.6a14.69,14.69,0,0,0,1-1.73A12,12,0,0,1,21.67,16,6.17,6.17,0,0,1,32,17.41a4.75,4.75,0,0,1,.3,3.32,3.33,3.33,0,0,1-2.42,2.33A2.56,2.56,0,0,1,29.4,23.11Z"/></g></g></svg>