<svg xmlns="http://www.w3.org/2000/svg" viewBox="0 0 42.35 24.69"><defs><style>.cls-1{fill:#fff;}</style></defs><title>bookmark--left</title><g id="Layer_2" data-name="Layer 2"><g id="Layer_1-2" data-name="Layer 1"><path class="cls-1" d="M25.2,10.73a.35.35,0,0,0,.35-.35V9a.35.35,0,1,0-.7,0v1.35A.35.35,0,0,0,25.2,10.73Z"/><path class="cls-1" d="M25.2,8.44a.35.35,0,0,0,.35-.35V.35a.35.35,0,1,0-.7,0V8.09A.35.35,0,0,0,25.2,8.44Z"/><path class="cls-1" d="M23.6,10.91h.07a.35.35,0,0,0,.28-.41L22.82,4.63a.35.35,0,0,0-.69.13l1.13,5.87A.35.35,0,0,0,23.6,10.91Z"/><path class="cls-1" d="M22.26,3.94h.07a.35.35,0,0,0,.28-.41l-.19-1a.35.35,0,0,0-.69.13l.19,1A.35.35,0,0,0,22.26,3.94Z"/><path class="cls-1" d="M22.06,11.34l.14,0a.35.35,0,0,0,.19-.46l-2.3-5.49a.35.35,0,1,0-.65.27l2.3,5.49A.35.35,0,0,0,22.06,11.34Z"/><path class="cls-1" d="M28.38,11.08a.35.35,0,0,0,.32-.21l2.22-5.24a.35.35,0,0,0-.64-.27L28.06,10.6a.35.35,0,0,0,.19.46Z"/><path class="cls-1" d="M26.81,10.78a.35.35,0,0,0,.34-.28l1.67-7.85a.35.35,0,0,0-.68-.15l-1.67,7.85a.35.35,0,0,0,.27.42Z"/><path class="cls-1" d="M18.3,13.88a.35.35,0,0,0,.2-.64l-2.78-2a.35.35,0,1,0-.4.57l2.78,2A.35.35,0,0,0,18.3,13.88Z"/><path class="cls-1" d="M14.3,11.06a.35.35,0,0,0,.2-.64L11.19,8.09a.35.35,0,1,0-.4.57L14.1,11A.35.35,0,0,0,14.3,11.06Z"/><path class="cls-1" d="M20.63,12a.35.35,0,0,0,.29-.55L17.62,6.61A.35.35,0,1,0,17,7l3.29,4.79A.35.35,0,0,0,20.63,12Z"/><path class="cls-1" d="M19.37,12.83a.35.35,0,0,0,.25-.6l-.92-.93a.35.35,0,1,0-.5.49l.92.93A.35.35,0,0,0,19.37,12.83Z"/><path class="cls-1" d="M17.71,11.14a.35.35,0,0,0,.25-.6L13.64,6.16a.35.35,0,1,0-.5.49L17.46,11A.35.35,0,0,0,17.71,11.14Z"/><path class="cls-1" d="M32.66,13.71a.35.35,0,0,0,.19-.05l2.44-1.54a.35.35,0,1,0-.37-.59l-2.44,1.54a.35.35,0,0,0,.19.65Z"/><path class="cls-1" d="M37.23,10.83a.35.35,0,0,0,.19-.05l4.77-3a.35.35,0,1,0-.37-.59l-4.77,3a.35.35,0,0,0,.19.65Z"/><path class="cls-1" d="M31.54,12.7a.35.35,0,0,0,.23-.09l4.44-3.92a.35.35,0,1,0-.46-.52l-4.44,3.92a.35.35,0,0,0,.23.61Z"/><path class="cls-1" d="M37.07,7.82a.35.35,0,0,0,.23-.09l1-.89a.35.35,0,1,0-.46-.52l-1,.89a.35.35,0,0,0,.23.61Z"/><path class="cls-1" d="M30.25,11.87a.35.35,0,0,0,.28-.14l3.76-4.85a.35.35,0,0,0-.55-.43L30,11.31a.35.35,0,0,0,.28.56Z"/><path class="cls-1" d="M37.85,15.26h.08l2.53-.62a.35.35,0,0,0-.17-.68l-2.53.62a.35.35,0,0,0,.08.69Z"/><path class="cls-1" d="M33.55,14.87l.13,0L42,11.41a.35.35,0,1,0-.27-.65l-8.3,3.44a.35.35,0,0,0,.13.67Z"/><path class="cls-1" d="M.35,24.69H37.42a.35.35,0,0,0,.3-.17,28.58,28.58,0,0,1,4-4.55.35.35,0,0,0,.09-.35A6,6,0,0,0,40,16.73a4.28,4.28,0,0,0-4-1.14,2.54,2.54,0,0,0,.49,4.94,2.26,2.26,0,0,0,2.19-1,1.87,1.87,0,0,0-.47-2.4,1.61,1.61,0,0,0-1.38-.2,1.46,1.46,0,0,0-1,.85.35.35,0,0,0,.65.26.76.76,0,0,1,.51-.43.91.91,0,0,1,.78.1A1.16,1.16,0,0,1,38,19.14a1.57,1.57,0,0,1-1.51.7,1.84,1.84,0,0,1-.35-3.58,3.58,3.58,0,0,1,3.34,1A5.27,5.27,0,0,1,41,19.62,30.11,30.11,0,0,0,37.23,24H2.78a7.49,7.49,0,0,0,3.64-2.93l2.47,2.17a.35.35,0,1,0,.46-.53L6.53,20.22a.35.35,0,0,0-.56.14C5.21,22.33,2.19,23.74.3,24a.35.35,0,0,0,0,.7Z"/><path class="cls-1" d="M21.14,22.5a.35.35,0,0,0,.31-.51,8.19,8.19,0,0,0-5-4,17.58,17.58,0,0,1,4.21-3.45,12.47,12.47,0,0,1,5.12-1.9,6.46,6.46,0,0,1,5,1.45A4.38,4.38,0,0,1,32,18.82a3.41,3.41,0,0,1-1.94,1.81,2.83,2.83,0,0,1-2.26,0,2.6,2.6,0,0,1-1.35-2.09,2.22,2.22,0,0,1,.75-2,1.89,1.89,0,0,1,2.3-.06A1.45,1.45,0,0,1,30,17.53a1.21,1.21,0,0,1-.4.94.35.35,0,0,0,.45.54,1.9,1.9,0,0,0,.64-1.48A2.16,2.16,0,0,0,30,15.88a2.58,2.58,0,0,0-3.17,0,2.91,2.91,0,0,0-1,2.64,3.3,3.3,0,0,0,1.74,2.65,3.53,3.53,0,0,0,2.81.07,4.13,4.13,0,0,0,2.34-2.2,5.09,5.09,0,0,0-1.42-5.54,7.16,7.16,0,0,0-5.55-1.63,13.14,13.14,0,0,0-5.41,2,17.72,17.72,0,0,0-4.75,4,.35.35,0,0,0,.21.56,7.47,7.47,0,0,1,5.12,3.78A.35.35,0,0,0,21.14,22.5Z"/><path class="cls-1" d="M13,23.11a2.62,2.62,0,0,0,2.45-1.62,2.23,2.23,0,0,0-.23-1.89,2,2,0,0,0-1.41-1,1.88,1.88,0,0,0-1.73.8,1.69,1.69,0,0,0-.24,1.72.35.35,0,1,0,.64-.29,1,1,0,0,1,.17-1,1.19,1.19,0,0,1,1.07-.52,1.29,1.29,0,0,1,.91.64,1.52,1.52,0,0,1,.16,1.29,2,2,0,0,1-2.16,1.12,2.66,2.66,0,0,1-1.9-1.84A4.06,4.06,0,0,1,11,17.7a5.47,5.47,0,0,1,9.19-1.26,11.28,11.28,0,0,1,1.3,2.14,15.16,15.16,0,0,0,1,1.81c.94,1.34,2.7,2.5,4.34,1.85a.35.35,0,1,0-.26-.65c-1.23.48-2.69-.44-3.51-1.6a14.69,14.69,0,0,1-1-1.73A12,12,0,0,0,20.68,16a6.17,6.17,0,0,0-10.37,1.42,4.75,4.75,0,0,0-.3,3.32,3.33,3.33,0,0,0,2.42,2.33A2.56,2.56,0,0,0,13,23.11Z"/></g></g></svg>