<?xml version="1.0" encoding="UTF-8"?>
<svg width="23px" height="25px" viewBox="0 0 23 25" version="1.1" xmlns="http://www.w3.org/2000/svg" xmlns:xlink="http://www.w3.org/1999/xlink">
    <!-- Generator: Sketch 46 (44423) - http://www.bohemiancoding.com/sketch -->
    <title>bus</title>
    <desc>Created with Sketch.</desc>
    <defs></defs>
    <g id="Page-1" stroke="none" stroke-width="1" fill="none" fill-rule="evenodd">
        <g id="Artboard" transform="translate(-367.000000, -3402.000000)" fill="#000000">
            <g id="Travel" transform="translate(0.000000, 3006.000000)">
                <g id="From-Dublin" transform="translate(367.000000, 392.000000)">
                    <g id="bus" transform="translate(0.000000, 4.000000)">
                        <g>
                            <rect id="Rectangle-path" fill-rule="nonzero" transform="translate(5.164422, 9.151202) rotate(44.991897) translate(-5.164422, -9.151202) " x="4.5541065" y="6.88981041" width="1.22063116" height="4.52278276"></rect>
                            <rect id="Rectangle-path" fill-rule="nonzero" transform="translate(6.513441, 10.489724) rotate(45.000000) translate(-6.513441, -10.489724) " x="5.90312578" y="5.80525775" width="1.22063115" height="9.36893189"></rect>
                            <path d="M20.8407381,0.509782609 L2.15980952,0.509782609 C1.25404762,0.509782609 0.516952381,1.24130435 0.516952381,2.14021739 L0.516952381,20.0407609 C0.516952381,20.6119565 0.8165,21.1141304 1.26664286,21.4059783 L1.26664286,23.4038043 C1.26664286,24.0027174 1.75785714,24.4907609 2.36188095,24.4907609 L5.03152381,24.4907609 C5.63554762,24.4907609 6.1267619,24.0027174 6.1267619,23.4038043 L6.1267619,21.6711957 L16.8737857,21.6711957 L16.8737857,23.4038043 C16.8737857,24.0027174 17.3644524,24.4907609 17.9690238,24.4907609 L20.6386667,24.4907609 C21.2432381,24.4907609 21.7339048,24.0027174 21.7339048,23.4038043 L21.7339048,21.4059783 C22.1840476,21.1141304 22.4835952,20.6119565 22.4835952,20.0407609 L22.4835952,2.14021739 C22.4835952,1.24130435 21.7465,0.509782609 20.8407381,0.509782609 Z M1.61219048,16.0896739 L3.06009524,16.0896739 C2.42211905,16.2711957 1.89914286,16.7108696 1.61219048,17.2923913 L1.61219048,16.0896739 L1.61219048,16.0896739 Z M3.69588095,17.0782609 C4.37547619,17.0782609 4.92802381,17.6271739 4.92802381,18.301087 C4.92802381,18.975 4.37547619,19.523913 3.69588095,19.523913 C3.01628571,19.523913 2.4637381,18.975 2.4637381,18.301087 C2.4637381,17.6271739 3.01628571,17.0782609 3.69588095,17.0782609 Z M2.15980952,20.5842391 C1.85807143,20.5842391 1.61219048,20.3402174 1.61219048,20.0407609 L1.61219048,19.3092391 C1.95390476,20 2.62911905,20.4918478 3.43138095,20.5842391 L2.15980952,20.5842391 Z M2.36188095,23.4038043 L2.36188095,21.6711957 L5.03152381,21.6711957 L5.03207143,23.4038043 L2.36188095,23.4038043 Z M5.69852381,20.5842391 L3.96038095,20.5842391 C4.70404762,20.4994565 5.33764286,20.0706522 5.69852381,19.4570652 L5.69852381,20.5842391 Z M5.69852381,17.1440217 C5.39952381,16.6353261 4.91378571,16.2554348 4.33166667,16.0902174 L5.69852381,16.0902174 L5.69852381,17.1440217 Z M16.2062381,20.5842391 L6.7937619,20.5842391 L6.7937619,16.0896739 L16.2062381,16.0896739 L16.2062381,20.5842391 L16.2062381,20.5842391 Z M17.3014762,20.5842391 L17.3014762,19.5842391 C17.6727619,20.1331522 18.2767857,20.5043478 18.9700714,20.5842391 L17.3014762,20.5842391 Z M17.3014762,17.0179348 L17.3014762,16.0902174 L18.5987857,16.0902174 C18.0637619,16.2418478 17.6037619,16.5695652 17.3014762,17.0179348 Z M19.2345714,17.0782609 C19.9141667,17.0782609 20.4667143,17.6271739 20.4667143,18.301087 C20.4667143,18.975 19.9141667,19.523913 19.2345714,19.523913 C18.5549762,19.523913 18.0024286,18.975 18.0024286,18.301087 C18.0024286,17.6271739 18.5549762,17.0782609 19.2345714,17.0782609 Z M17.9690238,23.4038043 L17.9690238,21.6711957 L20.6386667,21.6711957 L20.6397619,23.4038043 L17.9690238,23.4038043 Z M21.3883571,20.0407609 C21.3883571,20.3402174 21.1424762,20.5842391 20.8407381,20.5842391 L19.499619,20.5842391 C20.3560952,20.486413 21.0734762,19.9347826 21.3883571,19.1701087 L21.3883571,20.0407609 Z M21.3883571,17.4315217 C21.1200238,16.7798913 20.5592619,16.2853261 19.8709048,16.0896739 L21.3883571,16.0896739 L21.3883571,17.4315217 Z M21.3883571,15.0027174 L1.61219048,15.0027174 L1.61219048,6.54456522 L21.3883571,6.54456522 L21.3883571,15.0027174 Z M21.3883571,5.4576087 L1.61219048,5.4576087 L1.61219048,2.14021739 C1.61219048,1.84021739 1.85807143,1.59673913 2.15980952,1.59673913 L20.8407381,1.59673913 C21.1424762,1.59673913 21.3883571,1.84021739 21.3883571,2.14021739 L21.3883571,5.4576087 Z" id="Shape" fill-rule="nonzero"></path>
                            <rect id="Rectangle-path" fill-rule="nonzero" x="9.27557143" y="2.70652174" width="4.44940476" height="1.08695652"></rect>
                        </g>
                    </g>
                </g>
            </g>
        </g>
    </g>
</svg>