<svg xmlns="http://www.w3.org/2000/svg" viewBox="0 0 40.22 24.78"><defs><style>.cls-1{fill:#fff;}</style></defs><title>mask</title><g id="Layer_2" data-name="Layer 2"><g id="Layer_1-2" data-name="Layer 1"><path class="cls-1" d="M27.54,6.67c1.27-2.06,3-2.62,5-1.64a1.78,1.78,0,0,1,.84-2.28c.79-.47,1.58-.3,2.5.5a1.26,1.26,0,0,1,.73-1,.9.9,0,0,1,1.3.66.82.82,0,0,1-.14.46.32.32,0,0,1-.28.07.26.26,0,0,1-.12-.23c0-.07.14-.12.22-.17l.08,0A.62.62,0,0,0,37,2.46.83.83,0,0,0,36.2,3a1,1,0,0,0,.58,1.22,1,1,0,0,0,1.37-.35,2,2,0,0,0,.25-1.24c0-.42-.08-.83-.1-1.25A1.47,1.47,0,0,1,38.62.26.72.72,0,0,1,39.35,0a.58.58,0,0,1,.49.46.76.76,0,0,1-.06.38s-.23,0-.25,0a1.47,1.47,0,0,1-.07-.43c-.19-.16-.4-.15-.62.09a1.58,1.58,0,0,0-.36,1.23A9.25,9.25,0,0,0,38.58,3a3.24,3.24,0,0,0,.33.88c.1.18.26.22.43,0s.35-.21.43.1.07.37.13.54,0,.4-.36.41a2,2,0,0,1,.64,1.68,2.15,2.15,0,0,1-1,1.57c.37.11.68.27.73.67a1.08,1.08,0,0,1-.09.51c0,.08-.17.11-.26.16l-.13-.24c0-.05,0-.11-.09-.25-.12.15-.26.24-.29.36a5,5,0,0,0-.19,1,2.83,2.83,0,0,1-.51,1.69,9.27,9.27,0,0,1-1.29,1.16,1.49,1.49,0,0,1-.52.16l.35.78.22-.27.07.07c.17.23,0,.47,0,.67s.07.42-.16.57c0,0-.06.11-.09.17s0,.15-.09.18c-.28.15-.57.28-.86.41,0,0-.08,0-.09,0-.16.34-.5.29-.78.38s-.3.33-.33.58a8.13,8.13,0,0,1-.17,1.35A1.71,1.71,0,0,1,33,19.6a1.84,1.84,0,0,1-1.77-1.06c-.05-.09-.1-.2-.15-.29h0l-.32.68c.17-.1.29-.33.5-.13a.43.43,0,0,1,0,.6.53.53,0,0,1-.56.27.6.6,0,0,1-.49-.47c0-.17,0-.36-.06-.53s-.1-.32-.2-.36a.46.46,0,0,0-.39.12c-.33.34-.61.73-.95,1.08s-.71.68-1.09,1l1.06.21,0-.09-.11-.16a.45.45,0,0,1,.61.1c.12.25,0,.4-.22.52a.86.86,0,0,1-.33.13c-.28,0-.57.06-.85.12a1.61,1.61,0,0,0-.34.19c-.2.1-.39.19-.59.28s-.35,0-.32-.26c0-.4-.06-.51-.47-.43A2.2,2.2,0,0,0,24.5,22a2.25,2.25,0,0,0-1.61,0,1.25,1.25,0,0,0-.29.16c-.17.12-.2.26,0,.42s.17.23.14.29a.44.44,0,0,1-.3.17c-.3.05-.6,0-.89.11a4.79,4.79,0,0,0-.63.24,2.39,2.39,0,0,1-.53.17c-.22,0-.43,0-.47-.31s.16-.38.45-.42V23l.06.06.82-.76,0-.08a7,7,0,0,1-2.71-.57l-.24,0c-.32,0-.44.15-.32.44s.18.4.26.6a.55.55,0,0,1-.2.66.57.57,0,0,1-.7,0c-.17-.12-.29-.29-.15-.48s.26-.1.4-.15l-.63-.42a5.08,5.08,0,0,1,0,.67,1.85,1.85,0,0,1-3.22,1.22,5.89,5.89,0,0,1-.67-.87c-.25-.38-.4-.43-.81-.27a2.64,2.64,0,0,1-.6.08,9.63,9.63,0,0,1-1.08.06,1.77,1.77,0,0,1-.51-.22.29.29,0,0,1-.21-.31c0-.11-.22-.19-.3-.31a1.75,1.75,0,0,1-.13-.43L9.8,22l-.12-.83a1.4,1.4,0,0,1-1.28,0,.22.22,0,0,0-.12,0,2.2,2.2,0,0,1-1.93-1c-.27-.32-.53-.64-.82-.94A1.85,1.85,0,0,0,5,19c0,.17.06.24.07.3s0,.17,0,.25a.85.85,0,0,1-.31,0,.74.74,0,0,1-.3-1.09c0-.07.11-.14.19-.25a2.17,2.17,0,0,1-1.61-.8,2,2,0,0,1-.38-1.74c-.38.12-.65-.1-.69-.53,0,0,0-.08,0-.12-.05-.43-.05-.43.38-.37.23,0,.3-.13.28-.29a3.23,3.23,0,0,0-.19-.9,6.94,6.94,0,0,0-.69-1.29A2.48,2.48,0,0,0,1,11.52c-.31-.17-.52,0-.7.28a.15.15,0,0,0,0,.05,1,1,0,0,1,.2.28s-.18.19-.22.17A.61.61,0,0,1,0,12a.7.7,0,0,1,.3-.75.85.85,0,0,1,.93,0,3.2,3.2,0,0,1,.92,1.27,7.8,7.8,0,0,0,.61,1A1.1,1.1,0,0,0,4,14a1.16,1.16,0,0,0,.83-1,.9.9,0,0,0-.55-1,.82.82,0,0,0-1,.36,2.64,2.64,0,0,0-.14.62l.2-.07c.09,0,.2,0,.26,0a.24.24,0,0,1,0,.23.38.38,0,0,1-.26.14.59.59,0,0,1-.49-.56,1,1,0,0,1,1.44-.95,3.76,3.76,0,0,1,.55.33C5.34,10.93,6,10.41,7,10.48A1.79,1.79,0,0,1,8.64,12a3.51,3.51,0,0,1,5.09-1.33c0-.09,0-.15,0-.2a1.1,1.1,0,0,1,1-1.18c.27,0,.55,0,.83-.07l.35-.05V9.09h-.1c-.2,0-.37,0-.4-.25a.42.42,0,0,1,.27-.48.93.93,0,0,1,1.1.28.84.84,0,0,1-.28,1.06c-.21.17-.45.3-.66.45s-.35.55,0,.76a2.29,2.29,0,0,0,.59.21c.59.14,1.19.25,1.79.38l0-.44c-.32-.29-.3-.53.06-.8.05,0,.13-.09.14-.14,0-.4.32-.38.59-.37a4.82,4.82,0,0,1,.57.1l-.3-.58.29,0c-.22-.48-.22-.48.29-.56-.08-.28.07-.45.26-.65s.08-.37.12-.62a1.34,1.34,0,0,1,.16.2.54.54,0,0,0,.46.33c.14,0,.27.19.42.31.42-.13.42-.13.5.35l.24-.13.06.65a6.33,6.33,0,0,1,.49-.43c.21-.15.42-.23.63,0,0,.06.18.05.27.07.39.05.54.29.38.61l.28.4,1.51-1.51A1.22,1.22,0,0,0,25.91,8a.39.39,0,0,0-.36-.63c-.23,0-.46,0-.69,0a1.46,1.46,0,0,1-.41-.07.77.77,0,0,1-.56-.79,1,1,0,0,1,.85-.72.65.65,0,0,1,.43.29c.1.17-.06.31-.22.39l-.08.06,0,.08.34-.16A7.27,7.27,0,0,1,26.1,6a1.06,1.06,0,0,1,1.32.48ZM25.66,20.09l-.08.61h.1l0-.62.17.23c-.07-.39-.24-.49-.56-.33ZM30.7,10c0,.29.08.32.33.25L30.7,10l-.11-.29c.06-.15.05-.37.33-.26l-.05-.63c-.34,0-.44.27-.49.54a.66.66,0,0,0,.23.72l0,0s0,0,0,0ZM18.56,21.41l-.45-.06v.08l.45,0,.87.29a1.56,1.56,0,0,0-.53-.31A.93.93,0,0,0,18.56,21.41Zm-5.68-6.14h.06l.05-.1a.69.69,0,0,0-.27-.78c-.18-.15-.39-.28-.63-.11l.31.54.24-.19.24.67-.21.31C12.83,15.53,13,15.49,12.88,15.27Zm-1.52-.17h.32l0-.09-.3.11L11,14.87v.34l-.14,0L10.71,15l-.06,0,.12.42.13-.25a.3.3,0,0,0,.43.19ZM32,9.13l.18.24L32.37,9s0,0,0,0l-.14.14V8.84c-.22,0-.31.1-.27.3l-.3.06,0,.09Zm3.69-4.5.12.59.06,0-.16-.57.22.18a.73.73,0,0,0-.38-.9,1.3,1.3,0,0,0,.07.23,1.68,1.68,0,0,0,.16.21L35.5,4.3ZM9.48,15l0,0c-.11.07-.23.19-.34.19S8.84,15,8.84,15A.86.86,0,0,1,9,14.57a3.58,3.58,0,0,1,.28-.32l-.07-.06a3,3,0,0,0-.42.42.55.55,0,0,0-.1.42.52.52,0,0,0,.35.28.33.33,0,0,0,.4-.33c-.06-.09-.09-.23-.18-.27s-.2,0-.29.06S9,14.91,9,15s.12.06.19.09l0-.06L9,14.83C9.28,14.63,9.37,14.83,9.48,15Zm11.78-2-.08-.29,0-.1a.29.29,0,0,0,0-.07l-.91.51.48,0,0,.24c.25.1.37,0,.48-.2l.29.13v-.56ZM23.5,9.45l.43.45c0-.3-.14-.46-.43-.44a.42.42,0,0,1,0-.14,2.36,2.36,0,0,1,.18-.19c-.09-.06-.18-.17-.28-.17A2.23,2.23,0,0,0,23,9l.11-.27c-.44,0-.35.34-.55.55l.55-.22,0,0-.38.28.4-.06-.17.13.12.07-.36.07,0,.05L23,9.54Zm1,10s.08,0,.08.06-.06.18-.1.3l.23-.14a.91.91,0,0,1-.12.29c0,.08-.07.16-.11.24.35-.38.68-.73,1.25-.67v-.1l-.63-.06,0-.29c-.12,0-.27,0-.36.05a1.33,1.33,0,0,0-.26.33l-.14-.3c-.36.21-.09.48-.09.75Zm-1.21.35a1.49,1.49,0,0,0-.4-.11,1.33,1.33,0,0,0-.38.11l.13.28-.47.37c.27,0,.5-.12.72-.13a3.25,3.25,0,0,1,.67.11v0l-.42-.26.25,0c-.19-.17-.19-.17-.11-.25l.34.22c-.3-.58-.3-.58-.5-.54Zm6-1.75a7.51,7.51,0,0,1,.75-.4.44.44,0,0,1,.56.21l-.38-.08.36.35,0,0L30.3,18c0,.23.08.47.11.7a3.88,3.88,0,0,0,.08.64c.06.19.18.2.38.09-.31-.13-.36-.24-.28-.58a4.93,4.93,0,0,0,.17-.72.52.52,0,0,0-.71-.57,3.72,3.72,0,0,0-.74.5l-.69.84.13.08Zm7.58-3.5-1.35.63v0l.56-.12v0l-.68.33.45.06-.22.11h.3a2,2,0,0,0-.82.38l.06.11.75-.49a1,1,0,0,0,.28,0,.55.55,0,0,0,.19-.14l.28-.28-.05-.06.21-.11v-.28l.11-.18ZM10.21,22.47l.12.25.29,0,0,.08c.1,0,.22.12.31.1.26,0,.54,0,.78-.16a.17.17,0,0,1,.14,0c.28.11.32.1.58-.11l-1,.1.32-.14-.25,0,0,0,.32-.24-.86.1.47-.23v0l-1.2.17-.1.08Zm15-7.41-.31.63.05,0,.17-.18a3.15,3.15,0,0,0,.21,2.36c0-.08,0-.15,0-.23a10.33,10.33,0,0,1-.11-1.47c0-.48.32-.62.77-.48l.27.06c-.1-.42-.42-.42-.73-.47l.42-.19,0-.07h-.35c.13-.13.28-.19.39-.29s.07-.18.1-.27a.94.94,0,0,0-.29,0c-.06,0-.11.1-.16.16ZM25,14.31l.51-.62,0,0-.51.92A4.48,4.48,0,0,0,25.9,14,.75.75,0,0,0,26,13.6c0-.1,0-.22,0-.3a1.23,1.23,0,0,0,0-1.22c-.17-.24-.32-.25-.53,0a.33.33,0,0,1,.31.45,4.5,4.5,0,0,1-.27.84c-.14.34-.32.66-.48,1l-.15.28.06,0Zm5.65-9.25h-.15a2.57,2.57,0,0,0-1.87.57.72.72,0,0,0,.16-.06,2.49,2.49,0,0,1,1.57-.23.78.78,0,0,1,.7.91c0,.12,0,.25,0,.46.16-.1.28-.14.34-.22.25-.38.07-.75,0-1.15l.47.69c.19-.37-.12-.51-.17-.77a3.32,3.32,0,0,1,.58.41c.12.1.24.31.4.13s-.08-.29-.16-.41a.85.85,0,0,0-.29-.21,2.75,2.75,0,0,0-1.66-.31L31,5v0ZM10.4,10.94l-.22.12-.23.07.15-.25a1.74,1.74,0,0,0-.49.28,2.09,2.09,0,0,0-.78,1.17c0,.11.07.25.1.37a2,2,0,0,0,.25-.27c0-.07,0-.17.07-.26s.13-.31.19-.47l0,0,.09.68h.15c0-.12,0-.25,0-.37s0-.25,0-.37c.35.88.61,1.12,1,.83l-.12-.17A.83.83,0,0,1,10.74,11a1.4,1.4,0,0,1,.35-.23c.31-.13.62-.23,1-.36a2.64,2.64,0,0,0-1.63.47S10.41,10.91,10.4,10.94Zm16,7.42c.59-.31,1.13-.65,1.71-.9,1.27-.56,2.57-1.07,3.85-1.63a5.43,5.43,0,0,0,3.18-3.33,10.43,10.43,0,0,0,.52-3.32c0-.23,0-.46,0-.69s0-.45-.07-.76A9,9,0,0,1,33.69,10a26.69,26.69,0,0,1-4.52,3.1,5.15,5.15,0,0,0-1.54,1.25A6.9,6.9,0,0,0,26.42,18.36ZM7.56,15.91a1.71,1.71,0,0,0,.06.19,11,11,0,0,0,2.44,3.25A5.34,5.34,0,0,0,13,20.8a12.36,12.36,0,0,0,3.82-.32A18.71,18.71,0,0,1,20.7,20H21c-.43-.51-.79-1-1.2-1.42A4.72,4.72,0,0,0,16,17c-.55,0-1.09.05-1.64.05A14.84,14.84,0,0,1,7.56,15.91ZM29.68,8.12a6.14,6.14,0,0,1,3.09-1.25,14.85,14.85,0,0,0,1.89-.41,1.27,1.27,0,0,0,.93-1.19c0-.34,0-.42-.38-.4s-.35-.1-.29-.29.09-.26.14-.38c.16-.4.4-.52.77-.37a2,2,0,0,0-1.2-1,1.59,1.59,0,0,0-1.71.69A1.42,1.42,0,0,0,33,5.18a.74.74,0,0,0,1.32-.09.56.56,0,0,1-.17.59c-.39.33-.77.15-1.16,0,.07.44,0,.58-.4.69a.47.47,0,0,0-.23.18.61.61,0,0,1-.61.29.37.37,0,0,0-.23,0c-.21.16-.42.3-.68.14s-.2-.43-.14-.67l0-.09c.08-.43,0-.61-.45-.66a3,3,0,0,0-2.11.71l0,0a1.1,1.1,0,0,1,1.06,1.25.32.32,0,0,0,.08.17ZM8.55,12.76c-.22.35-.45.68-.93.62a.48.48,0,0,1-.42-.4c.47.25.86.15,1-.33A1.46,1.46,0,0,0,5.9,11a1.67,1.67,0,0,0-.63,1.63c.12-.25.27-.31.5-.14a5.68,5.68,0,0,0,.54.3c.24.14.23.3,0,.43s-.29.25-.11.51a1.28,1.28,0,0,0,1.41.55,12.6,12.6,0,0,0,1.55-.55,7.11,7.11,0,0,1,2.8-.76h.75l.12-.63a.83.83,0,0,1-.29-.85,6.64,6.64,0,0,1,.42-.88,3.72,3.72,0,0,0-.46,0,2.57,2.57,0,0,0-1.7.61c-.27.27-.26.44,0,.71.08.08.19.14.23.23a.8.8,0,0,1,.09.49.52.52,0,0,1-.4.24,1.3,1.3,0,0,0-.61.18c-.13.08-.35,0-.53,0s-.15-.06-.21,0C8.85,13.17,8.82,13.16,8.55,12.76ZM14.39,23l0-.08c.14,0,.29-.08.4,0s.17.26.13.31a.85.85,0,0,1-.39.25c-.07,0-.19,0-.27-.09a.94.94,0,0,1-.41-1.06,1.43,1.43,0,0,1,.63-.9l-2.35-.13c.25.44.52.94.81,1.43a4,4,0,0,0,1.1,1.36,1.51,1.51,0,0,0,1.63.22,1.69,1.69,0,0,0,1-1.54,1.22,1.22,0,0,0-2.4-.32A.5.5,0,0,0,14.39,23Zm19.13-5.62.13,0a1.82,1.82,0,0,0-.21-.49,1.22,1.22,0,0,0-1.61-.15,1.25,1.25,0,0,0-.35,1.58,1.67,1.67,0,0,0,1.68.86,1.53,1.53,0,0,0,1.3-1.2,13.23,13.23,0,0,0,.09-3.27c-.35.28-.66.55-1,.78s-.67.41-1,.65a1.41,1.41,0,0,1,1.13.43.93.93,0,0,1,.08,1.27c-.14.14-.31.22-.48.08s-.15-.28-.11-.35S33.39,17.45,33.52,17.38ZM18.1,20.72c.71.34,1.39.7,2.1,1a3.49,3.49,0,0,0,1,.21c.24,0,.38-.14.49-.37s.29-.15.19-.39a4.43,4.43,0,0,1-.1-.51c0-.05-.12-.11-.19-.12A10.68,10.68,0,0,0,18.1,20.72Zm11.15-3.23a11.27,11.27,0,0,0-2.64,1.4c-.58.43-.66.41-.29,1a.6.6,0,0,0,.25.18c.06,0,.17,0,.2,0,.2.26.42.11.57,0A2.63,2.63,0,0,0,28,19.5C28.42,18.84,28.83,18.16,29.25,17.49ZM25.93,6.7c.33,0,.5.1.52.35a1.38,1.38,0,0,1-.09.64,6.29,6.29,0,0,1-.64,1.07c-.26.35-.59.65-.94,1a6,6,0,0,0,2-1.59A1.83,1.83,0,0,0,27.17,7a.67.67,0,0,0-.81-.72,6.43,6.43,0,0,0-1.21.39c-.48.19-.77.08-.88-.39a.41.41,0,0,0,.26.67,3.62,3.62,0,0,0,.8.06c.4,0,.78,0,.94.52C26.43,7.16,26.36,7,25.93,6.7ZM16.34,8.64c.15.38.05.6-.35.74a1.7,1.7,0,0,1-.23,0,8.38,8.38,0,0,0-.91.19c-.8.26-.94.91-.33,1.49a1.45,1.45,0,0,0,.26.2,4.91,4.91,0,0,0,2.9.5,1,1,0,0,0-.25-.08,5.12,5.12,0,0,1-2-.71,2,2,0,0,1-.57-.62c-.14-.24,0-.45.24-.54-.2.46-.16.62.13.83a2.27,2.27,0,0,1,.25-.61,2.6,2.6,0,0,1,.55-.4,2.39,2.39,0,0,0,.44-.35A.4.4,0,0,0,16.34,8.64Zm-9.84,10-1.05-.39a.62.62,0,0,0-.65.19.5.5,0,0,0-.17.61c.37-.56.64-.62,1.06-.16.18.19.37.37.56.56l.06,0-.55-.84a1.41,1.41,0,0,1,.61.71,13,13,0,0,0,.76,1.27,2.3,2.3,0,0,0,.59.43l0-.07a2.06,2.06,0,0,1-1.16-1.8l.24.52h0l-.13-.86c.36.51.22,1.16.6,1.5-.07-.38-.14-.82-.24-1.25S6.83,18.45,6.5,18.67Zm14.94-8.55h.09L21.8,9v.53h0l.08-.74-.1,0-.35.45.08-.84-.08,0L21,8.93c0-.14,0-.35-.07-.55s-.06-.2-.12-.21-.35-.1-.44,0a.39.39,0,0,0-.13.6,3.56,3.56,0,0,1,.34.62,3.74,3.74,0,0,1,.15.49l.09,0-.41-1.1.08,0,.55,1.4.07-.24.12.4a5.76,5.76,0,0,0,0-.68c0-.21,0-.42.06-.64h.05ZM39.72,8.83a.72.72,0,0,0-1.06-.25,5.91,5.91,0,0,0-.53.79c-.05.08-.13.19-.2.19-.38,0-.47.12-.35.48s.32.88.48,1.32l.07,0-.37-1.45h.06l.29.64.06,0-.08-.5a2.13,2.13,0,0,1,0,2.17,1.34,1.34,0,0,0,.39-1c0-.41-.07-.81-.1-1.22a1,1,0,0,1,.12-.76v1.06c.1-.29.12-.59.2-.87a.88.88,0,0,1,.33-.53A1.55,1.55,0,0,1,39.72,8.83ZM28.41,8l.06,0,.27-.64a1.67,1.67,0,0,1-.27.88,8.54,8.54,0,0,0-.38,1.09,1.73,1.73,0,0,0,0,.53h.08a1.92,1.92,0,0,1,.61-1.79l.08,0-.28.41.05,0,.45-.47.05,0-.71,1,.06,0c.25-.28.51-.55.74-.84.11-.14.23-.39,0-.46S29,7.62,29,7.41a1.86,1.86,0,0,0-.14-.52.61.61,0,0,0-1-.17c.45,0,.81.11.65.7A4.43,4.43,0,0,0,28.41,8ZM13.5,10.88l0-.09a1.67,1.67,0,0,0-.41.13c-.41.26-.36.77-.13,1.22.06.11.13.27.09.35-.15.29-.13.43.18.54s.78.23,1.16.35l0-.06-1.21-.51,0-.06.58.14,0-.06-.33-.2c.55,0,1.14.46,1.53,1.21a2,2,0,0,0-.41-.72c-.32-.29-.72-.5-1.07-.75a6.75,6.75,0,0,1-.53-.48l0,0,.69.55.05-.06a2.5,2.5,0,0,0-.32-.32A.61.61,0,0,1,13.5,10.88Zm4.88,3.19c-.3-.07-.4.08-.42.29a1.13,1.13,0,0,0,.51,1c.13.1.33.15.28.4,0,.05.15.17.25.2.36.08.74.13,1.1.19l.05-.1-1-.54,1,.39c-.27-.19-.56-.34-.83-.52a8.41,8.41,0,0,1-1-.73A.36.36,0,0,1,18.38,14.06Zm1.57,2.57-.34.25,0,.07.46-.1c-.47.34-.54.51-.35.75.58-.55.88-.52,1.31.16a1.44,1.44,0,0,1,.1.18l.43,1a3.35,3.35,0,0,0-1.09-2.06l.26.09a2.32,2.32,0,0,0-1.33-.58l.1-.08a.74.74,0,0,0,0-.13c-.14.11-.32.19-.33.28s.18.19.33.18Zm-1.43,4.64v-.09a5,5,0,0,0-1,0,.55.55,0,0,0-.28,1,3.65,3.65,0,0,0,.44.4.47.47,0,0,1,.13.7c.1-.05.23-.12.23-.19a1.55,1.55,0,0,0-.13-.52c-.13-.28-.29-.55-.43-.81l-.09.23h-.06l.11-.48-.24.26C17.19,21.27,17.43,21.18,18.52,21.27Zm5.09-4.63c.28-.21.55,0,.82.06a1.36,1.36,0,0,0-.32-.23.67.67,0,0,0-.74.14.61.61,0,0,0-.07.72.36.36,0,0,0,.53.17.65.65,0,0,0,.18-.41s-.21-.11-.32-.17l-.09.28.1,0,.06-.21.09,0c0,.09.1.2.07.28s-.14.2-.22.2-.27-.1-.28-.16a.74.74,0,0,1,.11-.48c.14-.17.33-.11.51,0s.35.23.52.34l0-.07A1,1,0,0,0,23.61,16.64ZM19.67,8.89l.61.72-.6-.18,0,.1.62.67.08-.07-.44-.54L20,9.52l.86.92.07,0a11,11,0,0,1-.59-1.08A.59.59,0,0,0,19.67,8.89Zm-1.3,2.53.15.05a.93.93,0,0,1,.59-.9H19v0l.35-.13-.52,0V10.3l.58-.1c-.51-.34-.51-.34-.73-.14l.27.14a1.25,1.25,0,0,0-.36.14,2,2,0,0,0-.28.35l.32.1Zm4,5.52.07.09c-.45.14-.54.5-.55.9a3.93,3.93,0,0,0,.27-.48.75.75,0,0,1,.23-.29.34.34,0,0,1,.5.17.52.52,0,0,1-.08.41s-.24,0-.35-.06,0-.16-.05-.3l.26.17.08-.07a1.44,1.44,0,0,0-.14-.19c-.11.06-.29.15-.28.21s.13.32.21.32a.58.58,0,0,0,.44-.18.49.49,0,0,0-.09-.6.56.56,0,0,0-.65-.18c-.25.08-.37.21-.39.41ZM21.17,22.8l0,0,.1-.24c-.39.27-.58.85-1.21.69a.52.52,0,0,0,.23.2A1.76,1.76,0,0,0,21.33,23c.09-.17.16-.36.23-.54l-.06,0ZM29,20.61c-.42.52-.88.09-1.31.11l.11.15-.5-.12a1.1,1.1,0,0,0,.3.28.64.64,0,0,0,.29.14,2.62,2.62,0,0,0,.67-.08,1,1,0,0,0,.39-.25S29,20.69,29,20.61ZM38.17,5.2a.8.8,0,0,1,.17,1.39c.27,0,.55-.17.51-.38a3,3,0,0,0-.25-.75.93.93,0,0,0-1-.51L38,5.5ZM4.33,14.49a2.79,2.79,0,0,0-.33.34,1.25,1.25,0,0,0,0,1.42c.15.26.35.33.58.12A.8.8,0,0,1,4,15.13l.29.17ZM26,20.93c.18.06.38.06.48.17s.12.3.21.55l.14-.5.16.15v-.21l.35.26.09-.08a1.38,1.38,0,0,0-.16-.23C26.92,20.66,26.48,20.91,26,20.93Zm-3.35,1-.65.23c-.3.1-.52.63-.31.84l.16-.4.12.15,0-.21.34.3.05-.06C22.21,22.34,22.23,22.25,22.7,21.92Zm.54-9.8,0-.08c-.35.29-.74.16-1.12.1l.34.22-.15,0,.21.25c.15.17.51.12.51-.09l-.14-.14ZM39.38,4.57l.12-.11-.15-.06.2-.21c-.41.11-.45.1-.78-.21.26.65.65.95,1,.71ZM2.84,14.29c-.09.51-.09.51-.62.72l.37.05-.14.15h.17l-.23.32C2.85,15.41,2.95,15.1,2.84,14.29ZM6,13.77,5.75,13,5.62,13l-.05-.41-.1,0C5.3,13.16,5.57,13.49,6,13.77ZM33.8,8.18c.09-.07.25-.13.31-.24s0-.36-.16-.49a.72.72,0,0,0-.73-.14,1,1,0,0,0,.34.13c.21,0,.42,0,.44.24S33.87,8,33.8,8.18Zm-11.46,10c-.06,0-.25-.09-.26-.07a3.93,3.93,0,0,0-.21.52h0ZM9.82,13.77l0,0,1-.29,0,0ZM32.51,7.23l0,0-1,.28v0ZM24.89,17.76l0,0a3.78,3.78,0,0,0-.46-.31s-.13.14-.19.19Zm-2,3c-.28,0-.45.07-.49.27a1.23,1.23,0,0,0,.08.44l.07,0C22.4,21,22.45,20.94,22.89,20.72Zm-.39-7.83-.39-.45C22.11,12.67,22.11,12.89,22.5,12.89Zm.67,3.61-.45.16.32.26ZM33.7,7.88l.12,0c0-.08.05-.2,0-.24a.3.3,0,0,0-.26-.06c-.18.07-.21.21-.12.42,0-.2,0-.41.31-.35ZM9.6,14.51l.3-.47a1.1,1.1,0,0,0-.38.28S9.57,14.45,9.6,14.51Zm23.56-7-.05.22c0-.08,0-.23,0-.24a2.59,2.59,0,0,0-.45-.06l0,0Zm-4.23,3.07-.08.47h.06l.25-.24ZM14.7,14.74l-.11.28.37.08,0,0ZM32.46,8.62l-.12,0,.16.4.12,0Zm-3.12,1.65.52.09C29.73,10.06,29.52,10.18,29.34,10.27Zm-6.67,11-.05.09.31.19,0-.06ZM25.24,21h.09v-.3h-.1ZM13.69,15l0,0,.18-.25-.08,0Zm9.55,6.54.06,0-.08-.22-.09,0Zm12-17.06v.1h.22V4.51ZM22.82,20.92l-.08,0,0,.23h0Zm-14-6.61,0,0-.14.15,0,0Zm10.56-3.69,0,0-.18.09v0ZM3.62,15.7l0,0,.08.24h0Z"/></g></g></svg>