<?xml version="1.0" encoding="utf-8"?>
<!-- Generator: Adobe Illustrator 21.0.0, SVG Export Plug-In . SVG Version: 6.00 Build 0)  -->
<svg version="1.1" id="Layer_1" xmlns="http://www.w3.org/2000/svg" xmlns:xlink="http://www.w3.org/1999/xlink" x="0px" y="0px"
	 viewBox="0 0 60 40" style="enable-background:new 0 0 60 40;" xml:space="preserve">
<style type="text/css">
	.st0{fill:#FFFFFF;}
</style>
<ellipse transform="matrix(0.9292 -0.3696 0.3696 0.9292 -10.6246 13.2944)" class="st0" cx="29.4" cy="34.4" rx="6.3" ry="3.9"/>
<path class="st0" d="M34,0v32.2l1.5,0.9V0H34z"/>
<ellipse transform="matrix(0.9292 -0.3696 0.3696 0.9292 -12.2584 4.7763)" class="st0" cx="6.3" cy="34.4" rx="6.3" ry="3.9"/>
<path class="st0" d="M10.9,0v32.2l1.5,0.9V0H10.9z"/>
<ellipse transform="matrix(0.9292 -0.3696 0.3696 0.9292 -8.9027 22.2962)" class="st0" cx="53.7" cy="34.4" rx="6.3" ry="3.9"/>
<path class="st0" d="M58.3,0v32.2l1.5,0.9V0H58.3z"/>
<rect x="12.4" y="0" class="st0" width="45.9" height="5.5"/>
<rect x="35.4" y="8.5" class="st0" width="22.9" height="3.2"/>
</svg>
