<?xml version="1.0" encoding="utf-8"?>
<!-- Generator: Adobe Illustrator 21.0.0, SVG Export Plug-In . SVG Version: 6.00 Build 0)  -->
<svg version="1.1" id="Layer_1" xmlns="http://www.w3.org/2000/svg" xmlns:xlink="http://www.w3.org/1999/xlink" x="0px" y="0px"
	 viewBox="0 0 167.5 59.7" style="enable-background:new 0 0 167.5 59.7;" xml:space="preserve">
<style type="text/css">
	.st0{fill:#FFFFFF;stroke:#000000;stroke-width:0.25;stroke-miterlimit:10;}
</style>
<title>notes</title>
<g id="Layer_2">
	<g id="Layer_1-2">
		<ellipse transform="matrix(0.9292 -0.3696 0.3696 0.9292 -14.4198 4.4099)" class="st0" cx="4.3" cy="39.8" rx="4.5" ry="2.8"/>
		<path class="st0" d="M7.6,15.3v22.9l1,0.6V15.3H7.6z"/>
		<ellipse transform="matrix(0.9292 -0.3696 0.3696 0.9292 -17.3238 20.325)" class="st0" cx="44.4" cy="55.4" rx="6.3" ry="3.9"/>
		<path class="st0" d="M49,21v32.2l1.5,0.9V21H49z"/>
		<ellipse transform="matrix(0.9292 -0.3696 0.3696 0.9292 -18.9576 11.8069)" class="st0" cx="21.3" cy="55.4" rx="6.3" ry="3.9"/>
		<path class="st0" d="M25.9,21v32.2l1.5,0.9V21H25.9z"/>
		<ellipse transform="matrix(0.9292 -0.3696 0.3696 0.9292 -15.6019 29.3268)" class="st0" cx="68.7" cy="55.4" rx="6.3" ry="3.9"/>
		<path class="st0" d="M73.3,21v32.2l1.5,0.9V21H73.3z"/>
		<rect x="27.4" y="21" class="st0" width="45.9" height="5.5"/>
		<rect x="50.4" y="29.5" class="st0" width="22.9" height="3.2"/>
		<ellipse transform="matrix(0.9292 -0.3696 0.3696 0.9292 -5.6228 38.4036)" class="st0" cx="97.4" cy="33.9" rx="5.2" ry="3.2"/>
		<path class="st0" d="M101.2,5.5V32l1.2,0.7V5.5H101.2z"/>
		<ellipse transform="matrix(0.9292 -0.3696 0.3696 0.9292 -8.5387 43.1757)" class="st0" cx="108.4" cy="43.9" rx="5.2" ry="3.2"/>
		<path class="st0" d="M112.2,15.5V42l1.2,0.7V15.5H112.2z"/>
		<path class="st0" d="M129.9,51.5V1.4L127.6,0v51.5H129.9z"/>
		<path class="st0" d="M129.9,51.5c11.4-7.4,20.6-29.2,0-17.3V36c7.6-5.3,17-0.5-0.7,14.4C129.9,50.5,129.9,51.5,129.9,51.5z"/>
		<ellipse transform="matrix(0.9292 -0.3696 0.3696 0.9292 -5.7038 60.1033)" class="st0" cx="154" cy="44.9" rx="6.8" ry="4.2"/>
		<path class="st0" d="M160.5,43.5V10.6c2.2,2.2,8.1,7.4,5,15.6c6.8-12.1-5.6-15.8-6.6-22.4v38.8L160.5,43.5z"/>
		<path class="st0" d="M160.5,22.2c2.2,2.2,8.1,7.4,5,15.6c5.5-9.8-1.6-14.1-5-18.8V22.2z"/>
	</g>
</g>
</svg>
