<?xml version="1.0" encoding="UTF-8"?>
<svg width="25px" height="25px" viewBox="0 0 25 25" version="1.1" xmlns="http://www.w3.org/2000/svg" xmlns:xlink="http://www.w3.org/1999/xlink">
    <!-- Generator: Sketch 46 (44423) - http://www.bohemiancoding.com/sketch -->
    <title>parking</title>
    <desc>Created with Sketch.</desc>
    <defs></defs>
    <g id="Page-1" stroke="none" stroke-width="1" fill="none" fill-rule="evenodd">
        <g id="Artboard" transform="translate(-408.000000, -3630.000000)" fill-rule="nonzero" fill="#000000">
            <g id="noun_992547_cc" transform="translate(408.000000, 3630.000000)">
                <g id="parking">
                    <path d="M21.640625,0.130208333 L3.359375,0.130208333 C1.58854167,0.130208333 0.130208333,1.58854167 0.130208333,3.359375 L0.130208333,21.640625 C0.130208333,23.4114583 1.58854167,24.8697917 3.359375,24.8697917 L21.640625,24.8697917 C23.4114583,24.8697917 24.8697917,23.4114583 24.8697917,21.640625 L24.8697917,3.359375 C24.8697917,1.58854167 23.4114583,0.130208333 21.640625,0.130208333 Z M23.2552083,21.640625 C23.2552083,22.5260417 22.5260417,23.2552083 21.640625,23.2552083 L3.359375,23.2552083 C2.47395833,23.2552083 1.74479167,22.5260417 1.74479167,21.640625 L1.74479167,3.359375 C1.74479167,2.47395833 2.47395833,1.74479167 3.359375,1.74479167 L21.640625,1.74479167 C22.5260417,1.74479167 23.2552083,2.47395833 23.2552083,3.359375 L23.2552083,21.640625 Z" id="Shape"></path>
                    <path d="M6.35416667,18.4635417 C6.35416667,18.8541667 6.66666667,19.1666667 7.05729167,19.1666667 L7.60416667,19.1666667 C7.99479167,19.1666667 8.30729167,18.8541667 8.30729167,18.4635417 L8.30729167,17.4739583 L6.35416667,17.4739583 L6.35416667,18.4635417 L6.35416667,18.4635417 Z" id="Shape"></path>
                    <path d="M16.6927083,18.4635417 C16.6927083,18.8541667 17.0052083,19.1666667 17.3958333,19.1666667 L17.9427083,19.1666667 C18.3333333,19.1666667 18.6458333,18.8541667 18.6458333,18.4635417 L18.6458333,17.4739583 L16.6927083,17.4739583 L16.6927083,18.4635417 L16.6927083,18.4635417 Z" id="Shape"></path>
                    <path d="M19.0885417,10.9635417 L19.4270833,10.9635417 C19.6614583,10.9635417 19.84375,10.78125 19.84375,10.546875 L19.84375,10.2083333 C19.84375,9.97395833 19.6614583,9.79166667 19.4270833,9.79166667 L18.7239583,9.79166667 L17.7864583,6.61458333 C17.65625,6.171875 17.2395833,5.859375 16.7708333,5.859375 L8.22916667,5.859375 C7.76041667,5.859375 7.34375,6.171875 7.21354167,6.61458333 L6.27604167,9.79166667 L5.546875,9.79166667 C5.3125,9.79166667 5.13020833,9.97395833 5.13020833,10.2083333 L5.13020833,10.546875 C5.13020833,10.78125 5.3125,10.9635417 5.546875,10.9635417 L5.91145833,10.9635417 C5.18229167,11.484375 4.71354167,12.3177083 4.71354167,13.28125 L5.13020833,16.3802083 C5.13020833,16.7708333 5.44270833,17.0833333 5.83333333,17.0833333 L19.1927083,17.0833333 C19.5833333,17.0833333 19.8958333,16.7708333 19.8958333,16.3802083 L20.3125,13.28125 C20.2864583,12.34375 19.8177083,11.484375 19.0885417,10.9635417 Z M8.17708333,6.875 C8.17708333,6.84895833 8.203125,6.84895833 8.22916667,6.84895833 L16.7708333,6.84895833 C16.796875,6.84895833 16.8229167,6.875 16.8229167,6.875 L17.890625,10.46875 C17.734375,10.4427083 17.578125,10.4166667 17.421875,10.4166667 L7.60416667,10.4166667 C7.44791667,10.4166667 7.29166667,10.4427083 7.13541667,10.46875 L8.17708333,6.875 Z M8.984375,13.9322917 C8.984375,14.1666667 8.80208333,14.3489583 8.54166667,14.3489583 L6.875,14.3489583 C6.640625,14.3489583 6.45833333,14.1666667 6.45833333,13.9322917 L6.45833333,13.59375 C6.45833333,13.359375 6.640625,13.1770833 6.875,13.1770833 L8.54166667,13.1770833 C8.77604167,13.1770833 8.984375,13.359375 8.984375,13.59375 L8.984375,13.9322917 Z M14.4010417,15.8854167 C14.4010417,15.9114583 14.375,15.9375 14.3489583,15.9375 L10.6770833,15.9375 C10.6510417,15.9375 10.625,15.9114583 10.625,15.8854167 L10.625,15.6770833 C10.625,15.6510417 10.6510417,15.625 10.6770833,15.625 L14.3489583,15.625 C14.375,15.625 14.4010417,15.6510417 14.4010417,15.6770833 L14.4010417,15.8854167 Z M14.4010417,15.1041667 C14.4010417,15.1302083 14.375,15.15625 14.3489583,15.15625 L10.6770833,15.15625 C10.6510417,15.15625 10.625,15.1302083 10.625,15.1041667 L10.625,14.8958333 C10.625,14.8697917 10.6510417,14.84375 10.6770833,14.84375 L14.3489583,14.84375 C14.375,14.84375 14.4010417,14.8697917 14.4010417,14.8958333 L14.4010417,15.1041667 Z M18.5416667,13.9322917 C18.5416667,14.1666667 18.359375,14.3489583 18.125,14.3489583 L16.4322917,14.3489583 C16.1979167,14.3489583 16.015625,14.1666667 16.015625,13.9322917 L16.015625,13.59375 C16.015625,13.359375 16.1979167,13.1770833 16.4322917,13.1770833 L18.125,13.1770833 C18.359375,13.1770833 18.5416667,13.359375 18.5416667,13.59375 L18.5416667,13.9322917 Z" id="Shape"></path>
                </g>
            </g>
        </g>
    </g>
</svg>