<?xml version="1.0" encoding="utf-8"?>
<!-- Generator: Adobe Illustrator 21.0.0, SVG Export Plug-In . SVG Version: 6.00 Build 0)  -->
<svg version="1.1" id="Layer_1" xmlns="http://www.w3.org/2000/svg" xmlns:xlink="http://www.w3.org/1999/xlink" x="0px" y="0px"
	 viewBox="0 0 626 320" style="enable-background:new 0 0 626 320;" xml:space="preserve">
<g id="ticket">
	<g>
		<path style="fill:#FFFFFF;" d="M625.8,115.2V18.8c-10.9,0-18.6-7.7-18.6-17.7H179.1c0,10-8.1,18.1-18.1,18.1s-18.1-8.1-18.1-18.1
			H18c0,10-7.7,17.7-17.7,17.7v96.4c24.4,0,45.3,20.3,45.3,45.3s-20.8,45.3-45.3,45.3v95.5c10,0,17.7,7.7,17.7,18.6h125
			c0-0.9,0-0.8,0-1.1c0-10,7.9-18.1,17.9-18.1s18.3,8.2,18.3,18.2c0,0.3,0,0.2,0,1.1h427.5c0-10,8.2-18.2,18.2-18.2c0.3,0,1,0,1,0
			V206c-25.3,0-45.3-20.3-45.3-45.3S600.4,115.2,625.8,115.2z M567.1,160.5c0,22.5,17.9,58.8,40.7,58.8v68.2c0,0-0.6,0-0.9,0
			c-9,0-16.4,7.4-16.4,16.4H185.9c-0.7,0-1.9,0-1.9,0c-4.5-6.1-15.7-13.4-23.4-13.4s-17.3,7.4-21.1,13.4H33.6
			c0-9.8-6.9-16.7-15.9-16.7v-67.8c22,0,40.7-36.3,40.7-58.8s-18.7-58.8-40.7-58.8V33c9,0,15.9-6.9,15.9-15.9h105.7
			c4.1,7.6,13.8,11.7,21.2,11.7c7.3,0,18.9-4.2,23.4-11.7H591c0,9,6.9,15.9,16.7,15.9v68.7C585,101.7,567.1,138,567.1,160.5z"/>
		<g>
			<g>
				<g>
					<g>
						<g>
							<g>
								<rect x="145.1" y="258.4" style="fill:none;" width="30" height="28.1"/>
							</g>
							<rect x="159.1" y="260.4" style="fill:#FFFFFF;" width="3" height="5.2"/>
							<rect x="159.1" y="269.8" style="fill:#FFFFFF;" width="3" height="5.2"/>
							<rect x="159.1" y="279.1" style="fill:#FFFFFF;" width="3" height="5.2"/>
						</g>
					</g>
					<g>
						<g>
							<g>
								<rect x="145.1" y="230.3" style="fill:none;" width="30" height="28.1"/>
							</g>
							<rect x="159.1" y="232.3" style="fill:#FFFFFF;" width="3" height="5.2"/>
							<rect x="159.1" y="241.7" style="fill:#FFFFFF;" width="3" height="5.2"/>
							<rect x="159.1" y="251" style="fill:#FFFFFF;" width="3" height="5.2"/>
						</g>
					</g>
					<g>
						<g>
							<g>
								<rect x="145.1" y="202.1" style="fill:none;" width="30" height="28.1"/>
							</g>
							<rect x="159.1" y="204.2" style="fill:#FFFFFF;" width="3" height="5.2"/>
							<rect x="159.1" y="213.6" style="fill:#FFFFFF;" width="3" height="5.2"/>
							<rect x="159.1" y="222.9" style="fill:#FFFFFF;" width="3" height="5.2"/>
						</g>
					</g>
					<g>
						<g>
							<g>
								<rect x="145.1" y="174" style="fill:none;" width="30" height="28.1"/>
							</g>
							<rect x="159.1" y="176.1" style="fill:#FFFFFF;" width="3" height="5.2"/>
							<rect x="159.1" y="185.5" style="fill:#FFFFFF;" width="3" height="5.2"/>
							<rect x="159.1" y="194.8" style="fill:#FFFFFF;" width="3" height="5.2"/>
						</g>
					</g>
					<g>
						<g>
							<g>
								<rect x="145.1" y="145.9" style="fill:none;" width="30" height="28.1"/>
							</g>
							<rect x="159.1" y="148" style="fill:#FFFFFF;" width="3" height="5.2"/>
							<rect x="159.1" y="157.3" style="fill:#FFFFFF;" width="3" height="5.2"/>
							<rect x="159.1" y="166.7" style="fill:#FFFFFF;" width="3" height="5.2"/>
						</g>
					</g>
					<g>
						<g>
							<g>
								<rect x="145.1" y="117.8" style="fill:none;" width="30" height="28.1"/>
							</g>
							<rect x="159.1" y="119.9" style="fill:#FFFFFF;" width="3" height="5.2"/>
							<rect x="159.1" y="129.2" style="fill:#FFFFFF;" width="3" height="5.2"/>
							<rect x="159.1" y="138.6" style="fill:#FFFFFF;" width="3" height="5.2"/>
						</g>
					</g>
					<g>
						<g>
							<g>
								<rect x="145.1" y="89.7" style="fill:none;" width="30" height="28.1"/>
							</g>
							<rect x="159.1" y="91.8" style="fill:#FFFFFF;" width="3" height="5.2"/>
							<rect x="159.1" y="101.1" style="fill:#FFFFFF;" width="3" height="5.2"/>
							<rect x="159.1" y="110.4" style="fill:#FFFFFF;" width="3" height="5.2"/>
						</g>
					</g>
					<g>
						<g>
							<g>
								<rect x="145.1" y="61.6" style="fill:none;" width="30" height="28.1"/>
							</g>
							<rect x="159.1" y="63.6" style="fill:#FFFFFF;" width="3" height="5.2"/>
							<rect x="159.1" y="73" style="fill:#FFFFFF;" width="3" height="5.2"/>
							<rect x="159.1" y="82.3" style="fill:#FFFFFF;" width="3" height="5.2"/>
						</g>
					</g>
					<g>
						<g>
							<g>
								<rect x="145.1" y="33.4" style="fill:none;" width="30" height="28.1"/>
							</g>
							<rect x="159.1" y="35.5" style="fill:#FFFFFF;" width="3" height="5.2"/>
							<rect x="159.1" y="44.9" style="fill:#FFFFFF;" width="3" height="5.2"/>
							<rect x="159.1" y="54.2" style="fill:#FFFFFF;" width="3" height="5.2"/>
						</g>
					</g>
				</g>
			</g>
		</g>
	</g>
	<g>
		<path style="fill:#FFFFFF;" d="M56.4,29.4c0-1.4-0.2-1.6-1.3-1.6v-0.4h3.3v0.4c-1.2,0-1.3,0.2-1.3,1.6V36h-0.4l-5.8-6.9v4.6
			c0,1.4,0.2,1.6,1.3,1.6v0.4h-3.3v-0.4c1.2,0,1.3-0.2,1.3-1.6v-4.3c0-1.4-0.2-1.6-1.3-1.6v-0.4h2.8l4.7,5.6V29.4z"/>
		<path style="fill:#FFFFFF;" d="M61.8,36c-1.6,0-2.8-1.2-2.8-2.6c0-1.4,1.3-2.6,2.8-2.6s2.8,1.1,2.8,2.6S63.3,36,61.8,36z
			 M61.8,31.6c-0.8,0-1.1,0.9-1.1,1.9c0,1.1,0.4,1.9,1.1,1.9c0.8,0,1.1-0.9,1.1-1.9C62.9,32.4,62.6,31.6,61.8,31.6z"/>
		<path style="fill:#FFFFFF;" d="M68.2,35c0,0.5-0.4,0.9-0.9,0.9s-0.9-0.4-0.9-0.9s0.4-0.9,0.9-0.9C67.9,34.1,68.2,34.5,68.2,35z"/>
		<path style="fill:#FFFFFF;" d="M80.1,32.8c0,1.8-1.5,3.3-3.3,3.3s-3.3-1.5-3.3-3.3s1.5-3.3,3.3-3.3S80.1,31,80.1,32.8z M74.8,32.8
			c0,1.2,0.9,2.1,2,2.1s2-0.9,2-2.1c0-1.1-0.9-2.1-2-2.1C75.8,30.7,74.8,31.6,74.8,32.8z"/>
		<path style="fill:#FFFFFF;" d="M81.7,35.8v-0.4c1.2,0,1.3-0.2,1.3-1.6v-2c0-1.4-0.2-1.6-1.3-1.6v-0.4H86v0.4
			c-1.2,0-1.3,0.2-1.3,1.6v2c0,1.4,0.2,1.6,1.3,1.6v0.4H81.7z"/>
		<path style="fill:#FFFFFF;" d="M91.7,34.6L91.7,34.6c1.3,0,1.5-0.3,1.7-1.1l0.1-0.3h0.4l-0.1,2h-2v0.9c0,1.4,0.2,1.6,1.3,1.6v0.4
			h-4.3v-0.4c1.2,0,1.3-0.2,1.3-1.6v-0.9h-2.9v-0.4l4.1-5.9h0.4V34.6z M90.1,31.7l-2,2.8h2V31.7z"/>
		<path style="fill:#FFFFFF;" d="M97.2,34.8c-0.3-0.2,0-0.5,0.3-0.8l0.8-0.8c0.5-0.5,0.7-1.2,0.7-1.6c0-0.9-0.4-1.4-1.1-1.4
			c-0.8,0-1.5,0.9-0.9,2l-0.7,0.4c-1.7-1-0.8-3.1,1.6-3.1c1.6,0,2.9,0.7,2.9,1.9c0,1-0.9,1.7-1.5,2.1l-0.7,0.4
			c1.4,0.2,2.4,1.2,2.4,2.3c0,1.5-1.4,2.3-3,2.3c-2.3,0-3.2-1.8-2.2-2c0.7-0.1,0.7,1.4,2.1,1.4c0.8,0,1.2-0.8,1.2-1.7
			s-0.3-1.5-1-1.9C97.8,34.5,97.6,35,97.2,34.8z"/>
		<path style="fill:#FFFFFF;" d="M105.2,32.6c1.6,0,2.8,1.3,2.8,2.9s-1.2,2.9-2.9,2.9c-1.4,0-2.3-1-2.3-1.6c0-0.2,0.2-0.4,0.4-0.4
			c0.8,0,0.3,1.4,1.8,1.4c0.7,0,1.3-1,1.3-2.3s-0.6-2.2-1.3-2.2c-0.6,0-1,0.2-1.3,1.3H103l0.4-4.8h2.4c1.3,0,1.4-0.3,1.6-1.1h0.4
			l-0.3,2.6H104l-0.2,2C104,32.8,104.7,32.6,105.2,32.6z"/>
	</g>
	<g>
		<path style="fill:#FFFFFF;" d="M114.3,292.9c0,1.4,0.2,1.6,1.3,1.6v0.4h-3.3v-0.4c1.2,0,1.3-0.2,1.3-1.6v-6.6h0.4l5.8,6.9v-4.6
			c0-1.4-0.2-1.6-1.3-1.6v-0.4h3.3v0.4c-1.2,0-1.3,0.2-1.3,1.6v4.3c0,1.4,0.2,1.6,1.3,1.6v0.4H119l-4.7-5.6V292.9z"/>
		<path style="fill:#FFFFFF;" d="M108.9,286.3c1.6,0,2.8,1.2,2.8,2.6s-1.3,2.6-2.8,2.6s-2.8-1.1-2.8-2.6
			C106.1,287.5,107.4,286.3,108.9,286.3z M108.9,290.8c0.8,0,1.1-0.9,1.1-1.9s-0.4-1.9-1.1-1.9c-0.8,0-1.1,0.9-1.1,1.9
			S108.2,290.8,108.9,290.8z"/>
		<path style="fill:#FFFFFF;" d="M102.5,287.3c0-0.5,0.4-0.9,0.9-0.9s0.9,0.4,0.9,0.9s-0.4,0.9-0.9,0.9
			C102.9,288.2,102.5,287.8,102.5,287.3z"/>
		<path style="fill:#FFFFFF;" d="M90.6,289.6c0-1.8,1.5-3.3,3.3-3.3s3.3,1.5,3.3,3.3s-1.5,3.3-3.3,3.3S90.6,291.4,90.6,289.6z
			 M95.9,289.6c0-1.2-0.9-2.1-2-2.1s-2,0.9-2,2.1c0,1.1,0.9,2.1,2,2.1S95.9,290.7,95.9,289.6z"/>
		<path style="fill:#FFFFFF;" d="M89,286.5v0.4c-1.2,0-1.3,0.2-1.3,1.6v2c0,1.4,0.2,1.6,1.3,1.6v0.4h-4.3v-0.4
			c1.2,0,1.3-0.2,1.3-1.6v-2c0-1.4-0.2-1.6-1.3-1.6v-0.4H89z"/>
		<path style="fill:#FFFFFF;" d="M79,287.8L79,287.8c-1.3,0-1.5,0.3-1.7,1.1l-0.1,0.3h-0.4l0.1-2h2v-0.9c0-1.4-0.2-1.6-1.3-1.6v-0.4
			H82v0.4c-1.2,0-1.3,0.2-1.3,1.6v0.9h2.9v0.4l-4.1,5.9H79V287.8z M80.6,290.6l2-2.8h-2V290.6z"/>
		<path style="fill:#FFFFFF;" d="M73.5,287.6c0.3,0.2,0,0.5-0.3,0.8l-0.8,0.8c-0.5,0.5-0.7,1.2-0.7,1.6c0,0.9,0.4,1.4,1.1,1.4
			c0.8,0,1.5-0.9,0.9-2l0.7-0.4c1.7,1,0.8,3.1-1.6,3.1c-1.6,0-2.9-0.7-2.9-1.9c0-1,0.9-1.7,1.5-2.1l0.7-0.4
			c-1.4-0.2-2.4-1.2-2.4-2.3c0-1.5,1.4-2.3,3-2.3c2.3,0,3.2,1.8,2.2,2c-0.7,0.1-0.7-1.4-2.1-1.4c-0.8,0-1.2,0.8-1.2,1.7
			c0,0.9,0.3,1.5,1,1.9C72.9,287.9,73.1,287.3,73.5,287.6z"/>
		<path style="fill:#FFFFFF;" d="M65.5,289.8c-1.6,0-2.8-1.3-2.8-2.9s1.2-2.9,2.9-2.9c1.4,0,2.3,1,2.3,1.6c0,0.2-0.2,0.4-0.4,0.4
			c-0.8,0-0.3-1.4-1.8-1.4c-0.7,0-1.3,1-1.3,2.3s0.6,2.2,1.3,2.2c0.6,0,1-0.2,1.3-1.3h0.6l-0.4,4.8h-2.4c-1.3,0-1.4,0.3-1.6,1.1
			h-0.4l0.3-2.6h3.6l0.2-2C66.7,289.5,66.1,289.8,65.5,289.8z"/>
	</g>
	<g>
		<path style="fill:#FFFFFF;" d="M119.4,262.1v-0.5c0,0,4.3,0,4.3-4.4c0-1.7-1.1-3-2.6-3c-1.1,0-2,1.1-2.9,2.8l-1.2,2.3
			c-0.7,1.4-2.1,2.7-4,2.7c-2,0-3.6-1.7-3.6-4c0-1.4,0.5-2.2,1-2.9c-0.2-0.3-0.6-0.6-1.1-0.7v-0.5h5.3v0.5c-1.9,0.2-4.2,0.9-4.2,3.7
			c0,1.3,0.9,2.3,2.1,2.3s1.9-0.8,3-2.9l1.2-2.3c0.9-1.8,2.3-2.5,3.6-2.5c2.6,0,4.3,2.1,4.3,4.6c0,1.8-1,3-1.1,3.7
			c0.2,0.3,0.6,0.6,1.1,0.7v0.5h-5.2L119.4,262.1L119.4,262.1z"/>
		<path style="fill:#FFFFFF;" d="M120.2,250.2c-2.5,0-4.4-2.2-4.4-4.4c0-2.1,1.7-3.8,3.8-3.3v5.8c2.3,0.3,4-0.6,4-3.1
			c0-0.8-0.5-1.9-1.1-2.6l0.5-0.4c0.9,0.8,1.6,2.3,1.6,3.7C124.7,248.4,122.7,250.2,120.2,250.2z M118.8,244.1
			c-0.8-0.3-1.9,0.1-1.9,1.7c0,1,0.8,1.9,1.9,2.3V244.1z"/>
		<path style="fill:#FFFFFF;" d="M129.7,240.7c0-1.6-0.4-1.9-2.8-1.9h-7.2c-2.4,0-2.8,0.3-2.8,1.9h-0.5l-0.6-3.2
			c0.2-0.1,1.1-0.3,1.5-0.4c-0.8-0.7-1.5-1.7-1.5-3c0-2.3,2-4.2,4.4-4.2s4.4,1.9,4.4,4.2c0,1.2-0.6,2.2-1.4,3h3.7
			c2.4,0,2.8-0.3,2.8-1.9h0.5v5.5L129.7,240.7L129.7,240.7z M120.2,232c-1.9,0-3.4,0.9-3.4,2.7c0,1.1,0.8,2,1.9,2.4h3.1
			c1.2-0.5,1.9-1.3,1.9-2.4C123.7,232.8,122.2,232,120.2,232z"/>
		<path style="fill:#FFFFFF;" d="M121.9,226.9h-4.8v1.2h-0.6c-0.3-1.4-1.3-2-2.9-2.1v-0.8h2.6v-2.1h0.8v2.1h4.8
			c1.1,0,1.7-0.3,1.7-1.1c0-0.4-0.3-1-0.8-1.6l0.4-0.4c0.8,0.7,1.4,1.7,1.4,2.5C124.6,226,123.7,226.9,121.9,226.9z"/>
		<path style="fill:#FFFFFF;" d="M120.2,220.6c-2.5,0-4.4-2.2-4.4-4.4c0-2.1,1.7-3.8,3.8-3.3v5.8c2.3,0.3,4-0.6,4-3.1
			c0-0.8-0.5-1.9-1.1-2.6l0.5-0.4c0.9,0.8,1.6,2.3,1.6,3.7C124.7,218.8,122.7,220.6,120.2,220.6z M118.8,214.6
			c-0.8-0.3-1.9,0.1-1.9,1.7c0,1,0.8,1.9,1.9,2.3V214.6z"/>
		<path style="fill:#FFFFFF;" d="M123.7,210.7c0-1.6-0.4-1.9-2.8-1.9h-1.2c-2.4,0-2.8,0.3-2.8,1.9h-0.5l-0.6-3.2
			c0.2-0.1,1.2-0.3,1.7-0.4c-0.8-0.6-1.7-1.7-1.7-3.1c0-1.5,0.7-2.2,1.8-2.6c-0.8-0.6-1.8-1.9-1.8-3.4c0-2.1,1.5-2.8,3.6-2.8h1.5
			c2.4,0,2.8-0.3,2.8-1.9h0.5v5.1h-0.5c0-1.3-0.3-1.5-2.8-1.5h-1.4c-1.6,0-2.6,0.5-2.6,1.7c0,0.8,0.9,2.5,2.4,2.5h1.6
			c2.5,0,2.8-0.2,2.8-1.5h0.5v4.7h-0.5c0-1.3-0.3-1.5-2.8-1.5h-1.4c-1.6,0-2.6,0.5-2.6,1.7c0,0.8,0.9,2.5,2.4,2.5h1.6
			c2.5,0,2.8-0.2,2.8-1.5h0.5v5.1L123.7,210.7L123.7,210.7z"/>
		<path style="fill:#FFFFFF;" d="M113.4,191c-2.4,0-2.8,0.3-2.8,1.9H110l-0.6-3.6h7.8c-0.9-0.7-1.4-1.7-1.4-2.9c0-2.3,2-4.2,4.4-4.2
			s4.4,1.9,4.4,4.2c0,1.3-0.6,2.4-1.6,3.1l1.6,1.1v0.5h-11.2C113.4,191.1,113.4,191,113.4,191z M120.2,184.1c-1.9,0-3.4,0.9-3.4,2.7
			c0,1.1,0.8,2,1.9,2.4h3.1c1.2-0.4,1.9-1.3,1.9-2.4C123.7,185,122.2,184.1,120.2,184.1z"/>
		<path style="fill:#FFFFFF;" d="M120.2,179.9c-2.5,0-4.4-2.2-4.4-4.4c0-2.1,1.7-3.8,3.8-3.3v5.8c2.3,0.3,4-0.6,4-3.1
			c0-0.8-0.5-1.9-1.1-2.6l0.5-0.4c0.9,0.8,1.6,2.3,1.6,3.7C124.7,178.1,122.7,179.9,120.2,179.9z M118.8,173.8
			c-0.8-0.3-1.9,0.1-1.9,1.7c0,1,0.8,1.9,1.9,2.3V173.8z"/>
		<path style="fill:#FFFFFF;" d="M123.7,170c0-1.6-0.4-1.9-2.8-1.9h-1.2c-2.4,0-2.8,0.3-2.8,1.9h-0.5l-0.6-3.2
			c0.2-0.1,1.2-0.3,1.7-0.4c-1-0.5-1.7-1.6-1.7-2.5c0-1.3,0.9-1.9,1.5-1.9c0.5,0,1.1,0.2,1.1,1c0,0.5-0.4,0.8-0.9,0.8
			s-0.8,0.3-0.8,0.8c0,0.6,0.9,1.8,2.8,1.8h1.3c2.4,0,2.8-0.3,2.8-1.9h0.5v5.5L123.7,170L123.7,170z"/>
		<path style="fill:#FFFFFF;" d="M124.2,149.2v4.9h-0.6l-3.3-4.2c-1.5-1.8-2.8-2.3-3.6-2.3c-1.4,0-2.2,1.1-2.2,2.6
			c0,1.7,1.6,3.3,3.6,2.1l0.7,0.7c-1.7,2.9-5.4,1.4-5.4-2.8c0-2.4,1.2-4.6,3.2-4.6c1.9,0,3.4,2.2,3.4,2.2l2.8,3.7v-6.2l3.3,0.6v0.5
			C124.6,146.4,124.2,146.8,124.2,149.2z"/>
		<path style="fill:#FFFFFF;" d="M127.8,139.4c0-2-0.4-2.3-2.8-2.3h-1.8v5.4h-0.5l-10.3-6.7v-0.4h9.9v-0.3c0-2.2-0.6-2.5-1.8-2.8
			l-0.5-0.1v-0.5l3.2,0.2v3.5h1.8c2.4,0,2.8-0.3,2.8-2.3h0.5v6.3L127.8,139.4L127.8,139.4z M122.4,137.1H116l6.4,4.2V137.1z"/>
		<path style="fill:#FFFFFF;" d="M121.9,128.5h-4.8v1.2h-0.6c-0.3-1.4-1.3-2-2.9-2.1v-0.8h2.6v-2.1h0.8v2.1h4.8
			c1.1,0,1.7-0.3,1.7-1.1c0-0.4-0.3-1-0.8-1.6l0.4-0.4c0.8,0.7,1.4,1.7,1.4,2.5C124.6,127.6,123.7,128.5,121.9,128.5z"/>
		<path style="fill:#FFFFFF;" d="M123.7,122.9c0-1.6-0.4-1.9-2.8-1.9h-7.6c-2.4,0-2.8,0.3-2.8,1.9H110l-0.6-3.6h8.1
			c-0.8-0.7-1.7-1.8-1.7-3.1c0-2.2,1.5-3,3.6-3h1.5c2.4,0,2.8-0.3,2.8-1.9h0.5v5.3h-0.5c0-1.5-0.3-1.7-2.8-1.7h-1.4
			c-1.6,0-2.6,0.6-2.6,1.8c0,1.2,1,2.6,2.4,2.6h1.6c2.5,0,2.8-0.2,2.8-1.5h0.5v5.1C124.2,122.9,123.7,122.9,123.7,122.9z"/>
		<path style="fill:#FFFFFF;" d="M124.2,98.5v4.9h-0.6l-3.3-4.2c-1.5-1.8-2.8-2.3-3.6-2.3c-1.4,0-2.2,1.1-2.2,2.6
			c0,1.7,1.6,3.3,3.6,2.1l0.7,0.7c-1.7,2.9-5.4,1.4-5.4-2.8c0-2.4,1.2-4.6,3.2-4.6c1.9,0,3.4,2.2,3.4,2.2l2.8,3.7v-6.2l3.3,0.6v0.5
			C124.6,95.7,124.2,96.1,124.2,98.5z"/>
		<path style="fill:#FFFFFF;" d="M119,91.3c-3.1,0-5.6-2.5-5.6-5.6s2.5-5.6,5.6-5.6s5.6,2.5,5.6,5.6S122.1,91.3,119,91.3z M119,81.6
			c-2.3,0-4.2,1.8-4.2,4.1c0,2.2,1.9,4.1,4.2,4.1c2.3,0,4.2-1.8,4.2-4.1C123.3,83.5,121.4,81.6,119,81.6z"/>
		<path style="fill:#FFFFFF;" d="M123.7,77.4c0-2-0.4-2.3-2.8-2.3h-3.8c-2.4,0-2.8,0.3-2.8,2.3h-0.5V71h0.5c0,2,0.4,2.3,2.8,2.3h3.8
			c2.4,0,2.8-0.3,2.8-2.3h0.5v6.3L123.7,77.4L123.7,77.4z"/>
		<path style="fill:#FFFFFF;" d="M127.2,66.8l-11.7-5.7V65c0,2.2,0.5,2.5,1.8,2.8l0.5,0.1v0.5l-5.9-1v-0.5c1.6,0,1.9-0.4,1.9-2.8
			v-4.3h0.7l13,5.3c0.8,0.3,1.3,0.6,1.1,1.3C128.6,66.7,128.1,67.2,127.2,66.8z"/>
	</g>
	<g id="save-the-date">
		<path style="fill:#FFFFFF;" d="M82.8,205.2v-0.4c0,0,3.2,0,3.2-3.3c0-1.3-0.8-2.2-2-2.2c-0.8,0-1.5,0.8-2.2,2.1l-0.9,1.7
			c-0.5,1-1.6,2-3,2c-1.5,0-2.7-1.2-2.7-3c0-1.1,0.3-1.7,0.7-2.2c-0.2-0.2-0.5-0.4-0.8-0.5V199h4v0.4c-1.4,0.1-3.2,0.7-3.2,2.8
			c0,1,0.7,1.7,1.6,1.7s1.4-0.6,2.2-2.2l0.9-1.7c0.7-1.4,1.7-1.9,2.7-1.9c2,0,3.2,1.6,3.2,3.4c0,1.4-0.7,2.2-0.8,2.8
			c0.2,0.2,0.5,0.4,0.8,0.5v0.4H82.8z"/>
		<path style="fill:#FFFFFF;" d="M85.2,196.2c-1.5,0-2.2-1.8-2.6-3.8c-1.4,0-1.9,0.2-1.9,1.2c0,0.4,0.3,1,0.9,1
			c0.4,0,0.6,0.3,0.6,0.6c0,0.4-0.3,0.6-0.6,0.6c-0.9,0-1.4-1.1-1.4-2.3c0-1.7,0.7-2.5,2.4-2.5h2.7c0.5,0,0.7-0.1,0.7-0.4
			c0-0.2-0.1-0.4-0.3-0.5l0.3-0.3c0.4,0.3,0.6,0.8,0.6,1.2c0,0.7-0.4,1.1-1,1.2c0.8,0.9,1.1,1.5,1.1,2.3
			C86.7,195.5,86.2,196.2,85.2,196.2z M85.1,192.4h-1.8c0.4,1.7,1,2.5,1.8,2.5c0.6,0,0.9-0.4,0.9-0.8
			C85.9,193.6,85.8,193.2,85.1,192.4z"/>
		<path style="fill:#FFFFFF;" d="M81.9,188.5c-0.8,0.3-1.1,0.6-1.1,1.2h-0.4v-3.2h0.4c0,0.8,0.2,0.9,1.1,0.6l3-1.3l-3-1.3
			c-0.8-0.3-1.1-0.3-1.1,0.5h-0.4v-2.5h0.4c0,0.6,0.3,0.9,1.1,1.3l4.9,2.2v0.4L81.9,188.5z"/>
		<path style="fill:#FFFFFF;" d="M83.5,181.7c-1.9,0-3.3-1.7-3.3-3.3s1.3-2.9,2.8-2.4v4.3c1.7,0.2,3-0.5,3-2.3c0-0.6-0.3-1.5-0.8-2
			l0.4-0.3c0.7,0.6,1.2,1.7,1.2,2.8C86.8,180.4,85.3,181.7,83.5,181.7z M82.4,177.2c-0.6-0.2-1.5,0.1-1.5,1.3c0,0.8,0.6,1.4,1.5,1.7
			V177.2z"/>
		<path style="fill:#FFFFFF;" d="M84.7,169.4h-3.6v0.9h-0.4c-0.2-1.1-1-1.5-2.2-1.6v-0.6h2v-1.6h0.6v1.6h3.6c0.8,0,1.3-0.2,1.3-0.8
			c0-0.3-0.2-0.8-0.6-1.2l0.3-0.3c0.6,0.5,1,1.3,1,1.9C86.8,168.7,86.1,169.4,84.7,169.4z"/>
		<path style="fill:#FFFFFF;" d="M86.1,165.2c0-1.2-0.3-1.4-2.1-1.4h-5.7c-1.8,0-2.1,0.2-2.1,1.4h-0.4l-0.5-2.7h6.1
			c-0.6-0.5-1.3-1.3-1.3-2.4c0-1.7,1.2-2.2,2.7-2.2H84c1.8,0,2.1-0.2,2.1-1.4h0.4v4h-0.4c0-1.1-0.3-1.3-2.1-1.3h-1
			c-1.2,0-1.9,0.4-1.9,1.4c0,0.9,0.8,1.9,1.8,1.9H84c1.9,0,2.1-0.1,2.1-1.1h0.4v3.8H86.1z"/>
		<path style="fill:#FFFFFF;" d="M83.5,155.2c-1.9,0-3.3-1.7-3.3-3.3s1.3-2.9,2.8-2.4v4.3c1.7,0.2,3-0.5,3-2.3c0-0.6-0.3-1.5-0.8-2
			l0.4-0.3c0.7,0.6,1.2,1.7,1.2,2.8C86.8,153.9,85.3,155.2,83.5,155.2z M82.4,150.7c-0.6-0.2-1.5,0.1-1.5,1.3c0,0.8,0.6,1.4,1.5,1.7
			V150.7z"/>
		<path style="fill:#FFFFFF;" d="M86.1,143.6c0-1.5-0.3-1.7-2.1-1.7h-5.9c-1.8,0-2.1,0.2-2.1,1.7h-0.4v-4.9c0-4.2,2.4-6,5.4-6
			s5.4,1.8,5.4,6v4.9H86.1z M85.8,138.7c0-3.5-2.6-4.3-4.7-4.3s-4.7,0.8-4.7,4.3v1.7h7.4C85.5,140.5,85.8,140.3,85.8,138.7
			L85.8,138.7z"/>
		<path style="fill:#FFFFFF;" d="M85.2,131.2c-1.5,0-2.2-1.8-2.6-3.8c-1.4,0-1.9,0.2-1.9,1.2c0,0.4,0.3,1,0.9,1
			c0.4,0,0.6,0.3,0.6,0.6c0,0.4-0.3,0.6-0.6,0.6c-0.9,0-1.4-1.1-1.4-2.3c0-1.7,0.7-2.5,2.4-2.5h2.7c0.5,0,0.7-0.1,0.7-0.4
			c0-0.2-0.1-0.4-0.3-0.5l0.3-0.3c0.4,0.3,0.6,0.8,0.6,1.2c0,0.7-0.4,1.1-1,1.2c0.8,0.9,1.1,1.5,1.1,2.3
			C86.7,130.4,86.2,131.2,85.2,131.2z M85.1,127.3h-1.8c0.4,1.7,1,2.5,1.8,2.5c0.6,0,0.9-0.4,0.9-0.8
			C85.9,128.6,85.8,128.1,85.1,127.3z"/>
		<path style="fill:#FFFFFF;" d="M84.7,123.1h-3.6v0.9h-0.4c-0.2-1.1-1-1.5-2.2-1.6v-0.6h2v-1.6h0.6v1.6h3.6c0.8,0,1.3-0.2,1.3-0.8
			c0-0.3-0.2-0.8-0.6-1.2l0.3-0.3c0.6,0.5,1,1.3,1,1.9C86.8,122.5,86.1,123.1,84.7,123.1z"/>
		<path style="fill:#FFFFFF;" d="M83.5,118.4c-1.9,0-3.3-1.7-3.3-3.3c0-1.6,1.3-2.9,2.8-2.4v4.3c1.7,0.2,3-0.5,3-2.3
			c0-0.6-0.3-1.5-0.8-2l0.4-0.3c0.7,0.6,1.2,1.7,1.2,2.8C86.8,117.1,85.3,118.4,83.5,118.4z M82.4,113.9c-0.6-0.2-1.5,0.1-1.5,1.3
			c0,0.8,0.6,1.4,1.5,1.7V113.9z"/>
	</g>
	<g id="click-here">
		<path style="fill:#FFFFFF;" d="M81.4,195.5c-3.1,0-5.7-2.5-5.7-5.5c0-1.3,0.6-2.4,1.5-3.3c-0.2-0.2-0.6-0.5-1-0.6v-0.4h4v0.4
			c-2.3,0.5-3.8,1.9-3.8,3.9c0,2.9,2.8,3.9,5,3.9c2.2,0,5-1,5-3.9c0-2-1.4-3.4-3.7-3.9v-0.4h4v0.4c-0.4,0.1-0.9,0.4-1,0.6
			c1,0.9,1.5,2.1,1.5,3.3C87.1,193,84.5,195.5,81.4,195.5z"/>
		<path style="fill:#FFFFFF;" d="M86.4,184c0-1.2-0.3-1.4-2.1-1.4h-5.7c-1.8,0-2.1,0.2-2.1,1.4h-0.4l-0.5-2.7h8.6
			c1.8,0,2.1-0.2,2.1-1.4h0.4v4.1H86.4z"/>
		<path style="fill:#FFFFFF;" d="M77.9,177.6c-0.4,0-0.8-0.4-0.8-0.8c0-0.4,0.4-0.8,0.8-0.8c0.5,0,0.8,0.4,0.8,0.8
			C78.7,177.2,78.4,177.6,77.9,177.6z M86.4,178.8c0-1.2-0.3-1.4-2.1-1.4h-0.9c-1.8,0-2.1,0.2-2.1,1.4H81l-0.5-2.7h3.8
			c1.8,0,2.1-0.2,2.1-1.4h0.4v4.1H86.4z"/>
		<path style="fill:#FFFFFF;" d="M84,173.5c-2.1,0-3.5-1.7-3.5-3.2c0-1.5,0.6-2.1,1.3-2.1c0.3,0,0.8,0.2,0.8,0.8
			c0,0.4-0.3,0.7-0.7,0.7c-0.6,0-0.8,0.3-0.8,0.6c0,1,1.2,1.7,2.9,1.7c1.4,0,2.4-0.7,2.4-2.2c0-0.6-0.3-1.3-0.8-1.9l0.4-0.3
			c0.7,0.7,1.2,1.7,1.2,2.7C87.1,172.3,85.8,173.5,84,173.5z"/>
		<path style="fill:#FFFFFF;" d="M86.4,167c0-1.2-0.3-1.4-2.1-1.4h-5.7c-1.8,0-2.1,0.2-2.1,1.4h-0.4l-0.5-2.7h7.7l-1.2-1.5
			c-0.5-0.6-1-0.3-1,0.5h-0.4v-3.6h0.4c0,0,0.1,1.2,0.6,1.9l1.3,1.5l2.9-2.9c0.3-0.3,0.4-0.8,0.4-1.1h0.4v2l-3,2.9l0.2,0.2h0.3
			c1.8,0,2.1-0.2,2.1-1.4h0.4v4.1H86.4z"/>
		<path style="fill:#FFFFFF;" d="M86.4,154.5c0-1.5-0.3-1.7-2.1-1.7h-5.9c-1.8,0-2.1,0.2-2.1,1.7H76v-4.9h0.4c0,1.5,0.3,1.7,2.1,1.7
			h2.3v-6.1h-2.3c-1.8,0-2.1,0.2-2.1,1.7H76v-4.9h0.4c0,1.5,0.3,1.7,2.1,1.7h5.9c1.8,0,2.1-0.2,2.1-1.7h0.4v4.9h-0.4
			c0-1.5-0.3-1.7-2.1-1.7h-2.9v6.1h2.9c1.8,0,2.1-0.2,2.1-1.7h0.4v4.9H86.4z"/>
		<path style="fill:#FFFFFF;" d="M83.8,140.7c-1.9,0-3.3-1.7-3.3-3.3c0-1.6,1.3-2.9,2.8-2.4v4.3c1.7,0.2,3-0.5,3-2.3
			c0-0.6-0.3-1.5-0.8-2l0.4-0.3c0.7,0.6,1.2,1.7,1.2,2.8C87.1,139.4,85.6,140.7,83.8,140.7z M82.7,136.2c-0.6-0.2-1.5,0.1-1.5,1.3
			c0,0.8,0.6,1.4,1.5,1.7V136.2z"/>
		<path style="fill:#FFFFFF;" d="M86.4,133.3c0-1.2-0.3-1.4-2.1-1.4h-0.9c-1.8,0-2.1,0.2-2.1,1.4H81l-0.5-2.4
			c0.2-0.1,0.9-0.3,1.3-0.3c-0.7-0.4-1.3-1.2-1.3-1.9c0-1,0.7-1.4,1.1-1.4c0.4,0,0.8,0.2,0.8,0.7c0,0.3-0.3,0.6-0.6,0.6
			c-0.4,0-0.6,0.2-0.6,0.6c0,0.4,0.7,1.4,2.1,1.4h1c1.8,0,2.1-0.2,2.1-1.4h0.4v4.1H86.4z"/>
		<path style="fill:#FFFFFF;" d="M83.8,126.4c-1.9,0-3.3-1.7-3.3-3.3c0-1.6,1.3-2.9,2.8-2.4v4.3c1.7,0.2,3-0.5,3-2.3
			c0-0.6-0.3-1.5-0.8-2l0.4-0.3c0.7,0.6,1.2,1.7,1.2,2.8C87.1,125,85.6,126.4,83.8,126.4z M82.7,121.8c-0.6-0.2-1.5,0.1-1.5,1.3
			c0,0.8,0.6,1.4,1.5,1.7V121.8z"/>
	</g>
	<g>
		<g>
			<g>
				<path style="fill:#FFFFFF;" d="M82,223.2v11.5c0,0.1-0.1,0.2-0.2,0.2s-0.2-0.1-0.2-0.2v-11.5c0-0.1,0.1-0.2,0.2-0.2
					C81.8,223,82,223.1,82,223.2z"/>
			</g>
		</g>
		<g>
			<g>
				<path style="fill:#FFFFFF;" d="M83.6,241.1C83.6,241.1,83.6,241.2,83.6,241.1l-1.7,6.1c0,0.1-0.1,0.2-0.2,0.2s-0.2-0.1-0.2-0.2
					l-1.7-6.1c0-0.1,0-0.1,0-0.2l1.7-2.5c0-0.1,0.1-0.1,0.2-0.1s0.2,0,0.2,0.1l1.7,2.5C83.6,241,83.6,241.1,83.6,241.1z M81.7,246.3
					l1.4-5.1l-1.4-2.1l-1.4,2.1L81.7,246.3z"/>
			</g>
		</g>
		<g>
			<g>
				<path style="fill:#FFFFFF;" d="M83.1,221.8c0,0.7-0.6,1.3-1.3,1.3c-0.7,0-1.3-0.6-1.3-1.3s0.6-1.3,1.3-1.3
					S83.1,221.1,83.1,221.8z M80.9,221.8c0,0.5,0.4,0.9,0.9,0.9s0.9-0.4,0.9-0.9s-0.4-0.9-0.9-0.9C81.2,221,80.9,221.4,80.9,221.8z"
					/>
			</g>
		</g>
		<g>
			<g>
				<path style="fill:#FFFFFF;" d="M83.3,219.2c0,0.9-0.7,1.6-1.6,1.6s-1.6-0.7-1.6-1.6s0.7-1.6,1.6-1.6
					C82.6,217.6,83.3,218.3,83.3,219.2z M80.6,219.2c0,0.6,0.5,1.1,1.1,1.1s1.1-0.5,1.1-1.1s-0.5-1.1-1.1-1.1
					C81.1,218,80.6,218.5,80.6,219.2z"/>
			</g>
		</g>
		<g>
			<g>
				<path style="fill:#FFFFFF;" d="M81.4,235.3L81.4,235.3v2.1c0,0.1,0,0.1-0.1,0.2l-2.1,2.1c-0.1,0.1-0.2,0.1-0.3,0.1
					c-0.1,0-0.1-0.1-0.1-0.2v-2.1c0-0.1,0-0.1,0.1-0.2l2.1-2.1c0-0.1,0.1-0.1,0.2-0.1C81.3,235,81.4,235.1,81.4,235.3z M80.9,237.3
					v-1.4l-1.6,1.6v1.5L80.9,237.3z"/>
			</g>
		</g>
		<g>
			<g>
				<path style="fill:#FFFFFF;" d="M84.6,237.4v2.1c0,0.1-0.1,0.2-0.1,0.2c-0.1,0-0.2,0-0.3-0.1l-2.1-2.1c0,0-0.1-0.1-0.1-0.2v-2.1
					c0-0.1,0.1-0.2,0.1-0.2c0.1,0,0.2,0,0.3,0.1l2.1,2.1C84.6,237.3,84.6,237.4,84.6,237.4z M84.1,238.9v-1.4l-1.6-1.7v1.5
					L84.1,238.9z"/>
			</g>
		</g>
	</g>
	<g>
		<g>
			<g>
				<path style="fill:#FFFFFF;" d="M82,95.8V84.3c0-0.1-0.1-0.2-0.2-0.2s-0.2,0.1-0.2,0.2v11.5c0,0.1,0.1,0.2,0.2,0.2
					C81.8,96,82,95.9,82,95.8z"/>
			</g>
		</g>
		<g>
			<g>
				<path style="fill:#FFFFFF;" d="M83.6,78l-1.7,2.5c0,0.1-0.1,0.1-0.2,0.1s-0.2,0-0.2-0.1L79.9,78c0-0.1,0-0.1,0-0.2l1.7-6.1
					c0-0.1,0.1-0.2,0.2-0.2s0.2,0.1,0.2,0.2l1.7,6.1C83.7,77.8,83.7,77.8,83.6,78C83.6,77.9,83.6,78,83.6,78z M80.3,77.9l1.4,2.1
					l1.4-2.1l-1.4-5.1L80.3,77.9z"/>
			</g>
		</g>
		<g>
			<g>
				<path style="fill:#FFFFFF;" d="M81.7,98.5c-0.7,0-1.3-0.6-1.3-1.3c0-0.7,0.6-1.3,1.3-1.3c0.7,0,1.3,0.6,1.3,1.3
					C83.1,97.9,82.5,98.5,81.7,98.5z M81.7,98c0.5,0,0.9-0.4,0.9-0.9s-0.4-0.9-0.9-0.9s-0.9,0.4-0.9,0.9C80.9,97.6,81.2,98,81.7,98z
					"/>
			</g>
		</g>
		<g>
			<g>
				<path style="fill:#FFFFFF;" d="M81.7,101.5c-0.9,0-1.6-0.7-1.6-1.6s0.7-1.6,1.6-1.6s1.6,0.7,1.6,1.6
					C83.3,100.7,82.6,101.5,81.7,101.5z M81.7,101c0.6,0,1.1-0.5,1.1-1.1s-0.5-1.1-1.1-1.1s-1.1,0.5-1.1,1.1S81.1,101,81.7,101z"/>
			</g>
		</g>
		<g>
			<g>
				<path style="fill:#FFFFFF;" d="M81.2,84c-0.1,0-0.1,0-0.2-0.1l-2.1-2.1c0,0-0.1-0.1-0.1-0.2v-2.1c0-0.1,0.1-0.2,0.1-0.2
					c0.1,0,0.2,0,0.3,0.1l2.1,2.1c0,0,0.1,0.1,0.1,0.2v2.1l0,0C81.4,83.9,81.3,84,81.2,84z M79.3,80.1v1.5l1.6,1.6v-1.4L79.3,80.1z"
					/>
			</g>
		</g>
		<g>
			<g>
				<path style="fill:#FFFFFF;" d="M84.6,81.7l-2.1,2.1c-0.1,0.1-0.2,0.1-0.3,0.1c-0.1,0-0.1-0.1-0.1-0.2v-2.1c0-0.1,0-0.1,0.1-0.2
					l2.1-2.1c0.1-0.1,0.2-0.1,0.3-0.1c0.1,0,0.1,0.1,0.1,0.2v2.1C84.6,81.6,84.6,81.7,84.6,81.7z M82.5,81.7v1.5l1.6-1.7v-1.4
					L82.5,81.7z"/>
			</g>
		</g>
	</g>
	<g>
		<g>
			<g>
				<path style="fill:#FFFFFF;" d="M533.3,85.8V74.3c0-0.1-0.1-0.2-0.2-0.2s-0.2,0.1-0.2,0.2v11.5c0,0.1,0.1,0.2,0.2,0.2
					S533.3,86,533.3,85.8z"/>
			</g>
		</g>
		<g>
			<g>
				<path style="fill:#FFFFFF;" d="M534.9,68.1l-1.7,2.5c0,0.1-0.1,0.1-0.2,0.1c-0.1,0-0.2,0-0.2-0.1l-1.7-2.5c0-0.1,0-0.1,0-0.2
					l1.7-6.1c0-0.1,0.1-0.2,0.2-0.2s0.2,0.1,0.2,0.2l1.7,6.1C534.9,67.9,534.9,67.9,534.9,68.1C534.9,68,534.9,68,534.9,68.1z
					 M531.6,67.9L533,70l1.4-2.1l-1.4-5.1L531.6,67.9z"/>
			</g>
		</g>
		<g>
			<g>
				<path style="fill:#FFFFFF;" d="M533,88.5c-0.7,0-1.3-0.6-1.3-1.3c0-0.7,0.6-1.3,1.3-1.3s1.3,0.6,1.3,1.3
					C534.4,87.9,533.8,88.5,533,88.5z M533,88.1c0.5,0,0.9-0.4,0.9-0.9s-0.4-0.9-0.9-0.9s-0.9,0.4-0.9,0.9
					C532.2,87.7,532.6,88.1,533,88.1z"/>
			</g>
		</g>
		<g>
			<g>
				<path style="fill:#FFFFFF;" d="M533,91.5c-0.9,0-1.6-0.7-1.6-1.6s0.7-1.6,1.6-1.6c0.9,0,1.6,0.7,1.6,1.6
					C534.7,90.8,533.9,91.5,533,91.5z M533,91c0.6,0,1.1-0.5,1.1-1.1s-0.5-1.1-1.1-1.1s-1.1,0.5-1.1,1.1S532.4,91,533,91z"/>
			</g>
		</g>
		<g>
			<g>
				<path style="fill:#FFFFFF;" d="M532.5,74c-0.1,0-0.1,0-0.2-0.1l-2.1-2.1c0,0-0.1-0.1-0.1-0.2v-2.1c0-0.1,0.1-0.2,0.1-0.2
					c0.1,0,0.2,0,0.3,0.1l2.1,2.1c0,0,0.1,0.1,0.1,0.2v2.1l0,0C532.7,73.9,532.6,74,532.5,74z M530.6,70.1v1.5l1.6,1.6v-1.4
					L530.6,70.1z"/>
			</g>
		</g>
		<g>
			<g>
				<path style="fill:#FFFFFF;" d="M535.9,71.8l-2.1,2.1c-0.1,0.1-0.2,0.1-0.3,0.1s-0.1-0.1-0.1-0.2v-2.1c0-0.1,0-0.1,0.1-0.2
					l2.1-2.1c0.1-0.1,0.2-0.1,0.3-0.1s0.1,0.1,0.1,0.2v2.1C535.9,71.7,535.9,71.7,535.9,71.8z M533.9,71.7v1.5l1.6-1.7v-1.4
					L533.9,71.7z"/>
			</g>
		</g>
	</g>
	<line style="fill:none;stroke:#FFFFFF;stroke-miterlimit:10;" x1="97.1" y1="262.8" x2="97.1" y2="56.2"/>
	<g>
		<g>
			<g>
				<g>
					<g>
						<path style="fill:#FFFFFF;" d="M52.4,82.4c0,0.2-0.2,0.3-0.3,0.3h-1.3c-0.2,0-0.3-0.2-0.3-0.3c0-0.2,0.2-0.3,0.3-0.3h1.3
							C52.3,82.1,52.4,82.3,52.4,82.4z"/>
					</g>
				</g>
				<g>
					<g>
						<path style="fill:#FFFFFF;" d="M50.1,82.4c0,0.2-0.2,0.3-0.3,0.3H42c-0.2,0-0.3-0.2-0.3-0.3c0-0.2,0.2-0.3,0.3-0.3h7.7
							C50,82.1,50.1,82.3,50.1,82.4z"/>
					</g>
				</g>
				<g>
					<g>
						<path style="fill:#FFFFFF;" d="M52.6,80.9L52.6,80.9c0,0.3-0.2,0.4-0.4,0.3l-5.9-1.1c-0.2,0-0.3-0.2-0.3-0.4
							c0-0.2,0.2-0.3,0.4-0.3l5.9,1.1C52.5,80.5,52.6,80.7,52.6,80.9z"/>
					</g>
				</g>
				<g>
					<g>
						<path style="fill:#FFFFFF;" d="M45.6,79.5C45.6,79.5,45.6,79.6,45.6,79.5c0,0.3-0.2,0.4-0.4,0.3l-1-0.2
							c-0.2,0-0.3-0.2-0.3-0.4c0-0.2,0.2-0.3,0.4-0.3l1,0.2C45.5,79.2,45.6,79.3,45.6,79.5z"/>
					</g>
				</g>
				<g>
					<g>
						<path style="fill:#FFFFFF;" d="M53,79.3L53,79.3c-0.1,0.3-0.3,0.4-0.5,0.3L47,77.3c-0.2-0.1-0.3-0.3-0.2-0.5s0.3-0.3,0.5-0.2
							l5.5,2.3C52.9,79,53,79.2,53,79.3z"/>
					</g>
				</g>
				<g>
					<g>
						<path style="fill:#FFFFFF;" d="M52.8,85.6c0,0.1-0.1,0.3-0.2,0.3l-5.2,2.2c-0.2,0.1-0.4,0-0.5-0.2s0-0.4,0.2-0.5l5.2-2.2
							c0.2-0.1,0.4,0,0.5,0.2C52.8,85.5,52.8,85.6,52.8,85.6z"/>
					</g>
				</g>
				<g>
					<g>
						<path style="fill:#FFFFFF;" d="M52.5,84.1c0,0.2-0.1,0.3-0.3,0.3l-7.9,1.7c-0.2,0-0.4-0.1-0.4-0.3c0-0.2,0.1-0.4,0.3-0.4
							l7.9-1.7C52.2,83.7,52.4,83.8,52.5,84.1C52.5,84,52.5,84,52.5,84.1z"/>
					</g>
				</g>
			</g>
			<g>
				<g>
					<g>
						<path style="fill:#FFFFFF;" d="M55.6,75.6c0,0.1-0.1,0.2-0.1,0.3C55.3,76,55.1,76,55,75.8L53,73c-0.1-0.2-0.1-0.4,0.1-0.5
							c0.2-0.1,0.4-0.1,0.5,0.1l2,2.8C55.5,75.4,55.6,75.5,55.6,75.6z"/>
					</g>
				</g>
				<g>
					<g>
						<path style="fill:#FFFFFF;" d="M52.7,71.5c0,0.1-0.1,0.2-0.1,0.3c-0.2,0.1-0.4,0.1-0.5-0.1l-2.3-3.3c-0.1-0.2-0.1-0.4,0.1-0.5
							c0.2-0.1,0.4-0.1,0.5,0.1l2.3,3.3C52.7,71.4,52.7,71.5,52.7,71.5z"/>
					</g>
				</g>
				<g>
					<g>
						<path style="fill:#FFFFFF;" d="M53.6,77.9c0,0.1,0,0.1-0.1,0.2c-0.1,0.2-0.3,0.2-0.5,0.1l-4.8-3.3c-0.2-0.1-0.2-0.3-0.1-0.5
							c0.1-0.2,0.3-0.2,0.5-0.1l4.8,3.3C53.6,77.7,53.6,77.8,53.6,77.9z"/>
					</g>
				</g>
				<g>
					<g>
						<path style="fill:#FFFFFF;" d="M54.5,76.6c0,0.1,0,0.2-0.1,0.2c-0.1,0.1-0.4,0.1-0.5,0L53,75.9c-0.1-0.1-0.1-0.4,0-0.5
							s0.4-0.1,0.5,0l0.9,0.9C54.5,76.4,54.5,76.5,54.5,76.6z"/>
					</g>
				</g>
				<g>
					<g>
						<path style="fill:#FFFFFF;" d="M52.8,75c0,0.1,0,0.2-0.1,0.2c-0.1,0.1-0.4,0.1-0.5,0l-4.4-4.3c-0.1-0.1-0.1-0.4,0-0.5
							s0.4-0.1,0.5,0l4.4,4.3C52.8,74.8,52.8,74.9,52.8,75z"/>
					</g>
				</g>
			</g>
			<g>
				<g>
					<g>
						<path style="fill:#FFFFFF;" d="M55.4,89.9c0,0.1,0,0.1-0.1,0.2l-1.5,2.4c-0.1,0.2-0.3,0.2-0.5,0.1s-0.2-0.3-0.1-0.5l1.5-2.4
							c0.1-0.2,0.3-0.2,0.5-0.1C55.3,89.7,55.4,89.8,55.4,89.9z"/>
					</g>
				</g>
				<g>
					<g>
						<path style="fill:#FFFFFF;" d="M52.5,94.5c0,0.1,0,0.1-0.1,0.2l-3,4.8c-0.1,0.2-0.3,0.2-0.5,0.1s-0.2-0.3-0.1-0.5l3-4.8
							c0.1-0.2,0.3-0.2,0.5-0.1C52.5,94.2,52.5,94.4,52.5,94.5z"/>
					</g>
				</g>
				<g>
					<g>
						<path style="fill:#FFFFFF;" d="M54.4,88.8c0,0.1,0,0.2-0.1,0.2l-3.9,4.4c-0.1,0.1-0.3,0.2-0.5,0c-0.1-0.1-0.2-0.3,0-0.5
							l3.9-4.4c0.1-0.1,0.3-0.2,0.5,0C54.3,88.6,54.4,88.7,54.4,88.8z"/>
					</g>
				</g>
				<g>
					<g>
						<path style="fill:#FFFFFF;" d="M49.5,94.3c0,0.1,0,0.2-0.1,0.2l-0.9,1c-0.1,0.1-0.3,0.2-0.5,0c-0.1-0.1-0.2-0.3,0-0.5l0.9-1
							c0.1-0.1,0.3-0.2,0.5,0C49.5,94.1,49.5,94.2,49.5,94.3z"/>
					</g>
				</g>
				<g>
					<g>
						<path style="fill:#FFFFFF;" d="M53.6,87.5c0,0.1,0,0.2-0.1,0.3l-4.8,3.8c-0.2,0.1-0.4,0.1-0.5-0.1C48,91.3,48,91.1,48.1,91
							l4.8-3.8c0.2-0.1,0.4-0.1,0.5,0.1C53.5,87.3,53.6,87.4,53.6,87.5z"/>
					</g>
				</g>
				<g>
					<g>
						<path style="fill:#FFFFFF;" d="M56.9,95.1C56.9,95.1,56.9,95.2,56.9,95.1l-0.6,2.6c0,0.2-0.2,0.3-0.4,0.3s-0.3-0.2-0.3-0.4
							l0.6-2.5c0-0.2,0.2-0.3,0.4-0.3C56.8,94.8,56.9,94.9,56.9,95.1z"/>
					</g>
				</g>
				<g>
					<g>
						<path style="fill:#FFFFFF;" d="M56.6,90.8L56.6,90.8l-3.4,8.4c-0.1,0.2-0.3,0.3-0.5,0.2c-0.2-0.1-0.3-0.3-0.2-0.5l3.4-8.3
							c0.1-0.2,0.3-0.3,0.5-0.2C56.5,90.5,56.6,90.7,56.6,90.8z"/>
					</g>
				</g>
			</g>
		</g>
		<g>
			<g>
				<path style="fill:#FFFFFF;" d="M66.4,57.6v37.1c0,0.1-0.1,0.2-0.2,0.3c-1.1,0.7-2.6,2-4.6,4c-0.1,0.1-0.2,0.1-0.4,0.1
					c-1.2-0.4-2.2-1-2.9-1.8c-1.1-1.4-1.5-2.8-1.1-4c0.3-1.1,1.5-1.9,2.7-1.8c1.1,0.1,2.1,1.1,2.3,2.2c0.1,0.9-0.3,1.8-1,2.2
					c-0.8,0.5-1.9,0.2-2.4-0.5c-0.3-0.4-0.3-0.9-0.2-1.4s0.4-0.8,0.8-1c0.2-0.1,0.4,0,0.5,0.2s0,0.4-0.2,0.5s-0.4,0.3-0.4,0.5
					c-0.1,0.3,0,0.6,0.1,0.8c0.3,0.4,1,0.5,1.5,0.3c0.5-0.3,0.8-0.9,0.7-1.5c-0.1-0.8-0.8-1.5-1.6-1.6s-1.7,0.5-1.9,1.3
					c-0.3,1,0,2.1,1,3.3c0.5,0.6,1.4,1.2,2.4,1.5c1.9-1.9,3.3-3.1,4.4-3.8V60c-0.9,1.5-1.9,3-3.2,3.7l2.2,2.5c0.1,0.1,0.1,0.4,0,0.5
					s-0.4,0.1-0.5,0l-2.5-2.8c-0.1-0.1-0.1-0.2-0.1-0.3s0.1-0.2,0.2-0.2c2-0.8,3.4-3.8,3.6-5.7c0-0.2,0.2-0.3,0.4-0.3
					C66.2,57.3,66.4,57.4,66.4,57.6z"/>
			</g>
		</g>
		<g>
			<g>
				<g>
					<path style="fill:#FFFFFF;" d="M64.2,78.4c0,0.1,0,0.1,0,0.2c-0.1,0.2-0.3,0.2-0.5,0.1c-2-1-3.4-2.9-4-5
						c-1.3,1.1-2.4,2.5-3.5,4.2c-1.1,1.9-1.7,3.5-1.9,5.1c-0.2,1.9,0.3,3.8,1.4,5c1.2,1.4,3.2,1.9,4.7,1.2c0.8-0.3,1.5-1.1,1.8-1.9
						s0.3-1.6,0-2.3c-0.4-0.7-1.2-1.3-2.1-1.4c-0.8-0.1-1.6,0.2-2,0.7C57.6,85,57.5,86,58,86.6c0.3,0.3,0.7,0.5,1.1,0.5
						c0.4,0,0.7-0.1,0.9-0.4c0.1-0.1,0.3-0.2,0.5,0c0.1,0.1,0.2,0.3,0,0.5c-0.3,0.4-0.9,0.6-1.5,0.6s-1.3-0.3-1.6-0.7
						c-0.7-0.9-0.7-2.2,0-3.2c0.6-0.7,1.6-1.1,2.6-1c1.2,0.1,2.2,0.8,2.6,1.7c0.4,0.8,0.4,1.8,0.1,2.8c-0.4,1.1-1.2,1.9-2.2,2.3
						c-1.8,0.7-4.1,0.2-5.5-1.4c-1.3-1.4-1.8-3.4-1.6-5.6c0.2-1.7,0.8-3.5,2-5.4s2.6-3.6,4-4.8c0.1-0.1,0.2-0.1,0.3-0.1
						s0.2,0.1,0.2,0.3c0.4,2.2,1.8,4.1,3.8,5.1C64.1,78.1,64.2,78.3,64.2,78.4z"/>
				</g>
			</g>
			<g>
				<g>
					<path style="fill:#FFFFFF;" d="M64.8,70.2c0,1.1-0.7,2.1-1.6,2.5c-0.6,0.2-1.3,0.1-1.9-0.2c-0.5-0.3-0.9-0.8-1-1.4
						s0.2-1.3,0.8-1.7c0.5-0.4,1.2-0.5,1.7-0.2c0.2,0.1,0.3,0.3,0.2,0.5s-0.3,0.3-0.5,0.2c-0.3-0.1-0.7-0.1-1,0.2
						c-0.4,0.3-0.6,0.7-0.5,1.1c0,0.4,0.3,0.7,0.6,0.9c0.4,0.2,0.9,0.3,1.3,0.2c0.8-0.3,1.3-1.3,1.1-2.2c-0.2-0.8-0.9-1.6-1.8-1.9
						c-0.9-0.3-1.9-0.2-2.8,0.3c-1.7,0.8-2.9,2.4-3.2,4.2c-0.3,1.8,0.5,3.8,1.9,4.9c0.6,0.5,1.4,0.9,2.1,1.3c0.6,0.3,1.2,0.6,1.8,1
						c1.3,0.9,2.5,2.7,1.8,4.3c-0.1,0.2-0.3,0.3-0.5,0.2c-0.2-0.1-0.3-0.3-0.2-0.5c0.5-1.2-0.4-2.7-1.6-3.5c-0.5-0.4-1.1-0.7-1.7-1
						C59,79,58.2,78.6,57.5,78c-1.6-1.3-2.4-3.5-2.2-5.6c0.3-2.1,1.7-3.9,3.6-4.8c1.1-0.5,2.3-0.6,3.3-0.3c1.2,0.4,2.1,1.3,2.3,2.4
						C64.8,69.9,64.8,70,64.8,70.2z"/>
				</g>
			</g>
		</g>
	</g>
	<g>
		<g>
			<g>
				<g>
					<g>
						<path style="fill:#FFFFFF;" d="M52.4,238.6c0-0.2-0.2-0.3-0.3-0.3h-1.3c-0.2,0-0.3,0.2-0.3,0.3c0,0.2,0.2,0.4,0.3,0.4h1.3
							C52.3,238.9,52.4,238.8,52.4,238.6z"/>
					</g>
				</g>
				<g>
					<g>
						<path style="fill:#FFFFFF;" d="M50.1,238.6c0-0.2-0.2-0.3-0.3-0.3H42c-0.2,0-0.3,0.2-0.3,0.3c0,0.2,0.2,0.4,0.3,0.4h7.7
							C50,238.9,50.1,238.8,50.1,238.6z"/>
					</g>
				</g>
				<g>
					<g>
						<path style="fill:#FFFFFF;" d="M52.6,240.2C52.6,240.1,52.6,240.1,52.6,240.2c0-0.3-0.2-0.4-0.4-0.3l-5.9,1.1
							c-0.2,0-0.3,0.2-0.3,0.4s0.2,0.3,0.4,0.3l5.9-1.1C52.5,240.5,52.6,240.3,52.6,240.2z"/>
					</g>
				</g>
				<g>
					<g>
						<path style="fill:#FFFFFF;" d="M45.6,241.5L45.6,241.5c0-0.3-0.2-0.4-0.4-0.3l-1,0.2c-0.2,0-0.3,0.2-0.3,0.4s0.2,0.3,0.4,0.3
							l1-0.2C45.5,241.8,45.6,241.7,45.6,241.5z"/>
					</g>
				</g>
				<g>
					<g>
						<path style="fill:#FFFFFF;" d="M53,241.7v-0.1c-0.1-0.2-0.3-0.3-0.5-0.2l-5.5,2.3c-0.2,0.1-0.3,0.3-0.2,0.5s0.3,0.3,0.5,0.2
							l5.5-2.3C52.9,242,53,241.8,53,241.7z"/>
					</g>
				</g>
				<g>
					<g>
						<path style="fill:#FFFFFF;" d="M52.8,235.4c0-0.1-0.1-0.3-0.2-0.3l-5.2-2.2c-0.2-0.1-0.4,0-0.5,0.2s0,0.4,0.2,0.5l5.2,2.2
							c0.2,0.1,0.4,0,0.5-0.2C52.8,235.5,52.8,235.4,52.8,235.4z"/>
					</g>
				</g>
				<g>
					<g>
						<path style="fill:#FFFFFF;" d="M52.5,237c0-0.2-0.1-0.3-0.3-0.3l-7.9-1.7c-0.2,0-0.4,0.1-0.4,0.3s0.1,0.4,0.3,0.4l7.9,1.7
							C52.2,237.3,52.4,237.2,52.5,237L52.5,237z"/>
					</g>
				</g>
			</g>
			<g>
				<g>
					<g>
						<path style="fill:#FFFFFF;" d="M55.6,245.5c0-0.1-0.1-0.2-0.1-0.3c-0.2-0.1-0.4-0.1-0.5,0.1l-2,2.8c-0.1,0.2-0.1,0.4,0.1,0.5
							c0.2,0.1,0.4,0.1,0.5-0.1l2-2.8C55.5,245.6,55.6,245.5,55.6,245.5z"/>
					</g>
				</g>
				<g>
					<g>
						<path style="fill:#FFFFFF;" d="M52.7,249.5c0-0.1-0.1-0.2-0.1-0.3c-0.2-0.1-0.4-0.1-0.5,0.1l-2.3,3.3
							c-0.1,0.2-0.1,0.4,0.1,0.5c0.2,0.1,0.4,0.1,0.5-0.1l2.3-3.3C52.7,249.6,52.7,249.5,52.7,249.5z"/>
					</g>
				</g>
				<g>
					<g>
						<path style="fill:#FFFFFF;" d="M53.6,243.1c0-0.1,0-0.1-0.1-0.2c-0.1-0.2-0.3-0.2-0.5-0.1l-4.8,3.3c-0.2,0.1-0.2,0.3-0.1,0.5
							c0.1,0.2,0.3,0.2,0.5,0.1l4.8-3.3C53.6,243.4,53.6,243.2,53.6,243.1z"/>
					</g>
				</g>
				<g>
					<g>
						<path style="fill:#FFFFFF;" d="M54.5,244.4c0-0.1,0-0.2-0.1-0.2c-0.1-0.1-0.4-0.1-0.5,0l-0.9,0.9c-0.1,0.1-0.1,0.4,0,0.5
							s0.4,0.1,0.5,0l0.9-0.9C54.5,244.6,54.5,244.5,54.5,244.4z"/>
					</g>
				</g>
				<g>
					<g>
						<path style="fill:#FFFFFF;" d="M52.8,246.1c0-0.1,0-0.2-0.1-0.2c-0.1-0.1-0.4-0.1-0.5,0l-4.4,4.3c-0.1,0.1-0.1,0.4,0,0.5
							s0.4,0.1,0.5,0l4.4-4.3C52.8,246.2,52.8,246.1,52.8,246.1z"/>
					</g>
				</g>
			</g>
			<g>
				<g>
					<g>
						<path style="fill:#FFFFFF;" d="M55.4,231.1c0-0.1,0-0.1-0.1-0.2l-1.5-2.4c-0.1-0.2-0.3-0.2-0.5-0.1c-0.2,0.1-0.2,0.3-0.1,0.5
							l1.5,2.4c0.1,0.2,0.3,0.2,0.5,0.1C55.3,231.3,55.4,231.2,55.4,231.1z"/>
					</g>
				</g>
				<g>
					<g>
						<path style="fill:#FFFFFF;" d="M52.5,226.5c0-0.1,0-0.1-0.1-0.2l-3-4.8c-0.1-0.2-0.3-0.2-0.5-0.1c-0.2,0.1-0.2,0.3-0.1,0.5
							l3,4.8c0.1,0.2,0.3,0.2,0.5,0.1C52.5,226.8,52.5,226.6,52.5,226.5z"/>
					</g>
				</g>
				<g>
					<g>
						<path style="fill:#FFFFFF;" d="M54.4,232.2c0-0.1,0-0.2-0.1-0.2l-3.9-4.4c-0.1-0.1-0.3-0.2-0.5,0c-0.1,0.1-0.2,0.3,0,0.5
							l3.9,4.4c0.1,0.1,0.3,0.2,0.5,0C54.3,232.4,54.4,232.3,54.4,232.2z"/>
					</g>
				</g>
				<g>
					<g>
						<path style="fill:#FFFFFF;" d="M49.5,226.7c0-0.1,0-0.2-0.1-0.2l-0.9-1c-0.1-0.1-0.3-0.2-0.5,0c-0.1,0.1-0.2,0.3,0,0.5l0.9,1
							c0.1,0.1,0.3,0.2,0.5,0C49.5,226.9,49.5,226.8,49.5,226.7z"/>
					</g>
				</g>
				<g>
					<g>
						<path style="fill:#FFFFFF;" d="M53.6,233.5c0-0.1,0-0.2-0.1-0.3l-4.8-3.8c-0.2-0.1-0.4-0.1-0.5,0.1c-0.1,0.2-0.1,0.4,0.1,0.5
							l4.8,3.8c0.2,0.1,0.4,0.1,0.5-0.1C53.5,233.7,53.6,233.6,53.6,233.5z"/>
					</g>
				</g>
				<g>
					<g>
						<path style="fill:#FFFFFF;" d="M56.9,225.9C56.9,225.9,56.9,225.8,56.9,225.9l-0.6-2.6c0-0.2-0.2-0.3-0.4-0.3
							s-0.3,0.2-0.3,0.4l0.6,2.5c0,0.2,0.2,0.3,0.4,0.3C56.8,226.2,56.9,226.1,56.9,225.9z"/>
					</g>
				</g>
				<g>
					<g>
						<path style="fill:#FFFFFF;" d="M56.6,230.2v-0.1l-3.4-8.3c-0.1-0.2-0.3-0.3-0.5-0.2s-0.3,0.3-0.2,0.5l3.4,8.3
							c0.1,0.2,0.3,0.3,0.5,0.2C56.5,230.5,56.6,230.3,56.6,230.2z"/>
					</g>
				</g>
			</g>
		</g>
		<g>
			<g>
				<path style="fill:#FFFFFF;" d="M66.4,263.4v-37.1c0-0.1-0.1-0.2-0.2-0.3c-1.1-0.7-2.6-2-4.6-4c-0.1-0.1-0.2-0.1-0.4-0.1
					c-1.2,0.4-2.2,1-2.9,1.8c-1.1,1.4-1.5,2.8-1.1,4c0.3,1.1,1.5,1.9,2.7,1.8c1.1-0.1,2.1-1.1,2.3-2.2c0.1-0.9-0.3-1.8-1-2.2
					c-0.8-0.5-1.9-0.2-2.4,0.5c-0.3,0.4-0.3,0.9-0.2,1.4s0.4,0.8,0.8,1c0.2,0.1,0.4,0,0.5-0.2s0-0.4-0.2-0.5s-0.4-0.3-0.4-0.5
					c-0.1-0.3,0-0.6,0.1-0.8c0.3-0.4,1-0.5,1.5-0.3c0.5,0.3,0.8,0.9,0.7,1.5c-0.1,0.8-0.8,1.5-1.6,1.6s-1.7-0.5-1.9-1.3
					c-0.3-1,0-2.1,1-3.3c0.5-0.6,1.4-1.2,2.4-1.5c1.9,1.9,3.3,3.1,4.4,3.8V261c-0.6-1.5-1.6-2.9-2.9-3.6l2.2-2.5
					c0.1-0.1,0.1-0.4,0-0.5s-0.4-0.1-0.5,0l-2.5,2.8c-0.1,0.1-0.1,0.2-0.1,0.3c0,0.1,0.1,0.2,0.2,0.2c2,0.8,3.4,3.8,3.6,5.7
					c0,0.2,0.2,0.3,0.4,0.3C66.2,263.7,66.4,263.6,66.4,263.4z"/>
			</g>
		</g>
		<g>
			<g>
				<g>
					<path style="fill:#FFFFFF;" d="M64.2,242.6c0-0.1,0-0.1,0-0.2c-0.1-0.2-0.3-0.2-0.5-0.1c-2,1-3.4,2.9-4,5
						c-1.3-1.1-2.4-2.5-3.5-4.2c-1.1-1.9-1.7-3.5-1.9-5.1c-0.2-1.9,0.3-3.8,1.4-5c1.2-1.4,3.2-1.9,4.7-1.2c0.8,0.3,1.5,1.1,1.8,1.9
						c0.3,0.8,0.3,1.6,0,2.3c-0.4,0.7-1.2,1.3-2.1,1.4c-0.8,0.1-1.6-0.2-2-0.7c-0.5-0.7-0.6-1.7-0.1-2.3c0.3-0.3,0.7-0.5,1.1-0.5
						c0.4,0,0.7,0.1,0.9,0.4c0.1,0.1,0.3,0.2,0.5,0c0.1-0.1,0.2-0.3,0-0.5c-0.3-0.4-0.9-0.6-1.5-0.6s-1.3,0.3-1.6,0.7
						c-0.7,0.9-0.7,2.2,0,3.2c0.6,0.7,1.6,1.1,2.6,1c1.2-0.1,2.2-0.8,2.6-1.7c0.4-0.8,0.4-1.8,0.1-2.8c-0.4-1.1-1.2-1.9-2.2-2.3
						c-1.8-0.7-4.1-0.2-5.5,1.4c-1.3,1.4-1.8,3.4-1.6,5.6c0.2,1.7,0.8,3.5,2,5.4s2.6,3.6,4,4.8c0.1,0.1,0.2,0.1,0.3,0.1
						s0.2-0.1,0.2-0.3c0.4-2.2,1.8-4.1,3.8-5.1C64.1,242.9,64.2,242.7,64.2,242.6z"/>
				</g>
			</g>
			<g>
				<g>
					<path style="fill:#FFFFFF;" d="M64.8,250.8c0-1.1-0.7-2.1-1.6-2.5c-0.6-0.2-1.3-0.1-1.9,0.2c-0.5,0.3-0.9,0.8-1,1.4
						c-0.1,0.6,0.2,1.3,0.8,1.7c0.5,0.4,1.2,0.5,1.7,0.2c0.2-0.1,0.3-0.3,0.2-0.5s-0.3-0.3-0.5-0.2c-0.3,0.1-0.7,0.1-1-0.2
						c-0.4-0.3-0.6-0.7-0.5-1.1c0-0.4,0.3-0.7,0.6-0.9c0.4-0.2,0.9-0.3,1.3-0.2c0.8,0.3,1.3,1.3,1.1,2.2c-0.2,0.8-0.9,1.6-1.8,1.9
						c-0.9,0.3-1.9,0.2-2.8-0.3c-1.7-0.8-2.9-2.4-3.2-4.2s0.5-3.8,1.9-4.9c0.6-0.5,1.4-0.9,2.1-1.3c0.6-0.3,1.2-0.6,1.8-1
						c1.3-0.9,2.5-2.7,1.8-4.3c-0.1-0.2-0.3-0.3-0.5-0.2s-0.3,0.3-0.2,0.5c0.5,1.2-0.4,2.7-1.6,3.5c-0.5,0.4-1.1,0.7-1.7,1
						c-0.8,0.4-1.6,0.8-2.3,1.4c-1.6,1.3-2.4,3.5-2.2,5.6c0.3,2.1,1.7,3.9,3.6,4.8c1.1,0.5,2.3,0.6,3.3,0.3c1.2-0.4,2.1-1.3,2.3-2.4
						C64.8,251.1,64.8,251,64.8,250.8z"/>
				</g>
			</g>
		</g>
	</g>
	<line style="fill:none;stroke:#FFFFFF;stroke-width:0.5;stroke-miterlimit:10;" x1="514" y1="283.9" x2="514" y2="39.6"/>
	<line style="fill:none;stroke:#FFFFFF;stroke-width:0.5;stroke-miterlimit:10;" x1="551.7" y1="282.7" x2="551.7" y2="38.4"/>
	<g>
		<g>
			<g>
				<path style="fill:#FFFFFF;" d="M533,227.4v11.5c0,0.1-0.1,0.2-0.2,0.2c-0.1,0-0.2-0.1-0.2-0.2v-11.5c0-0.1,0.1-0.2,0.2-0.2
					C532.8,227.1,533,227.2,533,227.4z"/>
			</g>
		</g>
		<g>
			<g>
				<path style="fill:#FFFFFF;" d="M534.6,245.3L534.6,245.3l-1.7,6.1c0,0.1-0.1,0.2-0.2,0.2c-0.1,0-0.2-0.1-0.2-0.2l-1.7-6.1
					c0-0.1,0-0.1,0-0.2l1.7-2.5c0-0.1,0.1-0.1,0.2-0.1c0.1,0,0.2,0,0.2,0.1l1.7,2.5C534.6,245.2,534.6,245.2,534.6,245.3z
					 M532.7,250.5l1.4-5.1l-1.4-2.1l-1.4,2.1L532.7,250.5z"/>
			</g>
		</g>
		<g>
			<g>
				<path style="fill:#FFFFFF;" d="M534.1,226c0,0.7-0.6,1.3-1.3,1.3s-1.3-0.6-1.3-1.3s0.6-1.3,1.3-1.3S534.1,225.3,534.1,226z
					 M531.8,226c0,0.5,0.4,0.9,0.9,0.9s0.9-0.4,0.9-0.9s-0.4-0.9-0.9-0.9S531.8,225.5,531.8,226z"/>
			</g>
		</g>
		<g>
			<g>
				<path style="fill:#FFFFFF;" d="M534.3,223.3c0,0.9-0.7,1.6-1.6,1.6c-0.9,0-1.6-0.7-1.6-1.6s0.7-1.6,1.6-1.6
					S534.3,222.4,534.3,223.3z M531.6,223.3c0,0.6,0.5,1.1,1.1,1.1s1.1-0.5,1.1-1.1s-0.5-1.1-1.1-1.1S531.6,222.7,531.6,223.3z"/>
			</g>
		</g>
		<g>
			<g>
				<path style="fill:#FFFFFF;" d="M532.4,239.4C532.4,239.5,532.4,239.5,532.4,239.4v2.1c0,0.1,0,0.1-0.1,0.2l-2.1,2.1
					c-0.1,0.1-0.2,0.1-0.3,0.1s-0.1-0.1-0.1-0.2v-2.1c0-0.1,0-0.1,0.1-0.2l2.1-2.1c0-0.1,0.1-0.1,0.2-0.1
					C532.3,239.2,532.4,239.3,532.4,239.4z M531.9,241.4V240l-1.6,1.6v1.5L531.9,241.4z"/>
			</g>
		</g>
		<g>
			<g>
				<path style="fill:#FFFFFF;" d="M535.6,241.6v2.1c0,0.1-0.1,0.2-0.1,0.2c-0.1,0-0.2,0-0.3-0.1l-2.1-2.1c0,0-0.1-0.1-0.1-0.2v-2.1
					c0-0.1,0.1-0.2,0.1-0.2c0.1,0,0.2,0,0.3,0.1l2.1,2.1C535.6,241.5,535.6,241.5,535.6,241.6z M535.1,243.1v-1.4l-1.6-1.7v1.5
					L535.1,243.1z"/>
			</g>
		</g>
	</g>
	<g>
		<g>
			<path style="fill:#FFFFFF;" d="M294.3,232.8c0-1-0.2-1.2-1.5-1.2h-4.1c-1.2,0-1.4,0.2-1.4,1.2H287v-5.9l1.6-0.1v0.3l-0.2,0.1
				c-0.6,0.2-0.9,0.3-0.9,1.4v2.1h2.8V230c0-1.2-0.1-1.4-1.2-1.4v-0.3h2.9v0.3c-1,0-1.2,0.2-1.2,1.4v0.6h2c1.2,0,1.5-0.2,1.5-1.2
				h0.3v3.4H294.3z"/>
			<path style="fill:#FFFFFF;" d="M292.5,226.9c-1.3,0-2.3-1.1-2.3-2.5s1-2.5,2.3-2.5s2.3,1.1,2.3,2.5
				C294.8,225.8,293.8,226.9,292.5,226.9z M292.5,222.9c-1,0-1.8,0.5-1.8,1.5s0.8,1.5,1.8,1.5s1.8-0.5,1.8-1.5
				S293.5,222.9,292.5,222.9z"/>
			<path style="fill:#FFFFFF;" d="M294.3,220.8c0-0.8-0.2-1-1.5-1h-0.6c-1.2,0-1.4,0.2-1.4,1h-0.3l-0.3-1.7c0.1-0.1,0.6-0.2,0.9-0.2
				c-0.5-0.2-0.9-0.8-0.9-1.3c0-0.7,0.5-1,0.8-1s0.6,0.1,0.6,0.5c0,0.2-0.2,0.4-0.4,0.4c-0.3,0-0.4,0.2-0.4,0.4c0,0.3,0.5,1,1.5,1
				h0.7c1.2,0,1.5-0.1,1.5-1h0.3v2.9L294.3,220.8L294.3,220.8z"/>
			<path style="fill:#FFFFFF;" d="M294.3,215.9c0-0.8-0.2-1-1.5-1h-0.6c-1.2,0-1.4,0.2-1.4,1h-0.3l-0.3-1.7c0.1-0.1,0.6-0.2,0.9-0.2
				c-0.4-0.3-0.9-0.9-0.9-1.6c0-0.8,0.4-1.2,0.9-1.3c-0.4-0.3-0.9-1-0.9-1.7c0-1.1,0.8-1.4,1.9-1.4h0.8c1.2,0,1.5-0.2,1.5-1h0.3v2.6
				h-0.3c0-0.7-0.1-0.8-1.5-0.8h-0.7c-0.8,0-1.3,0.2-1.3,0.9c0,0.4,0.5,1.3,1.2,1.3h0.8c1.3,0,1.5-0.1,1.5-0.8h0.3v2.5h-0.3
				c0-0.7-0.1-0.8-1.5-0.8h-0.7c-0.8,0-1.3,0.2-1.3,0.9c0,0.4,0.5,1.3,1.2,1.3h0.8c1.3,0,1.5-0.1,1.5-0.8h0.3v2.6H294.3z"/>
			<path style="fill:#FFFFFF;" d="M293.7,206.1c-1.1,0-1.5-1.2-1.8-2.7c-0.9,0-1.3,0.1-1.3,0.8c0,0.3,0.2,0.7,0.6,0.7
				c0.2,0,0.4,0.2,0.4,0.4s-0.2,0.4-0.4,0.4c-0.6,0-1-0.8-1-1.6c0-1.2,0.5-1.7,1.7-1.7h1.9c0.3,0,0.5-0.1,0.5-0.3
				c0-0.1-0.1-0.3-0.2-0.3l0.2-0.2c0.2,0.2,0.4,0.5,0.4,0.8c0,0.5-0.3,0.8-0.7,0.8c0.5,0.6,0.7,1.1,0.7,1.6
				C294.8,205.6,294.4,206.1,293.7,206.1z M293.6,203.4h-1.3c0.3,1.2,0.7,1.7,1.2,1.7c0.4,0,0.6-0.3,0.6-0.6
				C294.2,204.3,294.1,204,293.6,203.4z"/>
			<path style="fill:#FFFFFF;" d="M294.3,201.3c0-0.8-0.2-1-1.5-1h-3.9c-1.2,0-1.5,0.2-1.5,1h-0.3l-0.3-1.9h6c1.2,0,1.5-0.2,1.5-1
				h0.3v2.9H294.3z"/>
			<path style="fill:#FFFFFF;" d="M294.3,194.8c0-1-0.2-1.2-1.5-1.2h-4.1c-1.2,0-1.4,0.1-1.4,1.2H287v-3.4h0.3c0,1,0.2,1.2,1.4,1.2
				h4.1c1.2,0,1.5-0.1,1.5-1.2h0.3v3.4H294.3z"/>
			<path style="fill:#FFFFFF;" d="M294.3,190.5c0-0.8-0.2-1-1.5-1h-0.6c-1.2,0-1.4,0.2-1.4,1h-0.3l-0.3-1.7c0.1-0.1,0.6-0.2,0.9-0.2
				c-0.4-0.3-0.9-0.9-0.9-1.7c0-1.1,0.8-1.6,1.9-1.6h0.8c1.2,0,1.5-0.1,1.5-1h0.3v2.9h-0.3c0-0.8-0.2-1-1.5-1h-0.7
				c-0.8,0-1.3,0.3-1.3,1s0.6,1.4,1.2,1.4h0.8c1.3,0,1.5-0.1,1.5-0.9h0.3v2.7h-0.4V190.5z"/>
			<path style="fill:#FFFFFF;" d="M291.4,183.3c-0.5,0.2-0.7,0.4-0.7,0.8h-0.2v-2.2h0.2c0,0.6,0.1,0.6,0.7,0.4l2.1-0.9l-2.1-0.9
				c-0.5-0.2-0.7-0.2-0.7,0.4h-0.2v-1.7h0.2c0,0.4,0.2,0.6,0.7,0.9l3.4,1.5v0.2L291.4,183.3z"/>
			<path style="fill:#FFFFFF;" d="M288.5,177.8c-0.3,0-0.5-0.2-0.5-0.5s0.2-0.5,0.5-0.5s0.6,0.2,0.6,0.5
				C289,177.6,288.8,177.8,288.5,177.8z M294.3,178.7c0-0.8-0.2-1-1.5-1h-0.6c-1.2,0-1.4,0.2-1.4,1h-0.3l-0.3-1.9h2.6
				c1.2,0,1.5-0.1,1.5-1h0.3v2.9H294.3z"/>
			<path style="fill:#FFFFFF;" d="M293.4,174.6h-2.5v0.6h-0.3c-0.2-0.7-0.7-1-1.5-1.1v-0.4h1.4v-1.1h0.4v1.1h2.5
				c0.6,0,0.9-0.2,0.9-0.6c0-0.2-0.1-0.5-0.4-0.8l0.2-0.2c0.4,0.3,0.7,0.9,0.7,1.3C294.8,174.1,294.3,174.6,293.4,174.6z"/>
			<path style="fill:#FFFFFF;" d="M293.7,171.3c-1.1,0-1.5-1.2-1.8-2.7c-0.9,0-1.3,0.1-1.3,0.8c0,0.3,0.2,0.7,0.6,0.7
				c0.2,0,0.4,0.2,0.4,0.4s-0.2,0.4-0.4,0.4c-0.6,0-1-0.8-1-1.6c0-1.2,0.5-1.7,1.7-1.7h1.9c0.3,0,0.5-0.1,0.5-0.3
				c0-0.1-0.1-0.3-0.2-0.3l0.2-0.2c0.2,0.2,0.4,0.5,0.4,0.8c0,0.5-0.3,0.8-0.7,0.8c0.5,0.6,0.7,1.1,0.7,1.6
				C294.8,170.8,294.4,171.3,293.7,171.3z M293.6,168.7h-1.3c0.3,1.2,0.7,1.7,1.2,1.7c0.4,0,0.6-0.3,0.6-0.6
				C294.2,169.5,294.1,169.2,293.6,168.7z"/>
			<path style="fill:#FFFFFF;" d="M293.4,165.8h-2.5v0.6h-0.3c-0.2-0.7-0.7-1-1.5-1.1v-0.4h1.4v-1.1h0.4v1.1h2.5
				c0.6,0,0.9-0.2,0.9-0.6c0-0.2-0.1-0.5-0.4-0.8l0.2-0.2c0.4,0.3,0.7,0.9,0.7,1.3C294.8,165.3,294.3,165.8,293.4,165.8z"/>
			<path style="fill:#FFFFFF;" d="M288.5,161.7c-0.3,0-0.5-0.2-0.5-0.5s0.2-0.5,0.5-0.5s0.6,0.2,0.6,0.5
				C289,161.5,288.8,161.7,288.5,161.7z M294.3,162.6c0-0.8-0.2-1-1.5-1h-0.6c-1.2,0-1.4,0.2-1.4,1h-0.3l-0.3-1.9h2.6
				c1.2,0,1.5-0.1,1.5-1h0.3v2.9H294.3z"/>
			<path style="fill:#FFFFFF;" d="M292.5,158.9c-1.3,0-2.3-1.1-2.3-2.5s1-2.5,2.3-2.5s2.3,1.1,2.3,2.5
				C294.8,157.8,293.8,158.9,292.5,158.9z M292.5,154.9c-1,0-1.8,0.5-1.8,1.5s0.8,1.5,1.8,1.5s1.8-0.5,1.8-1.5
				S293.5,154.9,292.5,154.9z"/>
			<path style="fill:#FFFFFF;" d="M294.3,152.8c0-0.8-0.2-1-1.5-1h-0.6c-1.2,0-1.4,0.2-1.4,1h-0.3l-0.3-1.7c0.1-0.1,0.6-0.2,0.9-0.2
				c-0.4-0.3-0.9-0.9-0.9-1.7c0-1.1,0.8-1.6,1.9-1.6h0.8c1.2,0,1.5-0.1,1.5-1h0.3v2.9h-0.3c0-0.8-0.2-1-1.5-1h-0.7
				c-0.8,0-1.3,0.3-1.3,1s0.6,1.4,1.2,1.4h0.8c1.3,0,1.5-0.1,1.5-0.9h0.3v2.7h-0.4V152.8z"/>
			<path style="fill:#FFFFFF;" d="M293,145.8v-0.3c0.6,0,1.4-0.5,1.4-1.4c0-0.4-0.3-0.7-0.6-0.7c-0.3,0-0.5,0.3-0.8,0.7l-0.4,0.7
				c-0.3,0.6-0.8,0.8-1.2,0.8c-0.7,0-1.1-0.6-1.1-1.3c0-0.6,0.3-0.9,0.3-1.1c0,0-0.1-0.1-0.3-0.1V143h1.4v0.3c-0.5,0-1,0.4-1,1
				c0,0.4,0.2,0.6,0.5,0.6s0.5-0.2,0.8-0.8l0.3-0.6c0.3-0.5,0.7-0.9,1.2-0.9c0.8,0,1.4,0.7,1.4,1.5c0,0.6-0.4,1-0.4,1.2
				c0,0.1,0.1,0.2,0.4,0.2v0.3H293z"/>
			<path style="fill:#FFFFFF;" d="M293.4,138.2h-2.5v0.6h-0.3c-0.2-0.7-0.7-1-1.5-1.1v-0.4h1.4v-1.1h0.4v1.1h2.5
				c0.6,0,0.9-0.2,0.9-0.6c0-0.2-0.1-0.5-0.4-0.8l0.2-0.2c0.4,0.3,0.7,0.9,0.7,1.3C294.8,137.8,294.3,138.2,293.4,138.2z"/>
			<path style="fill:#FFFFFF;" d="M292.5,134.9c-1.3,0-2.3-1.1-2.3-2.5s1-2.5,2.3-2.5s2.3,1.1,2.3,2.5
				C294.8,133.8,293.8,134.9,292.5,134.9z M292.5,130.9c-1,0-1.8,0.5-1.8,1.5s0.8,1.5,1.8,1.5s1.8-0.5,1.8-1.5
				S293.5,130.9,292.5,130.9z"/>
			<path style="fill:#FFFFFF;" d="M294.3,125.9c0-0.8-0.2-1-1.5-1h-2v1h-0.4v-1h-1.2c-1.7,0-2.3-1-2.3-2c0-0.8,0.5-1.2,0.9-1.2
				c0.2,0,0.4,0.1,0.4,0.4c0,0.6-1,0.3-1,1.1c0,0.6,0.5,0.9,1.9,0.9h1.2v-1.2h0.4v1.2h2c1.2,0,1.5-0.1,1.5-1h0.3v2.9h-0.2V125.9z"/>
			<path style="fill:#FFFFFF;" d="M292.5,121.9c-1.3,0-2.3-1.1-2.3-2.5s1-2.5,2.3-2.5s2.3,1.1,2.3,2.5S293.8,121.9,292.5,121.9z
				 M292.5,117.9c-1,0-1.8,0.5-1.8,1.5s0.8,1.5,1.8,1.5s1.8-0.5,1.8-1.5S293.5,117.9,292.5,117.9z"/>
			<path style="fill:#FFFFFF;" d="M294.3,116c0-0.8-0.2-1-1.5-1h-3.9c-1.2,0-1.5,0.2-1.5,1h-0.3l-0.3-1.9h6c1.2,0,1.5-0.2,1.5-1h0.3
				v2.9H294.3z"/>
			<path style="fill:#FFFFFF;" d="M294.3,112.7c0-0.8-0.2-1-1.5-1h-3.9c-1.2,0-1.5,0.2-1.5,1h-0.3l-0.3-1.9h6c1.2,0,1.5-0.2,1.5-1
				h0.3v2.9H294.3z"/>
			<path style="fill:#FFFFFF;" d="M292.5,109c-1.3,0-2.3-1.1-2.3-2.5s1-2.5,2.3-2.5s2.3,1.1,2.3,2.5S293.8,109,292.5,109z
				 M292.5,105c-1,0-1.8,0.5-1.8,1.5s0.8,1.5,1.8,1.5s1.8-0.5,1.8-1.5C294.3,105.4,293.5,105,292.5,105z"/>
			<path style="fill:#FFFFFF;" d="M291.4,102.6c-0.5,0.2-0.7,0.4-0.7,0.8h-0.2v-2.2h0.2c0,0.6,0.1,0.6,0.7,0.4l2.1-0.8l-3-1.3v-0.2
				l3-1.3l-2.1-0.9c-0.5-0.2-0.7-0.2-0.7,0.4h-0.2v-1.7h0.2c0,0.4,0.2,0.6,0.7,0.9l3.4,1.5v0.2l-3,1.3l3,1.3v0.2L291.4,102.6z"/>
			<path style="fill:#FFFFFF;" d="M294,95.2c-0.4,0-0.7-0.3-0.7-0.7c0-0.4,0.3-0.7,0.7-0.7c0.4,0,0.7,0.3,0.7,0.7
				C294.7,94.9,294.4,95.2,294,95.2z"/>
		</g>
		<g>
			<path style="fill:#FFFFFF;" d="M189.9,212.3c0-1.2-0.2-1.3-1.6-1.3h-4.6c-1.4,0-1.6,0.2-1.6,1.3h-0.3v-3.7c0-1.9,1.1-3,2.4-3
				s2.4,1.1,2.4,3v1.2h1.8c1.4,0,1.6-0.2,1.6-1.3h0.3v3.8H189.9z M186,208.6c0-1.2-0.8-1.8-1.8-1.8s-1.8,0.6-1.8,1.8v1.2h3.7
				L186,208.6L186,208.6z"/>
			<path style="fill:#FFFFFF;" d="M189.9,204.8c0-0.9-0.2-1.1-1.6-1.1h-4.4c-1.4,0-1.6,0.2-1.6,1.1H182l-0.4-2.1h6.7
				c1.4,0,1.6-0.2,1.6-1.1h0.3v3.2L189.9,204.8L189.9,204.8z"/>
			<path style="fill:#FFFFFF;" d="M187.8,200.7c-1.5,0-2.6-1.3-2.6-2.6c0-1.2,1-2.2,2.2-1.9v3.4c1.3,0.2,2.3-0.4,2.3-1.8
				c0-0.5-0.3-1.1-0.6-1.5l0.3-0.3c0.5,0.5,0.9,1.3,0.9,2.1C190.4,199.6,189.2,200.7,187.8,200.7z M187,197.1
				c-0.4-0.2-1.1,0.1-1.1,1c0,0.6,0.4,1.1,1.1,1.3V197.1z"/>
			<path style="fill:#FFFFFF;" d="M189.2,194.8c-1.2,0-1.7-1.4-2-3c-1.1,0-1.5,0.1-1.5,0.9c0,0.3,0.2,0.8,0.7,0.8
				c0.3,0,0.5,0.2,0.5,0.5s-0.2,0.5-0.5,0.5c-0.7,0-1.1-0.9-1.1-1.8c0-1.4,0.6-1.9,1.9-1.9h2.1c0.4,0,0.5-0.1,0.5-0.3
				c0-0.1-0.1-0.3-0.2-0.4l0.3-0.2c0.3,0.3,0.4,0.6,0.4,0.9c0,0.5-0.3,0.9-0.8,1c0.6,0.7,0.8,1.2,0.8,1.8
				C190.4,194.2,189.9,194.8,189.2,194.8z M189,191.8h-1.4c0.3,1.3,0.8,1.9,1.4,1.9c0.4,0,0.7-0.3,0.7-0.7
				C189.7,192.8,189.6,192.4,189,191.8z"/>
			<path style="fill:#FFFFFF;" d="M188.4,189v-0.3c0.6,0,1.6-0.5,1.6-1.5c0-0.5-0.3-0.8-0.7-0.8s-0.6,0.3-0.9,0.8L188,188
				c-0.4,0.7-1,0.9-1.4,0.9c-0.8,0-1.3-0.7-1.3-1.4s0.3-1,0.3-1.2c0-0.1-0.1-0.1-0.3-0.1v-0.3h1.6v0.3c-0.6,0-1.2,0.4-1.2,1.1
				c0,0.5,0.3,0.7,0.6,0.7s0.5-0.2,0.9-0.9l0.4-0.7c0.4-0.6,0.8-1,1.3-1c0.9,0,1.5,0.8,1.5,1.7c0,0.6-0.4,1.1-0.4,1.3
				c0,0.1,0.1,0.2,0.4,0.2v0.3L188.4,189L188.4,189z"/>
			<path style="fill:#FFFFFF;" d="M187.8,184.2c-1.5,0-2.6-1.3-2.6-2.6c0-1.2,1-2.2,2.2-1.9v3.4c1.3,0.2,2.3-0.4,2.3-1.8
				c0-0.5-0.3-1.1-0.6-1.5l0.3-0.3c0.5,0.5,0.9,1.3,0.9,2.1C190.4,183.2,189.2,184.2,187.8,184.2z M187,180.7
				c-0.4-0.2-1.1,0.1-1.1,1c0,0.6,0.4,1.1,1.1,1.3V180.7z"/>
			<path style="fill:#FFFFFF;" d="M188.4,175.1v-0.3c0.6,0,1.6-0.5,1.6-1.5c0-0.5-0.3-0.8-0.7-0.8s-0.6,0.3-0.9,0.8l-0.4,0.8
				c-0.4,0.7-1,0.9-1.4,0.9c-0.8,0-1.3-0.7-1.3-1.4s0.3-1,0.3-1.2c0-0.1-0.1-0.1-0.3-0.1V172h1.6v0.3c-0.6,0-1.2,0.4-1.2,1.1
				c0,0.5,0.3,0.7,0.6,0.7s0.5-0.2,0.9-0.9l0.4-0.7c0.4-0.6,0.8-1,1.3-1c0.9,0,1.5,0.8,1.5,1.7c0,0.6-0.4,1.1-0.4,1.3
				c0,0.1,0.1,0.2,0.4,0.2v0.3L188.4,175.1L188.4,175.1z"/>
			<path style="fill:#FFFFFF;" d="M189.2,170.3c-1.2,0-1.7-1.4-2-3c-1.1,0-1.5,0.1-1.5,0.9c0,0.3,0.2,0.8,0.7,0.8
				c0.3,0,0.5,0.2,0.5,0.5s-0.2,0.5-0.5,0.5c-0.7,0-1.1-0.9-1.1-1.8c0-1.4,0.6-1.9,1.9-1.9h2.1c0.4,0,0.5-0.1,0.5-0.3
				c0-0.1-0.1-0.3-0.2-0.4l0.3-0.2c0.3,0.3,0.4,0.6,0.4,0.9c0,0.5-0.3,0.9-0.8,1c0.6,0.7,0.8,1.2,0.8,1.8
				C190.4,169.7,189.9,170.3,189.2,170.3z M189,167.3h-1.4c0.3,1.3,0.8,1.9,1.4,1.9c0.4,0,0.7-0.3,0.7-0.7
				C189.7,168.3,189.6,168,189,167.3z"/>
			<path style="fill:#FFFFFF;" d="M186.6,164.3c-0.6,0.3-0.8,0.5-0.8,1h-0.3v-2.5h0.3c0,0.6,0.2,0.7,0.8,0.4l2.3-1l-2.3-1
				c-0.6-0.3-0.8-0.2-0.8,0.4h-0.3v-2h0.3c0,0.5,0.2,0.7,0.8,1l3.8,1.7v0.3L186.6,164.3z"/>
			<path style="fill:#FFFFFF;" d="M187.8,159c-1.5,0-2.6-1.3-2.6-2.6c0-1.2,1-2.2,2.2-1.9v3.4c1.3,0.2,2.3-0.4,2.3-1.8
				c0-0.5-0.3-1.1-0.6-1.5l0.3-0.3c0.5,0.5,0.9,1.3,0.9,2.1C190.4,158,189.2,159,187.8,159z M187,155.5c-0.4-0.2-1.1,0.1-1.1,1
				c0,0.6,0.4,1.1,1.1,1.3V155.5z"/>
			<path style="fill:#FFFFFF;" d="M188.8,149.4H186v0.7h-0.3c-0.2-0.8-0.8-1.1-1.7-1.2v-0.5h1.5v-1.2h0.5v1.2h2.8c0.7,0,1-0.2,1-0.6
				c0-0.3-0.2-0.6-0.5-0.9l0.2-0.2c0.5,0.4,0.8,1,0.8,1.5C190.4,148.9,189.9,149.4,188.8,149.4z"/>
			<path style="fill:#FFFFFF;" d="M189.9,146.1c0-0.9-0.2-1.1-1.6-1.1h-4.4c-1.4,0-1.6,0.2-1.6,1.1H182l-0.4-2.1h4.7
				c-0.5-0.4-1-1-1-1.8c0-1.3,0.9-1.7,2.1-1.7h0.9c1.4,0,1.6-0.2,1.6-1.1h0.3v3.1h-0.3c0-0.9-0.2-1-1.6-1h-0.8
				c-0.9,0-1.5,0.3-1.5,1.1c0,0.7,0.6,1.5,1.4,1.5h0.9c1.5,0,1.6-0.1,1.6-0.9h0.3v3h-0.3V146.1z"/>
			<path style="fill:#FFFFFF;" d="M187.8,138.4c-1.5,0-2.6-1.3-2.6-2.6c0-1.2,1-2.2,2.2-1.9v3.4c1.3,0.2,2.3-0.4,2.3-1.8
				c0-0.5-0.3-1.1-0.6-1.5l0.3-0.3c0.5,0.5,0.9,1.3,0.9,2.1C190.4,137.4,189.2,138.4,187.8,138.4z M187,134.9
				c-0.4-0.2-1.1,0.1-1.1,1c0,0.6,0.4,1.1,1.1,1.3V134.9z"/>
			<path style="fill:#FFFFFF;" d="M187.8,129.2c-1.4,0-2.6-1.1-2.6-2.4c0-0.7,0.3-1.3,0.8-1.7h-2.3c-1.4,0-1.6,0.2-1.6,1.1h-0.3
				l-0.4-2.1h6.7c1.3,0,1.5-0.2,1.5-1h0.3l0.4,1.7c-0.1,0.1-0.6,0.2-0.8,0.2c0.5,0.4,0.9,1,0.9,1.7
				C190.4,128.1,189.2,129.2,187.8,129.2z M188.7,125.1h-1.8c-0.7,0.3-1.1,0.8-1.1,1.4c0,1.1,0.9,1.6,2,1.6s2-0.5,2-1.6
				C189.8,125.9,189.4,125.4,188.7,125.1z"/>
			<path style="fill:#FFFFFF;" d="M189.2,122.1c-1.2,0-1.7-1.4-2-3c-1.1,0-1.5,0.1-1.5,0.9c0,0.3,0.2,0.8,0.7,0.8
				c0.3,0,0.5,0.2,0.5,0.5s-0.2,0.5-0.5,0.5c-0.7,0-1.1-0.9-1.1-1.8c0-1.4,0.6-1.9,1.9-1.9h2.1c0.4,0,0.5-0.1,0.5-0.3
				c0-0.1-0.1-0.3-0.2-0.4l0.3-0.2c0.3,0.3,0.4,0.6,0.4,0.9c0,0.5-0.3,0.9-0.8,1c0.6,0.7,0.8,1.2,0.8,1.8
				C190.4,121.5,189.9,122.1,189.2,122.1z M189,119.1h-1.4c0.3,1.3,0.8,1.9,1.4,1.9c0.4,0,0.7-0.3,0.7-0.7
				C189.7,120.1,189.6,119.7,189,119.1z"/>
			<path style="fill:#FFFFFF;" d="M188.8,115.8H186v0.7h-0.3c-0.2-0.8-0.8-1.1-1.7-1.2v-0.5h1.5v-1.2h0.5v1.2h2.8c0.7,0,1-0.2,1-0.6
				c0-0.3-0.2-0.6-0.5-0.9l0.2-0.2c0.5,0.4,0.8,1,0.8,1.5C190.4,115.3,189.9,115.8,188.8,115.8z"/>
			<path style="fill:#FFFFFF;" d="M187.8,112.2c-1.5,0-2.6-1.3-2.6-2.6c0-1.2,1-2.2,2.2-1.9v3.4c1.3,0.2,2.3-0.4,2.3-1.8
				c0-0.5-0.3-1.1-0.6-1.5l0.3-0.3c0.5,0.5,0.9,1.3,0.9,2.1C190.4,111.1,189.2,112.2,187.8,112.2z M187,108.6
				c-0.4-0.2-1.1,0.1-1.1,1c0,0.6,0.4,1.1,1.1,1.3V108.6z"/>
			<path style="fill:#FFFFFF;" d="M206.7,244.4c0-0.9-0.2-1.1-1.6-1.1h-2.2v1.1h-0.5v-1.1H201c-1.9,0-2.6-1.1-2.6-2.3
				c0-0.9,0.6-1.4,1-1.4c0.3,0,0.5,0.2,0.5,0.5c0,0.7-1.1,0.3-1.1,1.2c0,0.7,0.6,1.1,2.2,1.1h1.3V241h0.5v1.4h2.2
				c1.4,0,1.6-0.2,1.6-1.1h0.3v3.2L206.7,244.4L206.7,244.4z"/>
			<path style="fill:#FFFFFF;" d="M204.6,239.9c-1.4,0-2.6-1.3-2.6-2.8s1.1-2.8,2.6-2.8c1.4,0,2.6,1.3,2.6,2.8
				S206,239.9,204.6,239.9z M204.6,235.3c-1.1,0-2,0.5-2,1.7c0,1.1,0.9,1.7,2,1.7s2-0.5,2-1.7C206.7,235.9,205.8,235.3,204.6,235.3z
				"/>
			<path style="fill:#FFFFFF;" d="M206.7,233c0-0.9-0.2-1.1-1.6-1.1h-0.7c-1.4,0-1.6,0.2-1.6,1.1h-0.3l-0.4-1.9
				c0.1-0.1,0.7-0.2,1-0.2c-0.6-0.3-1-0.9-1-1.5c0-0.8,0.5-1.1,0.9-1.1c0.3,0,0.7,0.1,0.7,0.6c0,0.3-0.2,0.5-0.5,0.5
				s-0.5,0.2-0.5,0.4c0,0.3,0.5,1.1,1.6,1.1h0.8c1.4,0,1.6-0.2,1.6-1.1h0.3v3.2H206.7z"/>
			<path style="fill:#FFFFFF;" d="M205.6,223.6h-2.8v0.7h-0.3c-0.2-0.8-0.8-1.1-1.7-1.2v-0.5h1.5v-1.2h0.5v1.2h2.8
				c0.7,0,1-0.2,1-0.6c0-0.3-0.2-0.6-0.5-0.9l0.2-0.2c0.5,0.4,0.8,1,0.8,1.5C207.2,223.1,206.7,223.6,205.6,223.6z"/>
			<path style="fill:#FFFFFF;" d="M206.7,220.4c0-0.9-0.2-1.1-1.6-1.1h-4.4c-1.4,0-1.6,0.2-1.6,1.1h-0.3l-0.4-2.1h4.7
				c-0.5-0.4-1-1-1-1.8c0-1.3,0.9-1.7,2.1-1.7h0.9c1.4,0,1.6-0.2,1.6-1.1h0.3v3.1h-0.3c0-0.9-0.2-1-1.6-1h-0.8
				c-0.9,0-1.5,0.3-1.5,1.1c0,0.7,0.6,1.5,1.4,1.5h0.9c1.5,0,1.6-0.1,1.6-0.9h0.3v3h-0.3L206.7,220.4L206.7,220.4z"/>
			<path style="fill:#FFFFFF;" d="M204.6,212.7c-1.5,0-2.6-1.3-2.6-2.6c0-1.2,1-2.2,2.2-1.9v3.4c1.3,0.2,2.3-0.4,2.3-1.8
				c0-0.5-0.3-1.1-0.6-1.5l0.3-0.3c0.5,0.5,0.9,1.3,0.9,2.1C207.2,211.6,206,212.7,204.6,212.7z M203.8,209.1
				c-0.4-0.2-1.1,0.1-1.1,1c0,0.6,0.4,1.1,1.1,1.3V209.1z"/>
			<path style="fill:#FFFFFF;" d="M206.7,203.6c0-0.9-0.2-1.1-1.6-1.1h-0.7c-1.4,0-1.6,0.2-1.6,1.1h-0.3l-0.4-1.9
				c0.1-0.1,0.7-0.2,1-0.2c-0.5-0.4-1-1-1-1.8c0-0.9,0.4-1.3,1.1-1.5c-0.5-0.3-1.1-1.1-1.1-2c0-1.2,0.9-1.6,2.1-1.6h0.9
				c1.4,0,1.6-0.2,1.6-1.1h0.3v3h-0.3c0-0.8-0.2-0.9-1.6-0.9h-0.8c-0.9,0-1.5,0.3-1.5,1c0,0.5,0.5,1.5,1.4,1.5h0.9
				c1.5,0,1.6-0.1,1.6-0.9h0.3v2.8h-0.3c0-0.8-0.2-0.9-1.6-0.9h-0.8c-0.9,0-1.5,0.3-1.5,1c0,0.5,0.5,1.4,1.4,1.4h0.9
				c1.5,0,1.6-0.1,1.6-0.9h0.3v3L206.7,203.6L206.7,203.6z"/>
			<path style="fill:#FFFFFF;" d="M206,192.6c-1.2,0-1.7-1.4-2-3c-1.1,0-1.5,0.1-1.5,0.9c0,0.3,0.2,0.8,0.7,0.8
				c0.3,0,0.5,0.2,0.5,0.5s-0.2,0.5-0.5,0.5c-0.7,0-1.1-0.9-1.1-1.8c0-1.4,0.6-1.9,1.9-1.9h2.1c0.4,0,0.5-0.1,0.5-0.3
				c0-0.1-0.1-0.3-0.2-0.4l0.3-0.2c0.3,0.3,0.4,0.6,0.4,0.9c0,0.5-0.3,0.9-0.8,1c0.6,0.7,0.8,1.2,0.8,1.8
				C207.2,192,206.7,192.6,206,192.6z M205.8,189.6h-1.4c0.3,1.3,0.8,1.9,1.4,1.9c0.4,0,0.7-0.3,0.7-0.7
				C206.5,190.6,206.4,190.2,205.8,189.6z"/>
			<path style="fill:#FFFFFF;" d="M206.7,186.9c0-0.9-0.2-1.1-1.6-1.1h-0.7c-1.4,0-1.6,0.2-1.6,1.1h-0.3l-0.4-1.9
				c0.1-0.1,0.7-0.2,1-0.2c-0.6-0.3-1-0.9-1-1.5c0-0.8,0.5-1.1,0.9-1.1c0.3,0,0.7,0.1,0.7,0.6c0,0.3-0.2,0.5-0.5,0.5
				s-0.5,0.2-0.5,0.4c0,0.3,0.5,1.1,1.6,1.1h0.8c1.4,0,1.6-0.2,1.6-1.1h0.3v3.2H206.7z"/>
			<path style="fill:#FFFFFF;" d="M206.7,181.4c0-0.9-0.2-1.1-1.6-1.1h-0.7c-1.4,0-1.6,0.2-1.6,1.1h-0.3l-0.4-1.9
				c0.1-0.1,0.7-0.2,1-0.2c-0.6-0.3-1-0.9-1-1.5c0-0.8,0.5-1.1,0.9-1.1c0.3,0,0.7,0.1,0.7,0.6c0,0.3-0.2,0.5-0.5,0.5
				s-0.5,0.2-0.5,0.4c0,0.3,0.5,1.1,1.6,1.1h0.8c1.4,0,1.6-0.2,1.6-1.1h0.3v3.2H206.7z"/>
			<path style="fill:#FFFFFF;" d="M206.7,175.9c0-0.9-0.2-1.1-1.6-1.1h-0.7c-1.4,0-1.6,0.2-1.6,1.1h-0.3l-0.4-2.1h3
				c1.4,0,1.6-0.2,1.6-1.1h0.3v3.2L206.7,175.9L206.7,175.9z M200.1,175c-0.3,0-0.6-0.3-0.6-0.6s0.3-0.6,0.6-0.6
				c0.4,0,0.6,0.3,0.6,0.6C200.7,174.7,200.4,175,200.1,175z"/>
			<path style="fill:#FFFFFF;" d="M206,171.8c-1.2,0-1.7-1.4-2-3c-1.1,0-1.5,0.1-1.5,0.9c0,0.3,0.2,0.8,0.7,0.8
				c0.3,0,0.5,0.2,0.5,0.5s-0.2,0.5-0.5,0.5c-0.7,0-1.1-0.9-1.1-1.8c0-1.4,0.6-1.9,1.9-1.9h2.1c0.4,0,0.5-0.1,0.5-0.3
				c0-0.1-0.1-0.3-0.2-0.4l0.3-0.2c0.3,0.3,0.4,0.6,0.4,0.9c0,0.5-0.3,0.9-0.8,1c0.6,0.7,0.8,1.2,0.8,1.8
				C207.2,171.2,206.7,171.8,206,171.8z M205.8,168.8h-1.4c0.3,1.3,0.8,1.9,1.4,1.9c0.4,0,0.7-0.3,0.7-0.7
				C206.5,169.8,206.4,169.5,205.8,168.8z"/>
			<path style="fill:#FFFFFF;" d="M208.1,165.5l0.2-0.3c1.3,1.2,1.9-0.2,1.9-1.3c0-0.9-0.4-1.7-1.1-1.7c-0.7,0-0.9,0.7-1,1.9
				c-0.1,1.1-0.5,2-1.3,2c-0.5,0-0.9-0.4-1.1-1.2c-0.3,0.7-1,1.2-1.7,1.2c-1.1,0-1.9-0.9-1.9-2.1c0-0.6,0.2-1.1,0.5-1.4
				c-0.3-0.3-0.5-0.8-0.5-1c0-1,1.1-1,1.2-0.5c0,0.6-0.6,0.3-0.6,0.8c0,0.1,0.1,0.3,0.2,0.4c0.3-0.3,0.7-0.4,1.1-0.4
				c1,0,1.8,0.9,1.9,1.8c0.1,0.6,0.2,1.6,0.6,1.6c0.4,0,0.5-0.8,0.5-1.3c0.2-1.9,1-2.5,1.8-2.5c1.2,0,1.9,1.1,1.9,2.5
				C210.7,166.3,209,167.3,208.1,165.5z M204,163c-0.8,0-1.5,0.3-1.5,1s0.6,1,1.5,1c0.8,0,1.4-0.3,1.4-1S204.8,163,204,163z"/>
			<path style="fill:#FFFFFF;" d="M204.6,160.1c-1.5,0-2.6-1.3-2.6-2.6c0-1.2,1-2.2,2.2-1.9v3.4c1.3,0.2,2.3-0.4,2.3-1.8
				c0-0.5-0.3-1.1-0.6-1.5l0.3-0.3c0.5,0.5,0.9,1.3,0.9,2.1C207.2,159,206,160.1,204.6,160.1z M203.8,156.6c-0.4-0.2-1.1,0.1-1.1,1
				c0,0.6,0.4,1.1,1.1,1.3V156.6z"/>
			<path style="fill:#FFFFFF;" d="M204.8,150.9c-1.7,0-2.7-1.4-2.7-2.5c0-1.2,0.5-1.7,1-1.7c0.2,0,0.6,0.1,0.6,0.6
				c0,0.3-0.3,0.5-0.6,0.5c-0.5,0-0.6,0.3-0.6,0.5c0,0.7,1,1.3,2.2,1.3c1.1,0,1.9-0.5,1.9-1.7c0-0.5-0.2-1-0.6-1.5l0.3-0.2
				c0.6,0.5,0.9,1.3,0.9,2.1C207.2,150,206.2,150.9,204.8,150.9z"/>
			<path style="fill:#FFFFFF;" d="M204.6,145.4c-1.5,0-2.6-1.3-2.6-2.6c0-1.2,1-2.2,2.2-1.9v3.4c1.3,0.2,2.3-0.4,2.3-1.8
				c0-0.5-0.3-1.1-0.6-1.5l0.3-0.3c0.5,0.5,0.9,1.3,0.9,2.1C207.2,144.4,206,145.4,204.6,145.4z M203.8,141.9
				c-0.4-0.2-1.1,0.1-1.1,1c0,0.6,0.4,1.1,1.1,1.3V141.9z"/>
			<path style="fill:#FFFFFF;" d="M206.7,139.9c0-0.9-0.2-1.1-1.6-1.1h-4.4c-1.4,0-1.6,0.2-1.6,1.1h-0.3l-0.4-2.1h6.7
				c1.4,0,1.6-0.2,1.6-1.1h0.3v3.2L206.7,139.9L206.7,139.9z"/>
			<path style="fill:#FFFFFF;" d="M204.6,135.8c-1.5,0-2.6-1.3-2.6-2.6c0-1.2,1-2.2,2.2-1.9v3.4c1.3,0.2,2.3-0.4,2.3-1.8
				c0-0.5-0.3-1.1-0.6-1.5l0.3-0.3c0.5,0.5,0.9,1.3,0.9,2.1C207.2,134.7,206,135.8,204.6,135.8z M203.8,132.2
				c-0.4-0.2-1.1,0.1-1.1,1c0,0.6,0.4,1.1,1.1,1.3V132.2z"/>
			<path style="fill:#FFFFFF;" d="M200.6,129.4c-1.4,0-1.6,0.2-1.6,1.1h-0.3l-0.4-2.1h4.6c-0.5-0.4-0.8-1-0.8-1.7
				c0-1.3,1.1-2.4,2.6-2.4c1.4,0,2.6,1.1,2.6,2.4c0,0.7-0.4,1.4-0.9,1.8l0.9,0.6v0.3L200.6,129.4L200.6,129.4z M204.6,125.4
				c-1.1,0-2,0.5-2,1.6c0,0.6,0.4,1.2,1.1,1.4h1.8c0.7-0.3,1.1-0.8,1.1-1.4C206.6,125.9,205.8,125.4,204.6,125.4z"/>
			<path style="fill:#FFFFFF;" d="M206.7,123c0-0.9-0.2-1.1-1.6-1.1h-0.7c-1.4,0-1.6,0.2-1.6,1.1h-0.3l-0.4-1.9
				c0.1-0.1,0.7-0.2,1-0.2c-0.6-0.3-1-0.9-1-1.5c0-0.8,0.5-1.1,0.9-1.1c0.3,0,0.7,0.1,0.7,0.6c0,0.3-0.2,0.5-0.5,0.5
				s-0.5,0.2-0.5,0.4c0,0.3,0.5,1.1,1.6,1.1h0.8c1.4,0,1.6-0.2,1.6-1.1h0.3v3.2H206.7z"/>
			<path style="fill:#FFFFFF;" d="M206,117.5c-1.2,0-1.7-1.4-2-3c-1.1,0-1.5,0.1-1.5,0.9c0,0.3,0.2,0.8,0.7,0.8
				c0.3,0,0.5,0.2,0.5,0.5s-0.2,0.5-0.5,0.5c-0.7,0-1.1-0.9-1.1-1.8c0-1.4,0.6-1.9,1.9-1.9h2.1c0.4,0,0.5-0.1,0.5-0.3
				c0-0.1-0.1-0.3-0.2-0.4l0.3-0.2c0.3,0.3,0.4,0.6,0.4,0.9c0,0.5-0.3,0.9-0.8,1c0.6,0.7,0.8,1.2,0.8,1.8
				C207.2,116.9,206.7,117.5,206,117.5z M205.8,114.5h-1.4c0.3,1.3,0.8,1.9,1.4,1.9c0.4,0,0.7-0.3,0.7-0.7
				C206.5,115.5,206.4,115.1,205.8,114.5z"/>
			<path style="fill:#FFFFFF;" d="M205.6,111.2h-2.8v0.7h-0.3c-0.2-0.8-0.8-1.1-1.7-1.2v-0.5h1.5V109h0.5v1.2h2.8c0.7,0,1-0.2,1-0.6
				c0-0.3-0.2-0.6-0.5-0.9l0.2-0.2c0.5,0.4,0.8,1,0.8,1.5C207.2,110.7,206.7,111.2,205.6,111.2z"/>
			<path style="fill:#FFFFFF;" d="M206.7,107.7c0-0.9-0.2-1.1-1.6-1.1h-0.7c-1.4,0-1.6,0.2-1.6,1.1h-0.3l-0.4-2.1h3
				c1.4,0,1.6-0.2,1.6-1.1h0.3v3.2H206.7z M200.1,106.7c-0.3,0-0.6-0.3-0.6-0.6c0-0.3,0.3-0.6,0.6-0.6c0.4,0,0.6,0.3,0.6,0.6
				C200.7,106.4,200.4,106.7,200.1,106.7z"/>
			<path style="fill:#FFFFFF;" d="M204.6,103.5c-1.4,0-2.6-1.3-2.6-2.8s1.1-2.8,2.6-2.8c1.4,0,2.6,1.3,2.6,2.8
				S206,103.5,204.6,103.5z M204.6,99c-1.1,0-2,0.5-2,1.7c0,1.1,0.9,1.7,2,1.7s2-0.5,2-1.7C206.7,99.6,205.8,99,204.6,99z"/>
			<path style="fill:#FFFFFF;" d="M206.7,96.7c0-0.9-0.2-1.1-1.6-1.1h-0.7c-1.4,0-1.6,0.2-1.6,1.1h-0.3l-0.4-1.9
				c0.1-0.1,0.7-0.2,1-0.2c-0.5-0.4-1-1-1-1.9c0-1.3,0.9-1.8,2.1-1.8h0.9c1.4,0,1.6-0.2,1.6-1.1h0.3V93h-0.3c0-0.9-0.2-1.1-1.6-1.1
				h-0.8c-0.9,0-1.5,0.3-1.5,1.2c0,0.8,0.6,1.6,1.4,1.6h0.9c1.4,0,1.6-0.1,1.6-1h0.3v3.1L206.7,96.7L206.7,96.7z"/>
			<path style="fill:#FFFFFF;" d="M204.6,85.5c-1.4,0-2.6-1.3-2.6-2.8s1.1-2.8,2.6-2.8c1.4,0,2.6,1.3,2.6,2.8S206,85.5,204.6,85.5z
				 M204.6,81c-1.1,0-2,0.5-2,1.7c0,1.1,0.9,1.7,2,1.7s2-0.5,2-1.7C206.7,81.5,205.8,81,204.6,81z"/>
			<path style="fill:#FFFFFF;" d="M206.7,78.7c0-0.9-0.2-1.1-1.6-1.1h-2.2v1.1h-0.5v-1.1H201c-1.9,0-2.6-1.1-2.6-2.3
				c0-0.9,0.6-1.4,1-1.4c0.3,0,0.5,0.2,0.5,0.5c0,0.7-1.1,0.3-1.1,1.2c0,0.7,0.6,1,2.2,1h1.3v-1.4h0.5v1.4h2.2
				c1.4,0,1.6-0.2,1.6-1.1h0.3v3.2C206.9,78.7,206.7,78.7,206.7,78.7z"/>
		</g>
		<g>
			<path style="fill:#FFFFFF;" d="M255.5,254.1c-1.4,0-2.6-1.3-2.6-2.8s1.1-2.8,2.6-2.8c1.4,0,2.6,1.3,2.6,2.8
				S256.9,254.1,255.5,254.1z M255.5,249.6c-1.1,0-2,0.5-2,1.7c0,1.1,0.9,1.7,2,1.7s2-0.5,2-1.7S256.6,249.6,255.5,249.6z"/>
			<path style="fill:#FFFFFF;" d="M257.5,247.3c0-0.9-0.2-1.1-1.6-1.1h-0.7c-1.4,0-1.6,0.2-1.6,1.1h-0.3l-0.4-1.9
				c0.1-0.1,0.7-0.2,1-0.2c-0.5-0.4-1-1-1-1.9c0-1.3,0.9-1.8,2.1-1.8h0.9c1.4,0,1.6-0.2,1.6-1.1h0.3v3.2h-0.3c0-0.9-0.2-1.1-1.6-1.1
				h-0.8c-0.9,0-1.5,0.3-1.5,1.2c0,0.8,0.6,1.6,1.4,1.6h0.9c1.4,0,1.6-0.1,1.6-1h0.3v3.1h-0.3L257.5,247.3L257.5,247.3z"/>
			<path style="fill:#FFFFFF;" d="M256.5,235.6h-2.8v0.7h-0.3c-0.2-0.8-0.8-1.1-1.7-1.2v-0.5h1.5v-1.2h0.5v1.2h2.8
				c0.7,0,1-0.2,1-0.6c0-0.3-0.2-0.6-0.5-0.9l0.2-0.2c0.5,0.4,0.8,1,0.8,1.5C258,235.1,257.5,235.6,256.5,235.6z"/>
			<path style="fill:#FFFFFF;" d="M257.5,232.4c0-0.9-0.2-1.1-1.6-1.1h-4.4c-1.4,0-1.6,0.2-1.6,1.1h-0.3l-0.4-2.1h4.7
				c-0.5-0.4-1-1-1-1.8c0-1.3,0.9-1.7,2.1-1.7h0.9c1.4,0,1.6-0.2,1.6-1.1h0.3v3.1h-0.3c0-0.9-0.2-1-1.6-1h-0.8
				c-0.9,0-1.5,0.3-1.5,1.1c0,0.7,0.6,1.5,1.4,1.5h0.9c1.5,0,1.6-0.1,1.6-0.9h0.3v3h-0.3L257.5,232.4L257.5,232.4z"/>
			<path style="fill:#FFFFFF;" d="M255.5,224.6c-1.5,0-2.6-1.3-2.6-2.6c0-1.2,1-2.2,2.2-1.9v3.4c1.3,0.2,2.3-0.4,2.3-1.8
				c0-0.5-0.3-1.1-0.6-1.5l0.3-0.3c0.5,0.5,0.9,1.3,0.9,2.1C258.1,223.6,256.9,224.6,255.5,224.6z M254.6,221.1
				c-0.4-0.2-1.1,0.1-1.1,1c0,0.6,0.4,1.1,1.1,1.3V221.1z"/>
			<path style="fill:#FFFFFF;" d="M257.8,212.2v2.9h-0.3l-1.9-2.5c-0.9-1.1-1.6-1.3-2.1-1.3c-0.8,0-1.3,0.6-1.3,1.5
				c0,1,1,1.9,2.1,1.2l0.4,0.4c-1,1.7-3.1,0.8-3.1-1.6c0-1.4,0.7-2.7,1.9-2.7c1.1,0,2,1.3,2,1.3l1.7,2.2V210l1.9,0.4v0.3
				C258,210.6,257.8,210.8,257.8,212.2z"/>
			<path style="fill:#FFFFFF;" d="M259.9,206.5c0-1.2-0.2-1.3-1.6-1.3h-1.1v3.2H257l-6-3.9v-0.3h5.8V204c0-1.3-0.3-1.4-1.1-1.6
				l-0.3-0.1V202l1.8,0.1v2h1.1c1.4,0,1.6-0.2,1.6-1.3h0.3v3.7H259.9L259.9,206.5z M256.7,205.2H253l3.7,2.4V205.2z"/>
			<path style="fill:#FFFFFF;" d="M256.5,200.2h-2.8v0.7h-0.3c-0.2-0.8-0.8-1.1-1.7-1.2v-0.5h1.5V198h0.5v1.2h2.8c0.7,0,1-0.2,1-0.6
				c0-0.3-0.2-0.6-0.5-0.9l0.2-0.2c0.5,0.4,0.8,1,0.8,1.5C258,199.7,257.5,200.2,256.5,200.2z"/>
			<path style="fill:#FFFFFF;" d="M257.5,196.9c0-0.9-0.2-1.1-1.6-1.1h-4.4c-1.4,0-1.6,0.2-1.6,1.1h-0.3l-0.4-2.1h4.7
				c-0.5-0.4-1-1-1-1.8c0-1.3,0.9-1.7,2.1-1.7h0.9c1.4,0,1.6-0.2,1.6-1.1h0.3v3.1h-0.3c0-0.9-0.2-1-1.6-1h-0.8
				c-0.9,0-1.5,0.3-1.5,1.1c0,0.7,0.6,1.5,1.4,1.5h0.9c1.5,0,1.6-0.1,1.6-0.9h0.3v3h-0.3L257.5,196.9L257.5,196.9z"/>
			<path style="fill:#FFFFFF;" d="M255.5,185.9c-1.4,0-2.6-1.3-2.6-2.8s1.1-2.8,2.6-2.8c1.4,0,2.6,1.3,2.6,2.8
				S256.9,185.9,255.5,185.9z M255.5,181.4c-1.1,0-2,0.5-2,1.7c0,1.1,0.9,1.7,2,1.7s2-0.5,2-1.7S256.6,181.4,255.5,181.4z"/>
			<path style="fill:#FFFFFF;" d="M257.5,179.1c0-0.9-0.2-1.1-1.6-1.1h-2.2v1.1h-0.5V178h-1.3c-1.9,0-2.6-1.1-2.6-2.3
				c0-0.9,0.6-1.4,1-1.4c0.3,0,0.5,0.2,0.5,0.5c0,0.7-1.1,0.3-1.1,1.2c0,0.7,0.6,1.1,2.2,1.1h1.3v-1.4h0.5v1.4h2.2
				c1.4,0,1.6-0.2,1.6-1.1h0.3v3.2L257.5,179.1L257.5,179.1z"/>
			<path style="fill:#FFFFFF;" d="M255,171v-0.3c0,0,2.5,0,2.5-2.6c0-1-0.6-1.8-1.5-1.8c-0.6,0-1.2,0.6-1.7,1.6l-0.7,1.3
				c-0.4,0.8-1.2,1.6-2.3,1.6c-1.2,0-2.1-1-2.1-2.3c0-0.8,0.3-1.3,0.6-1.7c-0.1-0.2-0.4-0.3-0.6-0.4v-0.3h3.1v0.3
				c-1.1,0.1-2.5,0.5-2.5,2.1c0,0.8,0.5,1.4,1.2,1.4s1.1-0.5,1.7-1.7l0.7-1.3c0.5-1.1,1.4-1.5,2.1-1.5c1.5,0,2.5,1.2,2.5,2.7
				c0,1.1-0.6,1.7-0.7,2.2c0.1,0.2,0.4,0.3,0.7,0.4v0.3H255z"/>
			<path style="fill:#FFFFFF;" d="M255.5,164c-1.5,0-2.6-1.3-2.6-2.6c0-1.2,1-2.2,2.2-1.9v3.4c1.3,0.2,2.3-0.4,2.3-1.8
				c0-0.5-0.3-1.1-0.6-1.5l0.3-0.3c0.5,0.5,0.9,1.3,0.9,2.1C258.1,163,256.9,164,255.5,164z M254.6,160.5c-0.4-0.2-1.1,0.1-1.1,1
				c0,0.6,0.4,1.1,1.1,1.3V160.5z"/>
			<path style="fill:#FFFFFF;" d="M261,158.5c0-0.9-0.2-1.1-1.6-1.1h-4.2c-1.4,0-1.6,0.2-1.6,1.1h-0.3l-0.4-1.9
				c0.1-0.1,0.6-0.2,0.9-0.2c-0.5-0.4-0.9-1-0.9-1.7c0-1.3,1.1-2.4,2.6-2.4c1.4,0,2.6,1.1,2.6,2.4c0,0.7-0.3,1.3-0.8,1.7h2.2
				c1.4,0,1.6-0.2,1.6-1.1h0.3v3.2H261z M255.5,153.4c-1.1,0-2,0.5-2,1.6c0,0.6,0.4,1.2,1.1,1.4h1.8c0.7-0.3,1.1-0.8,1.1-1.4
				C257.5,153.9,256.6,153.4,255.5,153.4z"/>
			<path style="fill:#FFFFFF;" d="M256.5,150.5h-2.8v0.7h-0.3c-0.2-0.8-0.8-1.1-1.7-1.2v-0.5h1.5v-1.2h0.5v1.2h2.8
				c0.7,0,1-0.2,1-0.6c0-0.3-0.2-0.6-0.5-0.9l0.2-0.2c0.5,0.4,0.8,1,0.8,1.5C258,150,257.5,150.5,256.5,150.5z"/>
			<path style="fill:#FFFFFF;" d="M255.5,146.8c-1.5,0-2.6-1.3-2.6-2.6c0-1.2,1-2.2,2.2-1.9v3.4c1.3,0.2,2.3-0.4,2.3-1.8
				c0-0.5-0.3-1.1-0.6-1.5l0.3-0.3c0.5,0.5,0.9,1.3,0.9,2.1C258.1,145.8,256.9,146.8,255.5,146.8z M254.6,143.3
				c-0.4-0.2-1.1,0.1-1.1,1c0,0.6,0.4,1.1,1.1,1.3V143.3z"/>
			<path style="fill:#FFFFFF;" d="M257.5,141c0-0.9-0.2-1.1-1.6-1.1h-0.7c-1.4,0-1.6,0.2-1.6,1.1h-0.3l-0.4-1.9
				c0.1-0.1,0.7-0.2,1-0.2c-0.5-0.4-1-1-1-1.8c0-0.9,0.4-1.3,1.1-1.5c-0.5-0.3-1.1-1.1-1.1-2c0-1.2,0.9-1.6,2.1-1.6h0.9
				c1.4,0,1.6-0.2,1.6-1.1h0.3v3h-0.3c0-0.8-0.2-0.9-1.6-0.9h-0.8c-0.9,0-1.5,0.3-1.5,1c0,0.5,0.5,1.5,1.4,1.5h0.9
				c1.5,0,1.6-0.1,1.6-0.9h0.3v2.8h-0.3c0-0.8-0.2-0.9-1.6-0.9h-0.8c-0.9,0-1.5,0.3-1.5,1c0,0.5,0.5,1.4,1.4,1.4h0.9
				c1.5,0,1.6-0.1,1.6-0.9h0.3v3L257.5,141L257.5,141z"/>
			<path style="fill:#FFFFFF;" d="M251.5,129.5c-1.4,0-1.6,0.2-1.6,1.1h-0.3l-0.4-2.1h4.6c-0.5-0.4-0.8-1-0.8-1.7
				c0-1.3,1.1-2.4,2.6-2.4c1.4,0,2.6,1.1,2.6,2.4c0,0.7-0.4,1.4-0.9,1.8l0.9,0.6v0.3L251.5,129.5L251.5,129.5z M255.5,125.5
				c-1.1,0-2,0.5-2,1.6c0,0.6,0.4,1.2,1.1,1.4h1.8c0.7-0.3,1.1-0.8,1.1-1.4C257.5,126,256.6,125.5,255.5,125.5z"/>
			<path style="fill:#FFFFFF;" d="M255.5,123c-1.5,0-2.6-1.3-2.6-2.6c0-1.2,1-2.2,2.2-1.9v3.4c1.3,0.2,2.3-0.4,2.3-1.8
				c0-0.5-0.3-1.1-0.6-1.5l0.3-0.3c0.5,0.5,0.9,1.3,0.9,2.1C258.1,122,256.9,123,255.5,123z M254.6,119.5c-0.4-0.2-1.1,0.1-1.1,1
				c0,0.6,0.4,1.1,1.1,1.3V119.5z"/>
			<path style="fill:#FFFFFF;" d="M257.5,117.3c0-0.9-0.2-1.1-1.6-1.1h-0.7c-1.4,0-1.6,0.2-1.6,1.1h-0.3l-0.4-1.9
				c0.1-0.1,0.7-0.2,1-0.2c-0.6-0.3-1-0.9-1-1.5c0-0.8,0.5-1.1,0.9-1.1c0.3,0,0.7,0.1,0.7,0.6c0,0.3-0.2,0.5-0.5,0.5
				s-0.5,0.2-0.5,0.4c0,0.3,0.5,1.1,1.6,1.1h0.8c1.4,0,1.6-0.2,1.6-1.1h0.3v3.2H257.5z"/>
			<path style="fill:#FFFFFF;" d="M259.3,111.6c-0.5-0.5-0.9-0.7-1.5-0.8v0.1c0,0.4-0.3,0.7-0.7,0.7c-0.4,0-0.7-0.3-0.7-0.7
				s0.3-0.8,0.9-0.8s1.6,0.4,2.1,1.3L259.3,111.6z"/>
			<path style="fill:#FFFFFF;" d="M257.8,101.4v2.9h-0.3l-1.9-2.5c-0.9-1.1-1.6-1.3-2.1-1.3c-0.8,0-1.3,0.6-1.3,1.5
				c0,1,1,1.9,2.1,1.2l0.4,0.4c-1,1.7-3.1,0.8-3.1-1.6c0-1.4,0.7-2.7,1.9-2.7c1.1,0,2,1.3,2,1.3l1.7,2.2v-3.6l1.9,0.3v0.3
				C258,99.8,257.8,100,257.8,101.4z"/>
			<path style="fill:#FFFFFF;" d="M254.8,97.2c-1.8,0-3.3-1.5-3.3-3.3s1.5-3.3,3.3-3.3s3.3,1.5,3.3,3.3S256.6,97.2,254.8,97.2z
				 M254.8,91.6c-1.3,0-2.5,1.1-2.5,2.4s1.1,2.4,2.5,2.4c1.4,0,2.5-1.1,2.5-2.4C257.3,92.6,256.2,91.6,254.8,91.6z"/>
			<path style="fill:#FFFFFF;" d="M257.5,89.1c0-1.2-0.2-1.3-1.6-1.3h-2.2c-1.4,0-1.6,0.2-1.6,1.3h-0.3v-3.7h0.3
				c0,1.2,0.2,1.3,1.6,1.3h2.2c1.4,0,1.6-0.2,1.6-1.3h0.3v3.7H257.5z"/>
			<path style="fill:#FFFFFF;" d="M259.6,82.9l-6.8-3.3v2.3c0,1.3,0.3,1.4,1.1,1.6l0.3,0.1v0.3l-3.4-0.6V83c0.9,0,1.1-0.2,1.1-1.6
				v-2.5h0.4l7.6,3.1c0.5,0.2,0.8,0.4,0.7,0.8C260.4,82.9,260.1,83.2,259.6,82.9z"/>
			<path style="fill:#FFFFFF;" d="M256.8,74.2c-1.2,0-1.7-1.4-2-3c-1.1,0-1.5,0.1-1.5,0.9c0,0.3,0.2,0.8,0.7,0.8
				c0.3,0,0.5,0.2,0.5,0.5s-0.2,0.5-0.5,0.5c-0.7,0-1.1-0.9-1.1-1.8c0-1.4,0.6-1.9,1.9-1.9h2.1c0.4,0,0.5-0.1,0.5-0.3
				c0-0.1-0.1-0.3-0.2-0.4l0.3-0.2c0.3,0.3,0.4,0.6,0.4,0.9c0,0.5-0.3,0.9-0.8,1c0.6,0.7,0.8,1.2,0.8,1.8
				C258,73.6,257.6,74.2,256.8,74.2z M256.7,71.2h-1.4c0.3,1.3,0.8,1.9,1.4,1.9c0.4,0,0.7-0.3,0.7-0.7
				C257.4,72.2,257.3,71.8,256.7,71.2z"/>
			<path style="fill:#FFFFFF;" d="M256.5,67.9h-2.8v0.7h-0.3c-0.2-0.8-0.8-1.1-1.7-1.2v-0.5h1.5v-1.2h0.5v1.2h2.8c0.7,0,1-0.2,1-0.6
				c0-0.3-0.2-0.6-0.5-0.9l0.2-0.2c0.5,0.4,0.8,1,0.8,1.5C258,67.4,257.5,67.9,256.5,67.9z"/>
			<path style="fill:#FFFFFF;" d="M274.3,267c0-1.2-0.2-1.3-1.6-1.3h-4.6c-1.4,0-1.6,0.2-1.6,1.3h-0.3v-3.8h0.3
				c0,1.2,0.2,1.3,1.6,1.3h4.3c1.4,0,1.6-0.2,1.6-1.3v-1.7c0-1.3-0.3-1.4-1.1-1.6l-0.3-0.1v-0.3l1.9,0.1v7.3h-0.2L274.3,267
				L274.3,267z"/>
			<path style="fill:#FFFFFF;" d="M273.6,258.8c-1.2,0-1.7-1.4-2-3c-1.1,0-1.5,0.1-1.5,0.9c0,0.3,0.2,0.8,0.7,0.8
				c0.3,0,0.5,0.2,0.5,0.5s-0.2,0.5-0.5,0.5c-0.7,0-1.1-0.9-1.1-1.8c0-1.4,0.6-1.9,1.9-1.9h2.1c0.4,0,0.5-0.1,0.5-0.3
				c0-0.1-0.1-0.3-0.2-0.4l0.3-0.2c0.3,0.3,0.4,0.6,0.4,0.9c0,0.5-0.3,0.9-0.8,1c0.6,0.7,0.8,1.2,0.8,1.8
				C274.8,258.2,274.4,258.8,273.6,258.8z M273.5,255.8h-1.4c0.3,1.3,0.8,1.9,1.4,1.9c0.4,0,0.7-0.3,0.7-0.7
				C274.2,256.8,274.1,256.4,273.5,255.8z"/>
			<path style="fill:#FFFFFF;" d="M274.3,253.1c0-0.9-0.2-1.1-1.6-1.1H272c-1.4,0-1.6,0.2-1.6,1.1h-0.3l-0.4-1.9
				c0.1-0.1,0.7-0.2,1-0.2c-0.5-0.4-1-1-1-1.9c0-1.3,0.9-1.8,2.1-1.8h0.9c1.4,0,1.6-0.2,1.6-1.1h0.3v3.2h-0.3c0-0.9-0.2-1.1-1.6-1.1
				h-0.8c-0.9,0-1.5,0.3-1.5,1.2c0,0.8,0.6,1.6,1.4,1.6h0.9c1.4,0,1.6-0.1,1.6-1h0.3v3.1h-0.3L274.3,253.1L274.3,253.1z"/>
			<path style="fill:#FFFFFF;" d="M275.7,244.7l0.2-0.3c1.3,1.2,1.9-0.2,1.9-1.3c0-0.9-0.4-1.7-1.1-1.7s-0.9,0.7-1,1.9
				c-0.1,1.1-0.5,2-1.3,2c-0.5,0-0.9-0.4-1.1-1.2c-0.3,0.7-1,1.2-1.7,1.2c-1.1,0-1.9-0.9-1.9-2.1c0-0.6,0.2-1.1,0.5-1.4
				c-0.3-0.3-0.5-0.8-0.5-1.1c0-1,1.1-1,1.2-0.5c0,0.6-0.6,0.3-0.6,0.8c0,0.1,0.1,0.3,0.2,0.4c0.3-0.3,0.7-0.4,1.1-0.4
				c1,0,1.8,0.9,1.9,1.8c0.1,0.6,0.2,1.6,0.6,1.6s0.5-0.8,0.5-1.3c0.2-1.9,1-2.5,1.8-2.5c1.2,0,1.9,1.1,1.9,2.5
				C278.4,245.5,276.6,246.5,275.7,244.7z M271.6,242.2c-0.8,0-1.5,0.3-1.5,1s0.6,1,1.5,1c0.8,0,1.4-0.3,1.4-1
				C273.1,242.5,272.5,242.2,271.6,242.2z"/>
			<path style="fill:#FFFFFF;" d="M273.3,238.9h-2.8v0.7h-0.3c-0.2-0.8-0.8-1.1-1.7-1.2v-0.5h1.5v-1.2h0.5v1.2h2.8
				c0.7,0,1-0.2,1-0.6c0-0.3-0.2-0.6-0.5-0.9l0.2-0.2c0.5,0.4,0.8,1,0.8,1.5C274.8,238.3,274.3,238.9,273.3,238.9z"/>
			<path style="fill:#FFFFFF;" d="M272.3,235.2c-1.4,0-2.6-1.3-2.6-2.8s1.1-2.8,2.6-2.8c1.4,0,2.6,1.3,2.6,2.8
				S273.7,235.2,272.3,235.2z M272.3,230.6c-1.1,0-2,0.5-2,1.7c0,1.1,0.9,1.7,2,1.7s2-0.5,2-1.7
				C274.3,231.2,273.4,230.6,272.3,230.6z"/>
			<path style="fill:#FFFFFF;" d="M274.3,228.3c0-0.9-0.2-1.1-1.6-1.1H272c-1.4,0-1.6,0.2-1.6,1.1h-0.3l-0.4-1.9
				c0.1-0.1,0.7-0.2,1-0.2c-0.5-0.4-1-1-1-1.9c0-1.3,0.9-1.8,2.1-1.8h0.9c1.4,0,1.6-0.2,1.6-1.1h0.3v3.2h-0.3c0-0.9-0.2-1.1-1.6-1.1
				h-0.8c-0.9,0-1.5,0.3-1.5,1.2c0,0.8,0.6,1.6,1.4,1.6h0.9c1.4,0,1.6-0.1,1.6-1h0.3v3.1h-0.3L274.3,228.3L274.3,228.3z"/>
			<path style="fill:#FFFFFF;" d="M266.7,221c-0.4,0-0.7-0.3-0.7-0.7s0.3-0.7,0.7-0.7c0.4,0,1,0.4,2.5,0.6v0.2
				C267.6,220.5,267,221,266.7,221z"/>
			<path style="fill:#FFFFFF;" d="M272.8,218.4v-0.3c0.6,0,1.6-0.5,1.6-1.5c0-0.5-0.3-0.8-0.7-0.8c-0.4,0-0.6,0.3-0.9,0.8l-0.4,0.8
				c-0.4,0.7-1,0.9-1.4,0.9c-0.8,0-1.3-0.7-1.3-1.4s0.3-1,0.3-1.2c0-0.1-0.1-0.1-0.3-0.1v-0.3h1.6v0.3c-0.6,0-1.2,0.4-1.2,1.1
				c0,0.5,0.3,0.7,0.6,0.7c0.3,0,0.5-0.2,0.9-0.9l0.4-0.7c0.4-0.6,0.8-1,1.3-1c0.9,0,1.5,0.8,1.5,1.7c0,0.6-0.4,1.1-0.4,1.3
				c0,0.1,0.1,0.2,0.4,0.2v0.3L272.8,218.4L272.8,218.4z"/>
			<path style="fill:#FFFFFF;" d="M274.3,210.5c0-1.2-0.2-1.3-1.6-1.3h-4.6c-1.4,0-1.6,0.2-1.6,1.3h-0.3v-3.8h0.3
				c0,1.2,0.2,1.3,1.6,1.3h1.8v-4.7h-1.8c-1.4,0-1.6,0.2-1.6,1.3h-0.3v-3.8h0.3c0,1.2,0.2,1.3,1.6,1.3h4.6c1.4,0,1.6-0.2,1.6-1.3
				h0.3v3.8h-0.3c0-1.2-0.2-1.3-1.6-1.3h-2.3v4.7h2.3c1.4,0,1.6-0.2,1.6-1.3h0.3v3.8H274.3z"/>
			<path style="fill:#FFFFFF;" d="M272.3,199.8c-1.4,0-2.6-1.3-2.6-2.8s1.1-2.8,2.6-2.8c1.4,0,2.6,1.3,2.6,2.8
				S273.7,199.8,272.3,199.8z M272.3,195.3c-1.1,0-2,0.5-2,1.7c0,1.1,0.9,1.7,2,1.7s2-0.5,2-1.7S273.4,195.3,272.3,195.3z"/>
			<path style="fill:#FFFFFF;" d="M272.8,192.2h-0.9c-1.4,0-1.6,0.2-1.6,1.1H270v-2.1h2.7c0.9,0,1.5-0.3,1.5-1.1
				c0-0.5-0.5-1.5-1.4-1.5h-0.9c-1.4,0-1.6,0.2-1.6,1.1H270v-2.1h2.7c1.3,0,1.5-0.2,1.5-1h0.3l0.4,1.7c-0.1,0.1-0.6,0.2-0.9,0.2
				c0.4,0.4,0.9,1,0.9,1.8C274.9,191.7,274,192.2,272.8,192.2z"/>
			<path style="fill:#FFFFFF;" d="M272.8,185.6v-0.3c0.6,0,1.6-0.5,1.6-1.5c0-0.5-0.3-0.8-0.7-0.8c-0.4,0-0.6,0.3-0.9,0.8l-0.4,0.8
				c-0.4,0.7-1,0.9-1.4,0.9c-0.8,0-1.3-0.7-1.3-1.4s0.3-1,0.3-1.2c0-0.1-0.1-0.1-0.3-0.1v-0.3h1.6v0.3c-0.6,0-1.2,0.4-1.2,1.1
				c0,0.5,0.3,0.7,0.6,0.7c0.3,0,0.5-0.2,0.9-0.9l0.4-0.7c0.4-0.6,0.8-1,1.3-1c0.9,0,1.5,0.8,1.5,1.7c0,0.6-0.4,1.1-0.4,1.3
				c0,0.1,0.1,0.2,0.4,0.2v0.3L272.8,185.6L272.8,185.6z"/>
			<path style="fill:#FFFFFF;" d="M272.3,180.8c-1.5,0-2.6-1.3-2.6-2.6c0-1.2,1-2.2,2.2-1.9v3.4c1.3,0.2,2.3-0.4,2.3-1.8
				c0-0.5-0.3-1.1-0.6-1.5l0.3-0.3c0.5,0.5,0.9,1.3,0.9,2.1C274.9,179.7,273.7,180.8,272.3,180.8z M271.4,177.3
				c-0.4-0.2-1.1,0.1-1.1,1c0,0.6,0.4,1.1,1.1,1.3V177.3z"/>
			<path style="fill:#FFFFFF;" d="M274.3,171.8c0-1.2-0.2-1.3-1.6-1.3h-4.6c-1.4,0-1.6,0.2-1.6,1.3h-0.3V168h0.3
				c0,1.2,0.2,1.3,1.6,1.3h1.8v-4.7h-1.8c-1.4,0-1.6,0.2-1.6,1.3h-0.3v-3.8h0.3c0,1.2,0.2,1.3,1.6,1.3h4.6c1.4,0,1.6-0.2,1.6-1.3
				h0.3v3.8h-0.3c0-1.2-0.2-1.3-1.6-1.3h-2.3v4.7h2.3c1.4,0,1.6-0.2,1.6-1.3h0.3v3.8H274.3z"/>
			<path style="fill:#FFFFFF;" d="M272.3,161.1c-1.4,0-2.6-1.3-2.6-2.8s1.1-2.8,2.6-2.8c1.4,0,2.6,1.3,2.6,2.8
				S273.7,161.1,272.3,161.1z M272.3,156.5c-1.1,0-2,0.5-2,1.7c0,1.1,0.9,1.7,2,1.7s2-0.5,2-1.7
				C274.3,157.1,273.4,156.5,272.3,156.5z"/>
			<path style="fill:#FFFFFF;" d="M273.3,153.6h-2.8v0.7h-0.3c-0.2-0.8-0.8-1.1-1.7-1.2v-0.5h1.5v-1.2h0.5v1.2h2.8
				c0.7,0,1-0.2,1-0.6c0-0.3-0.2-0.6-0.5-0.9l0.2-0.2c0.5,0.4,0.8,1,0.8,1.5C274.8,153.1,274.3,153.6,273.3,153.6z"/>
			<path style="fill:#FFFFFF;" d="M272.3,149.9c-1.5,0-2.6-1.3-2.6-2.6c0-1.2,1-2.2,2.2-1.9v3.4c1.3,0.2,2.3-0.4,2.3-1.8
				c0-0.5-0.3-1.1-0.6-1.5l0.3-0.3c0.5,0.5,0.9,1.3,0.9,2.1C274.9,148.9,273.7,149.9,272.3,149.9z M271.4,146.4
				c-0.4-0.2-1.1,0.1-1.1,1c0,0.6,0.4,1.1,1.1,1.3V146.4z"/>
			<path style="fill:#FFFFFF;" d="M274.3,144.4c0-0.9-0.2-1.1-1.6-1.1h-4.4c-1.4,0-1.6,0.2-1.6,1.1h-0.3l-0.4-2.1h6.7
				c1.4,0,1.6-0.2,1.6-1.1h0.3v3.2L274.3,144.4L274.3,144.4z"/>
			<path style="fill:#FFFFFF;" d="M276.1,139.6c-0.5-0.5-0.9-0.7-1.5-0.8v0.1c0,0.4-0.3,0.7-0.7,0.7s-0.7-0.3-0.7-0.7
				s0.3-0.8,0.9-0.8s1.6,0.4,2.1,1.3L276.1,139.6z"/>
			<path style="fill:#FFFFFF;" d="M274.3,132.8c0-1.2-0.2-1.3-1.6-1.3h-4.6c-1.4,0-1.6,0.2-1.6,1.3h-0.3V129h0.3
				c0,1.2,0.2,1.3,1.6,1.3h2l-2.5-2.9c-0.8-0.9-1.1-0.9-1.1-0.1h-0.3v-3.2h0.3c0,1.1,0.3,1.6,1.1,2.6l2.1,2.5l3.8-4.3
				c0.4-0.5,0.8-1.4,0.8-1.8h0.3v3.9h-0.3c0-0.9-0.3-1.1-0.8-0.5l-3.1,3.5l0.3,0.4h1.9c1.4,0,1.6-0.2,1.6-1.3h0.3v3.8L274.3,132.8
				L274.3,132.8z"/>
			<path style="fill:#FFFFFF;" d="M274.3,122.5c0-0.9-0.2-1.1-1.6-1.1H272c-1.4,0-1.6,0.2-1.6,1.1h-0.3l-0.4-2.1h3
				c1.4,0,1.6-0.2,1.6-1.1h0.3v3.2H274.3z M267.7,121.6c-0.3,0-0.6-0.3-0.6-0.6s0.3-0.6,0.6-0.6c0.4,0,0.6,0.3,0.6,0.6
				S268.1,121.6,267.7,121.6z"/>
			<path style="fill:#FFFFFF;" d="M274.3,118.8c0-0.9-0.2-1.1-1.6-1.1h-4.4c-1.4,0-1.6,0.2-1.6,1.1h-0.3l-0.4-2.1h6.7
				c1.4,0,1.6-0.2,1.6-1.1h0.3v3.2H274.3z"/>
			<path style="fill:#FFFFFF;" d="M274.3,115.1c0-0.9-0.2-1.1-1.6-1.1h-4.4c-1.4,0-1.6,0.2-1.6,1.1h-0.3L266,113h6l-1-1.2
				c-0.4-0.5-0.7-0.3-0.7,0.4H270v-2.8h0.3c0,0,0.1,0.9,0.5,1.5l1,1.2l2.3-2.3c0.2-0.2,0.3-0.6,0.3-0.8h0.3v1.6l-2.3,2.3l0.1,0.2
				h0.3c1.4,0,1.6-0.2,1.6-1.1h0.3v3.2L274.3,115.1L274.3,115.1z"/>
			<path style="fill:#FFFFFF;" d="M272.3,108.5c-1.5,0-2.6-1.3-2.6-2.6c0-1.2,1-2.2,2.2-1.9v3.4c1.3,0.2,2.3-0.4,2.3-1.8
				c0-0.5-0.3-1.1-0.6-1.5l0.3-0.3c0.5,0.5,0.9,1.3,0.9,2.1C274.9,107.4,273.7,108.5,272.3,108.5z M271.4,105
				c-0.4-0.2-1.1,0.1-1.1,1c0,0.6,0.4,1.1,1.1,1.3V105z"/>
			<path style="fill:#FFFFFF;" d="M274.3,102.7c0-0.9-0.2-1.1-1.6-1.1H272c-1.4,0-1.6,0.2-1.6,1.1h-0.3l-0.4-1.9
				c0.1-0.1,0.7-0.2,1-0.2c-0.5-0.4-1-1-1-1.9c0-1.3,0.9-1.8,2.1-1.8h0.9c1.4,0,1.6-0.2,1.6-1.1h0.3V99h-0.3c0-0.9-0.2-1.1-1.6-1.1
				h-0.8c-0.9,0-1.5,0.3-1.5,1.2c0,0.8,0.6,1.6,1.4,1.6h0.9c1.4,0,1.6-0.1,1.6-1h0.3v3.1L274.3,102.7L274.3,102.7z"/>
			<path style="fill:#FFFFFF;" d="M274.3,94.9c0-0.9-0.2-1.1-1.6-1.1H272c-1.4,0-1.6,0.2-1.6,1.1h-0.3l-0.4-1.9
				c0.1-0.1,0.7-0.2,1-0.2c-0.5-0.4-1-1-1-1.9c0-1.3,0.9-1.8,2.1-1.8h0.9c1.4,0,1.6-0.2,1.6-1.1h0.3v3.2h-0.3c0-0.9-0.2-1.1-1.6-1.1
				h-0.8c-0.9,0-1.5,0.3-1.5,1.2c0,0.8,0.6,1.6,1.4,1.6h0.9c1.4,0,1.6-0.1,1.6-1h0.3V95L274.3,94.9L274.3,94.9z"/>
			<path style="fill:#FFFFFF;" d="M278,87c-0.5,0-0.5-0.6-1.6-1.1l-1.8-0.7l-3.5,1.6c-0.6,0.3-0.8,0.5-0.8,0.9H270v-2.5h0.3
				c0,0.6,0.1,0.8,0.8,0.4l2.2-1l-2.2-0.9c-0.6-0.3-0.8-0.2-0.8,0.4H270v-2h0.3c0,0.4,0.2,0.7,0.8,1l6.8,2.7
				c0.3,0.1,0.5,0.3,0.5,0.5C278.4,86.7,278.3,87,278,87z"/>
			<path style="fill:#FFFFFF;" d="M270.4,78.1c-2.4,0-4.4-1.9-4.4-4.3c0-1,0.4-1.9,1.2-2.6c-0.1-0.2-0.4-0.4-0.8-0.5v-0.3h3.1v0.3
				c-1.8,0.4-2.9,1.5-2.9,3c0,2.2,2.2,3.1,3.9,3.1c1.7,0,3.9-0.8,3.9-3.1c0-1.6-1.1-2.6-2.9-3v-0.3h3.1v0.3
				c-0.3,0.1-0.7,0.3-0.8,0.5c0.7,0.7,1.2,1.6,1.2,2.6C274.9,76.2,272.9,78.1,270.4,78.1z"/>
			<path style="fill:#FFFFFF;" d="M274.3,68.9c0-0.9-0.2-1.1-1.6-1.1H272c-1.4,0-1.6,0.2-1.6,1.1h-0.3l-0.4-2.1h3
				c1.4,0,1.6-0.2,1.6-1.1h0.3v3.2H274.3z M267.7,67.9c-0.3,0-0.6-0.3-0.6-0.6c0-0.3,0.3-0.6,0.6-0.6c0.4,0,0.6,0.3,0.6,0.6
				C268.4,67.6,268.1,67.9,267.7,67.9z"/>
			<path style="fill:#FFFFFF;" d="M273.3,64.3h-2.8V65h-0.3c-0.2-0.8-0.8-1.1-1.7-1.2v-0.5h1.5v-1.2h0.5v1.2h2.8c0.7,0,1-0.2,1-0.6
				c0-0.3-0.2-0.6-0.5-0.9l0.2-0.2c0.5,0.4,0.8,1,0.8,1.5C274.8,63.7,274.3,64.3,273.3,64.3z"/>
			<path style="fill:#FFFFFF;" d="M278,60.5c-0.5,0-0.5-0.6-1.6-1.1l-1.8-0.7l-3.5,1.6c-0.6,0.3-0.8,0.5-0.8,0.9H270v-2.5h0.3
				c0,0.6,0.1,0.8,0.8,0.4l2.2-1l-2.2-0.9c-0.6-0.3-0.8-0.2-0.8,0.4H270v-2h0.3c0,0.4,0.2,0.7,0.8,1l6.8,2.7
				c0.3,0.1,0.5,0.3,0.5,0.5C278.4,60.2,278.3,60.5,278,60.5z"/>
			<path style="fill:#FFFFFF;" d="M274,55.2c-0.4,0-0.8-0.3-0.8-0.8c0-0.4,0.3-0.8,0.8-0.8c0.4,0,0.8,0.3,0.8,0.8
				C274.7,54.8,274.4,55.2,274,55.2z"/>
		</g>
		<g>
			<path style="fill:#FFFFFF;" d="M233.2,282.8c0-1.5-0.3-1.7-2.1-1.7h-5.9c-1.8,0-2.1,0.2-2.1,1.7h-0.4V278c0-2.5,1.4-3.9,3-3.9
				c1.7,0,3,1.4,3,3.9v1.6h2.3c1.8,0,2.1-0.2,2.1-1.7h0.4v4.9H233.2z M228.1,278.1c0-1.6-1.1-2.3-2.4-2.3c-1.3,0-2.4,0.7-2.4,2.3
				v1.6h4.8L228.1,278.1L228.1,278.1z"/>
			<path style="fill:#FFFFFF;" d="M232.3,273.5c-1.5,0-2.2-1.8-2.6-3.8c-1.4,0-1.9,0.2-1.9,1.2c0,0.4,0.3,1,0.9,1
				c0.4,0,0.6,0.3,0.6,0.6c0,0.4-0.3,0.6-0.6,0.6c-0.9,0-1.4-1.1-1.4-2.3c0-1.7,0.7-2.5,2.4-2.5h2.7c0.5,0,0.7-0.1,0.7-0.4
				c0-0.2-0.1-0.4-0.3-0.5l0.3-0.3c0.4,0.3,0.6,0.8,0.6,1.2c0,0.7-0.4,1.1-1,1.2c0.8,0.9,1.1,1.5,1.1,2.3
				C233.8,272.8,233.2,273.5,232.3,273.5z M232.1,269.7h-1.8c0.4,1.7,1,2.5,1.8,2.5c0.6,0,0.9-0.4,0.9-0.8
				C233,271,232.8,270.5,232.1,269.7z"/>
			<path style="fill:#FFFFFF;" d="M231.8,265.5h-3.6v0.9h-0.4c-0.2-1.1-1-1.5-2.2-1.6v-0.6h2v-1.6h0.6v1.6h3.6
				c0.8,0,1.3-0.2,1.3-0.8c0-0.3-0.2-0.8-0.6-1.2l0.3-0.3c0.6,0.5,1,1.3,1,1.9C233.8,264.8,233.2,265.5,231.8,265.5z"/>
			<path style="fill:#FFFFFF;" d="M233.2,261c0-1.2-0.3-1.4-2.1-1.4h-0.9c-1.8,0-2.1,0.2-2.1,1.4h-0.4l-0.5-2.4
				c0.2-0.1,0.9-0.3,1.3-0.3c-0.7-0.4-1.3-1.2-1.3-1.9c0-1,0.7-1.4,1.1-1.4c0.4,0,0.8,0.2,0.8,0.7c0,0.3-0.3,0.6-0.6,0.6
				c-0.4,0-0.6,0.2-0.6,0.6s0.7,1.4,2.1,1.4h1c1.8,0,2.1-0.2,2.1-1.4h0.4v4.1L233.2,261L233.2,261z"/>
			<path style="fill:#FFFFFF;" d="M233.2,253.9c0-1.2-0.3-1.4-2.1-1.4h-0.9c-1.8,0-2.1,0.2-2.1,1.4h-0.4l-0.5-2.7h3.8
				c1.8,0,2.1-0.2,2.1-1.4h0.4v4.1L233.2,253.9L233.2,253.9z M224.7,252.6c-0.4,0-0.8-0.4-0.8-0.8s0.4-0.8,0.8-0.8
				c0.5,0,0.8,0.4,0.8,0.8S225.1,252.6,224.7,252.6z"/>
			<path style="fill:#FFFFFF;" d="M230.7,248.6c-2.1,0-3.5-1.7-3.5-3.2s0.6-2.1,1.3-2.1c0.3,0,0.8,0.2,0.8,0.8
				c0,0.4-0.3,0.7-0.7,0.7c-0.6,0-0.8,0.3-0.8,0.6c0,1,1.2,1.7,2.9,1.7c1.4,0,2.4-0.7,2.4-2.2c0-0.6-0.3-1.3-0.8-1.9l0.4-0.3
				c0.7,0.7,1.2,1.7,1.2,2.7C233.8,247.4,232.5,248.6,230.7,248.6z"/>
			<path style="fill:#FFFFFF;" d="M233.2,242c0-1.2-0.3-1.4-2.1-1.4h-5.7c-1.8,0-2.1,0.2-2.1,1.4h-0.4l-0.5-2.7h7.7l-1.2-1.5
				c-0.5-0.6-1-0.3-1,0.5h-0.4v-3.6h0.4c0,0,0.1,1.2,0.6,1.9l1.3,1.5l2.9-2.9c0.3-0.3,0.4-0.8,0.4-1.1h0.4v2l-3,2.9l0.2,0.2h0.3
				c1.8,0,2.1-0.2,2.1-1.4h0.4v4.1h-0.3L233.2,242L233.2,242z"/>
			<path style="fill:#FFFFFF;" d="M233.2,229.6c0-1.5-0.3-1.7-2.1-1.7h-5.9c-1.8,0-2.1,0.2-2.1,1.7h-0.4v-4.9h0.4
				c0,1.5,0.3,1.7,2.1,1.7h2.5l-3.2-3.7c-1-1.1-1.5-1.2-1.5-0.1h-0.4v-4.2h0.4c0,1.4,0.4,2,1.5,3.3l2.7,3.2l4.8-5.6
				c0.6-0.7,1-1.8,1-2.3h0.4v5.1H233c0-1.2-0.4-1.4-1-0.7l-3.9,4.6l0.4,0.5h2.5c1.8,0,2.1-0.2,2.1-1.7h0.4v4.9h-0.3V229.6z"/>
			<path style="fill:#FFFFFF;" d="M233.2,216.4c0-1.2-0.3-1.4-2.1-1.4h-0.9c-1.8,0-2.1,0.2-2.1,1.4h-0.4l-0.5-2.7h3.8
				c1.8,0,2.1-0.2,2.1-1.4h0.4v4.1L233.2,216.4L233.2,216.4z M224.7,215.2c-0.4,0-0.8-0.4-0.8-0.8s0.4-0.8,0.8-0.8
				c0.5,0,0.8,0.4,0.8,0.8S225.1,215.2,224.7,215.2z"/>
			<path style="fill:#FFFFFF;" d="M233.2,211.3c0-1.2-0.3-1.4-2.1-1.4h-0.9c-1.8,0-2.1,0.2-2.1,1.4h-0.4l-0.5-2.4
				c0.2-0.1,0.9-0.3,1.3-0.3c-0.7-0.4-1.3-1.2-1.3-1.9c0-1,0.7-1.4,1.1-1.4c0.4,0,0.8,0.2,0.8,0.7c0,0.3-0.3,0.6-0.6,0.6
				c-0.4,0-0.6,0.2-0.6,0.6c0,0.4,0.7,1.4,2.1,1.4h1c1.8,0,2.1-0.2,2.1-1.4h0.4v4.1L233.2,211.3L233.2,211.3z"/>
			<path style="fill:#FFFFFF;" d="M229,203.7c-0.8,0.3-1.1,0.6-1.1,1.2h-0.4v-3.2h0.4c0,0.8,0.2,0.9,1.1,0.6l3-1.2l-4.4-1.9v-0.4
				l4.4-1.8l-3-1.2c-0.8-0.3-1.1-0.3-1.1,0.5h-0.4v-2.5h0.4c0,0.6,0.3,0.9,1.1,1.3l4.9,2.1v0.4l-4.3,1.8l4.3,1.8v0.4L229,203.7z"/>
			<path style="fill:#FFFFFF;" d="M232.3,193.3c-1.5,0-2.2-1.8-2.6-3.8c-1.4,0-1.9,0.2-1.9,1.2c0,0.4,0.3,1,0.9,1
				c0.4,0,0.6,0.3,0.6,0.6c0,0.4-0.3,0.6-0.6,0.6c-0.9,0-1.4-1.1-1.4-2.3c0-1.7,0.7-2.5,2.4-2.5h2.7c0.5,0,0.7-0.1,0.7-0.4
				c0-0.2-0.1-0.4-0.3-0.5l0.3-0.3c0.4,0.3,0.6,0.8,0.6,1.2c0,0.7-0.4,1.1-1,1.2c0.8,0.9,1.1,1.5,1.1,2.3
				C233.8,192.5,233.2,193.3,232.3,193.3z M232.1,189.4h-1.8c0.4,1.7,1,2.5,1.8,2.5c0.6,0,0.9-0.4,0.9-0.8
				C233,190.7,232.8,190.3,232.1,189.4z"/>
			<path style="fill:#FFFFFF;" d="M233.2,186c0-1.2-0.3-1.4-2.1-1.4h-0.9c-1.8,0-2.1,0.2-2.1,1.4h-0.4l-0.5-2.4
				c0.2-0.1,0.9-0.3,1.3-0.3c-0.6-0.5-1.3-1.3-1.3-2.5c0-1.6,1.2-2.3,2.7-2.3h1.1c1.8,0,2.1-0.2,2.1-1.4h0.4v4.1h-0.4
				c0-1.2-0.3-1.4-2.1-1.4h-1c-1.2,0-1.9,0.4-1.9,1.5c0,1,0.8,2.1,1.8,2.1h1.2c1.9,0,2.1-0.1,2.1-1.3h0.4v4h-0.4L233.2,186
				L233.2,186z"/>
			<path style="fill:#FFFFFF;" d="M232.3,171.6c-1.5,0-2.2-1.8-2.6-3.8c-1.4,0-1.9,0.2-1.9,1.2c0,0.4,0.3,1,0.9,1
				c0.4,0,0.6,0.3,0.6,0.6c0,0.4-0.3,0.6-0.6,0.6c-0.9,0-1.4-1.1-1.4-2.3c0-1.7,0.7-2.5,2.4-2.5h2.7c0.5,0,0.7-0.1,0.7-0.4
				c0-0.2-0.1-0.4-0.3-0.5l0.3-0.3c0.4,0.3,0.6,0.8,0.6,1.2c0,0.7-0.4,1.1-1,1.2c0.8,0.9,1.1,1.5,1.1,2.3
				C233.8,170.9,233.2,171.6,232.3,171.6z M232.1,167.8h-1.8c0.4,1.7,1,2.5,1.8,2.5c0.6,0,0.9-0.4,0.9-0.8
				C233,169.1,232.8,168.6,232.1,167.8z"/>
			<path style="fill:#FFFFFF;" d="M233.2,164.4c0-1.2-0.3-1.4-2.1-1.4h-0.9c-1.8,0-2.1,0.2-2.1,1.4h-0.4l-0.5-2.4
				c0.2-0.1,0.9-0.3,1.3-0.3c-0.6-0.5-1.3-1.3-1.3-2.5c0-1.6,1.2-2.3,2.7-2.3h1.1c1.8,0,2.1-0.2,2.1-1.4h0.4v4.1h-0.4
				c0-1.2-0.3-1.4-2.1-1.4h-1c-1.2,0-1.9,0.4-1.9,1.5c0,1,0.8,2.1,1.8,2.1h1.2c1.9,0,2.1-0.1,2.1-1.3h0.4v4h-0.4L233.2,164.4
				L233.2,164.4z"/>
			<path style="fill:#FFFFFF;" d="M230.5,154.2c-1.8,0-3.3-1.4-3.3-3.1c0-0.9,0.4-1.7,1.1-2.2h-2.9c-1.8,0-2.1,0.2-2.1,1.4h-0.4
				l-0.5-2.7h8.6c1.7,0,1.9-0.3,1.9-1.2h0.3l0.5,2.2c-0.2,0.1-0.8,0.2-1,0.3c0.6,0.5,1.1,1.2,1.1,2.2
				C233.8,152.8,232.3,154.2,230.5,154.2z M231.7,148.9h-2.3c-0.8,0.3-1.4,1-1.4,1.8c0,1.4,1.1,2.1,2.6,2.1s2.6-0.6,2.6-2.1
				C233.1,149.9,232.5,149.2,231.7,148.9z"/>
			<path style="fill:#FFFFFF;" d="M224.7,140.2c-1.3,0.4-1.6,0.6-1.6,2.1h-0.4v-5h0.4c0,1.5,0.4,1.7,1.4,1.4l6.2-2l-8-2.5V134
				l7.9-2.5l-6.2-2c-1-0.3-1.4,0-1.4,1.3h-0.4v-4.1h0.4c0,1.5,0.4,1.8,1.6,2.1l9.2,2.9v0.2l-8,2.5l8,2.5v0.2L224.7,140.2z"/>
			<path style="fill:#FFFFFF;" d="M233.2,127.2c0-1.2-0.3-1.4-2.1-1.4h-0.9c-1.8,0-2.1,0.2-2.1,1.4h-0.4l-0.5-2.7h3.8
				c1.8,0,2.1-0.2,2.1-1.4h0.4v4.1H233.2z M224.7,125.9c-0.4,0-0.8-0.4-0.8-0.8s0.4-0.8,0.8-0.8c0.5,0,0.8,0.4,0.8,0.8
				C225.5,125.6,225.1,125.9,224.7,125.9z"/>
			<path style="fill:#FFFFFF;" d="M233.2,122.4c0-1.2-0.3-1.4-2.1-1.4h-5.7c-1.8,0-2.1,0.2-2.1,1.4h-0.4l-0.5-2.7h8.6
				c1.8,0,2.1-0.2,2.1-1.4h0.4v4.1H233.2z"/>
			<path style="fill:#FFFFFF;" d="M233.2,117.6c0-1.2-0.3-1.4-2.1-1.4h-5.7c-1.8,0-2.1,0.2-2.1,1.4h-0.4l-0.5-2.7h8.6
				c1.8,0,2.1-0.2,2.1-1.4h0.4v4.1H233.2z"/>
			<path style="fill:#FFFFFF;" d="M233.2,112.4c0-1.2-0.3-1.4-2.1-1.4h-0.9c-1.8,0-2.1,0.2-2.1,1.4h-0.4l-0.5-2.7h3.8
				c1.8,0,2.1-0.2,2.1-1.4h0.4v4.1H233.2z M224.7,111.1c-0.4,0-0.8-0.4-0.8-0.8s0.4-0.8,0.8-0.8c0.5,0,0.8,0.4,0.8,0.8
				C225.5,110.8,225.1,111.1,224.7,111.1z"/>
			<path style="fill:#FFFFFF;" d="M232.3,107.1c-1.5,0-2.2-1.8-2.6-3.8c-1.4,0-1.9,0.2-1.9,1.2c0,0.4,0.3,1,0.9,1
				c0.4,0,0.6,0.3,0.6,0.6c0,0.4-0.3,0.6-0.6,0.6c-0.9,0-1.4-1.1-1.4-2.3c0-1.7,0.7-2.5,2.4-2.5h2.7c0.5,0,0.7-0.1,0.7-0.4
				c0-0.2-0.1-0.4-0.3-0.5l0.3-0.3c0.4,0.3,0.6,0.8,0.6,1.2c0,0.7-0.4,1.1-1,1.2c0.8,0.9,1.1,1.5,1.1,2.2
				C233.8,106.3,233.2,107.1,232.3,107.1z M232.1,103.2h-1.8c0.4,1.7,1,2.5,1.8,2.5c0.6,0,0.9-0.4,0.9-0.8
				C233,104.5,232.8,104.1,232.1,103.2z"/>
			<path style="fill:#FFFFFF;" d="M233.2,99.8c0-1.2-0.3-1.4-2.1-1.4h-0.9c-1.8,0-2.1,0.2-2.1,1.4h-0.4l-0.5-2.4
				c0.2-0.1,0.9-0.3,1.3-0.3c-0.6-0.5-1.3-1.3-1.3-2.3c0-1.1,0.5-1.7,1.4-1.9c-0.6-0.4-1.4-1.5-1.4-2.5c0-1.6,1.2-2.1,2.7-2.1h1.1
				c1.8,0,2.1-0.2,2.1-1.4h0.4v3.8h-0.4c0-1-0.2-1.1-2.1-1.1h-1c-1.2,0-1.9,0.3-1.9,1.3c0,0.6,0.7,1.9,1.8,1.9h1.2
				c1.9,0,2.1-0.1,2.1-1.1h0.4v3.5h-0.4c0-1-0.2-1.1-2.1-1.1h-1c-1.2,0-1.9,0.4-1.9,1.3c0,0.6,0.7,1.9,1.8,1.9h1.2
				c1.9,0,2.1-0.1,2.1-1.1h0.4v3.8h-0.5L233.2,99.8L233.2,99.8z"/>
			<path style="fill:#FFFFFF;" d="M228.1,81.3c-3.1,0-5.7-2.7-5.7-6s2.6-6,5.7-6s5.7,2.7,5.7,6C233.8,78.6,231.3,81.3,228.1,81.3z
				 M228.1,71c-2.2,0-5,1.2-5,4.3c0,3.1,2.8,4.3,5,4.3s5-1.2,5-4.3S230.4,71,228.1,71z"/>
			<path style="fill:#FFFFFF;" d="M233.2,67.6c0-1.2-0.3-1.4-2.1-1.4h-0.9c-1.8,0-2.1,0.2-2.1,1.4h-0.4l-0.5-2.4
				c0.2-0.1,0.9-0.3,1.3-0.3c-0.7-0.4-1.3-1.2-1.3-1.9c0-1,0.7-1.4,1.1-1.4c0.4,0,0.8,0.2,0.8,0.7c0,0.3-0.3,0.6-0.6,0.6
				c-0.4,0-0.6,0.2-0.6,0.6c0,0.4,0.7,1.4,2.1,1.4h1c1.8,0,2.1-0.2,2.1-1.4h0.4v4.1L233.2,67.6L233.2,67.6z"/>
			<path style="fill:#FFFFFF;" d="M235,59.8l0.2-0.3c1.7,1.5,2.5-0.3,2.5-1.7c0-1.1-0.5-2.2-1.4-2.2c-0.8,0-1.1,0.9-1.3,2.4
				c-0.1,1.5-0.6,2.6-1.7,2.6c-0.6,0-1.2-0.6-1.4-1.5c-0.4,0.9-1.2,1.5-2.2,1.5c-1.3,0-2.4-1.2-2.4-2.7c0-0.7,0.3-1.4,0.7-1.9
				c-0.4-0.3-0.7-1-0.7-1.3c0-1.2,1.5-1.3,1.5-0.6c0.1,0.8-0.8,0.3-0.8,1.1c0,0.1,0.1,0.4,0.3,0.6c0.4-0.3,0.9-0.5,1.5-0.5
				c1.3,0,2.3,1.2,2.4,2.3c0.1,0.8,0.3,2,0.8,2s0.6-1,0.7-1.6c0.2-2.5,1.3-3.3,2.4-3.3c1.5,0,2.4,1.4,2.4,3.2
				C238.3,60.8,236.1,62,235,59.8z M229.7,56.5c-1.1,0-1.9,0.4-1.9,1.3c0,0.9,0.8,1.3,1.9,1.3c1,0,1.9-0.4,1.9-1.3
				C231.5,56.9,230.7,56.5,229.7,56.5z"/>
			<path style="fill:#FFFFFF;" d="M232.3,52.8c-1.5,0-2.2-1.8-2.6-3.8c-1.4,0-1.9,0.2-1.9,1.2c0,0.4,0.3,1,0.9,1
				c0.4,0,0.6,0.3,0.6,0.6c0,0.4-0.3,0.6-0.6,0.6c-0.9,0-1.4-1.1-1.4-2.3c0-1.7,0.7-2.5,2.4-2.5h2.7c0.5,0,0.7-0.1,0.7-0.4
				c0-0.2-0.1-0.4-0.3-0.5l0.3-0.3c0.4,0.3,0.6,0.8,0.6,1.2c0,0.7-0.4,1.1-1,1.2c0.8,0.9,1.1,1.5,1.1,2.3
				C233.8,52,233.2,52.8,232.3,52.8z M232.1,48.9h-1.8c0.4,1.7,1,2.5,1.8,2.5c0.6,0,0.9-0.4,0.9-0.8C233,50.2,232.8,49.8,232.1,48.9
				z"/>
			<path style="fill:#FFFFFF;" d="M233.2,45.5c0-1.2-0.3-1.4-2.1-1.4h-0.9c-1.8,0-2.1,0.2-2.1,1.4h-0.4l-0.5-2.4
				c0.2-0.1,0.9-0.3,1.3-0.3c-0.6-0.5-1.3-1.3-1.3-2.5c0-1.6,1.2-2.3,2.7-2.3h1.1c1.8,0,2.1-0.2,2.1-1.4h0.4v4.1h-0.4
				c0-1.2-0.3-1.4-2.1-1.4h-1c-1.2,0-1.9,0.4-1.9,1.5c0,1,0.8,2.1,1.8,2.1h1.2c1.9,0,2.1-0.1,2.1-1.3h0.4v4L233.2,45.5L233.2,45.5z"
				/>
		</g>
	</g>
</g>
</svg>
