<svg xmlns="http://www.w3.org/2000/svg" viewBox="0 0 318.61 625.46"><defs><style>.cls-1,.cls-4{fill:#fff;}.cls-1,.cls-2{fill-rule:evenodd;}.cls-2{fill:#131313;}.cls-3{fill:none;}</style></defs><title>ticket</title><g id="Layer_2" data-name="Layer 2"><g id="Layer_1-2" data-name="Layer 1"><path class="cls-1" d="M114,0H18.56c0,10-7.69,17.65-18.56,17.65v125c.91,0,.83,0,1.13,0a17.92,17.92,0,0,1,18.13,17.86A18.38,18.38,0,0,1,1.07,178.82c-.31,0-.17,0-1.07,0V606.31a18.26,18.26,0,0,1,18.18,18.18c0,.31,0,1,0,1H114a45.26,45.26,0,0,1,90.52,0H301c0-10.86,7.69-18.56,17.65-18.56V178.77a18.1,18.1,0,0,1,0-36.21V17.65A17.39,17.39,0,0,1,301,0h-96.4c0,24.44-20.26,45.26-45.26,45.26S114,24.44,114,0Z"/><path class="cls-2" d="M15.92,139.2C22,143,29.34,152.56,29.34,160.29S22,179.23,15.92,183.7V590.27a16.43,16.43,0,0,1,16.36,16.36c0,.28,0,.88,0,.88h68.15c0-22.81,36.34-40.73,58.84-40.73s58.84,17.92,58.84,40.73h68.66c0-9.78,6.92-16.7,15.89-16.7V183.7c-7.51-4.47-11.72-16.13-11.72-23.41s4.17-17.07,11.72-21.21V33.33a15.65,15.65,0,0,1-15.89-15.89H218.14c0,22-36.34,40.73-58.84,40.73s-58.84-18.74-58.84-40.73H32.62c0,9-6.92,15.89-16.7,15.89"/><rect class="cls-3" x="33.32" y="144.82" width="28.12" height="30"/><rect class="cls-4" x="54.14" y="158.76" width="5.22" height="3"/><rect class="cls-4" x="44.78" y="158.76" width="5.22" height="3"/><rect class="cls-4" x="35.45" y="158.76" width="5.22" height="3"/><rect class="cls-3" x="61.44" y="144.82" width="28.12" height="30"/><rect class="cls-4" x="82.26" y="158.76" width="5.22" height="3"/><rect class="cls-4" x="72.9" y="158.76" width="5.22" height="3"/><rect class="cls-4" x="63.57" y="158.76" width="5.22" height="3"/><rect class="cls-3" x="89.55" y="144.82" width="28.12" height="30"/><rect class="cls-4" x="110.37" y="158.76" width="5.22" height="3"/><rect class="cls-4" x="101.01" y="158.76" width="5.22" height="3"/><rect class="cls-4" x="91.68" y="158.76" width="5.22" height="3"/><rect class="cls-3" x="117.67" y="144.82" width="28.12" height="30"/><rect class="cls-4" x="138.49" y="158.76" width="5.22" height="3"/><rect class="cls-4" x="129.13" y="158.76" width="5.22" height="3"/><rect class="cls-4" x="119.8" y="158.76" width="5.22" height="3"/><rect class="cls-3" x="145.78" y="144.82" width="28.12" height="30"/><rect class="cls-4" x="166.6" y="158.76" width="5.22" height="3"/><rect class="cls-4" x="157.24" y="158.76" width="5.22" height="3"/><rect class="cls-4" x="147.91" y="158.76" width="5.22" height="3"/><rect class="cls-3" x="173.9" y="144.82" width="28.12" height="30"/><rect class="cls-4" x="194.72" y="158.76" width="5.22" height="3"/><rect class="cls-4" x="185.36" y="158.76" width="5.22" height="3"/><rect class="cls-4" x="176.03" y="158.76" width="5.22" height="3"/><rect class="cls-3" x="202.02" y="144.82" width="28.12" height="30"/><rect class="cls-4" x="222.84" y="158.76" width="5.22" height="3"/><rect class="cls-4" x="213.48" y="158.76" width="5.22" height="3"/><rect class="cls-4" x="204.15" y="158.76" width="5.22" height="3"/><rect class="cls-3" x="230.13" y="144.82" width="28.12" height="30"/><rect class="cls-4" x="250.95" y="158.76" width="5.22" height="3"/><rect class="cls-4" x="241.59" y="158.76" width="5.22" height="3"/><rect class="cls-4" x="232.26" y="158.76" width="5.22" height="3"/><rect class="cls-3" x="258.25" y="144.82" width="28.12" height="30"/><rect class="cls-4" x="279.07" y="158.76" width="5.22" height="3"/><rect class="cls-4" x="269.71" y="158.76" width="5.22" height="3"/><rect class="cls-4" x="260.38" y="158.76" width="5.22" height="3"/></g></g></svg>