<svg xmlns="http://www.w3.org/2000/svg" xmlns:xlink="http://www.w3.org/1999/xlink" viewBox="0 0 488.13 988.64"><defs><linearGradient id="shoes" x1="184.08" y1="942.64" x2="231.82" y2="942.64" gradientUnits="userSpaceOnUse"><stop offset="0" stop-color="#813623"/><stop offset="0.14" stop-color="#884121"/><stop offset="0.38" stop-color="#914f1e"/><stop offset="0.59" stop-color="#94531d"/><stop offset="0.82" stop-color="#8a4420"/><stop offset="1" stop-color="#813623"/></linearGradient><linearGradient id="shoes-2" x1="18.55" y1="941.95" x2="105.22" y2="941.95" xlink:href="#shoes"/><linearGradient id="linear-gradient" x1="155.44" y1="668.55" x2="260.71" y2="663.03" gradientUnits="userSpaceOnUse"><stop offset="0" stop-color="#6573ab"/><stop offset="0.13" stop-color="#6a76ae"/><stop offset="0.48" stop-color="#737db4"/><stop offset="1" stop-color="#6573ab"/><stop offset="1" stop-color="#515c8b"/></linearGradient><linearGradient id="linear-gradient-2" x1="50.97" y1="698.09" x2="163.47" y2="698.09" gradientUnits="userSpaceOnUse"><stop offset="0" stop-color="#7e87bc"/><stop offset="1" stop-color="#6573ab"/><stop offset="1" stop-color="#7a83b6"/></linearGradient><linearGradient id="linear-gradient-3" y1="382.21" x2="69.47" y2="382.21" gradientUnits="userSpaceOnUse"><stop offset="0" stop-color="#7e87bc"/><stop offset="0.39" stop-color="#7983b9"/><stop offset="0.84" stop-color="#6c78af"/><stop offset="1" stop-color="#6573ab"/></linearGradient><linearGradient id="shoes-3" x1="338.53" y1="953.21" x2="385.61" y2="940.59" xlink:href="#shoes"/><linearGradient id="linear-gradient-4" x1="322.97" y1="895.85" x2="235.3" y2="895.85" gradientUnits="userSpaceOnUse"><stop offset="0" stop-color="#813623"/><stop offset="0.48" stop-color="#884121"/><stop offset="1" stop-color="#94531d"/><stop offset="1" stop-color="#8a4420"/><stop offset="1" stop-color="#813623"/></linearGradient><linearGradient id="linear-gradient-5" x1="172.02" y1="718.32" x2="380.22" y2="598.11" gradientUnits="userSpaceOnUse"><stop offset="0" stop-color="#3d2a41"/><stop offset="0.34" stop-color="#50354d"/><stop offset="1" stop-color="#724761"/></linearGradient><linearGradient id="linear-gradient-6" x1="289.91" y1="683.39" x2="420.58" y2="683.39" gradientUnits="userSpaceOnUse"><stop offset="0" stop-color="#724761"/><stop offset="0.07" stop-color="#70465f"/><stop offset="1" stop-color="#59354c"/></linearGradient><radialGradient id="radial-gradient" cx="309.47" cy="330.93" r="125.07" gradientUnits="userSpaceOnUse"><stop offset="0" stop-color="#3f2338"/><stop offset="0" stop-color="#44273c"/><stop offset="0" stop-color="#653e57"/><stop offset="0" stop-color="#724761"/><stop offset="0.45" stop-color="#6f455f"/><stop offset="0.79" stop-color="#664059"/><stop offset="1" stop-color="#5b3a52"/></radialGradient><linearGradient id="New_Gradient_Swatch_1" x1="363.8" y1="351.48" x2="470.48" y2="351.48" gradientUnits="userSpaceOnUse"><stop offset="0" stop-color="#4c2e44"/><stop offset="1" stop-color="#724761"/></linearGradient></defs><title>Asset 1</title><g id="Layer_2" data-name="Layer 2"><g id="wilandpatrick"><g id="patrick"><g id="neck"><polygon points="174.47 162.43 175.65 150.68 107.8 132.68 109.13 159.34 107.8 198.26 175.65 188.18 174.47 162.43" style="fill:#ddc0c0"/></g><g id="suit"><g id="pants"><g id="Layer_43" data-name="Layer 43"><path d="M186.23,911.36s.7,32.76,1.48,40,15.76,22.57,24.51,22.57c9.58,0,19.05-15.18,19.55-22.43s-3-39.56-3-39.56l-44.68-.46" style="fill:url(#shoes)"/><g id="Layer_46" data-name="Layer 46"><path d="M61.88,913.44s-9.73,17.08-31.41,33.23C27.4,949,21.45,956,20.11,959c-1.68,3.8-2.16,5.73-.65,7.67,0,0,5.35,3.42,11,3.75,0,0,11.75.5,20.5-3.25,13.33-5.71,22.5-12.5,32.28-20.69,5.6-4.69,20-16.31,22-23.06v-9l-41.94-1" style="fill:url(#shoes-2)"/></g></g><path d="M151.38,591.18l29.09,321.5s30.11,4.42,54.84-1.91l16.16-424.06L151.38,420.34Z" style="fill:url(#linear-gradient)"/><g id="pants-2" data-name="pants"><path d="M51,514.68l4,399.76C95.13,921,108.13,916,108.13,916l46.33-324.83,9-112.83Z" style="fill:url(#linear-gradient-2)"/></g></g><g id="jacket"><g id="shirt"><path d="M174.47,162.6s-8.08,22.75-27.33,24.58c-18.13,1.73-37.15-24.63-38-27.67l-1.42,9.67-13.92,19-1.67,50.67,77.67,89.08,45-111.42L183.13,178l-7.67-7.41Z" style="fill:#fff"/></g><g id="Layer_47" data-name="Layer 47"><path d="M61.7,542.92s6.64,7.76,7.14,10c1.61,7.22,2.21,19.84,2.29,28.25.06,5.72-.69,6.76-3.53,6.41-1.8-.22-5.81-2.84-6.64-6.74-.88-4.16.51-7.65-2.25-17.44-.63-2.22-5.75-1.6-6.5,1-1,3.65,1.7,29.25,17.25,32.88,0,0,3.13,3.25-3.12,6.63-1.18.64-16.62-.28-19.62-1.75-3.62-1.78-14.84-13.53-14.84-13.53-1.35-4-5.41-19.72-5.41-19.72-.14-2.5,1.92-23.85,1.92-23.85l35.08-2.28" style="fill:#e2c7c7"/></g><g id="bowtie" style="opacity:0.6000000000000001"><path d="M154.22,190.18s11.75-8.92,17.25-8.35,4.5,20.33,3,24.71-18.5-6.37-18.5-6.37-9.25,1.75-9.75.25-11.81,13.32-20.75,10.75c-5.22-1.5-5.19-24.25-4.69-25.5s15.44.75,22.94,4.75Z" style="fill:#e3b0c6"/></g><g id="waistcoat"><path d="M99.6,203.79S149.31,309,165.39,307.24s33.45-95.91,29.08-107.89c-1.71-4.7,18.92,19.47,23.95,52.29,7.8,50.95,0,122.8,0,122.8l-118.81,6V203.79" style="fill:#6573ab"/></g><g id="Layer_32" data-name="Layer 32"><path d="M91.74,183.44c7.91,0-68.11,28.49-71.78,33.49-2,2.74,31.06,66.7,37.33,107C63,360.63,67.47,364.35,65.47,401c-1.82,33.42-17.38,137.88-10.33,139.83,36,10,92,4.14,92,4.14-6.84-.08,29.38,3.28,29.37-82.83,0-85.73-7.72-109.89-7.72-109.89S95.85,288.62,91.74,183.44" style="fill:#7e87bc"/></g><g id="lapel_2" data-name="lapel 2"><path d="M107.72,169s-8,.5-13.5,11.33-19.5,22.08-19.5,22.08l12,5-10.8,8.1s13.55,46.15,29.8,67.15,63.75,71,63.75,71c3.5-1-65.25-68-69.25-164a50.9,50.9,0,0,1,1.25-7.5C102.55,177.85,107.86,169.46,107.72,169Z" style="fill:#909ac3"/></g><g id="sleeve"><g id="Layer_39" data-name="Layer 39"><path d="M18.47,541.85l2.33,8.83s41.1-6.23,46.67-7.33L65.13,533,23,541.85" style="fill:#fff"/></g><path d="M20.13,216.35c-6,0-23.17,32.33-19.67,161.33,1.36,50,8.19,107.73,13.5,170.4a431.32,431.32,0,0,1,55.5-8.78c-.38-.09-10.31-64.1-10-133.62.09-20.91,2.51-48.67,4-81.5C62.8,270,44,216.35,20.13,216.35Z" style="fill:url(#linear-gradient-3)"/></g><g id="shoulder"><path d="M198,539.7C169.14,534,154.79,363,173.38,343.81c17.92-18.48,59.74-92.08,12.76-165.46l-1.67-1.42s36.19,9.9,56,21l11.23,13.26C251.11,231.54,234.2,301,231,365.07c-.3,6,.07,15.81,0,21.61-1,83.9,40.16,144.47,40.16,144.47S230.69,546.14,198,539.7Z" style="fill:#7e87bc"/><path d="M251,205.68c.65.76.88,2.65.79,5.53l-11.23-13.26C245.07,200.5,248.76,203.11,251,205.68Z" style="fill:#7e87bc"/><path d="M252,211.48l-.23-.27c.09-2.88-.14-4.77-.79-5.53-2.2-2.57-5.89-5.18-10.44-7.73,0,0,.45-6.27,4-16.94s8.75-15.08,12.5-17.83,37-12.5,37-12.5Z" style="fill:#724761"/></g></g></g><g id="Layer_50" data-name="Layer 50"><path d="M187,109.75s.13-.3.35-.8c1.61-3.58,6.31-16,10-5.27,2.69,7.87-3.55,22.39-7.34,27-3.22,3.91-6,2.25-6,2.25-5,31.08-47.5,63.83-79.25-5.75,0,0-5.12,2.25-9.25-5.5-4-7.52-10.36-24.14-4.08-29.67,4.16-3.66,10.08,6.17,10.08,6.17s5.31-39.55,15-48C127,41,168.75,46.4,178.72,53.68,188,60.43,187,109.75,187,109.75Z" style="fill:#e2cbc9"/></g><g id="hair"><path d="M103.63,113.18s.14,1.22,0,.41c-1.59-11.94,1.7-23.56,3.3-34.44,2.67-18.14,12.35-21.83,13.83-23,7.17-5.5,31.12-13,52.54,1.38,0,0,7.06,6.38,8.88,12.75,0,0,3.88,9.42,4.25,25.88,0,.17-.69,18.25-.69,18.25.33.17,4.06-12.62,8.69-14.58,1.87-.79,4.67-9.67.83-11.83,0,0,4.33-10.63-1.67-14.5,0,0,.33-9.17-5.83-10.5,0,0,2.83-14.33-7.5-18.5,0,0,.67-9.33-9.83-9.83,0,0-2.5-5.83-7.5-3.5,0,0-3.67-6.67-9.5-2,0,0-12-10.5-21.33,1,0,0-7-1.33-10,6.17,0,0-10.52-1.83-12.36,7,0,0-8.17,1.17-6.31,8.84,0,0-7.86.83-8,10.33,0,0-6.83,4.84-2.13,12.48,0,0-5,2.69-1.2,7,0,0-4.17,8.5,0,10.5,7.08,3.4,11.43,20.27,11.43,20.27" style="fill:#c69766"/></g><g id="Layer_51" data-name="Layer 51"><path d="M103.44,112a71.71,71.71,0,0,0,1.28,15.21c2.09,9.33,2.58,10.08,4.42,13.5a44.12,44.12,0,0,0,6.66,9.75,91.26,91.26,0,0,0,8,7.91c5.06,4.4,12,8.59,20,9.75,19.14,2.81,30.72-11.77,30.72-11.77,1.52-2.44,5.43-9.1,6.63-12.71,1.42-4.25,1.17-3,2.87-11,1.12-5.34,1.48-10.94,2-19a214.53,214.53,0,0,1-5.72,23.9c-1.83,5.92-4.69,10.85-7.08,12.25,0,0-2.17,2-8.83,5.08-4.21,1.95-8.17,2.14-16.92,2.39a43.73,43.73,0,0,1-18.5-4.14,43.3,43.3,0,0,1-5.75-3.67,88.32,88.32,0,0,1-8.5-7.5,27.75,27.75,0,0,1-4.5-6.25c-1.22-2.19-2-4.8-3-7C105.41,124.88,103.44,112,103.44,112Z" style="fill:#c69766"/></g><g id="Layer_52" data-name="Layer 52"><path d="M128.88,153.8a104,104,0,0,1-1.67-12.71c-.24-4.41-.45-6.73,1.38-10.29,2.5-4.87,14-5.25,18.63-5.25,7.63,0,17.79,2.21,18.92,6.21.41,1.45,2.67,14.17-1.83,23.08-.93,1.85,3.71,1.11,8.32-1.67a4.49,4.49,0,0,0,2.1-4.5s-8.58-2.5-6.52-16a7.85,7.85,0,0,0-.48-4.08,9.41,9.41,0,0,0-2.68-3.42c-3.52-3-8-5.31-17.16-5.25-11.08.07-16,2.61-18.85,5.31a11.92,11.92,0,0,0-2.48,3.36,16,16,0,0,0-.92,4.88c2.42,11.7-3.91,14.5-4.31,14.55-.57.07-.22,3.78-.22,3.78l10,6.27Z" style="fill:#c69766"/></g><g id="Layer_53" data-name="Layer 53"><path d="M155,85.25,158.4,89s18.27-3,23.22,4c0,0-2.95-5-5.1-6.36s-3.83-1.67-6.87-2a67.39,67.39,0,0,0-14.39.66" style="fill:#c69766"/><path d="M142.68,85.44l-1.9,3.18s-15.16-6.29-25.62,2.19a23.62,23.62,0,0,1,4.37-5.06,19.06,19.06,0,0,1,6.06-2.67C133.61,81.47,142.68,85.44,142.68,85.44Z" style="fill:#c69766"/></g></g><g id="wil"><g id="neck-2" data-name="neck"><polyline points="362.47 100.18 362.61 117.52 351.67 147.27 309.13 186.52 299.17 143.6 362.47 100.18" style="fill:#d8bcbc"/></g><g id="suit-2" data-name="suit"><g id="shoe_s" data-name="shoe s"><path d="M327.72,910.77c14.42,53.65,10.75,45,14.42,53.65,2.52,6,23.91,29.59,36.66,23.11C383.7,985,392,965,388.59,951.76c-2.69-10.56-13.54-38.46-13.54-38.46" style="fill:url(#shoes-3)"/><g id="shoe_2" data-name="shoe 2"><path d="M267.82,878.43s-16.34,14.22-26.6,14.45c-5.91.13-5.29.22-5.29.22l-.62,16.25S249,914,256,913.39l67-5.67V890.06l-56-11.8" style="fill:url(#linear-gradient-4)"/></g></g><g id="pants-3" data-name="pants"><g id="Layer_15" data-name="Layer 15"><path d="M236.77,437l37.42,424.23-8.72,19,13.75,9.25s4.05,6.07,44.93,6.07L297.21,490.65l-31.75-91.3" style="fill:url(#linear-gradient-5)"/></g><path d="M420.58,460.68S380.13,847.42,379.8,913.85c0,0-42.78,2.29-58.67-2.17L289.91,452.34Z" style="fill:url(#linear-gradient-6)"/></g><g id="waistcoat-2" data-name="waistcoat"><path d="M385.47,469.69s-35.67,3-83,21l-26-32.3-24,27-13.29-24.67s-30.59-239.61,50-285.25,96.33,294.26,96.33,294.26" style="fill:url(#radial-gradient)"/></g><g id="shirt-2" data-name="shirt"><path d="M364.47,121.35l-2-3.67c1.33,2.45-29.17,42.5-49,45.33-5.63.8-9.67-13-9.67-12.67s-8.33-6.57-8.33-6.57L290,157.13l2.47,19.3S276.13,203.35,270.8,216,238,308.08,279.13,323.5c16,6,56-45.16,55-75.82-.44-13.62,51.67-76.33,30.33-125.67" style="fill:#fff"/><g id="Layer_13" data-name="Layer 13"><polyline points="370.12 489 372.54 502.53 404.73 522.6 416.82 514.04 370.12 489" style="fill:#fff"/></g></g><g id="lapel_2-2" data-name="lapel 2"><g id="Layer_19" data-name="Layer 19"><path d="M226.8,341.76s2.52,11.71,6.26,26.61l.41,1.64s3-60.12,13.5-116.71C257,199.12,226.7,312.51,226.8,341.76Z" style="fill:#4c2e44"/></g><path d="M287.44,176.43s-22.38,26.85-40.36,75.92c-2.43,6.63-5.35,15.22-7.53,22.58a343.26,343.26,0,0,0-12.76,66.84S221.52,274.3,248,218c17.36-36.94,23-44.3,43.39-64.21Z" style="fill:#936981"/></g><g id="bowtie-2" data-name="bowtie"><polygon points="313.99 167.14 329.3 162.01 328.65 166.44 332.57 163.51 327.97 192.34 324.63 187.98 323.97 191.68 310.3 181.01 303.63 179.84 286.63 184.51 286.97 182.28 284.3 183.01 290.47 155.01 292.5 159.02 293.3 155.01 306.47 166.01 313.99 167.14" style="fill:#323472"/><g id="Layer_11" data-name="Layer 11"><polygon points="306.47 166.01 303.63 179.84 310.3 181.01 313.35 167.04 306.47 166.01" style="fill:#936981"/></g><g id="Layer_12" data-name="Layer 12"><path d="M341.13,157.84l-1.83,13.5s19.29-9.09,21.64-14.13,4.29-19.34,4.21-18.82S355,153,341.13,157.84Z" style="fill:#323472"/></g></g><g id="jacket-2" data-name="jacket"><g id="jacket_1.2" data-name="jacket 1.2"><path d="M376.13,457l56,87.33s28.67-3.29,56-32L448,410.35" style="fill:#724761"/></g><g id="jacket_1" data-name="jacket 1"><path d="M378.22,144.84s24.79,21.93,66.58,36.5c18.17,6.33-47.33-19.91-47.33,186,0,22.67-19.25,93.34-19.25,93.34S345.49,394.32,332,354.75s46.24-209.91,46.24-209.91" style="fill:#724761"/></g><path d="M447.49,182.35s-31.69-3.63-40.69,42c-5.38,27.29-14,58.67-10.44,135,1.1,23.51-32.56,126.33-32.56,126.33,1.93,3.81,53.34,35,53.34,35S462.47,373,463,364.18C463.81,349.29,487,195.18,447.49,182.35Z" style="fill:url(#New_Gradient_Swatch_1)"/><g id="lapel_1.1" data-name="lapel 1.1"><path d="M364.47,121.35s12.67,24,21,33.33V181s-72,146-51,179.67c0,0-19-40.67-11.28-72.85,0,0,7.61-42.48,20.28-78.15S370.47,134.68,364.47,121.35Z" style="fill:#936981"/></g><g id="lape1_1.2" data-name="lape1 1.2"><polyline points="385.47 181.01 377.97 179.93 385.47 176.43" style="fill:#724761"/></g></g></g><g id="head"><g id="face"><path d="M280.8,37.68c-3-1.67-12.47,30-4.09,74.05,2.51,13.2,10.56,25.07,14.65,28.54,5.4,4.57,12.27,11.25,17.13,12.24a29.83,29.83,0,0,0,12.85,0c3.29-.67,31.52-17.11,36.5-36.92.38-1.51,2.45-13.25,2.45-13.25s17.85-4.24,14.33-35.67c-.36-3.23-13.83,3.56-13.83,3.56l-9.67-17.39S283.8,39.34,280.8,37.68Z" style="fill:#e2cbc9"/></g><g id="brows"><path d="M316.5,77.55a9.63,9.63,0,0,0,4.13,2c2,.25,8.8-2.67,13-4,2.33-.75,10.41-.55,13-.2.53.07-9.79-3.55-12-3.3C328.13,72.76,322.17,76.38,316.5,77.55Z" style="fill:#a08e7f"/><path d="M301.22,80.78s-1,2.51-3,2.14-12.37-2.34-13.37-2.15a16.49,16.49,0,0,0-7.5,3.4s2.25-5.62,7.75-6.62S300.22,80.28,301.22,80.78Z" style="fill:#a08e7f"/><path d="M276.71,111.73s-11.24,1.7-10.74-27.55,7.36-3.4,7.36-3.4Z" style="fill:#e2cbc9"/></g><g id="side_hair" data-name="side hair"><path d="M345.26,54.86a42,42,0,0,1,9.87,11c4.17,7,2.85,12.24,3.67,18.33.05.39,3.8-5.09,6-10.5a11.9,11.9,0,0,1,9.67-7.17s.9-3.87-3.65-10.17c-2-2.81-.59-9,0-11.67,1.36-6.07-21.93-10-25.56,10.19" style="fill:#a08e7f"/></g><path id="hair-2" data-name="hair" d="M277.76,42.68s1.13-9.67,16.63,0,45.06,21.39,62.75,5.75c11-9.73,13.17-3.84,13.35-4.44,0,0-.89-11-4.92-14.31s-3.35-11.67-9.69-13c-5.46-1.15-9.49-4.11-9.67-5.67-1-8.22-30.11-16.67-44.58-6-3.49,2.57-2.14,3.17-9.25,4.5-4.92.92-4.87,6.65-11.5,8.5-4.18,1.17-8.64,5-9.33,10.33-.62,4.73-7.67,9.33-8,15s-2.83,10.83-.33,18.17c3.62,10.6-3.43,11.5,1.57,19.27s.93,11.56,4.93,16.23c3.15,3.68,6.67,9.91,6,6.24C270.88,77.38,277.76,42.68,277.76,42.68Z" style="fill:#ada185"/></g><g id="lapel_1" data-name="lapel 1"><path d="M175.47,170.39s25.42,17.29,39.33,24l-7.08,4,10,4.81s9.1,18.69.52,56.94c-4.65,20.7-25.81,64.48-45.5,84.5,0,0,26.68-31.44,34-91.25C211,218.68,175.47,170.39,175.47,170.39Z" style="fill:#909ac3"/></g></g></g></g></svg>