<?xml version="1.0" standalone="no"?>
<!DOCTYPE svg PUBLIC "-//W3C//DTD SVG 20010904//EN"
 "http://www.w3.org/TR/2001/REC-SVG-20010904/DTD/svg10.dtd">
<svg version="1.0" xmlns="http://www.w3.org/2000/svg"
 width="1076.000000pt" height="1076.000000pt" viewBox="0 0 1076.000000 1076.000000"
 preserveAspectRatio="xMidYMid meet">
<metadata>
Created by potrace 1.11, written by Peter Selinger 2001-2013
</metadata>
<g transform="translate(0.000000,1076.000000) scale(0.100000,-0.100000)"
fill="#000000" stroke="none">
<path d="M5336 10295 c-11 -6 -30 -25 -42 -43 -43 -63 6 -154 84 -156 76 -2
131 72 106 141 -19 56 -94 85 -148 58z"/>
<path d="M5333 10034 c-77 -39 -71 -155 10 -189 103 -43 192 77 120 163 -34
40 -83 50 -130 26z"/>
<path d="M5330 9776 c-92 -51 -54 -196 51 -196 51 0 75 13 94 50 50 97 -50
198 -145 146z"/>
<path d="M5332 9517 c-73 -41 -71 -151 4 -185 73 -34 154 15 154 93 0 79 -88
130 -158 92z"/>
<path d="M5353 9268 c-58 -15 -86 -75 -67 -145 8 -30 63 -63 104 -63 44 0 100
55 100 99 0 78 -64 129 -137 109z"/>
<path d="M5345 9006 c-39 -17 -55 -37 -65 -80 -15 -67 48 -132 117 -121 69 10
109 81 84 147 -19 49 -85 76 -136 54z"/>
<path d="M5339 8746 c-13 -6 -33 -26 -45 -44 -61 -90 55 -201 146 -140 57 39
65 110 17 162 -25 29 -84 39 -118 22z"/>
<path d="M5320 8473 c-70 -58 -49 -158 38 -183 100 -27 173 93 104 171 -39 43
-99 49 -142 12z"/>
<path d="M5361 8195 c-28 -80 -68 -142 -138 -220 -117 -128 -198 -281 -219
-415 l-6 -38 -42 28 c-60 40 -110 53 -181 47 -76 -6 -150 -43 -183 -91 -12
-18 -31 -57 -41 -87 -16 -44 -32 -64 -90 -114 -80 -68 -123 -120 -157 -187
-28 -55 -69 -193 -78 -263 -4 -27 -9 -63 -11 -80 -8 -54 -15 -168 -16 -262 l0
-92 -47 -7 c-104 -17 -189 6 -248 67 -22 23 -28 37 -26 67 2 25 0 34 -7 27
-11 -11 -18 -81 -9 -90 4 -4 -3 -16 -14 -27 -14 -14 -17 -23 -9 -31 6 -6 7
-16 1 -27 -5 -9 -5 -22 0 -30 5 -8 5 -21 -1 -31 -6 -11 -5 -20 1 -24 6 -4 7
-13 1 -24 -6 -10 -6 -23 -1 -31 5 -8 5 -21 -1 -31 -6 -11 -5 -20 1 -24 6 -4 7
-13 1 -24 -6 -10 -6 -23 -1 -31 5 -8 5 -21 -1 -31 -6 -11 -5 -20 1 -24 6 -3 6
-15 0 -30 -6 -15 -6 -27 0 -30 7 -4 7 -13 0 -24 -6 -12 -5 -22 2 -29 9 -9 9
-15 0 -24 -7 -7 -8 -17 -2 -28 5 -9 5 -22 0 -30 -5 -8 -5 -21 1 -31 6 -11 5
-20 -1 -24 -7 -4 -7 -12 -1 -23 11 -20 -9 -64 -41 -86 -21 -15 -21 -16 -3 -16
16 0 21 -8 23 -37 1 -20 8 -44 16 -52 8 -9 17 -31 21 -49 8 -37 17 -35 23 5 1
14 10 32 18 40 7 8 17 32 20 54 5 31 11 39 28 39 20 0 20 1 -3 13 -33 16 -62
68 -48 85 7 9 7 16 -1 24 -8 8 -7 16 1 28 8 14 8 22 -2 33 -6 9 -8 18 -3 21
10 6 9 76 -1 94 -5 6 -4 12 1 12 10 0 10 86 -1 96 -3 3 -1 14 5 24 9 14 9 22
0 32 -9 11 -9 17 0 26 8 8 8 15 -1 26 -7 8 -8 17 -3 20 5 3 8 44 6 90 l-3 85
52 -29 c110 -62 253 -72 382 -27 164 57 235 108 326 232 34 47 63 85 66 85 2
0 2 -4 -2 -9 -3 -5 0 -13 6 -17 9 -5 7 -11 -6 -20 -10 -7 -16 -21 -13 -31 3
-10 -1 -24 -9 -32 -8 -7 -11 -21 -8 -31 3 -11 0 -20 -11 -24 -11 -4 -15 -14
-12 -31 3 -14 1 -25 -3 -25 -5 0 -9 -11 -9 -24 0 -13 -7 -26 -15 -30 -8 -3
-15 -11 -15 -18 0 -7 -9 -19 -20 -26 -11 -7 -20 -19 -20 -27 0 -8 -6 -15 -14
-15 -8 0 -18 -9 -21 -20 -3 -11 -13 -20 -21 -20 -7 0 -19 -9 -26 -20 -7 -11
-19 -20 -26 -20 -7 0 -15 -7 -18 -15 -4 -8 -12 -15 -20 -15 -8 0 -19 -9 -26
-19 -6 -11 -18 -17 -26 -13 -8 3 -21 -3 -28 -12 -7 -10 -17 -15 -23 -12 -5 4
-16 0 -23 -7 -7 -8 -20 -12 -29 -10 -9 3 -20 0 -23 -6 -4 -6 -23 -11 -43 -11
-52 0 -120 -36 -140 -74 -23 -43 -21 -134 3 -175 18 -30 101 -91 124 -91 32 0
44 -136 19 -215 -10 -32 -22 -62 -27 -67 -5 -5 -31 2 -63 17 -30 13 -70 25
-89 25 -76 0 -220 -54 -243 -91 -11 -17 -26 -19 -162 -19 l-150 -1 55 -34 c51
-33 59 -35 137 -35 72 0 83 -2 84 -17 2 -54 8 -86 23 -108 37 -56 123 -72 211
-38 28 11 56 18 63 17 6 -1 21 -2 32 -3 20 -1 100 -66 100 -81 0 -4 -21 -6
-47 -5 -27 2 -77 5 -113 6 -131 5 -315 61 -417 128 -76 50 -186 158 -212 209
-25 49 -27 102 -5 147 39 83 130 90 185 14 22 -31 25 -54 16 -126 -10 -83 46
-77 97 9 83 145 -16 281 -204 281 -106 0 -195 -74 -214 -178 -10 -57 -7 -253
5 -261 5 -3 3 -13 -3 -24 -9 -14 -9 -22 1 -34 10 -12 11 -16 1 -16 -8 0 -11
-9 -8 -25 3 -14 1 -25 -4 -25 -5 0 -8 -12 -7 -27 2 -16 -2 -37 -8 -48 -6 -11
-8 -26 -6 -32 3 -7 0 -13 -6 -13 -6 0 -11 -11 -11 -24 0 -13 -7 -29 -15 -36
-9 -7 -13 -20 -10 -27 3 -8 -2 -21 -10 -29 -8 -8 -12 -21 -9 -28 3 -7 -2 -16
-11 -20 -11 -4 -14 -12 -10 -26 5 -14 2 -20 -9 -20 -9 0 -16 -4 -16 -10 0 -20
-3 -25 -21 -38 -11 -7 -19 -19 -19 -25 0 -7 -9 -18 -20 -25 -12 -7 -18 -17
-15 -22 3 -6 -1 -10 -10 -10 -9 0 -19 -9 -22 -20 -3 -11 -14 -20 -24 -20 -17
0 -24 -11 -20 -33 1 -4 -6 -7 -16 -5 -9 2 -22 -6 -28 -18 -5 -11 -15 -19 -22
-17 -6 2 -17 -5 -23 -17 -6 -11 -15 -18 -21 -15 -5 4 -12 -1 -15 -9 -3 -9 -14
-16 -24 -16 -10 0 -23 -7 -30 -15 -7 -8 -18 -15 -26 -15 -7 0 -17 -8 -23 -17
-5 -10 -13 -15 -17 -11 -4 4 -21 0 -38 -9 -59 -30 -64 -32 -88 -27 -57 12
-168 20 -249 18 l-89 -2 0 99 c0 59 -4 99 -10 99 -17 0 -11 36 10 55 11 10 20
28 20 40 0 23 -35 75 -50 75 -13 0 -40 -78 -33 -97 3 -10 13 -27 22 -38 15
-18 15 -19 -1 -7 -15 12 -17 5 -16 -95 0 -168 1 -161 -31 -177 l-28 -15 1 259
1 258 -32 22 c-27 19 -33 29 -33 60 0 29 5 39 24 48 62 28 99 133 73 207 -14
38 -85 125 -102 125 -17 0 -83 -110 -93 -156 -16 -72 6 -152 48 -174 13 -7 20
-21 20 -38 l0 -27 -21 33 c-12 18 -24 31 -26 28 -3 -3 -5 -165 -5 -360 l0
-355 -49 -16 c-59 -20 -195 -18 -256 2 -48 17 -117 80 -131 121 -12 34 7 96
35 117 46 35 118 22 144 -26 21 -41 -18 -93 -71 -94 -25 0 -17 -29 11 -39 54
-18 123 68 112 141 -13 86 -157 128 -225 66 -63 -57 -80 -171 -38 -258 13 -27
24 -58 25 -68 0 -13 12 -23 35 -31 28 -9 35 -16 35 -36 0 -14 4 -31 8 -37 4
-7 4 -21 -1 -30 -14 -26 -4 -43 25 -43 24 0 25 3 20 34 -7 44 -2 48 32 28 18
-10 27 -22 24 -33 -3 -9 0 -20 6 -23 8 -5 8 -13 0 -28 -7 -14 -8 -23 -1 -30 7
-7 7 -16 -1 -28 -8 -14 -8 -22 2 -33 10 -12 10 -19 0 -35 -10 -16 -10 -23 0
-35 8 -11 9 -17 1 -22 -5 -3 -9 -19 -8 -33 1 -15 -1 -33 -5 -39 -4 -7 -1 -18
6 -25 12 -11 12 -14 0 -23 -11 -8 -12 -17 -4 -37 7 -18 6 -29 -2 -37 -9 -9 -9
-16 0 -30 10 -16 9 -20 -3 -25 -12 -4 -14 -14 -9 -36 4 -20 3 -30 -5 -30 -7 0
-9 -8 -5 -20 4 -12 1 -27 -5 -35 -6 -8 -10 -22 -9 -32 1 -10 -1 -26 -6 -35 -4
-10 -5 -24 -2 -32 3 -8 -1 -17 -10 -20 -10 -4 -13 -14 -9 -30 4 -15 0 -28 -9
-36 -7 -6 -11 -18 -8 -27 4 -9 -1 -19 -10 -25 -10 -5 -17 -18 -17 -29 0 -11
-7 -27 -15 -35 -12 -12 -12 -20 -4 -36 6 -12 7 -18 1 -14 -13 8 -36 -20 -29
-37 3 -7 -4 -19 -15 -26 -11 -7 -17 -18 -15 -26 4 -8 -1 -12 -11 -10 -9 2 -47
4 -84 4 -52 1 -66 4 -62 14 7 18 -22 41 -41 33 -8 -3 -15 -15 -15 -26 0 -15
-7 -20 -27 -21 -38 -1 -80 -7 -132 -20 -44 -10 -53 -7 -64 25 -1 5 -13 5 -26
1 -16 -5 -21 -13 -19 -30 2 -13 -1 -24 -7 -25 -6 0 -10 95 -10 251 l0 251 -29
23 c-42 33 -46 87 -8 111 40 26 61 53 72 93 22 78 7 129 -59 200 -38 41 -42
43 -59 28 -9 -9 -32 -45 -51 -81 -30 -59 -33 -72 -29 -132 4 -61 7 -69 38 -97
34 -30 45 -53 31 -62 -5 -2 -14 7 -21 20 -7 14 -17 25 -22 25 -4 0 -8 -159 -8
-354 l0 -354 -46 -22 c-25 -12 -48 -20 -51 -16 -3 3 -6 54 -5 113 0 83 -4 112
-15 125 -14 16 -14 18 0 24 15 5 27 29 33 63 4 22 -32 81 -49 81 -3 0 -13 -12
-22 -27 -15 -23 -17 -51 -16 -223 l2 -197 -28 -11 c-69 -27 -135 -36 -238 -33
l-50 1 62 41 c82 53 88 65 17 32 -137 -63 -317 -20 -361 86 -31 72 -20 164 24
213 27 31 104 66 136 62 38 -4 85 -33 111 -67 33 -44 28 -122 -9 -172 -29 -38
-29 -39 -5 -24 46 30 60 60 61 127 1 77 -31 150 -76 171 -47 23 -129 26 -179
7 -77 -30 -122 -83 -132 -157 -9 -68 -13 -91 -17 -95 -2 -3 -18 22 -35 53
l-31 58 6 -40 c3 -22 12 -57 19 -78 40 -114 263 -364 368 -412 150 -68 279
-106 369 -106 51 0 125 9 139 17 17 11 21 -32 21 -210 0 -127 4 -193 11 -198
8 -6 8 -8 -1 -8 -8 0 -11 -28 -9 -90 2 -87 1 -91 -30 -130 -38 -47 -71 -75
-99 -83 -11 -3 -2 -5 20 -4 l40 2 0 -57 c0 -47 5 -64 32 -102 18 -25 28 -48
23 -51 -6 -4 -5 -15 2 -28 7 -12 12 -25 13 -29 0 -3 3 -9 6 -12 11 -11 40 44
34 64 -4 12 6 34 26 63 25 36 31 55 31 97 l0 52 39 -4 c22 -2 39 -2 39 -1 0 2
-15 9 -32 16 -18 8 -52 35 -75 60 -41 44 -43 49 -38 97 3 31 1 50 -6 50 -6 0
-7 5 -2 13 12 19 12 161 -1 169 -8 5 -7 8 2 8 6 0 12 7 12 15 0 8 -6 15 -12
15 -9 0 -9 3 -2 8 14 10 15 122 0 122 -8 0 -8 2 0 8 13 8 13 60 1 80 -5 7 -4
12 2 12 6 0 11 7 11 15 0 8 -5 15 -11 15 -5 0 -8 4 -5 9 9 14 188 -169 182
-185 -3 -7 -1 -16 5 -19 5 -4 6 -11 2 -18 -9 -14 -9 -60 0 -74 4 -7 3 -15 -3
-18 -8 -5 -8 -11 0 -20 6 -7 7 -15 3 -18 -10 -6 -9 -59 1 -75 3 -6 2 -14 -4
-17 -8 -5 -8 -11 0 -20 6 -7 7 -15 3 -18 -10 -6 -9 -59 1 -75 3 -6 2 -14 -4
-17 -8 -5 -8 -11 0 -20 8 -9 8 -15 0 -20 -7 -4 -7 -12 0 -26 8 -13 7 -19 0
-19 -7 0 -8 -6 0 -19 5 -11 7 -22 2 -25 -4 -2 -7 -24 -5 -48 3 -54 -32 -109
-97 -149 l-45 -29 38 4 c34 4 38 2 37 -17 -5 -57 2 -87 31 -130 17 -26 28 -51
24 -57 -8 -13 17 -71 28 -67 5 1 9 7 10 12 0 6 7 16 14 23 9 9 10 19 4 30 -16
28 32 74 79 76 38 2 40 1 37 -23 -6 -41 12 -103 39 -138 14 -18 22 -38 19 -44
-8 -12 14 -69 26 -69 5 0 15 13 23 29 11 21 12 31 3 40 -8 8 -5 18 15 38 22
22 38 27 85 30 32 2 71 7 87 13 27 9 28 9 21 -18 -17 -62 -14 -148 6 -224 23
-85 58 -145 119 -204 l39 -38 -20 -24 c-25 -33 -24 -73 3 -102 12 -13 22 -37
22 -54 1 -28 4 -31 31 -31 27 0 30 3 30 30 0 18 9 39 23 53 26 26 28 63 5 104
-17 29 -17 30 2 46 50 41 106 126 127 195 23 75 30 184 15 245 -9 32 -8 32 19
22 15 -6 64 -13 108 -15 l81 -4 -30 19 c-17 11 -25 20 -19 20 15 0 15 300 0
300 -6 0 -3 5 7 11 10 6 14 15 10 22 -8 13 -13 77 -6 77 2 0 43 -11 91 -25 48
-13 102 -27 121 -30 48 -8 49 -10 45 -60 -3 -32 -1 -45 8 -45 9 0 9 -3 2 -8
-14 -10 -15 -212 -1 -212 7 0 7 -4 -1 -12 -7 -7 -12 -20 -12 -29 0 -23 -69
-99 -105 -116 l-30 -14 37 4 c36 3 37 2 33 -26 -7 -39 11 -101 40 -136 15 -17
23 -36 19 -45 -6 -15 15 -76 26 -76 11 0 32 62 26 77 -4 10 3 26 18 42 30 32
50 102 41 143 -5 20 -4 28 3 24 17 -10 72 -14 66 -5 -3 5 -12 9 -20 9 -8 0
-37 22 -64 50 -53 52 -52 50 -52 165 0 34 -5 63 -11 67 -8 5 -9 8 -1 8 15 0
15 113 0 122 -8 5 -7 8 2 8 6 0 12 9 12 20 0 11 -6 20 -12 20 -9 0 -9 3 1 9 8
5 35 7 60 5 95 -9 137 -12 174 -13 28 -1 36 -4 30 -13 -12 -20 -12 -168 1
-168 8 0 8 -2 0 -8 -12 -8 -13 -150 -1 -169 5 -7 4 -13 -1 -13 -13 0 -10 -113
2 -122 7 -5 7 -8 -1 -8 -9 0 -11 -14 -8 -49 3 -36 0 -54 -10 -65 -18 -18 -19
-27 -2 -21 8 4 13 -6 14 -28 2 -25 -6 -43 -36 -80 -52 -63 -96 -98 -134 -108
-26 -7 -22 -8 23 -6 l55 3 0 -65 c1 -70 17 -113 61 -160 15 -17 20 -29 14 -35
-14 -14 -12 -42 4 -56 8 -6 13 -17 10 -24 -3 -8 2 -16 10 -19 17 -7 31 8 22
22 -3 5 1 14 9 21 17 14 20 46 5 55 -6 4 4 24 24 48 28 35 71 137 62 149 -2 1
-6 17 -9 34 -6 30 -5 31 30 25 31 -5 37 -11 50 -51 17 -50 47 -95 105 -156 38
-40 39 -40 18 -59 -28 -25 -26 -70 5 -101 14 -14 23 -30 19 -35 -11 -19 6 -59
25 -59 25 0 45 25 38 50 -3 14 3 29 19 45 30 30 32 78 5 102 -19 16 -18 18 34
76 62 69 86 114 110 214 17 69 18 71 50 75 l33 4 4 -63 c3 -51 9 -69 35 -101
22 -27 28 -43 22 -49 -13 -13 17 -76 32 -67 6 3 8 8 5 11 -3 3 1 12 9 20 11
10 12 20 5 33 -7 13 -5 21 7 31 27 23 53 91 53 140 l0 47 36 -8 c40 -9 39 -6
-10 24 -48 29 -101 97 -84 108 10 6 9 8 -3 8 -11 0 -15 9 -13 29 1 16 5 34 9
40 3 6 3 11 -2 11 -7 0 -9 94 -3 110 1 3 1 10 0 15 -7 30 -4 115 4 118 5 2 6
9 1 17 -12 19 -14 69 -4 76 5 3 6 11 2 17 -10 16 -10 48 -1 69 5 9 5 19 0 22
-9 5 -9 47 1 63 4 6 0 19 -9 27 -10 10 -11 16 -4 16 7 0 10 8 7 19 -2 10 -1
25 3 32 9 14 190 70 202 63 5 -3 4 -14 -2 -24 -6 -10 -6 -21 -2 -24 9 -6 7
-59 -3 -75 -3 -6 -2 -11 3 -11 11 0 9 -50 -2 -68 -3 -6 -2 -13 4 -17 7 -4 7
-12 0 -25 -6 -10 -7 -21 -2 -24 9 -5 9 -47 -1 -62 -3 -5 -2 -16 3 -24 5 -9 5
-19 -2 -27 -7 -9 -7 -13 1 -13 19 0 12 -21 -23 -69 -19 -26 -51 -56 -70 -66
-44 -24 -46 -33 -6 -27 29 4 30 3 30 -37 0 -45 21 -104 47 -133 9 -10 13 -26
10 -38 -3 -12 2 -27 11 -37 10 -9 15 -18 12 -19 -3 -1 -2 -5 2 -9 3 -4 14 8
23 25 11 22 13 36 6 43 -6 6 0 22 22 49 26 32 32 50 35 103 4 61 5 63 26 55
13 -4 28 -5 35 0 9 5 6 9 -11 14 -54 14 -124 101 -114 141 4 16 2 25 -5 25 -8
0 -8 4 1 15 10 12 10 18 0 30 -9 10 -9 15 -1 15 6 0 11 7 11 15 0 8 -5 15 -11
15 -5 0 -7 5 -3 12 11 18 12 61 1 76 -6 8 -6 12 1 12 12 0 11 58 -1 77 -5 7
-4 13 0 13 5 0 8 27 7 60 0 33 3 60 8 60 5 0 57 -23 116 -51 226 -108 331
-145 502 -177 58 -11 123 -24 145 -28 22 -4 49 -8 60 -9 11 -2 43 -5 70 -9 58
-8 159 -9 195 -2 59 12 163 27 164 24 28 -66 130 -200 238 -312 l87 -90 -33
-28 c-107 -88 -83 -261 44 -314 30 -13 33 -17 19 -27 -28 -21 -41 -56 -33 -90
7 -33 37 -66 61 -68 7 -1 19 -2 26 -3 20 -3 66 23 77 43 18 34 12 80 -14 106
l-23 23 38 17 c47 22 73 49 94 99 31 74 7 170 -55 218 l-31 24 87 89 c92 96
196 228 222 283 15 30 20 33 47 28 16 -3 48 -8 70 -11 22 -3 51 -8 65 -11 71
-16 288 9 543 62 90 19 233 72 400 151 76 36 141 63 144 59 3 -3 7 -108 7
-232 l1 -227 -40 -45 c-21 -24 -53 -51 -70 -58 l-30 -13 38 -1 c35 0 37 -2 32
-27 -7 -39 11 -97 40 -132 15 -17 23 -36 19 -45 -7 -19 17 -77 31 -73 5 2 10
8 11 13 0 5 4 17 8 26 4 10 6 23 3 30 -2 7 5 27 18 43 29 40 43 85 41 130 -1
35 0 36 27 32 15 -2 30 0 33 5 3 4 0 8 -7 8 -42 0 -136 113 -124 149 4 14 2
21 -7 21 -8 0 -9 3 -2 8 14 10 15 82 1 82 -9 0 -9 3 -1 8 14 10 14 212 0 212
-6 0 -5 4 2 8 7 5 11 19 10 33 -2 16 2 24 12 23 32 -3 175 -49 182 -59 4 -5 6
-29 4 -53 -2 -23 1 -45 6 -48 6 -4 5 -9 -3 -14 -10 -7 -10 -12 0 -23 7 -9 8
-18 3 -21 -11 -6 -9 -56 1 -74 4 -5 2 -12 -4 -14 -9 -3 -9 -9 -1 -25 9 -16 9
-22 -1 -26 -9 -3 -9 -7 1 -19 10 -13 10 -17 0 -21 -10 -3 -11 -9 -1 -25 10
-16 10 -21 0 -25 -9 -3 -9 -7 0 -19 7 -8 10 -18 6 -21 -10 -10 -10 -117 0
-117 5 0 4 -7 -3 -15 -10 -12 -10 -18 0 -30 7 -9 8 -15 2 -15 -6 0 -8 -17 -6
-40 3 -33 0 -40 -14 -41 -15 0 -15 -1 1 -8 16 -6 13 -12 -24 -55 -24 -27 -58
-55 -76 -63 -18 -7 -33 -14 -33 -16 0 -1 18 -1 40 1 39 4 41 3 36 -22 -7 -36
19 -119 44 -141 15 -13 19 -26 15 -42 -3 -14 1 -34 11 -48 15 -23 28 -26 29
-7 1 4 6 17 13 29 7 13 8 24 2 28 -5 3 5 26 22 50 25 36 32 55 32 98 l1 55 37
0 c37 1 37 0 44 -46 14 -100 65 -193 146 -271 25 -24 25 -25 7 -40 -11 -9 -20
-28 -21 -43 -3 -32 20 -78 39 -78 16 0 16 -5 3 -30 -11 -20 10 -50 34 -50 21
0 39 28 33 50 -3 14 3 29 19 45 29 29 31 64 4 97 l-19 25 50 54 c48 52 99 142
99 173 0 10 9 16 24 16 13 0 32 3 40 6 14 5 15 2 8 -17 -18 -49 9 -154 51
-199 18 -20 23 -34 19 -63 -3 -23 0 -37 7 -37 6 0 11 -8 11 -18 0 -24 8 -32
25 -25 8 2 11 11 8 19 -3 7 2 21 11 29 11 11 13 22 6 39 -7 19 -3 30 22 60 37
45 57 108 53 167 l-2 45 53 -6 c56 -6 65 3 13 14 -59 12 -191 171 -158 191 5
4 7 11 4 16 -4 5 2 9 12 10 16 0 16 1 -2 9 -11 5 -16 9 -11 9 5 1 3 7 -3 15
-8 10 -9 16 -1 21 6 4 7 12 0 24 -6 12 -5 22 1 28 8 8 7 13 0 17 -8 5 -8 13
-1 27 8 13 7 19 0 19 -7 0 -8 6 0 19 7 14 7 22 -1 27 -8 4 -7 9 2 14 10 7 10
12 0 23 -8 10 -9 17 -1 22 7 4 7 12 0 25 -7 13 -7 21 0 25 8 5 8 11 0 20 -6 7
-7 15 -3 18 10 6 9 59 -1 75 -3 6 -3 13 2 16 9 5 8 59 -2 75 -4 5 -3 12 2 15
9 6 8 59 -3 75 -4 7 9 11 37 12 24 0 54 2 68 4 56 9 151 12 155 6 2 -4 0 -13
-5 -21 -5 -9 -5 -19 2 -27 7 -9 7 -13 -1 -13 -8 0 -9 -5 -2 -18 7 -13 7 -22 0
-29 -8 -8 -7 -13 0 -17 8 -5 8 -13 1 -26 -7 -13 -7 -21 0 -25 8 -5 8 -11 0
-20 -8 -9 -8 -15 0 -20 7 -4 7 -12 0 -25 -7 -13 -7 -21 0 -25 8 -5 8 -11 0
-20 -8 -9 -8 -15 0 -20 6 -3 7 -12 3 -18 -4 -6 -8 -19 -8 -28 -2 -27 -62 -95
-95 -109 -40 -17 -38 -30 3 -21 l32 8 1 -59 c0 -49 5 -65 32 -103 17 -24 27
-47 22 -50 -15 -9 -12 -21 8 -41 9 -10 16 -20 14 -23 -2 -3 0 -7 5 -8 12 -4
33 55 26 73 -3 8 5 26 17 39 26 27 51 113 43 144 -5 19 -1 21 38 22 42 1 43 1
14 10 -63 20 -124 96 -121 152 2 20 -1 37 -6 37 -5 0 -6 5 -2 11 11 18 12 79
1 79 -5 0 -3 7 4 17 11 13 11 17 1 21 -10 3 -10 7 -1 18 8 10 8 18 0 27 -8 10
-7 17 2 26 9 11 9 14 -1 18 -10 4 -10 8 -1 19 9 11 9 17 0 28 -15 17 -7 22 44
30 22 4 80 18 128 32 89 26 110 26 89 1 -7 -8 -9 -17 -5 -20 9 -10 9 -67 0
-67 -4 0 -3 -8 2 -19 6 -10 8 -21 5 -24 -10 -9 -11 -68 -2 -73 5 -3 4 -12 -2
-19 -8 -9 -8 -15 0 -20 7 -4 7 -12 0 -25 -7 -13 -7 -21 0 -25 8 -5 8 -11 1
-19 -7 -9 -7 -16 0 -23 8 -8 8 -13 0 -17 -8 -5 -8 -13 -1 -26 9 -16 5 -22 -17
-35 -16 -8 -21 -15 -13 -14 35 3 41 -1 31 -19 -7 -13 -6 -23 1 -30 9 -9 9 -12
0 -12 -9 0 -10 -5 -2 -19 7 -14 7 -22 0 -26 -7 -5 -8 -11 -1 -19 6 -7 6 -17 1
-26 -5 -9 -5 -19 1 -26 7 -8 6 -14 -1 -19 -6 -3 -7 -11 -3 -18 13 -21 7 -64
-15 -99 -29 -47 -117 -128 -139 -128 -10 0 -24 -4 -32 -9 -9 -6 6 -8 38 -6 28
2 55 7 61 10 5 3 5 -6 -1 -24 -16 -46 6 -132 47 -187 27 -35 32 -49 25 -63 -7
-13 -6 -24 4 -37 8 -11 15 -27 15 -38 0 -12 5 -16 16 -12 9 3 18 6 21 6 3 0 0
7 -7 15 -9 11 -9 15 -1 15 17 0 31 42 19 57 -7 9 -1 24 22 53 38 47 58 118 53
179 -2 23 -1 41 4 38 4 -3 31 -7 58 -10 44 -5 46 -5 20 5 -71 25 -196 153
-178 181 10 16 11 77 1 77 -5 0 -6 6 -1 13 11 18 11 77 0 77 -5 0 -3 7 4 17
11 13 11 17 1 21 -10 3 -10 7 -1 18 9 11 9 18 -1 29 -7 8 -11 15 -9 16 2 0 24
2 49 5 25 3 59 9 77 13 29 8 31 7 26 -13 -3 -11 -7 -57 -9 -101 -3 -105 27
-204 86 -280 23 -30 45 -55 49 -55 3 0 12 -9 19 -21 11 -18 11 -24 -4 -40 -9
-10 -16 -30 -16 -44 0 -27 27 -75 43 -75 6 0 6 -6 0 -18 -13 -25 5 -52 34 -52
26 0 44 35 27 52 -6 6 1 20 20 38 23 23 28 36 25 60 -3 16 -12 37 -21 46 -15
14 -12 20 35 72 29 32 63 80 76 109 46 100 60 227 33 307 -8 24 -8 27 8 21 28
-11 115 -23 139 -19 28 5 66 -41 59 -72 -4 -13 0 -27 9 -34 8 -7 13 -16 10
-20 -3 -5 -1 -11 4 -14 14 -9 42 54 32 72 -6 11 -1 23 15 41 31 33 47 82 42
130 l-3 38 40 -5 c49 -6 88 -38 81 -67 -6 -22 14 -77 27 -72 5 1 9 7 10 12 0
6 7 16 14 23 9 9 10 19 4 30 -7 13 -4 24 13 42 29 31 46 81 46 132 0 37 1 38
30 33 35 -6 41 10 7 19 -24 6 -88 68 -103 102 -5 10 -9 125 -8 254 1 163 -2
237 -10 242 -8 6 -8 8 1 8 8 0 11 20 10 64 l-2 64 87 86 c48 47 88 86 90 86 2
0 2 -46 1 -102 -2 -72 1 -104 10 -110 8 -5 8 -8 1 -8 -8 0 -12 -23 -12 -65 0
-42 4 -65 12 -65 8 0 8 -2 0 -8 -8 -4 -11 -44 -10 -116 1 -104 0 -111 -25
-146 -31 -42 -79 -80 -102 -80 -9 0 -18 -4 -21 -8 -3 -5 14 -6 38 -2 l43 6 -2
-40 c-3 -45 16 -100 45 -131 13 -13 17 -28 13 -43 -3 -12 0 -28 6 -35 6 -8 8
-17 4 -20 -3 -4 -1 -7 5 -7 7 0 15 0 20 0 4 0 7 3 8 8 0 4 4 15 8 25 5 9 6 24
2 32 -3 8 5 27 18 42 30 36 47 89 41 131 -4 32 -3 32 38 33 23 1 32 4 20 6
-25 5 -92 64 -116 103 -10 16 -14 40 -11 68 2 25 -1 42 -7 42 -6 0 -7 5 -2 13
11 17 11 337 0 337 -6 0 -5 5 0 13 12 14 11 57 0 75 -5 7 -4 12 2 12 6 0 11 7
11 15 0 8 -5 15 -11 15 -8 0 -8 5 1 15 7 8 16 13 20 10 4 -3 36 -7 71 -11 35
-3 66 -6 69 -7 21 -5 141 20 215 45 154 52 221 91 310 182 104 107 201 244
221 313 21 74 13 86 -20 29 -15 -26 -29 -46 -31 -44 -2 2 -6 31 -8 65 -12 136
-100 210 -236 200 -102 -8 -145 -55 -155 -170 -6 -64 5 -101 36 -129 34 -29
39 -21 13 18 -46 67 -24 164 45 203 56 31 77 33 128 11 79 -35 114 -88 113
-171 0 -64 -27 -124 -70 -159 -60 -47 -196 -87 -325 -94 -40 -3 -152 19 -191
36 l-30 13 2 155 c1 85 2 172 3 192 2 34 -25 98 -41 98 -15 0 -49 -59 -49 -84
0 -15 11 -38 24 -51 18 -18 21 -25 10 -29 -11 -4 -14 -33 -14 -131 l0 -125
-50 25 c-48 24 -50 27 -51 68 0 23 0 186 0 361 l0 319 -29 -34 c-27 -31 -29
-32 -30 -12 0 14 12 31 30 45 32 23 50 69 50 129 0 36 -42 131 -79 179 l-20
25 -26 -25 c-14 -13 -40 -45 -56 -70 -28 -41 -30 -50 -26 -107 5 -71 24 -106
71 -134 28 -16 33 -24 31 -54 -2 -31 -34 -74 -57 -75 -3 0 -6 -102 -6 -227 0
-296 0 -293 -12 -293 -6 0 -8 10 -5 23 8 32 -16 52 -45 37 -11 -6 -18 -16 -14
-22 5 -7 -2 -9 -20 -4 -16 4 -46 9 -68 12 -21 3 -47 7 -56 9 -9 2 -29 4 -43 4
-20 1 -25 6 -25 24 1 16 -5 22 -19 21 -15 0 -20 6 -20 25 0 19 -6 27 -23 29
-32 5 -41 -26 -14 -49 42 -33 29 -49 -43 -50 -36 -1 -71 -2 -77 -3 -7 -1 -13
5 -13 12 0 8 -8 20 -19 27 -10 8 -15 18 -12 24 3 5 -1 16 -9 24 -8 9 -15 25
-15 37 0 11 -6 23 -14 26 -8 3 -11 15 -8 29 3 17 -1 27 -12 31 -9 3 -16 17
-16 30 0 14 -7 27 -15 30 -12 5 -13 9 -4 20 9 11 8 18 -4 32 -10 11 -14 27
-10 40 3 15 0 24 -11 28 -12 5 -14 10 -6 19 11 13 4 45 -10 45 -5 0 -6 9 -3
20 3 11 0 26 -6 33 -6 8 -8 17 -4 21 13 13 11 37 -3 43 -10 4 -11 10 -3 25 7
14 7 23 -1 33 -8 10 -8 19 -1 34 7 12 7 22 2 25 -5 4 -8 32 -6 64 2 31 -2 63
-7 70 -7 8 -7 17 2 27 10 12 10 18 1 29 -9 11 -9 20 -2 35 8 15 7 23 -5 35 -8
9 -10 16 -4 16 6 0 10 17 10 38 -1 64 1 68 30 85 31 19 51 7 31 -17 -16 -20
-2 -46 24 -46 32 0 40 36 12 55 -18 13 -19 15 -4 15 12 0 17 8 17 29 0 33 14
48 50 53 19 2 25 9 25 28 1 14 11 47 24 73 28 60 31 90 13 152 -27 93 -68 129
-145 126 -50 -2 -85 -16 -108 -44 -41 -50 -32 -126 22 -172 36 -29 61 -32 85
-8 16 16 15 18 -17 26 -39 9 -69 40 -69 69 0 11 13 32 29 48 23 24 35 28 67
25 49 -4 94 -51 94 -96 0 -70 -78 -150 -164 -170 -60 -13 -208 -8 -248 9 l-28
12 0 362 -1 363 -27 -33 c-23 -28 -28 -30 -29 -14 -1 10 14 33 32 51 58 54 60
149 7 243 -46 80 -57 86 -89 57 -14 -13 -38 -44 -54 -68 -24 -37 -27 -52 -25
-100 4 -72 19 -103 65 -132 32 -20 38 -30 39 -59 1 -29 -5 -39 -31 -59 l-32
-24 0 -254 c0 -139 -3 -253 -7 -253 -4 0 -18 5 -32 11 l-25 12 3 177 c3 161 2
179 -15 201 l-19 24 -20 -25 c-25 -32 -25 -75 0 -100 23 -23 25 -36 7 -54 -9
-9 -13 -42 -12 -103 l1 -89 -126 -1 c-69 0 -136 -3 -150 -6 -90 -18 -97 -19
-103 -3 -4 9 -13 13 -21 10 -9 -3 -22 1 -31 10 -9 8 -22 13 -29 10 -7 -3 -16
2 -19 10 -4 9 -15 16 -26 16 -10 0 -21 7 -25 15 -3 8 -13 15 -21 15 -9 0 -23
7 -32 15 -8 8 -19 13 -24 10 -5 -4 -9 1 -9 9 0 9 -11 18 -24 22 -13 3 -27 15
-29 26 -4 13 -11 19 -20 15 -9 -3 -17 2 -20 14 -3 10 -12 19 -21 19 -9 0 -16
6 -16 14 0 8 -9 18 -20 21 -11 3 -20 13 -20 20 0 8 -9 19 -20 25 -11 6 -18 15
-15 20 3 5 -3 15 -13 22 -19 13 -22 18 -22 38 0 6 -7 10 -16 10 -10 0 -14 6
-10 15 3 8 -1 21 -9 29 -8 8 -15 21 -15 30 0 8 -4 18 -10 21 -5 3 -10 17 -10
31 0 14 -6 27 -14 30 -8 3 -12 13 -9 25 3 11 -1 21 -10 25 -9 3 -13 12 -10 20
3 8 2 22 -2 32 -5 9 -7 27 -6 39 1 11 -2 24 -7 27 -6 3 -8 15 -5 27 4 12 0 25
-8 30 -11 6 -11 11 -2 20 8 8 9 18 3 29 -5 9 -5 22 0 30 5 8 5 21 -1 31 -6 11
-5 20 0 24 6 3 9 51 7 109 -4 119 -25 179 -80 221 -93 71 -231 65 -317 -12
-46 -41 -63 -89 -55 -148 11 -69 86 -158 117 -139 7 4 9 31 6 74 -5 76 10 114
58 146 84 55 185 -47 157 -158 -20 -80 -162 -220 -283 -280 -137 -68 -258 -95
-456 -102 l-71 -2 16 22 c25 32 76 65 108 69 15 1 48 -6 72 -16 58 -25 137
-25 180 1 36 22 52 55 55 115 l2 40 91 5 c80 4 96 8 134 35 l43 30 -143 3
c-139 2 -144 3 -169 29 -30 30 -84 55 -159 73 -65 15 -113 10 -172 -19 -43
-21 -45 -21 -58 -4 -27 37 -44 123 -38 186 4 33 9 64 12 68 2 5 31 22 63 39
40 22 65 43 79 69 24 42 30 120 14 162 -22 55 -107 100 -161 86 -12 -3 -22 1
-25 10 -4 9 -14 13 -26 10 -10 -3 -24 1 -31 9 -6 8 -15 11 -20 8 -5 -3 -16 2
-25 11 -9 9 -22 14 -29 11 -8 -3 -16 2 -19 10 -3 8 -17 19 -31 24 -14 5 -25
14 -25 20 0 5 -8 10 -19 10 -10 0 -21 9 -24 20 -3 12 -14 20 -26 20 -12 0 -20
5 -19 12 2 6 -6 16 -17 22 -11 7 -21 18 -23 26 -4 17 -23 31 -33 24 -4 -2 -5
4 -2 15 3 12 -3 24 -16 33 -12 8 -18 18 -15 21 4 4 2 13 -5 20 -6 8 -9 21 -6
29 4 9 -1 23 -10 32 -9 9 -13 21 -10 27 4 5 0 18 -9 28 -9 10 -14 25 -11 33 3
8 -1 20 -9 27 -7 6 -12 21 -9 31 4 16 16 5 62 -57 97 -133 184 -193 355 -247
62 -20 94 -24 155 -21 81 4 173 31 220 64 16 11 30 19 32 17 3 -4 3 -613 0
-653 -1 -6 -16 -20 -33 -32 -30 -19 -31 -21 -10 -21 17 0 22 -6 22 -25 0 -15
8 -40 17 -58 9 -18 18 -41 20 -51 6 -36 25 -34 28 3 0 10 9 30 18 44 9 14 18
39 19 56 2 24 7 31 23 31 16 0 14 4 -12 20 -18 11 -33 28 -34 37 0 10 -2 168
-2 351 -1 208 -6 335 -12 340 -5 4 -10 28 -10 54 0 26 -5 52 -10 57 -7 7 -9
-2 -7 -27 3 -27 -2 -45 -17 -64 -28 -34 -115 -76 -166 -80 -47 -3 -135 10
-135 20 -1 4 -2 68 -4 142 -8 279 -54 482 -137 605 -33 49 -100 117 -156 158
-24 17 -43 38 -43 46 0 34 -59 139 -92 165 -97 73 -238 74 -332 3 l-33 -26
-23 87 c-40 152 -79 220 -216 380 -75 88 -100 129 -133 221 l-18 50 -22 -64z
m-141 -497 c0 -30 48 -112 98 -167 39 -42 40 -45 25 -68 -13 -20 -14 -28 -3
-51 7 -15 12 -34 11 -43 -1 -9 5 -21 13 -28 23 -19 59 4 52 32 -2 12 1 30 9
40 13 19 9 57 -6 57 -13 0 -11 19 4 34 70 73 97 114 122 185 l12 36 18 -34
c28 -54 23 -171 -11 -273 -18 -54 -74 -117 -123 -138 -17 -7 -31 -19 -31 -26
0 -8 -5 -14 -10 -14 -19 0 20 -47 54 -65 30 -16 37 -17 67 -5 18 8 96 74 172
147 77 74 151 140 166 147 55 29 142 2 161 -50 23 -60 20 -93 -11 -129 -17
-19 -40 -37 -51 -41 -30 -9 -148 -86 -191 -124 -20 -17 -56 -54 -79 -82 l-42
-51 37 7 c71 13 151 8 210 -14 62 -23 72 -43 30 -58 -16 -5 -43 -23 -62 -41
-32 -30 -33 -34 -28 -83 6 -49 3 -57 -55 -167 -94 -178 -183 -323 -252 -415
-74 -98 -136 -168 -147 -164 -14 5 -140 162 -188 233 -54 80 -107 170 -177
300 -26 50 -58 107 -70 129 -17 30 -20 45 -13 70 4 17 7 39 6 48 -5 28 -45 68
-87 87 -34 15 -38 20 -27 33 30 38 150 58 250 42 22 -3 37 -2 37 4 0 6 -35 45
-78 89 -55 55 -105 93 -168 128 -136 76 -154 105 -118 194 19 49 63 72 119 65
53 -6 60 -12 210 -158 175 -170 204 -182 273 -115 28 28 31 34 17 41 -8 5 -13
13 -10 19 4 5 1 9 -5 9 -19 0 -98 59 -120 89 -48 69 -72 266 -40 334 16 33 30
35 30 5z m-573 -620 c48 -67 87 -128 85 -136 -2 -8 -16 -25 -31 -38 -16 -13
-42 -52 -59 -87 -49 -104 -90 -165 -96 -144 -3 9 -9 25 -12 35 -11 35 -3 378
12 452 1 8 3 21 3 28 1 6 3 12 5 12 3 0 44 -55 93 -122z m1586 -178 c1 -136
-2 -211 -9 -224 -10 -17 -15 -12 -47 43 -20 34 -48 86 -61 116 -14 29 -39 64
-56 77 -18 13 -29 29 -27 38 2 8 44 69 93 134 l89 120 8 -50 c5 -27 9 -141 10
-254z m-1718 280 c-3 -5 -7 -138 -9 -295 -2 -157 -6 -288 -9 -292 -13 -13 -29
90 -29 187 0 215 12 373 29 392 17 19 28 24 18 8z m1770 -40 c3 -14 8 -117 11
-230 6 -200 -3 -320 -26 -320 -14 0 -17 21 -9 74 6 49 4 248 -5 439 -3 76 -2
87 10 75 8 -8 16 -25 19 -38z m-1841 -322 c-1 -194 -4 -283 -12 -286 -41 -13
-45 417 -6 551 15 50 19 -8 18 -265z m1910 187 c23 -137 17 -437 -11 -474 -1
-2 -9 1 -17 8 -10 8 -12 21 -7 44 4 18 7 141 6 275 -2 140 1 240 6 235 5 -5
15 -45 23 -88z m-1974 -87 c-3 -45 -5 -158 -5 -250 0 -134 -3 -169 -14 -173
-8 -3 -15 -4 -17 -3 -1 2 -7 39 -12 83 -14 111 -12 270 4 324 17 63 37 110 43
106 4 -2 4 -41 1 -87z m2031 45 c11 -27 23 -68 27 -93 13 -94 3 -318 -16 -371
-18 -48 -27 10 -29 191 -1 102 -4 215 -6 253 -2 37 -3 67 0 67 2 0 13 -21 24
-47z m-1482 -320 c55 -229 120 -399 249 -656 100 -200 130 -251 153 -263 16
-8 29 -19 29 -23 0 -12 -159 -234 -174 -243 -11 -8 -76 -11 -76 -4 0 2 11 23
24 47 32 58 46 113 51 202 3 59 0 82 -20 131 -13 32 -21 64 -19 70 3 7 -2 19
-11 26 -8 7 -15 21 -15 31 0 11 -4 19 -9 19 -10 0 -32 35 -52 83 -6 15 -15 27
-20 27 -5 0 -9 11 -9 24 0 13 -7 27 -16 30 -8 3 -12 11 -9 17 4 5 -1 19 -10
29 -9 10 -14 23 -11 29 4 6 -2 16 -12 22 -12 7 -17 19 -15 30 3 11 -1 21 -10
25 -8 3 -13 13 -10 23 2 10 -2 24 -10 32 -7 8 -12 20 -9 27 2 7 -1 19 -7 26
-6 7 -9 20 -6 28 4 9 0 22 -9 30 -9 9 -11 20 -6 29 6 8 4 19 -4 29 -7 8 -14
22 -15 30 -1 15 -6 45 -17 110 -4 19 -11 41 -16 48 -8 9 -4 12 15 12 14 0 29
5 32 10 14 22 22 6 44 -87z m1002 71 c9 9 76 12 94 5 15 -6 11 -8 -20 -9 -22
-1 -48 -2 -57 -1 -20 2 -40 -31 -32 -52 3 -8 0 -18 -6 -22 -6 -4 -8 -16 -5
-26 4 -11 1 -26 -5 -34 -7 -8 -10 -20 -7 -27 2 -7 -2 -21 -11 -30 -11 -14 -12
-21 -3 -32 9 -11 8 -15 -5 -20 -11 -4 -15 -14 -12 -29 3 -13 -1 -28 -8 -35 -8
-7 -11 -18 -8 -26 3 -8 1 -17 -5 -21 -6 -3 -11 -17 -11 -31 0 -13 -4 -24 -10
-24 -5 0 -10 -9 -10 -21 0 -11 -7 -27 -16 -36 -8 -9 -13 -21 -10 -28 3 -8 -2
-16 -11 -19 -10 -4 -14 -15 -11 -30 4 -18 0 -26 -15 -30 -14 -3 -18 -11 -14
-25 3 -12 -1 -22 -9 -25 -8 -3 -14 -14 -14 -25 0 -11 -9 -25 -20 -31 -11 -6
-17 -17 -14 -24 3 -8 -4 -19 -16 -26 -14 -7 -19 -17 -15 -29 3 -12 0 -21 -10
-24 -8 -4 -14 -17 -14 -29 1 -13 -8 -43 -19 -68 -14 -29 -22 -65 -22 -100 0
-73 25 -184 50 -227 28 -47 25 -55 -17 -51 -36 3 -42 10 -126 128 l-89 124 29
14 c16 7 37 28 47 45 21 37 206 405 229 457 38 84 102 293 147 477 l10 42 34
-14 c18 -8 35 -13 37 -11z m-1123 7 c7 -1 11 -5 8 -10 -4 -5 -14 -8 -24 -6 -9
2 -28 4 -42 5 -23 1 -23 2 -5 9 11 5 27 7 35 5 8 -1 21 -3 28 -3z m-73 -191
c-3 -5 -12 -10 -18 -10 -7 0 -6 4 3 10 19 12 23 12 15 0z m-20 -60 c3 -5 1
-10 -4 -10 -6 0 -11 5 -11 10 0 6 2 10 4 10 3 0 8 -4 11 -10z m55 -5 c-7 -9
-15 -13 -17 -11 -7 7 7 26 19 26 6 0 6 -6 -2 -15z m45 5 c3 -5 2 -10 -4 -10
-5 0 -13 5 -16 10 -3 6 -2 10 4 10 5 0 13 -4 16 -10z m1165 6 c0 -2 -7 -6 -15
-10 -8 -3 -15 -1 -15 4 0 6 7 10 15 10 8 0 15 -2 15 -4z m35 -7 c11 -17 -1
-21 -15 -4 -8 9 -8 15 -2 15 6 0 14 -5 17 -11z m55 1 c0 -5 -4 -10 -10 -10 -5
0 -10 5 -10 10 0 6 5 10 10 10 6 0 10 -4 10 -10z m-1370 -65 c-7 -8 -10 -24
-7 -34 3 -12 -1 -22 -10 -25 -10 -4 -14 -15 -11 -31 3 -15 0 -26 -10 -30 -9
-3 -13 -14 -10 -30 3 -14 0 -26 -8 -29 -8 -3 -14 -13 -14 -21 0 -9 -7 -23 -16
-32 -8 -9 -13 -22 -10 -29 3 -7 1 -16 -3 -19 -13 -7 -52 -85 -44 -85 4 0 -3
-7 -15 -16 -13 -9 -21 -22 -18 -30 3 -9 -2 -14 -14 -14 -11 0 -20 -5 -20 -10
0 -6 -11 -20 -25 -32 -14 -12 -23 -28 -20 -36 3 -9 0 -12 -9 -9 -15 6 -40 -16
-30 -26 3 -3 -3 -3 -15 0 -14 3 -23 0 -27 -11 -3 -9 -17 -16 -30 -16 -13 0
-24 -5 -24 -11 0 -13 -80 -2 -132 18 -48 19 -81 82 -74 142 7 56 20 77 57 90
42 15 55 14 95 -5 41 -20 64 -77 45 -113 -13 -24 -57 -45 -77 -37 -8 3 -11 0
-7 -10 7 -20 50 -29 78 -16 55 25 68 115 25 174 -24 33 -25 42 -5 34 9 -3 23
2 33 12 9 9 25 16 35 14 9 -2 20 4 23 12 3 9 15 16 25 16 11 0 22 6 25 14 3 8
16 17 30 20 13 4 24 13 24 21 0 8 9 15 20 15 11 0 20 7 20 15 0 9 11 20 25 25
14 5 25 16 25 24 0 8 9 18 20 21 11 3 20 14 20 23 0 10 9 23 20 30 11 7 20 21
20 32 0 12 7 20 16 20 13 0 14 -3 4 -15z m59 -6 c-16 -10 -23 -4 -14 10 3 6
11 8 17 5 6 -4 5 -9 -3 -15z m61 0 c0 -6 -4 -7 -10 -4 -5 3 -10 11 -10 16 0 6
5 7 10 4 6 -3 10 -11 10 -16z m1205 12 c3 -5 1 -12 -4 -15 -5 -3 -11 1 -15 9
-6 16 9 21 19 6z m65 -15 c0 -16 7 -27 21 -31 11 -4 18 -9 15 -12 -8 -8 14
-44 23 -38 5 2 11 -5 14 -16 3 -11 14 -23 25 -26 11 -3 22 -13 25 -24 3 -11
14 -19 25 -19 11 0 22 -9 25 -20 3 -12 14 -20 26 -20 12 0 21 -6 21 -15 0 -13
12 -17 37 -14 3 0 10 -6 15 -15 5 -9 17 -16 27 -16 10 0 24 -7 31 -15 7 -9 21
-13 31 -10 11 4 19 2 19 -4 0 -6 -4 -11 -10 -11 -15 0 -40 -68 -40 -107 0 -62
81 -118 118 -81 17 17 15 27 -6 21 -10 -2 -30 6 -46 18 -25 20 -28 27 -23 63
7 47 32 72 83 82 70 13 116 -33 117 -115 1 -62 -36 -116 -91 -130 -66 -18
-110 -22 -117 -11 -3 5 -14 10 -25 10 -10 0 -20 7 -24 15 -3 8 -15 15 -26 15
-11 0 -20 4 -20 9 0 5 -9 13 -20 16 -11 3 -20 12 -20 20 0 8 -9 16 -20 20 -11
3 -19 9 -19 13 4 22 -3 32 -22 32 -11 0 -18 4 -14 9 3 5 -3 17 -12 27 -9 9
-18 24 -20 33 -1 8 -7 17 -12 19 -6 2 -11 12 -11 22 0 9 -7 23 -15 30 -8 7
-15 21 -15 31 0 10 -4 21 -10 24 -5 3 -10 15 -10 26 0 11 -7 22 -15 25 -10 4
-13 13 -10 24 3 10 -1 25 -10 33 -8 9 -13 22 -10 30 3 7 -1 19 -9 26 -8 7 -12
19 -10 26 3 7 1 23 -6 34 -9 17 -8 21 5 21 9 0 15 -9 15 -24z m-120 10 c0 -11
-19 -15 -25 -6 -3 5 1 10 9 10 9 0 16 -2 16 -4z m-1213 -76 c-1 -22 -6 -40
-11 -40 -5 0 -6 -13 -3 -30 4 -16 2 -32 -4 -36 -6 -3 -9 -15 -6 -25 3 -10 -2
-24 -10 -30 -8 -7 -12 -21 -10 -30 3 -10 -1 -23 -8 -29 -8 -6 -11 -18 -8 -27
4 -9 -1 -19 -11 -25 -13 -7 -16 -17 -11 -35 3 -13 2 -22 -3 -19 -14 8 -26 -7
-54 -65 -54 -113 -60 -198 -18 -277 41 -78 89 -109 180 -119 62 -6 144 36 184
95 25 35 30 52 29 97 -1 101 -56 159 -152 160 -68 0 -93 -16 -121 -79 -23 -49
-16 -93 18 -128 43 -42 91 -41 133 3 38 41 37 58 -1 26 -25 -22 -35 -24 -62
-16 -48 13 -60 43 -36 93 22 49 82 54 126 10 29 -29 33 -38 27 -66 -13 -65
-27 -87 -69 -108 -51 -24 -89 -25 -135 -2 -47 23 -71 59 -80 118 -10 72 5 117
58 173 75 78 169 98 256 54 60 -31 104 -75 131 -129 22 -45 27 -69 28 -137 0
-70 -4 -90 -27 -139 -26 -54 -32 -59 -112 -98 -82 -40 -142 -95 -132 -123 2
-7 -2 -29 -9 -51 -26 -72 -11 -159 37 -227 44 -62 131 -81 187 -40 18 12 32
28 32 34 -1 7 -28 39 -60 71 -51 51 -60 65 -60 95 0 54 20 84 65 99 81 27 148
-8 181 -95 13 -33 15 -63 11 -131 -10 -154 -58 -266 -152 -354 -47 -43 -167
-129 -173 -123 -2 1 31 38 73 81 75 77 122 134 111 134 -3 0 -36 -20 -73 -43
-85 -55 -121 -67 -192 -66 l-56 0 53 20 c70 27 95 65 89 132 -6 73 -39 102
-115 102 -65 0 -124 -25 -140 -59 -5 -12 -8 -39 -7 -60 l3 -40 -19 25 c-52 68
-26 197 59 291 39 44 38 44 -35 17 -26 -10 -60 -62 -93 -142 -16 -37 -26 -53
-32 -45 -34 54 52 211 156 283 24 17 28 25 22 48 -11 44 -72 104 -123 121 -51
17 -129 21 -137 7 -3 -5 -17 -11 -31 -13 -20 -4 -25 -2 -21 11 34 121 32 286
-2 346 -26 42 -26 46 -9 39 8 -3 20 2 27 11 7 8 17 15 22 15 13 0 74 62 70 72
-1 4 5 8 13 8 17 0 38 34 27 45 -4 3 -2 6 3 5 24 -5 35 1 35 19 0 10 7 21 15
25 8 3 15 14 15 24 0 11 7 25 15 32 8 7 15 21 15 30 0 10 4 20 9 22 5 2 11 12
13 23 1 11 9 26 16 34 8 8 11 22 9 32 -3 10 2 20 10 23 10 4 14 15 11 31 -3
15 0 26 9 29 8 4 13 16 11 28 -3 22 9 47 24 48 3 0 5 -18 5 -40z m72 2 c1
-115 4 -152 13 -152 6 0 6 -6 -2 -15 -7 -8 -9 -22 -5 -32 4 -10 8 -30 9 -46 1
-21 -3 -27 -20 -27 -12 0 -36 -5 -53 -11 -24 -9 -35 -9 -44 0 -8 8 -7 11 6 11
17 0 21 9 18 43 -1 9 3 17 8 17 6 0 11 13 11 29 0 17 5 33 11 37 6 3 8 17 5
29 -3 13 -1 27 5 30 6 4 8 18 5 30 -3 13 -1 27 5 30 6 4 8 17 5 30 -3 12 -3
25 1 28 11 12 22 -3 22 -31z m1134 1 c-3 -7 -2 -21 2 -30 5 -10 7 -28 6 -40
-1 -13 3 -23 9 -23 7 0 8 -6 1 -18 -6 -12 -5 -23 5 -36 7 -10 11 -23 8 -27 -3
-5 1 -19 8 -31 7 -13 11 -30 9 -37 -1 -8 5 -21 15 -28 27 -20 12 -24 -47 -11
-53 11 -54 12 -53 45 1 19 5 37 8 40 3 3 1 14 -4 24 -7 11 -7 20 0 24 5 3 8
29 6 58 -2 28 0 59 5 69 6 11 5 19 -1 23 -8 5 -7 11 1 21 14 17 31 0 22 -23z
m71 17 c8 0 11 -10 8 -30 -3 -23 0 -30 12 -30 13 0 15 -4 6 -19 -7 -15 -6 -23
5 -35 8 -8 15 -24 15 -36 0 -11 6 -23 14 -26 8 -3 13 -11 10 -19 -3 -7 2 -19
10 -28 9 -9 16 -24 16 -35 0 -11 7 -22 15 -26 8 -3 12 -12 9 -20 -3 -9 3 -19
16 -26 12 -6 19 -14 16 -17 -8 -8 14 -44 23 -38 5 3 12 -6 15 -20 4 -14 13
-25 21 -25 7 0 17 -9 20 -20 3 -11 12 -20 20 -20 7 0 15 -10 18 -21 4 -16 11
-20 26 -16 13 3 21 0 21 -8 0 -15 27 -28 41 -19 15 9 10 -13 -5 -26 -39 -32
-50 -184 -23 -311 15 -71 15 -71 -38 -50 -87 36 -214 -18 -259 -109 -18 -36
-10 -54 34 -79 25 -14 55 -46 83 -89 54 -80 73 -136 59 -172 -9 -24 -10 -24
-17 -5 -14 40 -64 140 -78 157 -14 18 -76 48 -97 48 -7 0 2 -12 19 -26 17 -14
45 -55 63 -91 38 -79 43 -154 12 -200 l-19 -28 -3 45 c-4 51 -13 65 -56 87
-78 40 -173 19 -199 -44 -30 -76 9 -151 93 -178 l45 -15 -70 3 c-77 3 -122 20
-198 75 -26 19 -50 32 -53 29 -5 -5 33 -52 91 -113 17 -17 48 -51 70 -74 l40
-43 -75 50 c-198 133 -269 259 -271 483 -1 135 66 213 170 195 35 -6 79 -34
82 -53 12 -73 8 -85 -58 -153 l-64 -66 31 -27 c17 -14 39 -27 48 -27 100 -9
166 48 193 168 10 43 9 59 -5 102 -9 28 -16 54 -15 58 7 44 -40 91 -138 139
-66 31 -76 40 -100 87 -34 69 -42 162 -18 243 29 100 138 187 235 188 25 0 52
-2 60 -5 42 -12 106 -59 134 -97 28 -40 31 -51 31 -116 0 -63 -3 -77 -27 -107
-25 -34 -79 -59 -124 -59 -33 0 -104 42 -117 69 -24 49 -21 94 9 124 15 15 32
27 38 28 6 0 19 2 28 4 23 4 57 -22 69 -52 29 -78 -66 -121 -118 -54 -11 14
-12 14 -13 0 0 -8 13 -28 29 -43 70 -67 175 -6 161 94 -5 35 -34 81 -65 100
-79 49 -184 3 -215 -94 -46 -145 112 -282 268 -230 113 38 170 161 136 292
-17 67 -67 158 -84 154 -9 -2 -10 5 -6 23 5 18 2 27 -9 31 -8 4 -15 17 -15 29
0 13 -5 27 -11 30 -6 4 -8 13 -5 21 3 7 0 19 -7 26 -7 7 -14 24 -15 38 -2 31
-8 72 -12 85 -1 6 -1 20 -1 32 1 11 -3 24 -9 28 -5 3 -7 11 -3 18 5 8 8 8 11
-1 2 -7 9 -12 16 -12z m-1144 6 c0 -3 -4 -8 -10 -11 -5 -3 -10 -1 -10 4 0 6 5
11 10 11 6 0 10 -2 10 -4z m1010 0 c0 -3 -4 -8 -10 -11 -5 -3 -10 -1 -10 4 0
6 5 11 10 11 6 0 10 -2 10 -4z m-1000 -75 c0 -10 7 -24 15 -31 8 -7 12 -17 9
-22 -3 -5 2 -18 11 -28 9 -10 14 -23 11 -29 -4 -6 2 -16 12 -22 11 -7 17 -20
15 -29 -2 -9 3 -22 11 -29 9 -8 16 -22 16 -32 0 -10 8 -22 17 -28 10 -5 15
-12 12 -16 -4 -3 -22 3 -41 14 -28 17 -55 26 -89 30 -3 1 -4 12 -1 26 2 15 0
25 -7 25 -8 0 -9 6 -2 18 5 10 6 24 1 31 -4 7 -6 37 -4 67 2 29 -1 56 -6 59
-6 4 -8 11 -4 16 8 14 24 1 24 -20z m986 2 c-6 -15 -9 -15 -16 -3 -6 9 -5 17
3 22 16 10 21 2 13 -19z m-4 -35 c3 -7 3 -31 1 -53 -3 -22 -5 -61 -6 -87 -2
-35 -6 -48 -17 -48 -8 0 -39 -11 -67 -25 -29 -13 -55 -20 -58 -16 -2 5 4 11
15 14 11 3 20 13 20 24 0 10 7 27 15 37 8 10 12 23 9 28 -3 5 2 15 11 22 10 7
16 19 13 26 -2 8 4 22 14 32 10 10 16 24 12 29 -4 6 0 15 7 20 19 12 26 11 31
-3z m1568 -892 c0 -3 -4 -8 -10 -11 -5 -3 -10 -1 -10 4 0 6 5 11 10 11 6 0 10
-2 10 -4z m-4110 -62 c0 -8 -5 -12 -10 -9 -6 4 -8 11 -5 16 9 14 15 11 15 -7z
m4105 7 c3 -5 1 -12 -5 -16 -5 -3 -10 1 -10 9 0 18 6 21 15 7z m-4032 -22
c110 -86 447 -178 677 -185 58 -1 109 -3 114 -3 19 -2 -17 -30 -65 -51 -75
-32 -171 -47 -284 -44 -150 3 -201 11 -246 39 -73 47 -120 41 -134 -17 -5 -20
-1 -32 17 -50 20 -20 23 -33 24 -109 0 -47 4 -91 8 -97 4 -7 4 -12 -1 -12 -4
0 -7 -24 -7 -52 2 -56 -18 -91 -61 -108 -18 -8 -18 -9 5 -9 21 -1 25 -6 27
-34 1 -17 11 -50 22 -71 11 -21 18 -43 15 -47 -3 -5 -1 -9 5 -9 6 0 14 12 17
28 4 15 13 34 21 43 8 10 15 33 16 53 2 31 5 36 27 37 15 0 19 3 10 6 -8 3
-26 16 -40 29 -25 23 -26 26 -25 166 0 121 3 143 15 141 8 -1 47 -8 85 -17 39
-9 80 -16 92 -16 16 0 20 -5 16 -19 -3 -10 0 -22 6 -25 7 -4 5 -13 -5 -25 -12
-14 -29 -17 -81 -16 -48 1 -62 -1 -52 -9 11 -9 14 -53 14 -207 0 -219 -2 -227
-75 -277 -44 -31 -52 -46 -16 -32 23 8 24 7 28 -36 3 -41 2 -44 -22 -45 -68
-2 -160 -23 -209 -49 l-36 -18 0 170 c0 149 -2 174 -17 194 -23 29 -23 59 0
76 50 35 57 118 15 170 -16 18 -33 38 -39 43 -18 16 -24 55 -9 55 14 0 28 27
20 40 -3 4 2 10 10 14 8 3 15 16 15 30 0 14 5 28 10 31 6 3 10 17 10 31 0 13
5 24 11 24 7 0 9 10 7 25 -3 14 1 30 8 36 10 8 11 16 4 29 -7 13 -5 21 5 30
11 9 12 17 5 30 -7 13 -7 21 1 26 6 3 9 17 6 30 -2 12 0 28 4 35 4 7 3 21 -2
31 -13 24 2 23 34 -3z m3976 0 c-7 -15 -8 -24 0 -32 7 -7 7 -16 -1 -30 -5 -11
-6 -22 -1 -26 5 -3 10 -17 11 -31 4 -58 9 -81 19 -91 7 -7 9 -18 6 -25 -3 -8
-2 -22 2 -31 4 -10 9 -26 10 -36 1 -11 7 -22 14 -26 6 -4 9 -14 6 -23 -3 -8 1
-21 10 -28 8 -7 15 -21 15 -32 0 -10 7 -21 16 -25 8 -3 13 -11 10 -18 -2 -7 2
-21 9 -32 21 -27 18 -49 -3 -23 l-17 22 -34 -42 c-47 -59 -47 -122 -1 -168 35
-36 38 -65 9 -85 -17 -12 -20 -25 -19 -68 1 -30 1 -108 1 -175 l-1 -121 -47
23 c-27 13 -66 26 -88 29 -22 4 -49 8 -60 10 -11 2 -31 4 -45 4 -22 1 -25 5
-25 42 l0 41 37 -4 c21 -2 38 -2 38 -1 0 2 -17 10 -37 19 -21 8 -52 33 -69 54
-30 37 -31 42 -30 132 l1 93 28 3 c23 3 27 0 27 -23 0 -14 8 -40 17 -58 9 -18
18 -38 19 -46 4 -22 24 -38 26 -21 0 8 2 20 2 25 1 6 10 22 20 37 10 15 18 43
19 61 1 30 4 33 26 30 23 -3 24 -2 6 6 -11 5 -30 20 -43 33 -21 24 -23 34 -24
170 -2 144 -2 146 25 177 27 33 27 51 -1 84 -21 24 -41 22 -104 -12 -83 -45
-283 -61 -421 -35 -71 14 -179 60 -184 79 -2 6 36 10 100 11 108 0 134 4 292
35 142 29 273 74 357 125 84 49 93 52 77 23z m-4055 -44 c-6 -16 -24 -21 -24
-7 0 11 11 22 21 22 5 0 6 -7 3 -15z m4117 2 c-1 -12 -15 -9 -19 4 -3 6 1 10
8 8 6 -3 11 -8 11 -12z m-4134 -64 c-15 -16 -17 -16 -17 -1 0 9 6 18 13 21 20
7 22 -2 4 -20z m4146 -12 c-3 -10 2 -25 9 -32 8 -7 12 -23 10 -36 -3 -16 0
-23 12 -23 12 0 15 -6 10 -25 -4 -17 -1 -27 9 -31 8 -3 13 -13 10 -23 -2 -9 2
-23 10 -30 8 -6 13 -20 10 -30 -3 -13 2 -21 17 -26 13 -4 19 -12 16 -21 -3 -7
3 -19 12 -26 9 -7 18 -20 20 -28 2 -8 10 -19 18 -23 8 -4 14 -14 14 -22 0 -7
9 -17 20 -20 11 -3 20 -13 20 -21 0 -8 8 -17 18 -21 9 -4 34 -24 54 -46 20
-21 42 -36 47 -32 6 3 11 -1 11 -10 0 -8 8 -19 18 -22 9 -4 23 -15 31 -26 7
-10 20 -16 27 -13 8 3 17 -1 20 -9 4 -8 14 -15 24 -15 10 0 20 -7 24 -15 3 -8
16 -15 30 -15 13 0 27 -7 30 -16 4 -10 12 -14 23 -10 33 13 29 -17 -9 -74 -53
-79 -66 -147 -45 -220 10 -35 28 -67 47 -85 28 -27 38 -30 94 -29 69 0 107 20
123 64 11 33 1 107 -19 126 -19 19 -98 32 -98 15 0 -6 3 -11 8 -12 66 -7 88
-40 61 -92 -16 -30 -28 -37 -71 -37 -54 0 -89 33 -95 93 -8 65 9 100 61 126
72 36 102 29 244 -51 70 -40 143 -77 162 -84 107 -37 -23 -176 -274 -295 -148
-69 -287 -108 -478 -134 -24 -3 -59 -8 -78 -10 -86 -12 -230 -15 -230 -5 0 6
10 31 22 56 25 53 58 77 180 130 104 44 154 83 179 138 24 52 24 84 0 120 -40
60 -96 79 -150 52 -36 -19 -50 -52 -39 -93 10 -37 25 -50 41 -34 7 7 6 16 -6
29 -21 23 -14 45 18 62 33 17 67 6 88 -29 38 -64 -37 -133 -149 -137 -35 -2
-66 1 -69 5 -7 13 -7 445 1 532 5 53 3 78 -5 83 -16 10 -13 26 5 26 10 0 14
-6 10 -15 -3 -8 4 -21 17 -30 12 -8 18 -15 14 -15 -4 0 -3 -9 3 -20 6 -11 18
-20 26 -20 8 0 13 -4 10 -8 -3 -5 6 -19 19 -30 14 -12 25 -26 25 -32 0 -5 7
-10 15 -10 9 0 20 -11 25 -25 5 -14 16 -25 24 -25 7 0 16 -9 19 -20 3 -12 14
-20 26 -20 12 0 20 -5 19 -11 -2 -6 6 -16 17 -22 11 -7 26 -20 33 -30 8 -10
19 -16 25 -14 6 2 19 -5 28 -16 21 -26 52 -16 47 15 -2 15 -11 24 -25 26 -13
2 -23 10 -23 18 0 7 -11 16 -25 20 -14 3 -25 12 -25 20 0 8 -9 14 -20 14 -11
0 -20 7 -20 15 0 16 -34 38 -44 27 -4 -3 -4 1 -1 10 7 18 -27 43 -40 30 -3 -4
-6 -2 -5 3 5 22 -1 34 -20 40 -11 3 -19 9 -19 13 3 22 -3 32 -21 32 -13 0 -17
5 -14 14 3 8 -3 19 -15 26 -11 6 -20 14 -20 18 3 20 -3 32 -16 32 -8 0 -15 9
-15 20 0 11 -7 23 -15 26 -9 4 -15 11 -14 18 3 25 -2 36 -15 36 -9 0 -12 7 -9
19 2 10 -3 26 -12 35 -10 9 -15 20 -11 23 3 4 -1 14 -10 24 -9 10 -14 25 -11
33 3 8 0 20 -8 26 -8 6 -11 18 -8 26 3 8 0 21 -7 29 -7 8 -10 22 -6 30 3 8 -1
20 -8 27 -7 7 -11 20 -8 30 2 10 -1 24 -7 31 -14 17 -2 30 15 17 6 -6 10 -19
7 -29z m-4151 -43 c-6 -8 -10 -23 -8 -33 2 -11 -1 -27 -5 -35 -8 -16 -22 -68
-23 -85 -1 -5 -7 -15 -15 -21 -8 -6 -12 -18 -9 -26 4 -8 -2 -20 -13 -26 -11
-7 -16 -18 -12 -27 3 -9 -2 -22 -12 -29 -11 -8 -16 -20 -12 -29 3 -9 0 -18 -9
-21 -8 -3 -14 -12 -14 -20 0 -9 -9 -20 -21 -27 -13 -7 -19 -17 -16 -29 3 -12
-2 -20 -14 -23 -11 -3 -19 -12 -19 -21 0 -9 -7 -16 -15 -16 -9 0 -19 -8 -22
-17 -4 -10 -15 -24 -25 -31 -10 -7 -18 -20 -18 -28 0 -8 -5 -13 -12 -12 -7 2
-17 -7 -23 -19 -5 -13 -16 -23 -23 -23 -7 0 -17 -10 -22 -22 -5 -13 -9 -19 -9
-15 -2 14 -41 -14 -41 -29 0 -8 -4 -12 -10 -9 -5 3 -17 -3 -27 -15 -10 -11
-25 -20 -34 -20 -23 0 -33 -30 -16 -48 12 -11 19 -11 36 -3 11 7 21 16 21 22
0 6 4 8 9 5 5 -3 21 6 35 19 15 14 31 25 37 25 5 0 9 6 9 14 0 8 11 17 25 20
14 4 25 13 25 21 0 7 9 17 20 20 11 3 20 13 20 22 0 8 9 17 20 20 11 3 20 13
20 23 0 10 9 20 20 23 11 3 20 12 20 20 0 9 9 19 20 22 11 3 20 13 20 21 0 8
9 23 20 34 12 12 18 25 15 30 -4 6 1 10 10 10 14 0 14 -3 2 -27 -20 -40 -12
-101 15 -132 13 -14 15 -19 6 -12 -17 13 -18 0 -18 -227 l0 -240 -22 -6 c-63
-16 -140 4 -185 49 -39 39 -41 63 -8 99 29 31 53 33 88 6 25 -20 25 -21 9 -50
-20 -35 -10 -50 18 -25 31 28 26 78 -11 109 -35 29 -67 33 -109 11 -89 -46
-93 -152 -9 -232 19 -18 81 -54 139 -80 58 -27 115 -54 127 -61 22 -12 53 -62
68 -110 l7 -24 -104 7 c-56 3 -114 8 -128 10 -14 3 -47 7 -75 9 -80 8 -243 44
-330 73 -145 47 -353 162 -417 229 -22 24 -58 90 -58 108 0 2 17 10 38 16 20
7 96 46 167 86 94 53 141 74 165 74 40 0 108 -29 128 -53 19 -22 22 -96 6
-135 -32 -78 -164 -65 -164 17 0 34 15 49 60 57 42 9 17 26 -31 20 -62 -7 -94
-85 -63 -151 20 -44 37 -53 106 -60 68 -6 112 18 138 78 40 91 28 179 -35 261
-36 48 -38 82 -4 71 12 -4 21 -1 25 9 3 9 16 16 29 16 13 0 25 7 29 15 3 8 15
15 26 15 11 0 20 7 20 15 0 8 6 12 14 9 8 -3 23 4 33 15 9 12 23 21 30 21 6 0
14 9 18 20 3 11 9 19 13 19 22 -3 32 3 32 20 0 14 5 18 20 14 15 -4 20 0 20
16 0 14 6 21 20 21 11 0 20 5 20 10 0 6 11 20 25 32 14 12 25 28 25 35 0 7 7
13 15 13 8 0 15 9 15 19 0 10 7 21 15 25 8 3 15 14 15 25 0 10 7 21 15 25 8 3
15 16 15 30 0 13 7 27 16 30 10 4 13 13 9 25 -3 10 1 24 10 31 8 7 13 21 10
30 -3 11 1 20 10 24 9 3 15 14 14 23 -3 28 12 56 24 44 7 -7 7 -14 -1 -23z
m887 -119 c-20 -39 -102 -120 -139 -139 -53 -27 -138 -47 -195 -46 l-50 1 0
37 c0 21 0 38 0 38 0 1 18 3 40 6 61 9 212 61 285 98 36 18 66 32 68 30 2 -1
-2 -13 -9 -25z m2426 -4 c33 -15 80 -36 105 -47 54 -23 200 -59 211 -52 5 3 8
-5 8 -18 -1 -13 -1 -27 1 -33 8 -33 0 -38 -62 -32 -126 12 -200 45 -269 120
-37 41 -79 104 -63 95 5 -3 36 -18 69 -33z m-2303 -125 c20 -80 43 -112 143
-197 43 -37 41 -40 -12 -18 -19 8 -37 15 -39 15 -1 0 6 -21 18 -47 17 -39 20
-59 15 -122 -11 -138 -82 -251 -252 -397 -69 -60 -82 -59 -136 4 l-35 40 1
301 c0 165 2 301 5 303 3 2 41 21 84 42 74 36 184 130 187 160 1 6 3 0 6 -14
2 -14 9 -45 15 -70z m2264 -40 c24 -15 69 -38 99 -51 30 -13 55 -31 56 -39 0
-8 2 -143 3 -299 1 -270 0 -286 -19 -310 -65 -84 -79 -88 -140 -38 -27 23 -81
73 -119 111 -131 132 -188 328 -127 432 20 33 20 36 4 29 -73 -30 -75 -24 -9
37 76 69 99 108 117 195 l12 60 40 -49 c21 -27 59 -62 83 -78z m628 -51 c1
-137 0 -141 -24 -163 -14 -13 -34 -25 -45 -28 -20 -5 -21 0 -21 96 0 76 3 104
14 112 11 8 -2 10 -49 9 -71 -2 -109 16 -88 41 6 8 9 21 5 29 -3 8 -2 15 2 15
24 2 95 14 142 25 30 7 57 11 59 9 2 -2 5 -67 5 -145z m-1856 78 l24 -52 26
53 c14 28 29 52 32 51 3 0 22 -36 43 -79 31 -63 58 -98 129 -170 l91 -90 -39
-1 c-22 0 -49 -2 -62 -5 -34 -6 -182 -66 -182 -73 0 -4 17 -7 38 -7 136 -1
336 -35 407 -70 70 -34 165 -108 266 -206 113 -109 129 -141 108 -206 -18 -53
-104 -83 -160 -56 -43 21 -69 103 -41 127 34 29 104 -1 126 -55 11 -24 14 -27
20 -13 13 34 5 64 -24 94 -38 38 -85 48 -132 28 -40 -17 -60 -59 -54 -112 2
-16 4 -36 5 -43 2 -21 84 -104 118 -118 76 -32 199 -1 255 66 l33 39 93 -74
c51 -41 127 -91 169 -112 l77 -38 -109 -5 c-188 -9 -341 20 -490 90 -62 29
-103 59 -173 126 -84 78 -97 87 -139 92 l-47 5 35 -31 34 -32 -32 6 c-49 10
-101 -13 -134 -58 -16 -23 -29 -45 -29 -49 0 -5 21 5 47 21 57 36 104 39 174
9 55 -24 77 -55 99 -145 23 -90 -5 -155 -118 -272 -43 -44 -70 -63 -110 -76
-54 -18 -140 -22 -196 -10 -53 12 -12 -23 51 -43 65 -20 130 -10 228 35 118
56 235 209 235 309 0 25 3 43 8 41 4 -2 24 -10 45 -18 46 -17 46 -21 -17 -161
-121 -270 -249 -360 -516 -363 -41 -1 -78 -5 -82 -11 -6 -8 -70 117 -91 178
-9 25 -24 21 -31 -9 -14 -54 -77 -174 -88 -168 -6 4 -50 8 -97 9 -100 3 -194
25 -263 62 -90 49 -181 167 -245 317 -14 33 -32 76 -40 94 l-13 33 46 19 c25
11 47 20 49 20 2 0 3 -21 3 -46 0 -58 41 -140 104 -209 76 -84 230 -153 315
-142 40 5 108 31 116 44 3 5 -43 8 -101 8 -124 1 -160 14 -228 87 -93 99 -135
174 -127 228 8 54 34 128 53 152 23 29 96 58 148 58 33 0 98 -31 114 -54 4 -6
9 -8 12 -5 3 3 -7 26 -23 51 -32 50 -78 73 -131 65 -39 -7 -38 8 3 33 l32 20
-38 0 c-50 0 -67 -10 -124 -72 -115 -122 -236 -181 -478 -234 -24 -5 -307 -5
-312 0 -2 2 27 18 64 37 37 18 114 68 170 111 l102 78 17 -30 c43 -72 193
-112 270 -72 100 51 145 156 102 240 -13 25 -77 47 -113 38 -58 -15 -101 -79
-83 -126 l9 -25 13 30 c35 80 136 98 136 25 0 -93 -85 -133 -175 -81 -37 21
-50 56 -41 107 6 32 25 56 104 134 230 226 314 262 667 285 28 2 52 4 55 4 3
1 -31 17 -75 37 -50 22 -104 37 -142 41 -35 3 -63 6 -63 7 0 1 42 44 93 96 70
72 100 113 126 168 19 39 37 72 40 72 3 0 17 -24 29 -53z m-2098 -74 c0 -5 -4
-14 -9 -21 -7 -11 -9 -11 -14 1 -3 8 -3 18 0 21 9 8 23 7 23 -1z m496 -45 c7
-5 10 -40 8 -98 -2 -63 0 -90 8 -90 9 0 9 -3 0 -12 -15 -15 -16 -48 -2 -48 20
0 9 -23 -25 -56 -36 -34 -43 -46 -24 -41 7 1 14 -14 16 -33 3 -19 9 -42 15
-50 6 -8 -10 6 -35 32 -43 46 -45 50 -40 95 7 73 9 153 3 153 -7 0 -4 85 3 97
4 7 4 14 -1 17 -6 3 -8 50 -3 63 2 4 66 -20 77 -29z m3330 -144 c0 -97 2 -178
7 -181 11 -6 -11 -43 -51 -83 -22 -23 -30 -28 -23 -13 6 12 11 36 11 53 0 25
4 31 15 26 24 -9 18 1 -22 38 -35 32 -37 35 -24 60 11 20 11 28 2 40 -7 8 -8
17 -3 20 10 6 8 88 -2 105 -4 6 -3 11 2 11 11 0 12 33 1 40 -17 11 39 52 82
59 4 1 6 -78 5 -175z m-3095 139 c0 -5 2 -138 2 -296 l2 -289 -40 -42 c-22
-23 -51 -48 -65 -54 -24 -11 -24 -12 8 -9 l33 2 3 -58 3 -58 -81 -39 c-45 -21
-107 -46 -139 -56 -55 -17 -59 -17 -110 1 -78 28 -217 131 -217 161 0 14 141
80 199 93 36 8 41 7 41 -9 0 -11 5 -22 10 -25 21 -13 9 -21 -25 -17 -29 3 -36
0 -43 -19 -19 -51 18 -106 75 -111 42 -3 108 29 122 58 21 48 5 131 -34 174
-12 13 -12 24 -4 54 6 22 9 50 6 62 -6 35 30 33 39 -2 7 -27 22 -21 28 12 2
10 11 33 20 49 9 17 16 43 16 59 0 21 4 27 15 22 24 -9 18 1 -21 37 -30 28
-35 37 -27 53 6 10 10 70 9 131 l-1 113 43 -4 c24 -2 58 0 75 4 44 11 57 11
58 3z m2912 -7 c59 1 63 -1 47 -26 -5 -9 -5 -19 1 -27 7 -8 7 -18 0 -31 -7
-13 -7 -22 1 -30 8 -8 8 -15 0 -24 -7 -8 -7 -19 -2 -28 5 -8 5 -21 0 -30 -6
-11 -4 -25 7 -40 16 -22 15 -24 -20 -57 -40 -36 -46 -46 -22 -37 12 5 15 -2
15 -28 0 -18 7 -44 16 -56 8 -12 18 -35 20 -49 8 -44 24 -46 27 -4 1 13 8 21
19 21 14 0 18 -8 18 -34 0 -19 4 -46 10 -61 8 -21 6 -30 -10 -47 -23 -25 -48
-95 -44 -122 7 -50 16 -66 48 -85 21 -13 50 -21 78 -21 57 0 81 24 82 83 l1
42 -38 0 c-35 0 -50 16 -27 30 6 4 8 11 5 16 -6 9 7 13 38 9 23 -2 155 -56
185 -76 18 -12 20 -19 12 -33 -14 -28 -127 -110 -188 -138 -73 -34 -107 -28
-274 50 -82 38 -86 41 -77 64 5 13 7 38 5 57 -4 31 -4 32 27 28 l32 -4 -31 20
c-17 11 -44 36 -60 56 l-30 36 2 292 c0 161 2 294 3 296 0 2 16 0 34 -4 17 -4
58 -8 90 -8z m-5006 -558 c8 -6 10 -16 4 -25 -4 -9 -5 -31 -1 -49 4 -19 4 -37
-1 -40 -5 -3 -6 -13 -1 -22 14 -31 5 -72 -22 -100 -24 -26 -36 -49 -18 -39 4
3 8 -11 10 -31 1 -20 10 -47 19 -61 10 -15 18 -30 19 -36 0 -5 2 -16 2 -22 1
-7 7 -13 13 -13 5 0 8 4 4 9 -3 5 -1 12 5 16 6 4 8 11 4 16 -3 6 2 19 11 29 9
10 19 37 22 59 3 22 9 38 14 35 19 -12 7 9 -21 38 -27 26 -30 36 -26 72 2 22
-1 47 -6 54 -7 7 -7 12 -1 12 11 0 11 65 0 76 -13 13 4 24 37 24 34 0 62 -20
49 -34 -12 -12 -12 -70 1 -78 8 -6 8 -8 -1 -8 -13 0 -13 -57 0 -77 5 -7 4 -13
-1 -13 -10 0 -10 -65 1 -76 3 -4 3 -12 -1 -18 -11 -18 -12 -76 -1 -76 15 0 -9
-38 -44 -71 -18 -16 -24 -26 -14 -23 14 5 17 0 17 -29 0 -19 8 -45 18 -58 10
-13 19 -35 20 -48 2 -40 19 -44 25 -4 1 11 11 32 20 47 10 14 18 42 19 61 1
31 4 35 22 29 14 -4 7 6 -20 30 -40 35 -41 37 -39 94 1 32 5 64 9 70 3 6 2 13
-3 16 -10 6 -8 56 3 74 3 6 -2 15 -11 21 -11 6 -13 11 -5 11 9 0 12 14 8 51
l-4 52 37 -59 c73 -115 209 -240 311 -286 73 -33 307 -126 355 -141 89 -28
167 -38 310 -40 137 -2 140 -2 140 -24 0 -12 4 -25 8 -29 3 -4 4 -12 0 -17
-10 -16 -10 -58 -1 -63 5 -3 5 -10 2 -16 -9 -14 -8 -223 0 -237 9 -15 -24 -61
-77 -106 -40 -34 -40 -36 -14 -31 26 5 27 3 25 -38 -1 -40 34 -126 52 -126 4
0 5 -13 2 -30 -3 -19 0 -30 7 -30 7 0 9 -4 6 -10 -3 -5 1 -10 9 -10 15 0 28
29 30 67 1 12 9 30 18 40 21 23 37 84 31 115 -4 23 -2 24 29 20 l33 -5 -45 34
c-53 41 -94 97 -82 113 5 6 8 90 7 186 -1 96 0 180 2 186 2 6 33 12 70 13 55
2 65 0 60 -13 -3 -8 -2 -18 2 -21 5 -3 7 -14 4 -25 -3 -13 0 -20 8 -20 9 -1 8
-4 -4 -11 -9 -6 -14 -15 -11 -21 4 -6 8 -69 8 -139 l1 -129 -27 -6 c-16 -3
-28 -10 -28 -14 0 -5 7 -7 15 -4 8 4 22 3 30 0 12 -4 14 -10 5 -25 -5 -11 -7
-22 -2 -25 9 -6 8 -48 -2 -64 -4 -7 -3 -12 1 -12 5 0 9 -18 9 -40 1 -35 -5
-48 -43 -90 -25 -28 -51 -50 -59 -50 -8 0 -14 -4 -14 -9 0 -5 11 -8 24 -5 22
4 24 0 29 -51 3 -34 14 -67 29 -87 12 -18 21 -42 20 -54 -2 -12 2 -25 8 -29 5
-3 8 -11 5 -16 -4 -5 1 -9 9 -9 17 0 31 35 27 68 -1 12 1 22 6 22 18 0 45 64
47 111 l1 49 40 -5 c28 -4 46 -14 60 -33 11 -15 38 -47 61 -72 l42 -45 -19
-24 c-26 -32 -24 -73 4 -99 17 -16 22 -30 19 -52 -3 -25 0 -30 21 -35 35 -9
49 2 45 34 -1 17 6 36 20 51 28 30 29 81 2 105 -21 19 -20 19 23 64 24 25 54
60 65 77 16 23 31 33 55 36 l34 4 0 -49 c0 -37 7 -58 31 -92 17 -24 27 -47 22
-50 -6 -4 -4 -18 5 -36 9 -16 20 -27 26 -24 5 4 7 11 4 16 -4 5 -1 9 6 9 7 0
9 10 6 26 -2 14 1 31 8 38 25 25 45 76 45 116 0 38 2 40 29 40 16 0 31 -6 34
-12 7 -20 38 23 33 46 -3 10 7 37 22 59 21 31 27 53 27 93 0 49 1 51 22 43 13
-5 25 -4 28 1 3 5 -3 11 -13 14 -10 3 -36 24 -57 46 l-39 40 0 190 c1 105 3
192 5 194 2 3 36 6 74 7 39 1 94 10 123 20 l53 18 29 -46 c91 -143 100 -400
22 -613 -76 -210 -356 -457 -597 -529 -89 -27 -159 -31 -260 -15 -142 21 -225
44 -378 105 -258 103 -390 192 -604 409 -102 103 -102 115 -6 169 32 18 79 45
105 61 87 54 159 47 226 -19 28 -29 32 -39 32 -86 0 -46 -4 -56 -26 -74 -38
-30 -99 -28 -119 2 -30 47 0 106 55 108 l35 1 -32 10 c-63 20 -124 -32 -126
-107 -1 -41 23 -71 77 -95 48 -22 88 -18 137 15 77 50 95 141 46 234 l-26 51
32 -16 c18 -9 40 -23 50 -32 11 -10 17 -11 17 -3 0 23 -95 107 -150 133 -96
45 -174 61 -280 55 -52 -3 -104 -8 -115 -12 -17 -5 -24 1 -38 34 -18 39 -18
40 2 60 25 25 27 68 5 99 -20 29 -30 28 -49 -8 -20 -39 -19 -79 3 -97 9 -8 11
-12 5 -8 -9 4 -13 -2 -14 -17 -4 -96 -1 -89 -51 -109 l-48 -19 0 105 c0 80 -3
106 -14 112 -21 12 -20 22 6 42 28 23 29 81 0 111 l-19 21 -18 -27 c-23 -35
-27 -81 -9 -99 16 -15 19 -29 5 -21 -5 4 -9 -51 -9 -130 0 -74 -3 -139 -8
-143 -5 -5 -28 -15 -51 -24 l-43 -17 -1 38 c0 20 -1 60 -1 87 0 31 -6 57 -16
68 -14 16 -13 19 8 42 27 28 29 65 6 100 -22 33 -31 32 -50 -9 -21 -44 -20
-65 2 -89 9 -11 12 -17 5 -13 -9 5 -13 -22 -15 -111 l-3 -118 -76 2 c-106 2
-146 23 -205 108 -30 43 -35 74 -18 111 21 45 89 72 129 51 69 -36 69 -113 0
-143 l-30 -13 35 0 c39 0 61 13 78 46 54 100 -65 198 -179 148 -65 -28 -91
-63 -91 -122 l0 -35 -24 23 c-33 31 -30 11 11 -66 69 -132 127 -191 243 -253
87 -45 147 -67 210 -76 24 -3 50 -12 58 -21 9 -8 11 -15 6 -15 -13 0 -11 -203
2 -212 8 -5 8 -8 0 -8 -6 0 -11 -26 -11 -66 -1 -55 1 -65 15 -62 15 3 17 20
18 131 0 85 -3 127 -10 127 -7 0 -7 3 1 8 6 4 10 26 9 50 -1 24 1 45 5 48 4 2
36 -30 70 -73 l63 -77 1 -210 c1 -209 1 -211 -24 -249 -23 -36 -70 -77 -87
-77 -4 0 0 8 8 18 22 24 37 81 34 120 -3 31 -2 33 25 28 16 -2 31 0 35 5 3 5
-2 9 -11 9 -20 0 -105 78 -116 107 -11 30 -22 29 -40 -3 -17 -33 -108 -116
-119 -109 -5 3 -11 1 -14 -4 -4 -5 10 -7 33 -5 38 5 40 4 35 -21 -6 -35 13
-101 39 -137 14 -18 20 -40 19 -59 -2 -16 1 -29 7 -29 6 0 11 -7 11 -15 0 -8
5 -15 10 -15 6 0 10 7 10 15 0 8 5 15 11 15 7 0 10 12 7 29 -4 27 -1 30 29 33
32 4 33 3 28 -23 -9 -39 11 -103 43 -140 l27 -32 -60 7 c-71 8 -199 39 -275
67 -101 37 -438 227 -675 381 -88 57 -253 187 -254 199 -1 11 159 98 160 88 1
-5 3 -13 4 -19 1 -5 3 -16 4 -22 0 -7 10 2 21 20 42 69 81 102 145 121 137 43
198 35 270 -35 48 -46 67 -89 68 -151 0 -61 -19 -96 -71 -126 -57 -33 -144
-26 -189 16 -46 41 -21 145 40 173 l32 15 -50 -5 c-34 -3 -54 -10 -66 -25 -38
-47 -31 -144 14 -197 30 -34 104 -53 168 -43 113 18 167 73 176 179 5 56 2 68
-31 136 -26 52 -48 82 -74 99 -23 16 -30 25 -20 25 34 0 130 -42 176 -78 75
-57 16 11 -73 84 -55 45 -187 123 -251 149 -35 14 -40 20 -36 40 2 13 10 30
18 36 8 6 14 19 14 28 0 9 7 24 14 34 8 10 12 27 9 37 -4 14 0 20 12 20 13 0
16 6 13 25 -3 16 -1 25 7 25 16 0 27 38 13 46 -5 3 -2 11 8 18 11 8 15 21 12
34 -3 12 -1 23 5 25 5 1 12 19 14 37 7 66 9 75 20 95 8 13 8 26 2 37 -7 13 -6
18 2 18 7 0 9 10 6 30 -4 17 -2 30 3 30 13 0 13 37 0 45 -8 5 -7 11 1 21 6 8
9 23 6 35 -3 12 -1 30 6 40 9 14 9 21 -1 31 -9 9 -9 15 0 26 9 10 9 18 0 33
-7 10 -8 19 -3 19 12 0 11 101 -1 116 -5 7 -3 14 7 17 12 5 13 12 5 32 -6 15
-7 31 -4 37 7 11 73 2 91 -14z m7066 10 c2 -7 0 -21 -5 -31 -6 -12 -6 -23 2
-32 7 -8 7 -15 1 -19 -10 -7 -9 -25 2 -43 4 -7 3 -22 -4 -35 -9 -18 -9 -24 5
-34 10 -7 13 -15 8 -18 -12 -7 -12 -95 0 -102 4 -3 4 -14 -2 -24 -11 -20 -4
-50 12 -50 5 0 3 -7 -6 -15 -15 -16 -12 -45 5 -45 6 0 6 -7 0 -18 -6 -11 -6
-24 -1 -32 5 -8 7 -24 4 -36 -3 -11 1 -26 9 -33 8 -6 13 -21 10 -31 -3 -11 0
-26 6 -34 8 -10 9 -16 1 -21 -7 -4 -6 -13 2 -28 7 -12 14 -33 15 -46 1 -13 7
-27 13 -31 6 -4 8 -14 5 -22 -3 -8 1 -22 9 -31 9 -9 16 -24 16 -35 0 -11 7
-22 15 -26 8 -3 12 -12 9 -21 -4 -9 1 -24 11 -35 9 -10 14 -23 11 -29 -8 -13
23 -43 36 -35 7 5 8 2 2 -7 -5 -8 -7 -21 -6 -29 2 -10 -21 -27 -65 -49 -38
-18 -95 -49 -127 -69 -68 -41 -206 -158 -206 -175 0 -6 15 3 33 19 36 34 142
84 178 84 23 0 22 -1 -7 -19 -17 -10 -41 -33 -53 -50 -104 -145 -76 -311 60
-356 149 -50 262 13 261 144 -1 77 -34 112 -105 110 -31 -1 -31 -1 -7 -10 36
-14 63 -55 66 -103 4 -53 -15 -80 -68 -98 -120 -41 -219 28 -214 148 3 60 24
101 71 142 76 67 113 72 252 36 71 -18 104 -43 144 -104 18 -28 34 -48 36 -47
1 2 4 15 5 30 l2 26 66 -36 c110 -61 106 -56 63 -92 -21 -18 -51 -45 -68 -61
-68 -63 -584 -378 -740 -451 -117 -54 -240 -90 -369 -106 l-49 -6 26 34 c30
41 46 93 40 135 -5 29 -4 30 31 26 31 -4 34 -7 26 -22 -7 -14 -6 -23 5 -34 9
-8 15 -19 15 -23 -1 -4 3 -9 8 -11 10 -3 25 38 27 75 0 12 9 31 19 42 23 26
47 108 40 137 -6 23 -4 24 30 20 21 -3 34 -1 31 5 -4 5 -12 9 -18 9 -17 0 -93
74 -111 108 -11 21 -12 32 -4 40 8 8 8 15 -2 27 -8 10 -9 15 -1 15 6 0 11 7
11 15 0 8 -5 15 -11 15 -8 0 -8 5 1 15 10 12 10 18 0 30 -7 8 -9 15 -4 15 5 0
9 27 10 60 0 33 -4 60 -9 60 -5 0 -5 5 1 13 10 12 9 64 -2 74 -12 13 27 34 80
44 107 20 259 95 323 161 39 39 92 118 126 186 31 62 31 72 1 43 l-23 -22 -5
46 c-7 55 -28 81 -87 107 -58 27 -123 18 -163 -22 -54 -54 -34 -150 35 -168
46 -13 53 -4 15 22 -79 52 -15 164 76 133 96 -32 103 -105 20 -197 -53 -58
-85 -72 -176 -75 l-78 -3 0 121 0 121 -30 -29 c-29 -28 -30 -32 -30 -116 l0
-88 -42 15 c-23 8 -46 19 -53 24 -8 6 -11 63 -9 187 3 177 -4 223 -32 223 -19
0 -44 -40 -44 -70 0 -29 41 -75 56 -63 5 5 -2 -4 -14 -19 -22 -24 -24 -36 -24
-128 0 -71 -4 -99 -12 -96 -6 3 -28 10 -48 17 l-38 12 0 59 c0 45 -3 57 -12
52 -7 -4 -5 2 6 14 21 24 17 74 -9 108 -14 19 -14 19 -36 -3 -30 -29 -30 -80
-1 -104 26 -20 27 -32 7 -49 -8 -7 -15 -21 -15 -32 0 -17 -4 -19 -27 -14 -16
4 -69 10 -118 13 -173 10 -336 -56 -417 -170 -22 -30 -17 -30 32 3 14 9 33 20
43 23 17 6 17 5 -1 -18 -10 -13 -25 -45 -32 -70 -7 -25 -16 -45 -19 -45 -8 0
-51 30 -66 45 -50 50 -50 51 -49 256 0 108 4 200 7 206 4 6 66 10 149 11 79 1
154 4 168 7 14 3 37 7 53 10 94 18 430 153 514 208 56 36 199 179 208 208 4
10 10 19 15 19 4 0 10 10 13 22 5 18 8 19 22 8 12 -10 13 -16 4 -26 -9 -11 -8
-18 1 -29 7 -8 8 -15 4 -15 -10 0 -10 -62 0 -78 3 -6 0 -12 -6 -15 -10 -3 -10
-7 0 -19 7 -9 9 -18 5 -21 -10 -6 -9 -59 1 -75 9 -15 -8 -46 -39 -70 -24 -19
-36 -40 -15 -27 6 3 10 -4 10 -17 0 -13 9 -40 19 -61 10 -20 22 -49 25 -63 7
-25 8 -25 20 -8 8 10 12 23 9 29 -2 7 3 17 11 24 8 7 18 32 22 57 3 24 10 41
15 38 19 -12 7 7 -26 42 -37 38 -41 49 -25 59 7 4 7 13 0 26 -8 13 -7 19 0 19
7 0 7 6 0 21 -13 24 -11 28 17 33 16 4 20 -1 21 -24 0 -16 9 -43 18 -62 19
-35 21 -39 23 -63 0 -8 6 -15 12 -15 5 0 8 4 4 9 -3 5 -1 12 5 16 6 4 8 11 5
16 -4 5 3 21 14 35 12 15 21 41 21 59 0 29 3 33 23 28 21 -4 21 -4 3 8 -11 6
-29 23 -41 37 -19 22 -21 35 -19 126 1 56 3 104 3 108 1 7 31 14 68 17 12 0
23 -5 26 -11z m-123 -28 c-11 -8 -8 -74 4 -82 8 -5 7 -8 -1 -8 -9 0 -11 -14
-8 -49 4 -46 2 -51 -31 -80 -42 -38 -48 -38 -41 -5 3 17 0 28 -10 31 -13 5
-13 7 1 15 12 7 14 13 6 29 -8 13 -8 19 0 19 7 0 8 6 0 19 -7 14 -7 22 0 26 7
5 8 11 1 19 -6 7 -6 17 -1 26 5 8 5 19 -1 26 -12 14 7 31 41 36 25 3 54 -13
40 -22z m-5132 -93 c24 -28 24 -64 1 -86 -27 -25 -56 -27 -81 -4 -26 23 -22
39 11 53 16 6 31 20 34 31 6 22 20 25 35 6z m3389 -10 c-1 -6 13 -18 31 -26
36 -16 39 -26 15 -53 -21 -24 -58 -23 -83 2 -24 24 -25 48 -5 77 15 22 46 22
42 0z m-2993 -18 c-3 -5 -10 -7 -15 -3 -5 3 -7 10 -3 15 3 5 10 7 15 3 5 -3 7
-10 3 -15z m2576 6 c0 -9 -6 -12 -16 -8 -13 5 -13 7 -2 14 17 11 18 11 18 -6z
m-148 -445 c37 0 67 -3 67 -7 -1 -5 -1 -10 0 -13 6 -15 3 -138 -2 -147 -4 -7
-3 -15 3 -18 8 -5 8 -11 1 -19 -6 -7 -8 -15 -5 -19 3 -3 7 -38 8 -77 1 -52 -3
-78 -15 -97 -20 -31 -77 -83 -90 -83 -5 0 -9 -4 -9 -9 0 -4 11 -6 25 -3 22 4
24 1 23 -30 -1 -43 18 -101 41 -122 11 -10 17 -25 14 -37 -3 -10 0 -25 6 -32
6 -8 8 -17 4 -20 -3 -4 1 -7 10 -7 10 0 17 4 17 9 0 5 13 11 29 13 28 4 30 2
29 -26 -2 -58 2 -73 27 -111 14 -20 24 -42 22 -49 -6 -16 22 -68 34 -61 5 4 7
11 4 16 -4 5 -1 9 6 9 7 0 9 10 6 30 -4 17 -2 30 3 30 17 0 50 78 50 120 0 39
1 40 34 40 28 0 38 -6 60 -40 14 -22 42 -56 61 -76 34 -35 44 -54 27 -54 -12
0 -30 -42 -26 -63 3 -24 32 -67 45 -67 7 0 7 -6 0 -17 -12 -23 4 -53 28 -53
25 0 44 25 36 49 -4 13 2 27 20 45 30 30 32 65 6 97 -18 23 -18 23 37 88 30
36 61 71 68 77 8 6 12 13 9 15 -2 3 5 36 16 73 22 73 28 155 15 222 l-7 41 50
-11 c56 -11 52 -3 53 -105 0 -27 -2 -54 -6 -60 -4 -6 0 -14 8 -17 14 -5 14 -9
-2 -36 -9 -17 -39 -51 -67 -75 -49 -45 -50 -46 -18 -39 28 7 31 5 26 -13 -8
-31 4 -81 29 -121 12 -19 21 -42 20 -51 -2 -8 4 -28 12 -43 l14 -27 16 32 c12
24 13 35 5 45 -8 9 -8 14 -1 14 22 0 54 70 56 120 1 50 1 50 31 46 l30 -4 -25
16 c-53 36 -116 113 -103 126 12 12 11 166 -1 166 -6 0 -3 5 7 11 10 6 27 9
38 6 10 -3 19 -1 19 3 0 5 -12 11 -27 14 l-28 6 1 178 c1 97 2 182 3 188 1 13
131 19 132 7 0 -4 1 -100 2 -212 l2 -204 -35 -38 c-19 -21 -48 -45 -65 -54
l-30 -17 36 5 c36 5 36 5 32 -26 -4 -39 20 -108 48 -133 14 -13 16 -20 7 -25
-16 -10 9 -59 30 -59 9 0 12 3 9 7 -4 3 -2 12 4 19 6 8 9 21 5 30 -3 9 5 30
21 50 21 28 27 47 27 89 l1 54 30 -5 c36 -6 38 -8 41 -40 2 -14 10 -37 19 -50
19 -30 82 -72 115 -77 70 -11 150 48 150 110 0 72 -83 135 -137 104 -16 -9
-14 -10 13 -11 39 0 67 -30 66 -71 -1 -44 -18 -59 -66 -59 -39 0 -84 25 -87
48 0 4 -2 16 -5 27 -8 39 9 80 48 117 44 41 94 54 147 39 35 -11 151 -76 209
-118 54 -40 46 -57 -87 -185 -161 -156 -263 -230 -406 -298 -158 -75 -371
-152 -460 -166 -16 -2 -53 -8 -80 -12 -69 -11 -168 -5 -240 15 -175 48 -403
212 -527 381 -86 116 -129 257 -134 439 -3 125 11 204 52 286 43 86 45 87 111
66 33 -11 85 -19 125 -19z m-2928 -35 c8 -18 24 -38 35 -44 18 -10 19 -14 8
-34 -50 -90 -229 -265 -245 -240 -6 9 -8 250 -3 335 1 14 14 16 96 16 l95 0
14 -33z m379 22 c2 -7 4 -58 3 -115 -2 -84 1 -105 14 -112 13 -8 13 -9 -2 -10
-20 0 -24 -15 -8 -25 7 -4 8 -11 1 -18 -5 -7 -8 -24 -6 -39 3 -26 2 -27 -18
-16 -36 19 -147 129 -194 192 l-44 59 25 21 c14 12 30 33 35 47 9 26 12 27
100 27 60 1 91 -3 94 -11z m148 -6 c0 -9 1 -86 1 -171 0 -85 5 -160 10 -167 7
-8 -7 -29 -46 -69 -47 -49 -57 -55 -71 -44 -12 10 -13 16 -4 26 9 11 8 18 -1
29 -11 13 -6 15 35 15 54 0 57 5 8 13 -43 7 -59 17 -42 27 10 7 10 12 0 23 -8
11 -9 17 -1 22 8 5 8 10 0 20 -6 7 -7 16 -2 19 9 5 8 64 -2 73 -3 4 -1 12 5
19 7 8 7 14 -1 19 -8 5 -8 10 0 20 8 10 8 15 0 20 -8 5 -8 10 0 20 8 9 8 15 0
20 -7 4 -7 12 0 25 7 13 7 21 -1 26 -22 13 24 35 68 32 31 -1 43 -6 44 -17z
m2612 6 c2 -6 3 -57 2 -112 -1 -55 3 -106 8 -112 6 -8 6 -13 0 -13 -13 0 -11
-63 2 -72 6 -5 5 -8 -4 -8 -9 0 -11 -8 -7 -24 5 -22 2 -25 -34 -31 -58 -10
-56 -21 3 -16 46 3 50 1 38 -12 -7 -9 -10 -20 -7 -26 7 -11 -3 -41 -14 -41
-11 0 -75 61 -94 91 -9 14 -13 29 -9 33 5 4 9 80 9 169 1 89 2 167 3 173 1 16
98 17 104 1z m241 -24 c8 -18 24 -38 35 -45 19 -11 19 -13 -9 -53 -37 -53
-167 -188 -205 -211 -16 -11 -26 -14 -22 -7 4 6 3 15 -3 18 -8 5 -8 11 0 20 7
8 7 16 2 19 -6 3 -7 20 -2 40 4 19 4 40 -1 47 -4 7 -3 19 2 25 7 8 6 14 -1 19
-8 5 -8 11 1 21 9 11 8 15 -6 20 -15 6 -15 8 -2 15 11 6 13 18 7 47 -4 23 -2
42 4 49 7 7 44 11 98 10 l86 -1 16 -33z m387 13 c3 -87 0 -328 -5 -333 -15
-15 -166 127 -228 215 l-30 43 26 24 c14 13 28 35 32 49 6 24 7 25 105 24 94
0 99 -1 100 -22z m-3878 -393 c-17 -81 -3 -203 33 -290 9 -21 -20 -15 -55 11
-41 31 -95 103 -82 110 5 4 9 45 8 93 l-2 86 45 12 c25 7 49 13 53 14 4 0 4
-16 0 -36z m470 20 c25 -4 35 -9 29 -17 -10 -13 -9 -57 2 -74 4 -7 3 -12 -3
-12 -11 0 -10 -65 1 -76 17 -16 -82 -134 -112 -134 -13 0 -13 -2 11 87 21 76
22 178 2 228 -5 15 -3 17 13 11 10 -4 36 -10 57 -13z m2914 3 c-11 -28 -21
-91 -20 -127 1 -35 23 -132 39 -173 6 -16 4 -17 -17 -11 -23 7 -68 50 -94 90
-10 14 -11 32 -6 62 5 23 6 45 3 48 -4 3 -6 27 -7 53 l0 47 45 11 c62 16 63
16 57 0z m-2802 -106 c-10 -33 5 -98 30 -128 13 -16 22 -39 22 -54 -2 -26 -3
-27 -27 -11 -27 18 -54 46 -78 81 -11 17 -12 26 -4 34 7 7 8 17 2 29 -7 12 -6
20 0 24 8 5 7 12 -2 23 -7 10 -9 14 -5 11 5 -4 20 -3 35 1 15 5 28 9 30 9 2 1
0 -8 -3 -19z m2670 -32 c0 -20 3 -40 7 -43 12 -12 -18 -59 -64 -100 l-42 -39
-7 25 c-4 16 0 31 11 44 30 35 42 66 43 112 0 41 2 44 26 41 23 -3 26 -8 26
-40z m1699 -134 c0 -17 -4 -35 -7 -41 -4 -7 -4 -14 1 -17 9 -5 8 -59 -2 -75
-4 -5 -3 -12 2 -15 7 -4 8 -42 2 -71 -1 -5 -1 -12 0 -15 6 -15 5 -62 -2 -66
-4 -3 -2 -16 4 -29 10 -21 6 -30 -28 -71 -21 -26 -51 -54 -66 -63 -35 -20 -36
-29 0 -25 26 3 27 2 27 -49 0 -29 8 -67 17 -84 23 -45 8 -41 -40 11 -48 52
-68 86 -55 95 12 8 11 211 -1 211 -4 0 -3 7 4 15 10 12 10 18 0 30 -9 10 -9
15 -1 15 6 0 11 7 11 15 0 8 -5 15 -11 15 -8 0 -7 5 2 16 10 13 10 17 0 24
-10 6 -10 9 -1 15 6 4 9 14 6 22 -6 14 28 64 91 133 13 14 23 29 23 33 0 5 5
7 12 5 6 -2 12 -18 12 -34z m-3461 -93 c25 -1 -160 -182 -238 -233 -62 -40
-150 -72 -187 -66 -19 3 -15 10 40 79 33 41 80 92 104 113 72 62 199 119 248
110 8 -1 23 -3 33 -3z m987 -42 c67 -36 116 -80 199 -179 60 -71 62 -75 38
-78 -35 -4 -143 34 -192 68 -23 16 -88 73 -145 127 -94 89 -101 98 -79 103 38
10 120 -9 179 -41z m-3380 -122 l64 -68 1 -162 c0 -89 3 -167 8 -174 8 -13
-62 -106 -93 -123 -18 -10 -19 -8 -11 13 5 12 8 41 6 62 l-3 40 47 -2 c42 -2
43 -2 16 7 -35 11 -78 46 -111 91 -19 26 -22 40 -19 85 3 38 1 54 -8 54 -8 0
-9 3 -1 8 6 4 10 32 10 62 0 30 -4 58 -10 62 -8 6 -8 8 0 8 6 0 11 17 11 40 0
23 -5 40 -11 40 -6 0 -5 4 3 9 9 6 11 17 6 32 -8 28 -17 35 95 -84z m5684 50
c0 -30 -4 -59 -8 -65 -3 -6 -3 -13 2 -16 5 -3 7 -24 5 -47 -2 -27 1 -46 9 -51
10 -6 10 -8 1 -8 -9 0 -12 -15 -10 -46 2 -25 -1 -48 -5 -50 -4 -3 -2 -13 4
-24 10 -15 7 -25 -17 -57 -36 -47 -69 -74 -109 -91 -31 -12 -31 -13 14 -9 l46
4 -4 -33 c-2 -19 1 -47 6 -64 10 -27 9 -29 -7 -21 -24 13 -91 88 -92 104 -1 6
0 17 1 22 7 32 4 165 -4 165 -6 0 -5 5 2 12 7 7 8 17 1 30 -5 10 -6 18 -2 18
4 0 8 26 9 58 l0 57 79 83 c44 45 79 82 80 82 0 0 0 -24 -1 -53z m-5491 -226
c59 -49 76 -68 72 -83 -4 -10 -1 -18 6 -18 8 0 8 -4 2 -12 -11 -14 -11 -58 0
-75 4 -6 1 -13 -5 -16 -11 -3 -11 -9 0 -26 7 -12 8 -21 2 -21 -5 0 -10 -7 -10
-15 0 -8 6 -15 13 -15 9 0 9 -2 1 -8 -13 -7 -14 -66 -2 -77 10 -11 -41 -83
-64 -91 -25 -8 -34 2 -41 46 l-5 35 42 -3 41 -3 -42 21 c-58 30 -116 105 -108
142 5 20 3 28 -7 28 -9 0 -10 3 -2 8 15 9 15 122 0 122 -7 0 -7 3 1 8 7 4 12
26 12 47 -2 66 1 91 9 80 4 -6 42 -39 85 -74z m5299 67 c-8 -8 -8 -15 -1 -24
7 -8 7 -14 -1 -19 -8 -5 -8 -10 0 -20 8 -9 8 -15 0 -20 -7 -4 -7 -12 0 -25 7
-13 7 -21 0 -25 -8 -5 -8 -11 0 -20 8 -9 8 -15 0 -20 -6 -4 -7 -12 0 -24 6
-12 5 -22 -3 -30 -8 -8 -8 -14 -2 -19 9 -6 10 -19 6 -70 -2 -23 -93 -112 -125
-122 -29 -9 -28 -10 14 -6 l45 3 -3 -38 c-7 -68 -60 -60 -99 15 -8 16 -11 31
-6 35 10 7 10 52 0 68 -4 6 -3 15 3 18 7 5 8 11 1 19 -6 7 -6 17 -1 26 5 9 5
19 -1 26 -6 7 -6 15 -1 18 12 7 2 76 -11 76 -6 0 -3 6 8 13 12 10 14 16 7 21
-11 7 152 154 173 155 5 1 4 -4 -3 -11z m-3373 -127 c0 -3 -31 -31 -69 -61
-162 -128 -366 -218 -483 -211 -10 1 27 31 86 70 91 61 124 90 212 185 18 19
31 21 138 22 64 1 117 -2 116 -5z m1615 -28 c11 -15 40 -46 63 -69 47 -45 217
-164 234 -164 6 0 8 -4 5 -8 -14 -23 -171 15 -284 70 -62 30 -196 119 -251
166 l-44 39 129 -3 c128 -3 128 -3 148 -31z m-1455 -73 c-21 -110 -19 -216 6
-335 9 -44 19 -83 21 -86 2 -4 -11 -9 -29 -12 -41 -6 -333 -1 -368 7 -66 15
-208 59 -282 88 l-82 32 45 7 c112 17 408 153 520 238 36 27 92 74 125 104 33
30 61 54 61 53 1 0 -6 -44 -17 -96z m1078 39 c26 -25 79 -69 117 -98 117 -89
453 -240 539 -242 32 0 32 -1 -13 -20 -81 -36 -250 -89 -328 -103 -71 -13
-295 -18 -361 -8 l-28 4 19 86 c25 119 28 219 8 335 -9 54 -13 96 -9 95 4 -2
29 -23 56 -49z m-4707 -38 c14 -12 46 -36 72 -53 51 -33 57 -46 52 -107 -2
-27 1 -41 9 -41 8 0 9 -3 1 -8 -14 -10 -15 -155 0 -164 8 -6 8 -8 -1 -8 -14 0
-13 -72 1 -82 8 -5 8 -8 0 -8 -8 0 -11 -28 -9 -87 2 -98 -5 -116 -78 -185 -56
-54 -65 -51 -63 27 l1 65 40 -5 40 -6 -39 23 c-22 13 -57 44 -79 70 -35 42
-38 49 -26 64 11 14 11 18 1 22 -10 3 -10 7 -1 18 9 11 9 18 1 26 -9 9 -8 15
1 26 9 12 9 16 -1 20 -10 3 -10 7 -1 18 9 11 9 18 -1 29 -7 8 -8 15 -3 15 11
0 11 59 0 78 -5 6 -4 12 0 12 10 0 10 146 0 156 -4 4 -1 14 6 22 10 12 9 16
-1 20 -10 3 -10 7 -1 18 9 11 9 17 0 28 -9 11 -9 15 1 18 10 4 11 8 1 20 -22
26 -1 30 26 5 14 -13 37 -34 51 -46z m1745 10 c22 -14 43 -29 46 -33 3 -5 4
-38 3 -75 -2 -44 1 -70 9 -75 9 -6 9 -8 0 -8 -8 0 -11 -15 -9 -45 1 -25 0 -49
-4 -55 -3 -5 -26 -11 -50 -13 -41 -3 -47 -1 -73 31 -18 23 -25 42 -21 54 3 10
0 26 -8 35 -8 11 -8 14 -1 10 9 -6 11 16 10 84 -1 50 1 93 6 96 4 2 3 12 -3
22 -14 27 0 33 29 14 14 -9 44 -28 66 -42z m4890 29 c-3 -10 -1 -22 6 -25 8
-6 8 -10 -2 -15 -10 -7 -10 -12 -1 -23 7 -7 9 -17 5 -21 -11 -11 -12 -65 -2
-72 5 -3 6 -10 3 -16 -11 -17 -13 -68 -3 -74 11 -6 -5 -40 -34 -71 -16 -18
-27 -21 -56 -17 -61 9 -61 9 -56 64 4 44 3 50 -15 50 -20 0 -35 -15 -23 -23 9
-6 9 -64 0 -73 -11 -11 -147 18 -138 30 10 13 9 57 -2 74 -5 7 -4 12 2 12 5 0
9 17 7 37 l-2 37 66 23 c81 28 76 28 74 -4 -1 -16 -3 -28 -4 -28 -1 0 -2 -15
-3 -34 -2 -36 16 -52 36 -31 9 10 9 14 -1 17 -6 3 -9 10 -5 16 11 16 11 71 0
78 -10 7 24 40 88 83 52 35 70 37 60 6z m1729 5 c-4 -17 -2 -25 7 -25 9 0 10
-3 3 -8 -13 -9 -15 -212 -2 -212 5 0 6 -6 1 -12 -12 -19 -11 -112 1 -120 8 -5
8 -8 0 -8 -8 0 -10 -31 -9 -95 2 -84 0 -98 -20 -125 -29 -39 -76 -80 -92 -80
-7 0 -13 -4 -13 -9 0 -5 13 -7 29 -5 26 4 29 2 28 -23 -1 -15 2 -45 7 -65 9
-49 -7 -50 -61 -3 -59 50 -84 95 -79 139 3 19 1 38 -5 42 -6 4 -5 12 3 22 11
12 11 16 0 20 -10 3 -10 7 -1 18 9 11 9 18 -1 29 -9 10 -9 15 -1 15 6 0 11 7
11 15 0 8 -5 15 -11 15 -6 0 -7 5 -2 13 11 18 12 117 1 117 -5 0 -6 6 -1 13
11 17 12 60 0 75 -6 8 -6 12 2 12 6 0 11 7 11 15 0 8 -5 15 -11 15 -8 0 -8 5
1 15 9 11 9 19 2 28 -15 17 0 34 83 97 39 29 81 63 94 76 30 30 33 30 25 -1z
m-6461 -111 c56 -17 62 -25 58 -68 -1 -11 4 -23 11 -28 10 -5 10 -8 1 -8 -8 0
-11 -15 -9 -44 l2 -44 -62 -12 c-70 -13 -88 -8 -78 22 4 13 1 24 -7 29 -9 6
-10 9 -2 9 8 0 11 27 9 90 -1 61 1 86 9 81 5 -5 36 -17 68 -27z m249 -73 c0
-9 0 -26 -1 -38 -1 -13 4 -23 11 -24 7 0 -25 -11 -72 -24 -46 -13 -86 -22 -88
-20 -6 6 -9 126 -5 141 6 18 153 -15 155 -35z m4141 27 c3 -10 1 -21 -4 -24
-5 -3 -6 -10 -3 -16 10 -16 11 -69 1 -75 -4 -2 -4 -9 -1 -15 5 -7 2 -9 -7 -6
-8 3 -46 13 -86 23 -44 11 -69 23 -66 29 4 6 7 25 6 43 0 27 4 33 21 34 11 0
41 6 66 13 61 16 68 16 73 -6z m-6068 -38 c36 -22 68 -40 70 -40 3 0 22 -11
43 -23 20 -13 79 -45 129 -72 71 -37 90 -51 82 -61 -6 -7 -6 -15 -1 -18 5 -3
6 -23 2 -46 -4 -24 -3 -43 2 -46 6 -4 6 -10 -1 -17 -7 -7 -7 -14 0 -23 7 -8 7
-14 -1 -19 -8 -5 -8 -11 0 -19 39 -48 -179 -309 -302 -360 l-35 -15 1 63 1 63
40 -4 40 -4 -30 14 c-16 8 -48 33 -69 55 l-39 41 0 188 c0 125 -4 190 -11 195
-8 5 -8 8 0 8 15 0 15 163 0 172 -8 6 -8 8 1 8 7 0 42 -18 78 -40z m7905 0
c-4 -23 -3 -43 2 -46 5 -3 4 -11 -2 -19 -8 -9 -8 -15 0 -20 7 -4 7 -12 0 -25
-7 -13 -7 -21 0 -25 8 -5 8 -11 1 -19 -6 -7 -9 -15 -6 -18 8 -8 11 -108 2
-108 -4 0 -3 -8 2 -19 6 -10 7 -21 4 -25 -9 -9 -9 -67 0 -73 4 -3 3 -11 -3
-18 -8 -9 -8 -15 0 -20 7 -4 7 -12 0 -25 -7 -13 -7 -21 0 -25 6 -4 7 -12 3
-18 -4 -7 -8 -18 -10 -26 -3 -20 -54 -70 -93 -91 l-35 -19 42 3 c36 4 42 2 34
-11 -4 -8 -4 -36 1 -61 4 -25 7 -47 5 -48 -2 -2 -27 8 -57 22 -68 32 -208 173
-254 258 -33 60 -33 63 -31 179 l2 119 109 57 c60 32 147 81 194 109 47 28 88
51 91 52 4 0 3 -18 -1 -40z m-5830 10 c0 -8 -67 -45 -100 -55 -22 -7 -23 -6
-11 8 11 14 11 18 -2 23 -13 5 -14 9 -4 19 12 13 117 18 117 5z m3798 -4 c9
-5 10 -12 4 -18 -6 -6 -8 -17 -5 -24 3 -8 2 -14 -1 -14 -12 0 -104 49 -110 58
-7 11 95 10 112 -2z m-4753 -104 c-2 -15 -4 -29 -4 -32 -1 -8 -81 1 -81 9 0
10 42 47 60 53 23 8 29 0 25 -30z m5664 1 c12 -13 21 -26 20 -28 -2 -2 -22 -5
-44 -7 -40 -3 -40 -3 -43 34 -3 34 -1 36 20 31 13 -3 34 -17 47 -30z m-6249
-166 c74 -28 137 -53 139 -54 3 -2 5 -37 5 -78 0 -46 4 -75 10 -75 8 0 8 -3 0
-8 -14 -9 -14 -165 0 -174 7 -5 7 -8 -1 -8 -9 0 -11 -14 -8 -45 5 -54 -3 -56
-67 -16 -119 75 -290 297 -259 335 7 9 7 16 -1 24 -9 9 -9 12 0 12 7 0 12 7
12 15 0 8 -5 15 -11 15 -8 0 -8 5 1 15 10 12 10 18 0 30 -9 11 -10 15 -1 15 8
0 10 8 6 20 -8 26 3 43 24 35 9 -4 77 -30 151 -58z m6944 -13 c-1 -40 4 -72
10 -76 8 -5 7 -8 -1 -8 -15 0 -18 -27 -4 -32 12 -4 -27 -85 -63 -134 -84 -111
-192 -205 -253 -220 -25 -7 -27 -6 -14 9 10 13 11 20 2 31 -9 11 -9 15 1 18
10 4 10 8 1 20 -9 11 -10 17 -1 26 8 8 8 15 -1 26 -9 11 -9 15 1 19 10 4 10 7
1 18 -10 10 -10 16 0 27 9 12 9 16 -1 19 -6 3 -9 10 -5 16 11 17 11 77 1 77
-5 0 -6 6 -1 13 10 15 11 70 2 77 -18 13 25 39 121 75 58 21 123 47 145 57 22
9 45 16 50 14 6 -1 10 -34 9 -72z m-5498 -116 c-2 -24 1 -49 6 -55 6 -7 6 -13
1 -13 -11 0 -11 -100 0 -117 4 -6 1 -13 -5 -16 -11 -3 -11 -9 0 -26 7 -12 8
-21 2 -21 -5 0 -10 -7 -10 -15 0 -8 5 -15 11 -15 8 0 8 -5 -1 -15 -10 -11 -10
-18 -1 -29 9 -11 9 -15 -1 -18 -10 -4 -10 -8 1 -21 9 -11 10 -17 2 -17 -11 0
-8 -66 3 -78 3 -3 1 -12 -6 -19 -9 -11 -9 -16 1 -23 8 -4 9 -10 3 -14 -5 -3
-8 -30 -7 -61 2 -36 -1 -55 -9 -55 -6 0 -34 13 -62 29 -107 62 -294 300 -263
337 7 8 7 14 -1 19 -8 5 -7 11 1 22 10 11 10 16 0 23 -8 4 -9 10 -3 14 10 6 9
62 -1 73 -4 3 -2 12 4 20 9 10 8 17 -1 28 -9 11 -9 15 -1 15 7 0 11 6 10 13
-3 27 2 37 20 37 14 0 22 -11 30 -42 6 -24 22 -56 35 -72 19 -21 23 -33 16
-46 -7 -13 -5 -21 5 -30 8 -7 13 -16 10 -20 -3 -5 -1 -11 4 -14 15 -9 42 42
36 67 -4 16 0 29 14 41 22 20 43 75 46 116 1 26 24 36 87 39 26 1 27 -1 24
-41z m3967 32 c11 0 17 -8 17 -24 0 -35 20 -88 46 -119 13 -15 21 -34 18 -42
-4 -8 -3 -23 2 -32 4 -10 8 -22 8 -27 1 -5 6 -11 11 -13 14 -4 38 53 31 75 -4
12 0 25 9 32 20 17 44 62 48 92 3 14 12 24 25 26 25 4 23 17 26 -168 2 -120 1
-127 -26 -180 -32 -63 -162 -204 -223 -243 -45 -29 -91 -45 -81 -29 3 6 2 14
-4 17 -8 5 -8 11 0 20 8 9 8 15 0 20 -7 4 -7 12 0 25 7 13 7 21 -1 26 -8 4 -8
9 0 17 7 7 7 14 0 23 -7 8 -7 14 1 19 7 4 7 12 0 25 -7 13 -7 21 0 25 8 5 8
11 0 20 -8 9 -8 15 0 20 7 4 7 12 0 25 -7 13 -6 20 3 23 9 3 9 7 -1 19 -9 12
-10 18 -2 23 8 5 8 11 -1 21 -9 11 -9 17 0 28 9 10 9 16 1 21 -8 5 -7 11 1 22
9 11 10 16 1 22 -7 4 -8 12 -2 21 5 9 5 19 -1 26 -7 8 -6 14 1 19 8 5 8 10 0
20 -8 9 -8 15 0 20 7 4 7 12 0 26 -8 13 -7 19 0 19 7 0 8 6 1 19 -14 25 -2 34
39 27 19 -3 43 -6 53 -6z m456 -64 c-4 -20 21 -67 31 -61 6 4 8 11 5 16 -4 5
-2 9 3 9 6 0 13 11 16 24 5 21 12 24 57 25 40 0 49 -2 41 -12 -7 -8 -7 -18 -2
-27 6 -9 5 -17 -2 -21 -9 -6 -8 -11 1 -22 8 -10 9 -17 1 -22 -7 -4 -7 -12 0
-25 7 -13 7 -21 -1 -26 -8 -4 -8 -9 0 -17 7 -7 7 -15 -2 -25 -9 -12 -9 -16 0
-19 9 -3 10 -10 3 -23 -7 -13 -7 -21 0 -25 8 -5 8 -11 0 -20 -8 -10 -8 -15 0
-20 8 -5 8 -11 -1 -21 -9 -11 -9 -17 0 -28 9 -10 9 -16 1 -21 -8 -5 -8 -10 0
-20 6 -7 7 -15 3 -18 -10 -6 -9 -59 1 -75 3 -6 3 -13 -1 -15 -9 -6 -9 -59 0
-74 4 -6 1 -15 -6 -21 -55 -46 -359 279 -330 353 3 10 0 21 -8 26 -10 6 -10 9
-1 9 6 0 12 7 12 15 0 8 -6 15 -12 15 -10 0 -10 2 0 9 8 4 13 17 12 27 -4 32
-1 37 15 24 8 -7 13 -16 10 -20 -3 -5 -1 -11 5 -15 5 -3 18 11 27 31 14 28 15
38 6 41 -9 3 -1 19 22 47 30 37 39 42 65 38 17 -2 30 -9 29 -16z m-5029 -8 c0
-10 4 -18 9 -18 5 0 11 -9 14 -21 3 -12 10 -18 16 -14 6 3 9 10 6 15 -3 5 -1
11 5 15 5 3 10 15 10 26 0 15 7 19 33 19 24 0 38 -8 59 -34 16 -20 25 -41 22
-52 -8 -29 19 -75 37 -63 8 5 10 9 5 9 -5 0 -3 7 4 15 17 20 33 9 20 -15 -7
-13 -7 -21 1 -26 8 -4 8 -9 0 -17 -7 -7 -7 -14 0 -23 7 -8 7 -14 -1 -19 -6 -4
-7 -12 -1 -24 15 -27 -45 -123 -137 -222 -83 -88 -174 -150 -188 -127 -4 6 -8
143 -8 304 l-1 292 48 -1 c39 0 47 -3 47 -19z m244 -70 c-4 -6 -10 -5 -15 3
-14 22 -10 33 6 19 8 -7 12 -17 9 -22z m4620 7 c-3 -7 -12 -11 -19 -8 -11 4
-12 8 -2 18 15 16 28 10 21 -10z m-4811 -557 c-4 -18 -7 -70 -6 -115 1 -46 -2
-83 -6 -83 -12 0 -92 83 -123 128 -16 23 -24 42 -17 42 6 0 9 8 6 20 -4 18 0
20 36 21 23 1 56 5 72 9 17 4 34 8 38 9 5 0 5 -14 0 -31z m500 13 l59 -6 -29
-36 c-29 -38 -81 -79 -100 -79 -5 0 -13 21 -16 48 -4 26 -10 58 -13 71 -6 21
-5 23 17 16 13 -5 50 -11 82 -14z m4082 -2 c-10 -32 -13 -50 -14 -86 -1 -26
-5 -33 -21 -33 -20 0 -120 93 -120 111 0 5 21 9 48 10 26 1 58 5 72 9 39 12
42 11 35 -11z m487 4 c32 -3 55 -10 52 -15 -3 -5 -1 -15 6 -23 15 -18 -7 -53
-77 -122 -61 -62 -75 -66 -66 -20 9 40 9 99 -1 156 -7 40 -6 43 11 36 10 -4
44 -9 75 -12z"/>
<path d="M4810 7412 c-41 -42 -42 -92 -1 -133 42 -41 92 -40 132 2 31 33 36
66 17 102 -19 36 -37 49 -78 54 -34 5 -43 1 -70 -25z"/>
<path d="M5854 7430 c-60 -24 -72 -104 -24 -152 27 -27 36 -30 71 -25 49 6 77
30 84 71 15 78 -57 136 -131 106z"/>
<path d="M5365 4493 c-11 -44 -70 -125 -144 -196 -66 -64 -109 -90 -176 -108
-19 -5 -2 -7 50 -4 44 1 89 6 99 10 17 7 18 5 11 -21 -14 -58 -15 -108 0 -171
19 -82 36 -115 95 -184 38 -43 45 -57 35 -65 -8 -5 -17 -21 -21 -36 -4 -21 0
-33 19 -51 17 -17 21 -30 15 -40 -9 -17 14 -47 37 -47 16 0 29 35 20 50 -4 6
3 18 14 28 29 23 33 54 12 88 -17 28 -17 29 9 54 96 91 143 237 117 364 -8 35
-7 38 10 31 10 -4 56 -9 103 -11 l85 -3 -55 15 c-67 18 -109 45 -179 115 -55
56 -131 162 -131 185 0 25 -18 23 -25 -3z"/>
<path d="M8554 3539 c-25 -28 -24 -84 3 -108 20 -19 22 -19 35 -3 25 29 28 52
14 86 -18 44 -30 50 -52 25z"/>
<path d="M1582 4298 c-17 -17 -15 -38 4 -45 15 -6 15 -7 0 -19 -26 -18 -16
-48 17 -52 21 -3 27 1 27 15 0 11 -5 24 -12 31 -9 9 -9 15 0 24 17 17 15 45
-4 52 -20 8 -18 8 -32 -6z"/>
<path d="M9141 4296 c-8 -10 -9 -21 -3 -33 5 -10 7 -33 5 -50 -4 -27 -2 -33
13 -33 18 -1 18 -1 2 -11 -22 -12 -24 -47 -3 -55 13 -5 13 -8 0 -21 -11 -11
-12 -19 -5 -34 6 -10 15 -19 21 -19 6 0 3 -7 -5 -16 -20 -19 -20 -28 -1 -44
11 -9 12 -16 5 -25 -11 -14 -3 -45 11 -45 5 0 4 -9 -3 -19 -9 -15 -9 -23 2
-36 8 -9 14 -29 15 -43 0 -22 5 -27 25 -27 18 0 26 6 28 23 2 12 -3 24 -11 28
-9 3 -13 13 -9 26 3 14 -1 26 -13 34 -11 8 -14 14 -8 14 21 0 22 31 3 50 -11
11 -16 20 -11 20 17 0 20 29 5 44 -11 12 -12 20 -4 35 7 15 6 23 -4 34 -11 10
-12 17 -4 25 8 8 8 18 1 34 -7 16 -7 28 1 41 9 15 6 21 -14 37 -19 15 -21 20
-8 20 24 0 31 16 18 40 -13 23 -33 26 -49 6z"/>
<path d="M1577 4163 c-4 -3 -7 -17 -7 -30 0 -21 4 -24 28 -21 28 3 36 23 19
46 -10 13 -30 16 -40 5z"/>
<path d="M1651 4151 c-19 -12 -4 -51 19 -51 25 0 43 33 28 48 -14 14 -28 15
-47 3z"/>
<path d="M9071 4146 c-15 -18 -4 -46 18 -46 27 0 42 20 30 42 -12 21 -32 23
-48 4z"/>
<path d="M1564 4086 c-4 -9 -1 -23 6 -31 11 -13 10 -18 -6 -30 -16 -11 -17
-17 -7 -34 10 -15 9 -22 -2 -31 -19 -16 -19 -25 1 -44 13 -14 13 -16 1 -16 -8
0 -18 -7 -21 -16 -8 -22 -8 -22 15 -34 30 -16 51 3 39 36 -5 13 -6 24 -1 24
14 0 20 37 7 50 -8 9 -8 14 2 17 15 6 16 53 0 53 -6 0 -4 6 6 13 10 7 17 22
14 33 -4 24 -46 32 -54 10z"/>
<path d="M1645 4080 c-11 -18 6 -50 25 -50 25 0 43 33 28 48 -15 15 -45 16
-53 2z"/>
<path d="M9066 4074 c-7 -19 10 -44 29 -44 19 0 36 25 29 44 -3 9 -16 16 -29
16 -13 0 -26 -7 -29 -16z"/>
<path d="M1646 4004 c-4 -9 -1 -23 5 -30 8 -10 7 -17 -5 -29 -21 -21 -20 -32
2 -44 16 -9 16 -10 0 -16 -10 -4 -18 -18 -18 -31 0 -19 5 -24 25 -24 30 0 41
20 26 48 -8 16 -7 21 4 26 19 7 19 21 1 39 -12 11 -11 15 5 25 16 10 17 16 9
32 -13 24 -45 26 -54 4z"/>
<path d="M9063 4003 c-4 -10 2 -23 16 -35 13 -10 18 -18 12 -18 -21 0 -24 -30
-6 -50 11 -12 13 -20 7 -20 -7 0 -12 -11 -12 -25 0 -20 5 -25 25 -25 33 0 42
25 20 50 -11 12 -13 20 -7 20 15 0 16 32 1 47 -7 7 -8 17 -1 29 5 11 7 25 5
32 -7 18 -53 15 -60 -5z"/>
<path d="M1521 3823 c-7 -13 -5 -23 6 -35 15 -17 15 -18 -1 -18 -21 0 -32 -26
-17 -44 9 -11 7 -15 -10 -19 -31 -8 -22 -52 11 -52 21 0 25 5 25 28 1 16 7 32
14 37 9 5 11 17 7 34 -3 14 -2 26 3 26 15 0 22 32 10 46 -16 19 -36 17 -48 -3z"/>
<path d="M1631 3811 c-9 -6 -11 -18 -7 -34 3 -15 1 -29 -5 -33 -6 -3 -9 -19
-5 -35 4 -22 2 -29 -9 -29 -18 0 -20 -31 -3 -48 7 -7 17 -8 30 -1 20 11 25 49
6 49 -7 0 -2 7 10 16 26 18 28 39 5 53 -16 9 -16 10 4 11 25 0 34 18 21 43
-10 19 -25 21 -47 8z"/>
<path d="M9091 3801 c-8 -14 -7 -22 4 -31 9 -8 12 -22 8 -41 -6 -33 17 -50 42
-29 22 18 18 39 -7 50 -13 5 -18 9 -12 9 18 1 26 32 13 47 -16 20 -37 17 -48
-5z"/>
<path d="M9206 3755 c-3 -9 2 -23 12 -33 9 -9 16 -27 14 -40 -4 -28 24 -41 44
-20 17 17 9 48 -13 48 -12 0 -13 3 -4 14 6 7 9 21 5 30 -8 20 -50 21 -58 1z"/>
<path d="M9127 3675 c-19 -19 -13 -41 13 -48 26 -7 47 19 34 41 -15 23 -29 25
-47 7z"/>
<path d="M1463 3635 c-14 -11 -16 -18 -7 -31 15 -25 29 -27 47 -9 30 30 -5 65
-40 40z"/>
<path d="M9267 3638 c-23 -12 -22 -35 2 -48 15 -7 23 -6 35 5 27 28 -3 63 -37
43z"/>
<path d="M1583 3613 c-7 -2 -13 -16 -13 -29 0 -22 4 -25 27 -22 31 3 44 35 21
49 -14 10 -17 10 -35 2z"/>
<path d="M9153 3613 c-17 -6 -17 -50 0 -56 30 -12 54 24 34 51 -10 13 -14 13
-34 5z"/>
<path d="M1431 3571 c-8 -5 -11 -16 -8 -24 4 -10 -1 -18 -14 -22 -14 -5 -19
-14 -17 -28 4 -30 51 -31 57 -2 2 11 12 26 22 33 15 10 17 17 9 33 -12 21 -27
24 -49 10z"/>
<path d="M9291 3571 c-10 -7 -11 -13 -2 -30 7 -11 16 -21 22 -21 5 0 9 -6 8
-12 -3 -29 2 -38 25 -38 32 0 43 30 18 51 -11 8 -22 24 -24 35 -4 21 -26 28
-47 15z"/>
<path d="M1545 3530 c-3 -11 -4 -24 -1 -29 3 -5 -1 -12 -10 -15 -23 -9 -14
-50 13 -54 15 -2 23 3 28 18 4 12 5 24 2 27 -3 2 4 14 15 25 15 15 17 22 7 34
-17 20 -47 17 -54 -6z"/>
<path d="M9165 3533 c-4 -11 0 -23 12 -33 10 -8 18 -26 18 -40 0 -20 5 -25 25
-25 33 0 42 44 11 52 -17 4 -19 8 -10 19 9 11 8 18 -1 29 -17 20 -46 19 -55
-2z"/>
<path d="M1366 3455 c-17 -17 -12 -40 9 -49 14 -5 45 18 45 33 0 9 -22 31 -31
31 -4 0 -14 -7 -23 -15z"/>
<path d="M9362 3458 c-17 -17 -15 -36 6 -47 13 -7 23 -6 30 1 17 17 15 45 -4
52 -20 8 -18 8 -32 -6z"/>
<path d="M1486 3414 c-8 -20 11 -44 34 -44 23 0 34 28 19 46 -16 19 -45 18
-53 -2z"/>
<path d="M9232 3421 c-23 -14 -10 -46 18 -46 20 0 25 5 25 25 0 26 -20 36 -43
21z"/>
<path d="M1321 3396 c-17 -20 -3 -46 24 -46 30 0 35 9 24 38 -9 25 -31 29 -48
8z"/>
<path d="M9402 3398 c-17 -17 -15 -36 7 -47 14 -8 22 -7 31 4 26 31 -9 72 -38
43z"/>
<path d="M1461 3356 c-6 -7 -9 -20 -6 -28 4 -10 -1 -17 -14 -21 -27 -7 -28
-44 -1 -52 28 -9 43 3 37 31 -3 18 0 24 13 24 21 0 32 34 17 49 -15 15 -32 14
-46 -3z"/>
<path d="M9260 3356 c-15 -19 -6 -46 15 -46 9 0 15 -9 15 -25 0 -31 26 -43 47
-22 19 19 10 47 -15 47 -13 0 -18 7 -17 27 0 32 -25 42 -45 19z"/>
<path d="M1276 3334 c-7 -19 10 -44 29 -44 7 0 18 7 25 15 10 12 10 18 0 30
-16 20 -46 19 -54 -1z"/>
<path d="M9436 3335 c-9 -23 4 -45 27 -45 11 0 17 -3 14 -6 -9 -10 12 -44 27
-44 20 0 37 25 30 44 -3 9 -15 16 -26 16 -13 0 -18 5 -15 14 3 7 0 19 -6 25
-16 16 -44 14 -51 -4z"/>
<path d="M1234 3286 c-10 -26 4 -48 28 -44 17 2 23 10 23 28 0 18 -6 26 -23
28 -13 2 -25 -3 -28 -12z"/>
<path d="M1184 3235 c-7 -18 12 -45 32 -45 20 0 36 34 22 48 -17 17 -48 15
-54 -3z"/>
<path d="M1387 3243 c-8 -17 -1 -36 16 -47 14 -9 21 -7 32 7 7 11 11 25 8 33
-5 15 -49 20 -56 7z"/>
<path d="M9525 3240 c-9 -14 13 -50 30 -50 17 0 34 30 28 48 -5 14 -49 16 -58
2z"/>
<path d="M1137 3180 c-7 -26 19 -47 41 -33 10 5 17 16 17 24 1 32 -50 40 -58
9z"/>
<path d="M9573 3184 c-8 -21 19 -46 40 -38 9 3 17 17 17 30 0 19 -5 24 -25 24
-14 0 -28 -7 -32 -16z"/>
<path d="M3950 1556 c0 -24 -99 -125 -133 -136 -31 -9 -30 -10 11 -6 l42 4 0
-44 c0 -50 18 -99 48 -130 12 -13 17 -26 12 -35 -5 -8 -1 -28 9 -48 l18 -34
16 32 c9 18 13 39 10 47 -3 8 1 22 10 32 29 34 49 86 50 132 0 43 2 46 24 42
13 -2 23 1 23 7 0 6 -6 11 -14 11 -17 0 -106 97 -106 115 0 8 -4 17 -10 20 -5
3 -10 0 -10 -9z"/>
<path d="M6795 1541 c-10 -32 -93 -110 -128 -121 -30 -9 -30 -9 13 -6 l45 4 2
-52 c1 -55 19 -102 48 -126 9 -7 13 -21 10 -31 -3 -10 1 -32 10 -50 l17 -31
14 28 c9 16 13 37 10 48 -3 12 5 31 20 49 14 16 28 43 31 58 3 16 10 26 16 22
6 -3 7 -1 3 6 -4 6 -9 27 -11 45 l-3 33 47 -3 c30 -2 37 -1 21 4 -39 11 -92
56 -120 101 -28 46 -36 49 -45 22z"/>
<path d="M4108 1413 c7 -3 16 -2 19 1 4 3 -2 6 -13 5 -11 0 -14 -3 -6 -6z"/>
<path d="M2143 1353 c0 -21 5 -41 11 -45 8 -5 7 -8 0 -8 -8 0 -11 -29 -9 -96
l2 -95 -38 -49 c-43 -55 -90 -92 -134 -108 -26 -10 -24 -10 20 -5 28 3 52 6
55 8 3 2 5 -27 5 -63 1 -71 23 -129 64 -166 16 -14 18 -23 10 -37 -7 -13 -6
-26 3 -41 7 -13 13 -30 13 -38 0 -8 7 -15 15 -15 8 0 15 7 15 15 0 8 6 19 13
23 14 10 16 53 2 62 -5 3 2 18 16 32 15 15 35 46 46 69 18 43 27 132 14 153
-4 6 -2 9 6 6 7 -2 33 -6 58 -9 l45 -4 -40 17 c-44 20 -130 101 -149 141 -8
16 -11 72 -10 158 1 120 -1 132 -17 132 -13 0 -17 -8 -16 -37z"/>
</g>
</svg>
